<svg width="48" height="48" viewBox="0 0 48 48" fill="none" xmlns="http://www.w3.org/2000/svg">
<path d="M23.7063 36.0165C23.7776 36.0014 23.8315 35.9863 23.899 36.0228C23.988 36.0709 24.0172 36.1473 24.0431 36.2386C24.0158 36.375 24.0092 36.3726 23.9084 36.456C23.8165 36.4701 23.7429 36.4878 23.6661 36.4188C23.6159 36.3737 23.5688 36.293 23.5747 36.2228C23.5837 36.1168 23.6366 36.0829 23.7063 36.0165Z" fill="#09AF8D"/>
<path d="M36.2443 29.9545C36.3427 29.9367 36.3827 29.9266 36.4764 29.9729C36.5234 30.028 36.5623 30.0793 36.5706 30.1542C36.5847 30.2823 36.5248 30.3311 36.4446 30.4145C36.3487 30.443 36.3291 30.4465 36.2319 30.4247C36.1421 30.3292 36.089 30.2877 36.107 30.1449C36.1189 30.0505 36.1797 30.0153 36.2443 29.9545Z" fill="#05886E"/>
<path d="M23.7704 11.1337L23.8592 11.1177C23.9197 11.1113 23.9804 11.1321 24.024 11.1754C24.0986 11.2494 24.1003 11.3541 24.1005 11.4511C24.0612 11.5505 24.0258 11.572 23.9401 11.6279L23.8448 11.6514C23.7827 11.6354 23.7425 11.6271 23.6963 11.5798C23.6328 11.5147 23.59 11.4527 23.6059 11.3559C23.6236 11.2476 23.6884 11.1973 23.7704 11.1337Z" fill="#0B666B"/>
<path d="M11.488 17.4496C11.5197 17.4353 11.5247 17.4312 11.5636 17.4243C11.6376 17.4114 11.7397 17.429 11.8002 17.4724C11.8628 17.5174 11.9017 17.5782 11.908 17.6559C11.9178 17.7785 11.8602 17.8275 11.7844 17.9094C11.7594 17.926 11.7519 17.9333 11.719 17.9413C11.6411 17.9601 11.5341 17.9427 11.4762 17.885C11.4248 17.8337 11.3873 17.7606 11.3827 17.6876C11.3754 17.5714 11.4129 17.5314 11.488 17.4496Z" fill="#09AF8D"/>
<path d="M36.2487 17.4496C36.3598 17.4247 36.4351 17.4189 36.5398 17.4647C36.6165 17.5609 36.6382 17.6084 36.621 17.7353C36.6075 17.8345 36.534 17.8714 36.4615 17.9257L36.4092 17.9393C36.2945 17.9591 36.2492 17.9261 36.1589 17.8664C36.1089 17.7821 36.0991 17.7348 36.0908 17.6401C36.1384 17.5228 36.1495 17.5168 36.2487 17.4496Z" fill="#09AF8D"/>
<path d="M11.526 29.9227L11.5685 29.917C11.6524 29.9161 11.7466 29.9489 11.799 30.0179C11.8631 30.1022 11.8585 30.1727 11.8554 30.2718C11.8104 30.3731 11.7804 30.4024 11.6885 30.4643C11.6269 30.4746 11.5848 30.4823 11.5228 30.4672C11.4579 30.4514 11.3824 30.3815 11.3528 30.3223C11.3195 30.2556 11.3111 30.1606 11.3394 30.0906C11.3783 29.9943 11.4397 29.9675 11.526 29.9227Z" fill="#09AF8D"/>
<path d="M17.4905 11.1337C17.5139 11.1279 17.537 11.1207 17.5618 11.1223C17.6748 11.1297 17.7113 11.1823 17.7887 11.2533C17.8198 11.3444 17.8363 11.4031 17.8045 11.4971C17.7685 11.6037 17.7036 11.6315 17.6058 11.6732L17.5438 11.6771C17.4518 11.6737 17.3637 11.6125 17.3125 11.5384C17.2609 11.4637 17.2557 11.3928 17.2869 11.3082C17.3231 11.21 17.4035 11.1756 17.4905 11.1337Z" fill="#09AF8D"/>
<path d="M30.0378 11.1019C30.0718 11.0883 30.0906 11.0788 30.1289 11.0733C30.2109 11.0616 30.302 11.099 30.3594 11.1567C30.4247 11.2226 30.4459 11.3286 30.4303 11.4193C30.4112 11.53 30.3389 11.5796 30.2556 11.6429C30.2152 11.6557 30.1819 11.6624 30.1392 11.6609C30.0366 11.6574 29.9827 11.6371 29.9204 11.5462C29.8778 11.4841 29.8686 11.4137 29.8767 11.3407C29.8901 11.2189 29.9466 11.1697 30.0378 11.1019Z" fill="#09AF8D"/>
<path d="M17.4518 35.8896C17.4799 35.8834 17.4989 35.8775 17.5294 35.8796C17.6057 35.8849 17.6675 35.9264 17.7137 35.9847C17.7638 36.0479 17.8069 36.1603 17.7912 36.242C17.7641 36.3826 17.7019 36.42 17.5897 36.4926C17.5578 36.4991 17.5297 36.5064 17.4963 36.5047C17.4174 36.5007 17.3296 36.452 17.2818 36.3882C17.2083 36.2901 17.2193 36.2125 17.2316 36.0959C17.2924 35.985 17.3363 35.9417 17.4518 35.8896Z" fill="#09AF8D"/>
<path d="M29.9913 35.9847L30.1609 35.9688C30.2502 35.9776 30.3437 36.0338 30.3919 36.1102C30.433 36.1751 30.4434 36.2697 30.4222 36.3433C30.386 36.4688 30.3084 36.5244 30.203 36.5878C30.1339 36.6033 30.073 36.6201 30.0016 36.6059C29.9142 36.5885 29.8549 36.5356 29.813 36.4596C29.7661 36.3743 29.751 36.2852 29.7814 36.1905C29.8163 36.0819 29.8951 36.0337 29.9913 35.9847Z" fill="#05886E"/>
<path d="M23.7739 23.5434C23.8296 23.5322 23.8662 23.5309 23.9234 23.5403C24.0007 23.5529 24.0656 23.5868 24.1111 23.6519C24.1789 23.749 24.202 23.865 24.1698 23.9829C24.1344 24.1127 24.0502 24.1815 23.9367 24.2416C23.8966 24.2493 23.8544 24.2593 23.8129 24.2548C23.7134 24.2437 23.6124 24.1684 23.559 24.0861C23.498 23.9919 23.4861 23.8776 23.5225 23.771C23.5674 23.6399 23.6554 23.5937 23.7739 23.5434Z" fill="#09AF8D"/>
<path d="M30.0097 29.7641C30.0456 29.7579 30.092 29.7471 30.1292 29.75C30.2333 29.7583 30.3226 29.8019 30.3875 29.8847C30.4837 30.0075 30.4752 30.1261 30.4571 30.2719C30.389 30.3801 30.3381 30.4175 30.2244 30.4743C30.1549 30.4795 30.0754 30.4894 30.007 30.4736C29.931 30.4561 29.8589 30.4039 29.8154 30.3397C29.7507 30.2443 29.734 30.0907 29.7722 29.9813C29.8102 29.8727 29.9121 29.8093 30.0097 29.7641Z" fill="#09AF8D"/>
<path d="M30.0053 23.5751C30.0855 23.557 30.1672 23.5358 30.2492 23.5543C30.3453 23.5759 30.4056 23.6328 30.4547 23.716C30.5082 23.8066 30.5197 23.9388 30.4843 24.0392C30.4402 24.1647 30.3704 24.2184 30.2543 24.2733C30.2184 24.2797 30.1662 24.2926 30.1285 24.2892C30.0004 24.2775 29.8932 24.1913 29.8245 24.0874C29.7771 24.0156 29.7535 23.9278 29.7741 23.8429C29.8073 23.7062 29.8931 23.6452 30.0053 23.5751Z" fill="#05886E"/>
<path d="M23.843 17.2274C23.8819 17.2291 23.9234 17.234 23.9605 17.2463C24.0444 17.274 24.1364 17.3521 24.1671 17.4373C24.2125 17.5633 24.222 17.6634 24.1527 17.7828C24.0876 17.8949 23.9954 17.9356 23.8765 17.971C23.8218 17.97 23.7723 17.9683 23.7195 17.9523C23.5955 17.9147 23.5368 17.8108 23.4794 17.7035C23.4719 17.5794 23.4677 17.4969 23.5447 17.3918C23.6285 17.2772 23.7088 17.247 23.843 17.2274Z" fill="#09AF8D"/>
<path d="M30.0472 17.2274C30.1114 17.2197 30.1605 17.2247 30.2236 17.2415C30.3035 17.2627 30.3992 17.3652 30.4315 17.4396C30.4726 17.5343 30.4585 17.6525 30.4168 17.745C30.3604 17.8704 30.252 17.9301 30.1284 17.9722C30.0642 17.9765 30.0003 17.9754 29.94 17.9491C29.8623 17.9153 29.7631 17.8163 29.7364 17.7344C29.7062 17.6418 29.7032 17.5415 29.7468 17.4523C29.8075 17.3279 29.9208 17.2647 30.0472 17.2274Z" fill="#09AF8D"/>
<path d="M23.6948 29.7641C23.7877 29.7343 23.8761 29.7491 23.9713 29.7577C24.0527 29.8064 24.1323 29.8531 24.1672 29.9469C24.202 30.0401 24.2053 30.1807 24.1624 30.2719C24.1138 30.3749 24.0324 30.4204 23.9324 30.4623L23.765 30.4778C23.6653 30.4744 23.5779 30.4168 23.5202 30.3382C23.4528 30.2464 23.4292 30.1435 23.4563 30.0318C23.4879 29.9014 23.5891 29.8339 23.6948 29.7641Z" fill="#09AF8D"/>
<path d="M17.4176 29.7323C17.4885 29.7141 17.5667 29.7054 17.6395 29.7195C17.7391 29.7388 17.8406 29.8191 17.8898 29.9068C17.943 30.0015 17.9553 30.139 17.9214 30.2431C17.8797 30.3712 17.8043 30.4309 17.6871 30.4883C17.6145 30.5146 17.497 30.5247 17.4224 30.5021C17.3435 30.4783 17.2688 30.3981 17.2243 30.3316C17.1628 30.2397 17.1341 30.108 17.17 29.999C17.2136 29.8663 17.2987 29.7964 17.4176 29.7323Z" fill="#09AF8D"/>
<path d="M17.3862 17.2591C17.453 17.241 17.5138 17.2382 17.5825 17.2416C17.7095 17.248 17.7848 17.2803 17.8654 17.3798C17.9395 17.4712 17.9535 17.5716 17.9364 17.6857C17.9112 17.8528 17.813 17.9178 17.681 18.0083C17.5656 18.0316 17.4858 18.0332 17.3704 18.0061C17.2914 17.9875 17.2158 17.8904 17.1749 17.8239C17.1249 17.7426 17.1149 17.6187 17.1407 17.526C17.1771 17.3952 17.2711 17.3191 17.3862 17.2591Z" fill="#09AF8D"/>
<path d="M17.3702 23.4799C17.4518 23.455 17.5391 23.4544 17.6236 23.4625C17.731 23.4728 17.8134 23.535 17.8775 23.6199C17.9468 23.7119 17.9708 23.8553 17.9451 23.9661C17.91 24.1176 17.8103 24.18 17.6886 24.2613C17.6194 24.2724 17.5345 24.2868 17.4649 24.2765C17.3543 24.2602 17.2554 24.17 17.1939 24.0816C17.1307 23.9907 17.1168 23.8791 17.1412 23.7722C17.1734 23.6318 17.2554 23.5579 17.3702 23.4799Z" fill="#09AF8D"/>
<path d="M45.2005 0.0851989C45.4332 0.06057 45.7042 0.0836113 45.9292 0.148992L45.9823 0.165052C46.2242 0.23659 46.4334 0.336566 46.6416 0.478373C47.1542 0.827748 47.4661 1.33099 47.5733 1.9384C47.6693 2.48201 47.5484 3.09012 47.2322 3.54423C46.8323 4.11825 46.2932 4.39418 45.6204 4.51555C45.4294 4.5179 45.2389 4.52393 45.0496 4.49511L44.9984 4.48679C44.6353 4.43119 44.2811 4.2678 43.9943 4.03922C43.5376 3.67524 43.1834 3.12382 43.1295 2.53254C43.0765 1.94976 43.2256 1.37282 43.5978 0.91744C44.0075 0.416165 44.5667 0.152865 45.2005 0.0851989Z" fill="#0B666B"/>
<path d="M2.01248 43.3389C2.53204 43.292 3.0502 43.3531 3.50539 43.62C3.98565 43.9016 4.3594 44.3961 4.4974 44.9354L4.50908 44.9825C4.59357 45.3119 4.61007 45.7439 4.51968 46.0729L4.50445 46.1251C4.44491 46.338 4.36296 46.5418 4.24413 46.7291C3.87558 47.3103 3.29776 47.6339 2.63474 47.7702C2.40394 47.8 2.13588 47.8088 1.90819 47.7556L1.86585 47.745C1.59601 47.6792 1.3534 47.5783 1.11867 47.4285C0.587369 47.0893 0.230123 46.5397 0.111358 45.9232C0.00344767 45.3629 0.142525 44.7946 0.455401 44.3255C0.821534 43.7764 1.3767 43.464 2.01248 43.3389Z" fill="#0B666B"/>
<path d="M2.00361 0.0510854C2.17188 0.0204897 2.40764 0.0335021 2.57744 0.0611779C2.92453 0.117736 3.24261 0.200065 3.53701 0.402365C4.03378 0.743678 4.40347 1.26044 4.50547 1.86214C4.60323 2.43869 4.49373 3.08241 4.14721 3.56134C3.75582 4.10229 3.18402 4.38216 2.53903 4.48264C1.98844 4.5192 1.46653 4.42494 1.00436 4.10978C0.497626 3.76421 0.143997 3.20549 0.0383087 2.60202C-0.0600165 2.04025 0.0829967 1.46725 0.415678 1.00374C0.82161 0.438229 1.3253 0.160963 2.00361 0.0510854Z" fill="#0B666B"/>
<path d="M45.2065 43.3134C45.7483 43.2641 46.2997 43.422 46.7274 43.7575C47.1953 44.1245 47.5172 44.7393 47.5878 45.326C47.6618 45.9413 47.4916 46.4947 47.1082 46.9792C46.7014 47.4934 46.1537 47.7577 45.5115 47.8265C45.3718 47.8363 45.2451 47.8374 45.1057 47.8202L45.0459 47.8125C44.6495 47.7632 44.2796 47.5994 43.9672 47.3494C43.4941 46.9709 43.1636 46.3679 43.106 45.7649C43.0492 45.1691 43.2551 44.5562 43.6328 44.0982C44.0337 43.6121 44.5907 43.3743 45.2065 43.3134Z" fill="#0B666B"/>
<path d="M39.0659 0.0503939C39.6212 -0.0102897 40.1753 0.0907018 40.6496 0.393803C41.1405 0.707504 41.5076 1.20929 41.6317 1.78077C41.7567 2.35675 41.6826 3.02059 41.3474 3.51647C40.9898 4.04555 40.4354 4.34928 39.8214 4.47636C39.2214 4.58567 38.6072 4.47668 38.101 4.13188C37.6063 3.79475 37.2618 3.25907 37.1587 2.66836C37.0564 2.08215 37.1811 1.47938 37.5224 0.9908C37.8981 0.45328 38.4255 0.163827 39.0659 0.0503939Z" fill="#36E3D6"/>
<path d="M2.17846 31.0297C2.33963 31.0172 2.49343 31.0234 2.65346 31.0456C3.27267 31.1314 3.8486 31.4781 4.21828 31.9809C4.5681 32.4567 4.70134 33.0823 4.6105 33.6639L4.60206 33.7154C4.545 34.0816 4.40173 34.4269 4.17137 34.7187C3.74227 35.2622 3.14718 35.5048 2.47648 35.5754C1.96816 35.6308 1.42436 35.4294 1.02033 35.1296C0.545274 34.7771 0.164921 34.2181 0.0868451 33.6233C0.00756282 33.0194 0.159653 32.4083 0.530547 31.9222C0.945874 31.3778 1.51272 31.118 2.17846 31.0297Z" fill="#E7834D"/>
<path d="M8.24839 43.2497C8.78127 43.234 9.28978 43.3804 9.714 43.7065C10.1857 44.0691 10.5229 44.5869 10.5966 45.1847C10.6758 45.8267 10.5343 46.4781 10.1237 46.9872C9.69946 47.5134 9.15159 47.7415 8.49582 47.8155C7.92796 47.8162 7.45582 47.7311 6.99504 47.3788C6.47904 46.9842 6.13138 46.4183 6.06149 45.768C6.00043 45.1992 6.16064 44.553 6.53287 44.1088C6.98501 43.569 7.55694 43.3119 8.24839 43.2497Z" fill="#36E3D6"/>
<path d="M45.1475 12.1728C45.7122 12.1092 46.2606 12.2696 46.7181 12.5986C47.2356 12.9707 47.5798 13.5214 47.6747 14.1509C47.7654 14.7525 47.5899 15.3631 47.2344 15.8531C46.8429 16.3926 46.3012 16.6541 45.6555 16.7577C45.3652 16.7714 45.0877 16.7682 44.8042 16.6897C44.2288 16.5302 43.7297 16.1542 43.4325 15.6331C43.1447 15.1285 43.0057 14.4667 43.1695 13.8993L43.1852 13.8473C43.2588 13.6 43.3671 13.3781 43.5118 13.165C43.911 12.5768 44.4711 12.304 45.1475 12.1728Z" fill="#E7834D"/>
<path d="M26.6549 0.0212037C26.9373 0.0062232 27.1949 0.015301 27.4711 0.0835383C28.0638 0.230042 28.5597 0.627532 28.8712 1.14747C29.1579 1.62596 29.2649 2.26701 29.1164 2.81011L29.1002 2.86591C29.0346 3.09944 28.9395 3.31323 28.8031 3.51413C28.4048 4.10091 27.8194 4.41766 27.1333 4.55001C26.5085 4.57108 25.9495 4.46457 25.4438 4.07857C24.935 3.69028 24.6207 3.15625 24.5385 2.51869C24.4664 1.9606 24.6586 1.36005 25.001 0.919906C25.412 0.39159 25.9999 0.104802 26.6549 0.0212037Z" fill="#3FCE79"/>
<path d="M33.1749 0.022504C33.7473 -0.0165341 34.3076 0.161836 34.7613 0.510259C35.2237 0.86522 35.538 1.40629 35.6065 1.98685C35.6741 2.56081 35.4985 3.19551 35.1431 3.65089C34.6961 4.22358 34.1324 4.45781 33.4299 4.54528C32.7864 4.56343 32.2303 4.35923 31.7376 3.94631C31.2642 3.54958 31.0048 3.00768 30.9532 2.3957C30.9094 1.8757 31.1105 1.24779 31.4499 0.850113C31.9128 0.307642 32.4824 0.0820451 33.1749 0.022504Z" fill="#36E3D6"/>
<path d="M33.0042 43.2763C33.3023 43.2466 33.6398 43.2339 33.9304 43.314L33.9851 43.3299C34.5558 43.4887 35.0184 43.8065 35.3326 44.3153C35.6466 44.8238 35.777 45.5206 35.6239 46.1037L35.6091 46.1569C35.5514 46.3762 35.4737 46.5794 35.3526 46.7723C34.9761 47.372 34.4253 47.6819 33.7493 47.8331C33.4603 47.861 33.1481 47.8731 32.866 47.7955L32.8108 47.7795C32.2289 47.6154 31.7034 47.1969 31.4017 46.6734C31.1108 46.1688 31.0116 45.5058 31.1726 44.9413L31.1886 44.8874C31.256 44.655 31.3483 44.4356 31.4826 44.2335C31.8414 43.6933 32.3787 43.3973 33.0042 43.2763Z" fill="#36E3D6"/>
<path d="M45.0464 37.3085C45.3319 37.2776 45.6503 37.2672 45.9286 37.3452L45.9818 37.3607C46.2017 37.4202 46.4041 37.4916 46.5971 37.6157C47.0976 37.9374 47.4959 38.4462 47.6175 39.0368C47.7479 39.6704 47.6513 40.3091 47.2933 40.8539C46.9207 41.4212 46.3739 41.729 45.7192 41.864C45.4552 41.8875 45.1601 41.8893 44.9015 41.8288C44.3409 41.6974 43.9131 41.4685 43.5546 41.0049C43.1793 40.5196 43.027 39.8986 43.1134 39.2934L43.1218 39.2379C43.1715 38.8983 43.2853 38.574 43.4755 38.2869C43.8538 37.7157 44.39 37.4398 45.0464 37.3085Z" fill="#A32D84"/>
<path d="M26.6782 43.2808C27.2351 43.2463 27.7502 43.3768 28.2113 43.6901C28.7168 44.0337 29.0546 44.5591 29.1666 45.1591C29.272 45.7235 29.1363 46.3661 28.8107 46.839C28.3998 47.4359 27.8547 47.7067 27.1565 47.839C26.5128 47.8641 26.0057 47.7601 25.4858 47.3664C25.0126 47.0079 24.6624 46.4545 24.5898 45.8598C24.5115 45.2188 24.6556 44.6161 25.0625 44.1078C25.4587 43.6128 26.0611 43.3507 26.6782 43.2808Z" fill="#3FCE79"/>
<path d="M20.6067 0.0221728C20.8399 0.0040185 21.0938 0.0352495 21.3211 0.0864117C21.9196 0.220982 22.4359 0.583306 22.7597 1.1042C23.0489 1.56948 23.1539 2.23941 23.0206 2.77325L23.0051 2.83406C22.9293 3.1416 22.8025 3.41392 22.6135 3.66827C22.2037 4.21969 21.6319 4.45538 20.9692 4.55161C20.3425 4.5511 19.8224 4.46281 19.3091 4.0803C18.8036 3.70356 18.4907 3.14795 18.4115 2.52582C18.3364 1.93644 18.513 1.35448 18.8866 0.895421C19.345 0.33232 19.896 0.090918 20.6067 0.0221728Z" fill="#3FCE79"/>
<path d="M45.1732 18.4552C45.4084 18.4391 45.6687 18.4328 45.8975 18.4949L45.9499 18.5099C46.1981 18.5791 46.4291 18.6725 46.6464 18.8124C47.1831 19.158 47.5562 19.7366 47.6877 20.3575C47.8142 20.9548 47.6824 21.5601 47.3493 22.0675C46.9757 22.6366 46.4097 22.9563 45.7532 23.0876C45.1929 23.1565 44.6383 23.048 44.1595 22.7426C43.6504 22.418 43.2955 21.8432 43.1673 21.2607C43.037 20.6689 43.1714 20.0011 43.505 19.4961C43.8981 18.9009 44.486 18.5846 45.1732 18.4552Z" fill="#E7834D"/>
<path d="M2.00747 12.1714C2.58651 12.1264 3.0994 12.1923 3.5975 12.5125C4.11096 12.8425 4.47087 13.3592 4.59338 13.9572C4.72014 14.576 4.59897 15.2752 4.23956 15.7993C3.88156 16.3214 3.36016 16.643 2.74818 16.769C2.49516 16.8137 2.21396 16.8122 1.96152 16.7654C1.36128 16.6542 0.798307 16.3196 0.45147 15.8114C0.126597 15.3354 -0.0778617 14.6918 0.0428708 14.1143L0.0530912 14.0695C0.121075 13.762 0.226319 13.4752 0.404244 13.2127C0.797418 12.6326 1.32999 12.3087 2.00747 12.1714Z" fill="#E7834D"/>
<path d="M7.91344 0.0164156C8.47939 -0.0347466 8.99793 0.0242236 9.4914 0.32853C10.0195 0.654165 10.4422 1.18781 10.5731 1.80182C10.6962 2.37921 10.5732 3.04882 10.2558 3.54679C9.90349 4.09948 9.37962 4.4043 8.7498 4.53982L8.72613 4.54369C8.08831 4.65294 7.49874 4.55639 6.95684 4.1987C6.43253 3.85262 6.11838 3.35389 5.99993 2.73988C5.88631 2.15101 6.01072 1.5019 6.35356 1.00887C6.72617 0.473067 7.27454 0.128706 7.91344 0.0164156Z" fill="#36E3D6"/>
<path d="M45.2503 24.7137C45.3628 24.7046 45.4718 24.7012 45.5842 24.7109C46.2159 24.7648 46.8054 25.0815 47.2069 25.5716C47.5689 26.0137 47.7712 26.6393 47.7122 27.2085L47.7053 27.2726C47.6659 27.6628 47.5352 28.028 47.3102 28.3503C46.8981 28.9404 46.3212 29.2427 45.6275 29.3666C45.0564 29.3761 44.5548 29.2934 44.078 28.9557C43.5693 28.5954 43.2291 28.0683 43.1324 27.4514C43.0356 26.8342 43.1726 26.1396 43.562 25.6405C43.9902 25.0916 44.5628 24.7932 45.2503 24.7137Z" fill="#E7834D"/>
<path d="M14.075 0.0201602C14.6711 -0.0317002 15.191 0.0492962 15.6948 0.398735C16.1956 0.745952 16.5688 1.25415 16.6757 1.86143C16.7817 2.46382 16.6551 3.11312 16.2943 3.61179C15.9022 4.15369 15.3349 4.45844 14.686 4.56781C14.0752 4.62977 13.5104 4.51494 13.0067 4.15452C12.5012 3.79277 12.1376 3.268 12.039 2.64815C11.9417 2.03656 12.0982 1.43163 12.465 0.936382C12.8602 0.402671 13.427 0.114106 14.075 0.0201602Z" fill="#36E3D6"/>
<path d="M45.1176 31.0278C45.6232 30.9491 46.197 31.0981 46.6244 31.3695C47.1633 31.7117 47.5006 32.2625 47.6437 32.8744L47.6713 32.9898C47.7833 33.5337 47.626 34.192 47.3156 34.6499C46.9208 35.2324 46.4009 35.5273 45.7206 35.6567C45.1785 35.7244 44.6448 35.6449 44.1801 35.3471C43.6459 35.0046 43.2579 34.4506 43.1317 33.8266C43.0066 33.2076 43.1278 32.5269 43.4924 32.0078C43.8908 31.4403 44.4498 31.1463 45.1176 31.0278Z" fill="#E7834D"/>
<path d="M20.476 43.213C21.0084 43.1663 21.5698 43.2356 22.0355 43.514C22.5656 43.8309 22.9463 44.3467 23.0904 44.9472C23.234 45.5455 23.1484 46.1927 22.8216 46.7178C22.4497 47.3155 21.9243 47.642 21.2498 47.7959C20.6708 47.8865 20.0926 47.8084 19.5913 47.4881C19.0502 47.1424 18.6817 46.5808 18.5524 45.9556C18.431 45.3682 18.5554 44.7116 18.8884 44.2104C19.2554 43.6579 19.8379 43.3383 20.476 43.213Z" fill="#3FCE79"/>
<path d="M14.2747 43.2175C14.8185 43.2345 15.2934 43.354 15.7417 43.6757C16.2535 44.043 16.6053 44.5631 16.6952 45.1963C16.7783 45.782 16.6379 46.4162 16.2775 46.8881C15.8183 47.4892 15.2235 47.7386 14.4919 47.8359C13.9049 47.8518 13.3562 47.7023 12.894 47.3294C12.3924 46.9248 12.1043 46.3661 12.041 45.7273C11.9799 45.1097 12.1581 44.4862 12.557 44.0087C12.9966 43.4827 13.6131 43.2747 14.2747 43.2175Z" fill="#36E3D6"/>
<path d="M2.14464 24.7137C2.39189 24.6995 2.62199 24.7059 2.86504 24.7636C3.4774 24.9088 3.98972 25.2718 4.31561 25.8109C4.62874 26.329 4.77067 27.0358 4.6135 27.6279L4.59751 27.6852C4.52324 27.9642 4.40949 28.2119 4.24083 28.4469C3.82887 29.0209 3.27059 29.2837 2.58866 29.3979C1.97516 29.4143 1.45326 29.2922 0.959091 28.9099C0.488349 28.5458 0.133324 27.9854 0.0589298 27.3903C-0.0209238 26.7516 0.126977 26.1003 0.531767 25.5906C0.942017 25.0738 1.49541 24.7935 2.14464 24.7137Z" fill="#E7834D"/>
<path d="M45.051 5.95262C45.3522 5.92272 45.6743 5.92564 45.9666 6.0088C46.5787 6.18304 47.0966 6.59164 47.4015 7.15169C47.6915 7.68458 47.7656 8.38885 47.5919 8.97239L47.5763 9.02311C47.5138 9.22998 47.4365 9.41889 47.3177 9.60024C46.9538 10.1557 46.4317 10.4675 45.7892 10.602C45.4682 10.6391 45.1444 10.6472 44.8291 10.5639L44.7764 10.5493C44.5664 10.4926 44.3735 10.4124 44.188 10.2984C43.6294 9.95507 43.2756 9.39883 43.1141 8.77339L43.0863 8.66644C42.9604 8.09096 43.1405 7.40827 43.466 6.92756C43.8516 6.35817 44.3826 6.07735 45.051 5.95262Z" fill="#A32D84"/>
<path d="M7.93512 31.0279C8.1364 31.0012 8.3891 30.9991 8.58931 31.0372C8.93951 31.104 9.25473 31.2103 9.55002 31.4152C10.0462 31.7596 10.4348 32.2924 10.5369 32.8958C10.6396 33.5023 10.5439 34.138 10.1802 34.6445C9.77511 35.2085 9.24686 35.5003 8.57045 35.6178C7.95536 35.6803 7.37589 35.5662 6.86547 35.202C6.34236 34.8287 5.99838 34.2964 5.89828 33.6589C5.80408 33.0594 5.96779 32.4298 6.32535 31.9408C6.71821 31.4035 7.29102 31.1317 7.93512 31.0279Z" fill="#3FCE79"/>
<path d="M2.16424 37.1231C2.72442 37.0853 3.26759 37.2369 3.71725 37.5787C4.23008 37.9684 4.54569 38.5581 4.62637 39.1931C4.70869 39.8412 4.53718 40.4753 4.13061 40.9863C3.72265 41.499 3.14774 41.7501 2.51145 41.8247C1.95921 41.8627 1.46155 41.7429 1.01074 41.408C0.531999 41.0521 0.15609 40.5133 0.0697618 39.9147C-0.0254531 39.2545 0.0870277 38.5557 0.502101 38.0156C0.925808 37.4643 1.48377 37.2042 2.16424 37.1231Z" fill="#A32D84"/>
<path d="M39.2069 43.25C39.7406 43.2127 40.2435 43.3548 40.6857 43.6517C41.1929 43.9923 41.5663 44.5596 41.6775 45.1618C41.7978 45.8136 41.6395 46.418 41.2636 46.9542C40.8726 47.5121 40.2946 47.7611 39.6412 47.8706C39.4047 47.8826 39.1522 47.8908 38.918 47.8516L38.8723 47.8434C38.5453 47.7874 38.2279 47.6548 37.9678 47.4466C37.4629 47.0426 37.0939 46.4704 37.0292 45.8183C36.9697 45.2184 37.1195 44.5537 37.5117 44.0834C37.9502 43.5575 38.5371 43.3096 39.2069 43.25Z" fill="#36E3D6"/>
<path d="M2.09777 18.4279C2.2717 18.395 2.51862 18.4045 2.69413 18.436L2.73838 18.4443C3.30986 18.5391 3.79425 18.8383 4.1553 19.2903C4.58218 19.8247 4.73541 20.4243 4.6614 21.0995C4.62287 21.4505 4.48062 21.8088 4.28238 22.1009C3.87892 22.6954 3.3482 23.0015 2.65287 23.1288C2.04439 23.1861 1.44796 23.035 0.951193 22.6738C0.458678 22.3156 0.134376 21.7598 0.0418273 21.159C-0.0594178 20.502 0.115841 19.8641 0.511935 19.3369C0.904157 18.8148 1.45723 18.5179 2.09777 18.4279Z" fill="#E7834D"/>
<path d="M2.1602 5.89248C2.68382 5.85598 3.1896 6.00135 3.61902 6.30254C4.15641 6.67953 4.51029 7.25399 4.61408 7.90076C4.71526 8.53121 4.58583 9.18578 4.20465 9.7054C3.78374 10.2791 3.23016 10.5336 2.53973 10.6388C2.3067 10.6511 2.05813 10.6579 1.83095 10.599L1.77052 10.5829C1.19066 10.4333 0.681194 10.083 0.371238 9.56403C0.0482053 9.02328 -0.0963303 8.33227 0.0687088 7.71306L0.0841973 7.65828C0.173318 7.33156 0.305096 7.03163 0.513617 6.76345C0.925453 6.23392 1.50664 5.97088 2.1602 5.89248Z" fill="#A32D84"/>
<path d="M8.1306 37.0927C8.63016 37.0596 9.16723 37.2181 9.57615 37.5035C10.1294 37.8897 10.493 38.4787 10.5996 39.145C10.7005 39.7762 10.5405 40.4042 10.1692 40.9203C9.74176 41.5146 9.17949 41.7596 8.47642 41.8707C7.84648 41.8819 7.26262 41.7471 6.76515 41.3385C6.27848 40.9388 5.96351 40.3596 5.90612 39.7299C5.84899 39.1027 6.0221 38.4285 6.43393 37.9435C6.86722 37.4332 7.47146 37.1454 8.1306 37.0927Z" fill="#36E3D6"/>
<path d="M39.114 5.92135C39.3712 5.89335 39.6359 5.89024 39.8894 5.94744C40.5415 6.0947 41.1097 6.43716 41.4669 7.01518C41.7908 7.53924 41.9272 8.16791 41.7791 8.77551L41.7644 8.8327C41.6905 9.1306 41.5718 9.40444 41.3973 9.65752C40.9992 10.2349 40.448 10.5166 39.7681 10.638C39.474 10.662 39.152 10.6764 38.8648 10.6L38.8089 10.5843C38.5414 10.511 38.2942 10.403 38.0671 10.2431C37.5421 9.87359 37.1695 9.28383 37.0654 8.64919C36.9652 8.0388 37.1079 7.39312 37.4701 6.88924C37.8769 6.32341 38.4378 6.0358 39.114 5.92135Z" fill="#36E3D6"/>
<path d="M39.1146 12.08C39.3181 12.0484 39.5676 12.057 39.7713 12.0873L39.8252 12.0958C40.1658 12.1461 40.4618 12.2656 40.7562 12.4439C41.2807 12.7616 41.6489 13.2894 41.7917 13.8827L41.8051 13.9398L41.8297 14.0441C41.9424 14.605 41.7947 15.258 41.4836 15.7336C41.0963 16.3258 40.5221 16.6229 39.8497 16.7688C39.2642 16.8561 38.6575 16.7902 38.1524 16.4597C37.5895 16.0912 37.1908 15.4271 37.0656 14.7741C36.9563 14.204 37.1144 13.5566 37.4484 13.0862C37.8483 12.5228 38.4388 12.1883 39.1146 12.08Z" fill="#3FCE79"/>
<path d="M7.91097 12.143C8.12533 12.1114 8.39758 12.1158 8.61156 12.1533L8.75451 12.1776C9.33221 12.2814 9.9254 12.6651 10.2534 13.1523L10.2865 13.2028C10.4485 13.4472 10.5734 13.7171 10.6286 14.0066C10.7509 14.6487 10.6495 15.3254 10.2701 15.8696L10.2411 15.9103C9.82663 16.5007 9.3126 16.7985 8.60858 16.9256C7.95267 16.9963 7.32718 16.8695 6.78477 16.4795C6.26464 16.1055 5.9604 15.5102 5.85693 14.8878C5.75581 14.2796 5.92548 13.5636 6.29416 13.0683C6.68752 12.5398 7.27182 12.2437 7.91097 12.143Z" fill="#0B666B"/>
<path d="M39.1293 37.1217C39.4172 37.0907 39.7036 37.1004 39.9837 37.1736C40.292 37.254 40.5595 37.3769 40.8202 37.5587C41.3462 37.9256 41.7227 38.4875 41.8291 39.1212C41.9388 39.7743 41.8166 40.4385 41.4218 40.976C41.0118 41.5345 40.4369 41.8676 39.7569 41.9709C39.1379 42.0319 38.5251 41.9259 38.0047 41.5699C37.4849 41.2142 37.1409 40.6993 37.0314 40.0766C36.9101 39.3874 37.0233 38.6889 37.4316 38.1115C37.85 37.52 38.43 37.2398 39.1293 37.1217Z" fill="#36E3D6"/>
<path d="M39.2272 18.3655C39.4132 18.3244 39.6938 18.345 39.8834 18.3742L39.9355 18.3829C40.2818 18.4379 40.6037 18.5653 40.8922 18.7649L40.9353 18.7952L40.9729 18.8209C41.4812 19.1777 41.8409 19.7832 41.9468 20.391L41.9565 20.4489C42.0018 20.7102 41.9983 20.9886 41.9448 21.2486C41.8168 21.8703 41.4665 22.4638 40.9249 22.8132L40.8823 22.8401C40.5502 23.0559 40.2205 23.1689 39.8317 23.2379C39.2213 23.2869 38.6032 23.206 38.1079 22.8174L38.0633 22.7816C37.8517 22.6142 37.6313 22.4053 37.4856 22.1769L37.4599 22.1352C37.139 21.6222 36.9792 21.0038 37.0815 20.4004C37.1476 20.0108 37.2749 19.6476 37.5194 19.333C37.9412 18.79 38.5485 18.4509 39.2272 18.3655Z" fill="#0B666B"/>
<path d="M7.8811 5.82381C8.16592 5.79766 8.48685 5.78211 8.76405 5.85993L8.81642 5.87542C9.10226 5.95623 9.35788 6.06509 9.60252 6.23381C10.1526 6.61308 10.5137 7.21268 10.6313 7.86706C10.7485 8.51897 10.6082 9.20261 10.2299 9.74546C9.82627 10.3247 9.24521 10.6058 8.56734 10.7234C8.3394 10.7529 8.0747 10.7578 7.84745 10.7212L7.8008 10.7131C7.45777 10.656 7.15543 10.5347 6.86604 10.3424C6.30053 9.96649 5.94785 9.37203 5.81982 8.71124C5.69839 8.0846 5.86336 7.39251 6.22194 6.86978C6.61867 6.29157 7.2005 5.95204 7.8811 5.82381Z" fill="#36E3D6"/>
<path d="M39.0339 30.8672C39.2952 30.8403 39.5788 30.8346 39.8388 30.8767C40.1991 30.9351 40.5323 31.0305 40.8414 31.2313C41.3969 31.5924 41.7604 32.2131 41.8959 32.8536C42.0335 33.5038 41.8835 34.1495 41.5254 34.6997C41.1488 35.2783 40.573 35.6006 39.9101 35.7408C39.6185 35.791 39.3073 35.7931 39.0154 35.7431C38.4229 35.6416 37.841 35.2899 37.4991 34.7907L37.4655 34.741C37.2428 34.4177 37.1203 34.0722 37.0504 33.6893C37.008 33.4569 37.0059 33.1663 37.0487 32.9334C37.1616 32.3192 37.4282 31.7585 37.9242 31.363L37.968 31.3285C38.2914 31.0701 38.6271 30.9403 39.0339 30.8672Z" fill="#0B666B"/>
<path d="M7.92693 18.334C8.27301 18.2757 8.7327 18.3392 9.06246 18.4614L9.10195 18.4763C9.29777 18.5476 9.4856 18.6419 9.65591 18.763C10.2189 19.1634 10.5549 19.7341 10.6706 20.4146C10.7765 21.0365 10.6005 21.7291 10.2314 22.2373C9.8179 22.8066 9.24674 23.1374 8.55484 23.2489C8.3309 23.2754 8.11495 23.2736 7.89119 23.2453C7.25325 23.1643 6.6574 22.8315 6.26733 22.3174C5.88444 21.8127 5.66831 21.1555 5.75717 20.5204C5.81932 20.0759 5.93884 19.6684 6.21503 19.3064C6.64464 18.7431 7.22844 18.4237 7.92693 18.334Z" fill="#0B666B"/>
<path d="M8.16323 24.62C8.39448 24.6064 8.67828 24.6437 8.89721 24.7131C9.13188 24.7874 9.34548 24.8724 9.55375 25.0057C10.1363 25.3784 10.4851 25.9281 10.6408 26.5918C10.6605 26.6758 10.6808 26.7578 10.6874 26.8442C10.7385 27.5203 10.5681 28.2042 10.1104 28.7177C9.61272 29.2761 9.04581 29.5283 8.3011 29.5678C8.10915 29.5662 7.92551 29.5577 7.73661 29.5209C7.08184 29.393 6.49246 28.9943 6.12798 28.4373C5.82126 27.9687 5.63763 27.2429 5.75601 26.6855C5.84856 26.2496 6.01461 25.8503 6.31029 25.5105C6.81302 24.933 7.41249 24.6762 8.16323 24.62Z" fill="#0B666B"/>
<path d="M39.3715 24.5562C39.5629 24.5394 39.7756 24.5537 39.9643 24.59C40.5814 24.7086 41.1777 25.0492 41.5319 25.579L41.5631 25.627C41.7553 25.9167 41.9004 26.2617 41.9544 26.6062L41.9639 26.6678L41.9785 26.7625C42.0501 27.3869 41.8772 28.0597 41.4889 28.5572C41.0453 29.1254 40.4206 29.4196 39.7162 29.502C39.1616 29.557 38.5782 29.4256 38.12 29.1029L38.0816 29.0755C37.5861 28.731 37.2225 28.2117 37.0957 27.6177L37.0837 27.5601L37.0388 27.3044C36.9758 26.6145 37.1737 25.9502 37.6145 25.4187C38.0593 24.8823 38.6941 24.6227 39.3715 24.5562Z" fill="#0B666B"/>
<path d="M13.9917 5.76178C14.2192 5.73855 14.4606 5.7395 14.6881 5.76109C15.2601 5.81536 15.9193 6.17584 16.2843 6.61777L16.3197 6.66156C16.6234 7.03113 16.7954 7.44569 16.8716 7.9165C16.9842 8.61137 16.8106 9.23668 16.4004 9.80353C16.0252 10.3219 15.4643 10.612 14.8404 10.7078C14.5921 10.7503 14.3131 10.7497 14.0623 10.725C13.4596 10.6655 12.8474 10.413 12.4572 9.93258L12.4239 9.89075C12.1742 9.58085 12.013 9.22894 11.9288 8.84015C11.7738 8.12432 11.8927 7.42563 12.2971 6.80972C12.6889 6.21285 13.3163 5.90689 13.9917 5.76178Z" fill="#0B666B"/>
<path d="M14.145 36.9311C14.7539 36.839 15.441 37.0148 15.945 37.3639L15.9894 37.3951C16.4293 37.7007 16.6763 38.0772 16.7953 38.5978C16.8781 38.9595 16.8733 39.3464 16.8638 39.7159C16.8562 40.0134 16.8527 40.2928 16.7537 40.577C16.567 41.113 16.111 41.4843 15.617 41.724C15.2806 41.8873 14.9511 41.9519 14.5817 41.9864C14.0808 42.0355 13.5503 41.8789 13.1232 41.6227C12.5303 41.267 12.1168 40.7018 11.9475 40.0333C11.8593 39.6852 11.84 39.3198 11.9131 38.9662C12.0446 38.3296 12.4358 37.7255 12.989 37.3749C13.3775 37.1288 13.6922 37.0056 14.145 36.9311Z" fill="#0B666B"/>
<path d="M33.0949 37.0597C33.2807 37.0232 33.5393 37.0378 33.7277 37.0657C34.17 37.1314 34.5817 37.2527 34.9442 37.528C35.5006 37.9504 35.8905 38.5465 35.9798 39.2494C36.0602 39.882 35.8621 40.599 35.4615 41.0975C34.9963 41.6763 34.342 41.9711 33.6175 42.0506C33.4762 42.0918 33.2049 42.0653 33.0559 42.0452L33.001 42.0373L32.882 42.0208C32.238 41.921 31.5718 41.5383 31.1942 40.9994C30.8197 40.4648 30.678 39.7713 30.7968 39.1337C30.9134 38.5076 31.2603 37.8909 31.8024 37.5361C32.2207 37.2624 32.5992 37.124 33.0949 37.0597Z" fill="#0B666B"/>
<path d="M26.5968 5.70005C27.2597 5.63816 27.8547 5.71947 28.4181 6.09214C28.9723 6.45878 29.4004 7.09755 29.5217 7.75148C29.6509 8.44738 29.5114 9.16726 29.0984 9.74535C28.6741 10.3394 28.1224 10.6136 27.4158 10.7304C27.0443 10.7607 26.6623 10.7838 26.297 10.6914L26.2408 10.6764C25.9738 10.6078 25.7239 10.5022 25.495 10.3472C24.9729 9.99379 24.5337 9.35071 24.4176 8.72782C24.2891 8.03852 24.4634 7.31756 24.8696 6.75116C25.2889 6.16666 25.8921 5.81875 26.5968 5.70005Z" fill="#F685BD"/>
<path d="M20.43 5.67074C21.0644 5.63367 21.6947 5.77966 22.2125 6.16008C22.7686 6.56868 23.1439 7.1832 23.2423 7.86843C23.3387 8.53969 23.1297 9.27913 22.7215 9.81779C22.2681 10.4163 21.6646 10.6671 20.9404 10.7701C20.6582 10.7784 20.34 10.792 20.0649 10.723L20.0039 10.7073C19.425 10.5653 18.9213 10.2519 18.5501 9.77964C18.1185 9.23044 17.9653 8.56591 18.0495 7.88049C18.1024 7.45037 18.2828 7.01219 18.5512 6.67075C19.0095 6.08759 19.7027 5.7537 20.43 5.67074Z" fill="#F685BD"/>
<path d="M26.613 37.0259C26.9091 36.9954 27.2005 36.9982 27.4925 37.0605C28.1829 37.2077 28.7947 37.6345 29.1689 38.2331C29.504 38.7693 29.653 39.4796 29.4979 40.1006C29.4171 40.4241 29.313 40.7202 29.1253 40.9996C28.68 41.6624 28.0312 42.0078 27.2636 42.1538C26.6592 42.217 26.0927 42.1043 25.5704 41.7892C24.9837 41.4354 24.5609 40.866 24.3998 40.1981L24.3869 40.1425C24.321 39.869 24.3141 39.5696 24.3575 39.2912C24.4259 38.8529 24.5568 38.4603 24.8148 38.095C25.2518 37.4762 25.8807 37.1535 26.613 37.0259Z" fill="#F685BD"/>
<path d="M32.9291 5.66829C33.1702 5.64411 33.449 5.63319 33.6879 5.67756C33.9182 5.72035 34.1315 5.77278 34.346 5.87028C34.9763 6.15681 35.4782 6.66189 35.7245 7.3117L35.7431 7.3616C35.7994 7.51045 35.8399 7.65264 35.8708 7.80892C35.999 8.45688 35.8821 9.12669 35.502 9.67367C35.0738 10.29 34.5078 10.6629 33.7677 10.7928C33.5047 10.8458 33.1885 10.8557 32.9229 10.8155C32.6987 10.7817 32.4955 10.7488 32.2868 10.6564C31.6403 10.3701 31.1269 9.86956 30.8769 9.19982L30.8623 9.15989C30.6844 8.68337 30.6548 8.20539 30.756 7.70786C30.8887 7.05539 31.2783 6.44004 31.8451 6.07981L31.8841 6.0555C32.2133 5.84584 32.5416 5.72428 32.9291 5.66829Z" fill="#0B666B"/>
<path d="M20.355 36.9337C21.0869 36.9044 21.7203 36.9869 22.3401 37.4032C22.8106 37.7193 23.1476 38.1688 23.256 38.733C23.4094 39.5313 23.3777 40.4863 22.9091 41.174C22.4873 41.7928 21.8681 42.1253 21.1478 42.2617C20.467 42.3638 19.7207 42.2341 19.1464 41.8483C18.6823 41.5365 18.2768 41.0158 18.1739 40.4556L18.1637 40.3974L18.1291 40.1867C18.1066 39.9772 18.1148 39.7582 18.1145 39.5475C18.1137 38.8832 18.1638 38.2918 18.6051 37.76C19.0521 37.2212 19.6769 36.9991 20.355 36.9337Z" fill="#F685BD"/>
<path d="M13.6659 30.5237L14.8307 30.5082C15.1373 30.5062 15.4762 30.4782 15.7739 30.5564L15.8309 30.5724C16.2083 30.6741 16.5378 30.8688 16.7868 31.1749C16.9522 31.3781 17.0721 31.6284 17.1294 31.8841C17.2329 32.3463 17.1908 32.8933 17.193 33.3655C17.1948 33.742 17.2256 34.1465 17.1757 34.5197L17.168 34.5724C17.119 34.9231 16.9701 35.2521 16.7355 35.5188C16.3363 35.9729 15.8506 36.0615 15.2822 36.0898L14.0349 36.0969C13.7132 36.0981 13.3834 36.1174 13.0697 36.0323C12.6049 35.9062 12.1714 35.5832 11.9359 35.1612C11.835 34.9806 11.7538 34.784 11.7199 34.5791C11.6395 34.0935 11.6836 33.5424 11.6869 33.0491C11.6892 32.6983 11.6471 32.2603 11.7465 31.9244L11.7621 31.8747C11.8431 31.5975 11.9419 31.3556 12.1401 31.1394C12.5743 30.6655 13.0461 30.5514 13.6659 30.5237Z" fill="#36E3D6"/>
<path d="M32.3179 30.5547L33.5166 30.5423C34.1447 30.5417 34.8387 30.4837 35.3797 30.8662C35.7764 31.1467 36.0002 31.5492 36.065 32.0278C36.1119 32.3751 36.0904 32.75 36.0951 33.1021C36.1019 33.6179 36.167 34.2105 36.0518 34.7123C35.9958 34.956 35.8823 35.178 35.7315 35.3764C35.3874 35.8294 34.9699 36.02 34.4173 36.0929L32.8587 36.097C32.5785 36.0971 32.2639 36.1243 31.9881 36.0734C31.7079 36.0217 31.415 35.8835 31.1932 35.7047C30.8514 35.4291 30.5873 34.9767 30.5525 34.5353C30.5214 34.1384 30.5468 33.7191 30.5485 33.3198C30.5506 32.8373 30.5065 32.3023 30.6153 31.833C30.6754 31.5732 30.7845 31.3495 30.9602 31.1466C31.3227 30.728 31.7818 30.59 32.3179 30.5547Z" fill="#36E3D6"/>
<path d="M13.6253 17.9248L14.8278 17.9179C15.18 17.9177 15.5754 17.8949 15.9164 17.9884L15.9734 18.0045C16.3319 18.1038 16.6347 18.2943 16.8596 18.5949C17.0111 18.7975 17.1088 19.0269 17.1568 19.2746C17.253 19.7705 17.1979 20.3638 17.1981 20.8715C17.1983 21.2704 17.2383 21.7249 17.1757 22.1159L17.1676 22.1628C17.1163 22.4846 16.954 22.7937 16.727 23.0273C16.3267 23.439 15.8656 23.5132 15.3207 23.5257L14.0661 23.5271C13.6074 23.5266 13.0872 23.5589 12.673 23.3304C12.2056 23.0727 11.8754 22.6412 11.7381 22.1249C11.6059 21.6276 11.6605 21.0334 11.661 20.518C11.6613 20.175 11.6351 19.7952 11.6924 19.4565C11.7301 19.2341 11.812 19.0249 11.9246 18.8304C12.1604 18.4231 12.5312 18.1274 12.9869 18.0066L13.0355 17.994C13.2291 17.9422 13.4261 17.9366 13.6253 17.9248Z" fill="#09AF8D"/>
<path d="M13.3206 24.2054C13.7593 24.1649 14.2255 24.1925 14.6674 24.1922C15.0162 24.192 15.4128 24.1556 15.7539 24.2132L15.7984 24.2214C16.2284 24.2957 16.6126 24.5174 16.8758 24.8698C17.0237 25.0679 17.1217 25.2904 17.1704 25.5329C17.2465 25.9127 17.1978 26.3851 17.1983 26.7741C17.199 27.2617 17.2484 27.808 17.1771 28.2889L17.1696 28.3359C17.1246 28.6341 17.0235 28.903 16.8402 29.1448C16.5069 29.5848 16.0845 29.7372 15.5588 29.8087L14.0728 29.8092C13.7485 29.8093 13.3901 29.8376 13.0734 29.7622C12.8672 29.7131 12.6568 29.5995 12.4867 29.4763C12.0783 29.1807 11.7653 28.7182 11.6893 28.2155C11.6351 27.8567 11.6502 27.4822 11.6493 27.1199C11.6475 26.4031 11.5654 25.5094 12.0278 24.9081C12.3539 24.4841 12.7977 24.2692 13.3206 24.2054Z" fill="#09AF8D"/>
<path d="M20.7446 30.5258C21.1598 30.5185 21.5984 30.4882 22.0086 30.562L22.0509 30.57C22.3952 30.6318 22.6936 30.7614 22.9464 31.0071C23.3176 31.3677 23.4762 31.8671 23.482 32.3736L23.4885 33.8583C23.4885 34.1508 23.5156 34.481 23.4498 34.7668C23.379 35.0737 23.2249 35.3755 23.0014 35.5987C22.3561 36.2433 21.4518 36.1428 20.6147 36.1508C20.1784 36.1562 19.6811 36.1819 19.2579 36.0705C18.7909 35.9475 18.3798 35.6012 18.1451 35.1817C18.0477 35.0077 17.9653 34.7874 17.9338 34.5883C17.8715 34.1945 17.9126 33.7436 17.9138 33.3445L17.9178 32.4926C17.9192 32.278 17.91 32.0544 17.9708 31.8466L17.9869 31.7953C18.0713 31.5153 18.1915 31.2807 18.3961 31.0678C19.0287 30.4094 19.9159 30.5325 20.7446 30.5258Z" fill="#09AF8D"/>
<path d="M13.3547 11.606L14.5722 11.5925C15.2549 11.5939 16.0528 11.5232 16.6054 12.0048C16.9648 12.3182 17.163 12.7549 17.1948 13.2293C17.2245 13.672 17.2 14.134 17.1995 14.5784C17.1989 15.0296 17.2487 15.5544 17.1442 15.9917C17.0831 16.247 16.9379 16.5143 16.7639 16.71C16.4311 17.0841 16.0409 17.1937 15.5569 17.219L14.1043 17.2373C13.7634 17.2386 13.3796 17.2709 13.0456 17.1944C12.8369 17.1466 12.6335 17.0476 12.4617 16.9217C12.065 16.6309 11.7777 16.1725 11.7077 15.6834L11.6998 15.6247L11.6831 15.5088C11.6346 15.1271 11.664 14.7138 11.6644 14.3284C11.6649 13.8994 11.619 13.3898 11.7186 12.9742C11.7808 12.7151 11.9001 12.4681 12.0671 12.2601C12.4026 11.842 12.8312 11.6644 13.3547 11.606Z" fill="#36E3D6"/>
<path d="M32.0073 11.6365C32.4619 11.6011 32.9324 11.6247 33.3896 11.6255C33.7855 11.6262 34.2222 11.5946 34.6119 11.6702C34.8306 11.7126 35.0494 11.7905 35.2385 11.9093C35.6339 12.1579 35.9519 12.5743 36.0592 13.0319C36.1782 13.5401 36.1154 14.1583 36.1159 14.6797C36.1162 15.0273 36.1557 15.4227 36.0915 15.7628C36.0492 15.9864 35.9596 16.2056 35.8345 16.396C35.5681 16.8012 35.1818 17.0988 34.701 17.1907C34.23 17.2522 33.71 17.2139 33.2335 17.215C32.8186 17.2161 32.3449 17.2585 31.9371 17.1959L31.8905 17.1881L31.7373 17.1606C31.3415 17.0637 30.9605 16.7579 30.7607 16.4069C30.6529 16.2176 30.5776 15.9907 30.5463 15.7753C30.4744 15.2788 30.5111 14.731 30.5109 14.229C30.5107 13.8061 30.4526 13.2521 30.5679 12.8487L30.5828 12.8C30.6411 12.6002 30.7252 12.4344 30.85 12.2688C31.146 11.8761 31.531 11.6999 32.0073 11.6365Z" fill="#36E3D6"/>
<path d="M25.7221 11.6377C26.1317 11.6067 26.5567 11.6263 26.9683 11.6257C27.4743 11.625 28.0424 11.5706 28.532 11.7012C28.9507 11.8129 29.3203 12.0961 29.5365 12.472C29.6444 12.6595 29.6968 12.8651 29.7237 13.0785C29.7712 13.4553 29.7465 13.8631 29.7509 14.2437L29.7588 15.2447C29.759 15.4927 29.7651 15.7682 29.6914 16.0067L29.6762 16.0531C29.6123 16.2567 29.5341 16.4284 29.4062 16.601C29.1215 16.9851 28.751 17.1719 28.2825 17.2383L26.744 17.2275C26.3772 17.2234 25.989 17.2443 25.626 17.1925L25.5747 17.1846C25.3039 17.1461 25.0642 17.0527 24.8438 16.8883C24.4876 16.6226 24.2927 16.2335 24.2352 15.7991C24.1727 15.3267 24.2095 14.8061 24.2091 14.3281C24.2088 13.8826 24.1643 13.3792 24.2431 12.9428C24.2902 12.6814 24.3882 12.4247 24.556 12.2166C24.8662 11.8317 25.2404 11.689 25.7221 11.6377Z" fill="#09AF8D"/>
<path d="M25.753 17.9516C26.2484 17.9085 26.7728 17.9413 27.2712 17.9404C27.6124 17.9398 28.012 17.8955 28.3456 17.9526C28.578 17.9923 28.8053 18.077 29.0079 18.1969C29.3686 18.4101 29.6378 18.7669 29.7358 19.176L29.7478 19.2292L29.7774 19.3724C29.8357 19.7518 29.7896 20.1917 29.787 20.5803C29.7837 21.0984 29.8423 21.7244 29.7422 22.2317C29.6966 22.4632 29.5931 22.6776 29.4516 22.8656C29.156 23.2578 28.7791 23.4662 28.2953 23.5356C27.83 23.5676 27.3578 23.5394 26.8913 23.5412C26.4256 23.543 25.9065 23.607 25.4491 23.5022C25.2568 23.4582 25.0606 23.3535 24.9016 23.2365C24.521 22.9565 24.3053 22.5643 24.2325 22.0976C24.1528 21.5878 24.2083 20.9908 24.2076 20.468C24.2072 20.1111 24.1628 19.6834 24.2205 19.3327C24.263 19.0748 24.3769 18.8184 24.5329 18.61C24.8439 18.1944 25.2546 18.0236 25.753 17.9516Z" fill="#36E3D6"/>
<path d="M31.9827 24.2328C32.4601 24.1883 32.9575 24.2181 33.438 24.2179C33.8158 24.2177 34.2231 24.1867 34.5969 24.2302C34.7639 24.2497 34.9375 24.2984 35.0913 24.3664L35.1276 24.3828L35.2704 24.4541C35.6529 24.6903 35.9492 25.0672 36.0609 25.5045C36.1605 25.8948 36.1123 26.3618 36.1121 26.7656C36.1119 27.315 36.1562 27.9123 36.0679 28.4529C36.0336 28.6625 35.939 28.8873 35.8274 29.0661C35.5563 29.5002 35.1564 29.7171 34.6708 29.831C34.1905 29.8803 33.6808 29.8496 33.1973 29.8503C32.7818 29.8509 32.3234 29.8908 31.9148 29.8229C31.7092 29.7886 31.4997 29.7037 31.3247 29.5914C30.9206 29.3321 30.661 28.9445 30.5629 28.4738C30.4783 28.0674 30.522 27.5876 30.5223 27.1735C30.5227 26.6622 30.4762 26.0944 30.5769 25.591C30.6239 25.3562 30.7133 25.1287 30.8498 24.9313C31.1218 24.538 31.521 24.322 31.9827 24.2328Z" fill="#09AF8D"/>
<path d="M19.314 24.2021C19.7365 24.1514 20.1958 24.1906 20.6229 24.1907C21.0659 24.1908 21.5556 24.1492 21.9936 24.2066C22.1963 24.2331 22.4012 24.2902 22.5818 24.3873C23.0072 24.6162 23.2949 25.0071 23.4207 25.4713C23.5566 25.9726 23.4853 26.6191 23.4855 27.1382C23.4857 27.5387 23.5264 27.9936 23.4573 28.3872C23.4197 28.6014 23.3431 28.8094 23.2288 28.995C22.9525 29.4436 22.5225 29.6935 22.0175 29.8063C21.6099 29.8524 21.1783 29.8183 20.7667 29.8196L19.8712 29.8209C19.6624 29.8206 19.4463 29.8296 19.2444 29.7696L19.1945 29.7535C18.7312 29.612 18.3408 29.3291 18.1067 28.8984C18.0113 28.7228 17.9383 28.5218 17.9112 28.3235C17.8571 27.9269 17.8893 27.487 17.889 27.0861C17.8885 26.5664 17.8124 25.9022 17.9694 25.4023L17.9858 25.3524C18.0351 25.1981 18.0949 25.0617 18.1857 24.9265C18.4557 24.5246 18.8434 24.2943 19.314 24.2021Z" fill="#36E3D6"/>
<path d="M19.3567 17.9494L21.0082 17.9293C21.345 17.928 21.7315 17.8955 22.0619 17.9527C22.2819 17.9907 22.506 18.0739 22.6964 18.19C23.0759 18.4217 23.3631 18.8342 23.4533 19.2713C23.5487 19.7334 23.491 20.2911 23.4944 20.7663C23.4975 21.1916 23.5468 21.6536 23.4834 22.072C23.4442 22.3313 23.3488 22.5865 23.2013 22.8041C22.9137 23.2288 22.5249 23.4296 22.0276 23.5198C21.6183 23.5581 21.1945 23.5331 20.7827 23.5391C20.3033 23.546 19.747 23.6081 19.2758 23.5314C19.0726 23.4983 18.8745 23.4181 18.6998 23.3096C18.3046 23.0641 18.0344 22.6601 17.9379 22.208C17.8308 21.7064 17.8846 21.115 17.8848 20.6017C17.8849 20.2128 17.8474 19.775 17.914 19.3926C17.959 19.1347 18.0418 18.8842 18.1856 18.6638C18.4606 18.2424 18.8804 18.0506 19.3567 17.9494Z" fill="#F7E681"/>
<path d="M26.5528 30.5252L27.604 30.5184C27.8872 30.5179 28.1808 30.5098 28.4557 30.5877L28.5101 30.6041C28.7531 30.6757 28.9776 30.7808 29.1691 30.9498C29.542 31.2788 29.7716 31.7105 29.7927 32.2103L29.7958 33.6821C29.7943 34.0497 29.8249 34.4581 29.7355 34.8165C29.6601 35.1189 29.5216 35.3827 29.3094 35.6111C28.7974 36.1622 28.2341 36.2602 27.512 36.2828C26.8719 36.2835 26.0526 36.337 25.4546 36.1074C24.9906 35.9293 24.5797 35.5812 24.3833 35.1179C24.1354 34.533 24.2144 33.8072 24.2175 33.1862C24.2201 32.6914 24.1634 32.0944 24.3487 31.6287L24.365 31.589C24.4404 31.4005 24.5427 31.241 24.6836 31.0953C25.2238 30.537 25.8343 30.5394 26.5528 30.5252Z" fill="#09AF8D"/>
<path d="M19.7287 11.6086L21.0398 11.6174C21.7046 11.6211 22.397 11.541 22.9323 12.0192C23.2869 12.336 23.4466 12.7647 23.4735 13.2288C23.5018 13.7174 23.4818 14.2201 23.4815 14.71C23.4813 15.1084 23.5236 15.5655 23.4289 15.9516C23.3559 16.2492 23.2131 16.5256 23.0022 16.7497C22.6237 17.152 22.1698 17.2089 21.6473 17.2158L20.1002 17.2158C19.8165 17.2161 19.5033 17.2412 19.2235 17.1935L19.179 17.1853C19.0559 17.1639 18.951 17.1316 18.8375 17.0774C18.4195 16.8779 18.1352 16.4859 17.9889 16.0564C17.816 15.5486 17.8853 14.9109 17.881 14.376C17.8774 13.9274 17.8427 13.4441 17.9053 12.9993C17.9319 12.8103 17.989 12.6201 18.0772 12.4508C18.2626 12.0952 18.6281 11.8089 19.0105 11.6948L19.0669 11.6787C19.2825 11.6148 19.5054 11.6174 19.7287 11.6086Z" fill="#09AF8D"/>
<path d="M25.7876 24.2055C26.2783 24.1618 26.7989 24.1936 27.2933 24.1929C27.6328 24.1925 28.0233 24.1516 28.3557 24.2112L28.3988 24.2195C28.6371 24.2618 28.8492 24.3419 29.0494 24.4787C29.4177 24.7303 29.6646 25.098 29.75 25.5374C29.8436 26.0196 29.7919 26.5885 29.7925 27.0829C29.7931 27.5094 29.8385 27.992 29.7623 28.4088C29.7187 28.6477 29.6271 28.8981 29.4846 29.096C29.1706 29.5322 28.7546 29.7384 28.2393 29.834C27.797 29.8686 27.3363 29.8427 26.8912 29.8414C26.4516 29.8401 25.9473 29.8851 25.5193 29.7883C25.29 29.7364 25.0729 29.6363 24.8817 29.5002C24.5276 29.2482 24.2779 28.8412 24.2225 28.4087C24.1672 27.9772 24.2025 27.5061 24.2028 27.0708C24.2032 26.5816 24.1488 26.0045 24.2496 25.5257C24.2993 25.2895 24.3944 25.0728 24.5443 24.8825C24.8671 24.4727 25.273 24.2621 25.7876 24.2055Z" fill="#F7E681"/>
<path d="M32.1352 17.9226L33.6165 17.9143C34.0032 17.9158 34.4863 17.8739 34.8575 17.9874L34.9052 18.0031C35.0986 18.0636 35.266 18.1379 35.4314 18.2573C35.7792 18.5086 35.9993 18.9016 36.0679 19.3221C36.1507 19.8288 36.0995 20.4042 36.0973 20.919C36.0954 21.3318 36.1374 21.8148 36.0594 22.2184C36.0135 22.4564 35.9015 22.68 35.7583 22.8732C35.4563 23.2807 35.0528 23.4787 34.5613 23.5575L32.9217 23.5604C32.5312 23.5601 32.1008 23.5959 31.7204 23.5041C31.3254 23.4089 30.9557 23.1145 30.7549 22.7642C30.6495 22.5802 30.5695 22.3706 30.5363 22.1605C30.4634 21.6989 30.503 21.1798 30.5031 20.7126C30.5033 20.2272 30.4354 19.5836 30.5714 19.1159L30.5864 19.0682C30.6466 18.867 30.7266 18.6941 30.8616 18.5309C31.1938 18.1288 31.6286 17.9692 32.1352 17.9226Z" fill="#09AF8D"/>
</svg>
