<svg width="120" height="120" viewBox="0 0 120 120" fill="none" xmlns="http://www.w3.org/2000/svg">
<path d="M98.8707 15.8863C99.9828 15.8402 101.003 15.9417 101.988 16.5074C103.056 17.1211 103.806 18.134 104.124 19.3241L104.154 19.4384C104.3 19.9871 104.333 20.5948 104.24 21.1569L104.222 21.2605C104.113 21.9047 103.919 22.5097 103.562 23.0633C102.834 24.1911 101.568 24.8664 100.29 25.1422C99.6306 25.2042 98.8919 25.2362 98.2495 25.0542L98.1314 25.0185C97.6752 24.8841 97.2451 24.7087 96.846 24.4464C95.7476 23.724 95.0161 22.6643 94.7667 21.372C94.5405 20.1993 94.8408 18.841 95.5295 17.8661C96.3594 16.6911 97.4756 16.1421 98.8707 15.8863Z" fill="#36948D"/>
<path d="M20.2521 15.8846C21.3035 15.7568 22.4945 15.989 23.3948 16.5566C24.4765 17.2383 25.2132 18.4304 25.451 19.6715C25.6836 20.8865 25.386 22.2727 24.6935 23.2946C23.8987 24.4676 22.5882 25.0397 21.2401 25.2746C20.1369 25.4127 19.0119 25.1308 18.082 24.5341C17.1053 23.9071 16.3368 22.842 16.0798 21.7063L16.0553 21.593L16.0067 21.3722C15.7956 20.2774 16.1034 19.0204 16.72 18.1039C17.5895 16.812 18.7507 16.1711 20.2521 15.8846Z" fill="#36948D"/>
<path d="M59.3442 0.0271773C60.6218 -0.067284 61.7323 0.060583 62.8192 0.793493C63.8765 1.50647 64.6006 2.71537 64.8188 3.9579C65.0366 5.19801 64.7024 6.59251 63.966 7.60767C63.2065 8.65469 62.079 9.22426 60.8201 9.4252C59.6285 9.46519 58.6573 9.41606 57.6064 8.7888C56.6157 8.19723 55.7634 7.03025 55.5069 5.90454L55.4838 5.80014C55.1903 4.54918 55.4515 3.28365 56.1104 2.1875C56.8619 0.937671 57.962 0.364561 59.3442 0.0271773Z" fill="#36948D"/>
<path d="M39.7525 35.0277C40.8516 34.9177 42.0329 35.2323 42.9316 35.8728C43.8868 36.5534 44.6702 37.6394 44.8603 38.8093L44.8793 38.9344C44.9747 39.5172 44.9784 40.1858 44.8307 40.7611L44.7946 40.8982C44.6473 41.4739 44.4285 41.9776 44.0846 42.4628C43.2159 43.6883 41.9827 44.3086 40.5293 44.5582C40.0165 44.6162 39.4077 44.6193 38.9093 44.4762L38.7899 44.4395C38.235 44.274 37.7127 44.0126 37.2504 43.663C36.2802 42.9294 35.5911 41.7412 35.4359 40.5358L35.4194 40.3983C35.2712 39.2107 35.6197 37.9852 36.3144 37.0155C37.1678 35.8242 38.3335 35.2476 39.7525 35.0277Z" fill="#064789"/>
<path d="M79.8316 74.9516C80.8567 74.8857 81.9346 75.1715 82.7857 75.7482C83.8388 76.4619 84.5665 77.565 84.7886 78.8191C85.0286 80.1745 84.71 81.5821 83.9086 82.7017C83.0967 83.836 81.9339 84.3313 80.6016 84.5642C80.1148 84.5698 79.5761 84.6116 79.1059 84.4761L78.9935 84.4411C78.3617 84.2557 77.8034 83.9898 77.2819 83.5832C76.2495 82.7781 75.5797 81.6294 75.4188 80.3272C75.263 79.0658 75.5732 77.7748 76.3739 76.7702C77.2665 75.6501 78.4205 75.1084 79.8316 74.9516Z" fill="#064789"/>
<path d="M80.132 35.1075C81.2472 35.1421 82.2451 35.3672 83.1351 36.0766C84.1207 36.8621 84.865 38.1322 84.9777 39.3986C85.0929 40.6922 84.7926 41.8975 83.9355 42.8925C82.9206 44.0705 81.7158 44.5714 80.1897 44.6806C79.0208 44.6437 78.0093 44.3604 77.105 43.5975C76.0834 42.7356 75.4904 41.4409 75.3883 40.1194C75.2987 38.9587 75.7469 37.7023 76.5057 36.8278C77.495 35.6875 78.6443 35.2175 80.132 35.1075Z" fill="#064789"/>
<path d="M59.5822 82.7321C60.6428 82.547 61.9332 82.8971 62.8272 83.4765C63.8915 84.1663 64.6091 85.26 64.858 86.5003C65.1148 87.7796 64.9444 89.0375 64.1957 90.12C63.3518 91.3404 62.2638 92.0071 60.8155 92.2743C60.2533 92.3143 59.5661 92.3512 59.0254 92.1781C58.4869 92.0058 57.9992 91.8329 57.533 91.5025C56.3832 90.6876 55.612 89.4718 55.3917 88.074C55.1946 86.8237 55.5957 85.5068 56.3363 84.5004C57.144 83.4029 58.2716 82.9353 59.5822 82.7321Z" fill="#064789"/>
<path d="M87.4608 55.023C88.5803 54.9084 89.8514 55.2405 90.7779 55.8776C91.9023 56.6507 92.5903 57.8404 92.8279 59.1699C93.0373 60.3416 92.655 61.7198 91.9633 62.6737C91.1317 63.8205 90.0202 64.3797 88.6367 64.6116C87.4022 64.6739 86.2906 64.5166 85.2708 63.7693C84.2292 63.0059 83.4442 61.7389 83.2584 60.4594C83.08 59.2304 83.3768 57.9669 84.1215 56.9695C84.9845 55.8133 86.0561 55.2375 87.4608 55.023Z" fill="#064789"/>
<path d="M70.3643 80.7308C71.4554 80.5956 72.6057 80.8607 73.5449 81.4259C74.6317 82.0801 75.4948 83.2581 75.795 84.4868C76.0759 85.6363 75.8127 87.1182 75.167 88.1024C74.3617 89.33 73.3169 89.9087 71.9086 90.2133C70.6373 90.4444 69.2684 90.1493 68.1983 89.4295C67.104 88.6931 66.5008 87.5378 66.2735 86.2642C66.0517 85.0214 66.4266 83.6047 67.1531 82.5837C67.9453 81.4704 69.0515 80.9526 70.3643 80.7308Z" fill="#064789"/>
<path d="M70.9185 29.3223C72.1289 29.2831 73.3708 29.6852 74.2886 30.4872C75.2619 31.3377 75.8248 32.4994 75.9056 33.7895C75.9859 35.0708 75.5214 36.4318 74.6511 37.3762C73.7743 38.3276 72.571 38.7982 71.3002 38.8716C70.0913 38.8611 68.9544 38.6224 67.9797 37.8653C66.9532 37.0679 66.2841 35.8566 66.1528 34.5635C66.0239 33.2922 66.2921 32.1455 67.1113 31.1497C68.1066 29.9397 69.4056 29.4781 70.9185 29.3223Z" fill="#064789"/>
<path d="M20.4348 94.7334C21.3001 94.655 22.3646 94.9354 23.1054 95.3868C24.213 96.0618 25.0657 97.122 25.3605 98.3986L25.3889 98.5262L25.4715 98.9311C25.666 100.178 25.3275 101.5 24.5731 102.504C23.6457 103.739 22.3344 104.229 20.8574 104.411C19.704 104.415 18.6395 104.088 17.7146 103.393C16.7602 102.676 15.9671 101.564 15.8023 100.364C15.6292 99.1047 15.8968 97.6781 16.6965 96.6591C17.6234 95.4781 18.9759 94.89 20.4348 94.7334Z" fill="#36948D"/>
<path d="M85.8134 44.0282C87.0745 43.9938 88.2727 44.383 89.2708 45.1622C90.2542 45.9303 90.9243 47.1321 91.0545 48.3737C91.1939 49.7029 90.8468 50.9559 89.9867 51.9797C89.1487 52.9773 87.9937 53.619 86.6904 53.7417C85.4962 53.8071 84.3852 53.5639 83.4044 52.8568C82.2506 52.025 81.5905 50.8543 81.3904 49.4537C81.2127 48.2103 81.5998 46.8928 82.3534 45.8969C83.2152 44.758 84.433 44.2309 85.8134 44.0282Z" fill="#064789"/>
<path d="M48.5771 80.7997C49.7333 80.6655 50.8583 80.8691 51.8529 81.4828C52.9541 82.1622 53.8069 83.3542 54.0806 84.6194C54.3483 85.856 54.167 87.2423 53.4758 88.3171C52.7021 89.5197 51.5759 90.1583 50.2035 90.4541C48.9135 90.6286 47.645 90.3569 46.56 89.6334C45.4526 88.8949 44.8105 87.7051 44.5561 86.4218C44.3065 85.162 44.6785 83.7995 45.3963 82.7542C46.1658 81.6336 47.2628 81.0439 48.5771 80.7997Z" fill="#064789"/>
<path d="M59.8285 27.1092C60.9445 27.0298 62.1264 27.4007 63.0258 28.0616C64.0746 28.8319 64.7328 29.9178 64.9199 31.2048C65.1104 32.5143 64.7711 33.8719 63.9807 34.9351C63.1382 36.0686 61.9324 36.6007 60.569 36.8115C59.2525 36.8063 58.0841 36.6235 57.035 35.7672C56.0684 34.9784 55.3384 33.6758 55.2241 32.4262C55.1073 31.1495 55.4789 29.8768 56.3029 28.8906C57.2463 27.7615 58.387 27.2378 59.8285 27.1092Z" fill="#064789"/>
<path d="M85.8117 65.8103C86.1766 65.7777 86.5735 65.7888 86.936 65.8423C88.177 66.0252 89.3524 66.7349 90.0906 67.7489C90.8288 68.7629 91.1479 70.1503 90.9484 71.387L90.9295 71.4974C90.8101 72.2852 90.5519 72.9584 90.0795 73.6024C89.1973 74.8051 88.0306 75.3282 86.5908 75.5635C85.358 75.5903 84.1467 75.2937 83.1633 74.5249C82.1044 73.6971 81.4875 72.5385 81.3263 71.2117C81.1643 69.8774 81.5838 68.5847 82.4147 67.5398C83.2912 66.4378 84.4418 65.9641 85.8117 65.8103Z" fill="#064789"/>
<path d="M49.0008 29.3212C49.4989 29.3373 49.9889 29.3647 50.4748 29.4837C51.7558 29.7976 52.8233 30.6494 53.4907 31.7772C54.094 32.7967 54.353 34.0838 54.0475 35.2423L54.0137 35.3639C53.8197 36.0786 53.5385 36.6657 53.0748 37.2423C52.1396 38.405 50.9882 38.905 49.5186 39.0625C48.3313 39.1095 47.2706 38.7739 46.335 38.0418C45.2364 37.182 44.578 35.8785 44.4263 34.5055C44.2894 33.2664 44.5778 32.0612 45.3671 31.0864C46.3153 29.9157 47.5415 29.4688 49.0008 29.3212Z" fill="#064789"/>
<path d="M39.2596 75.0101C39.7597 74.9614 40.2798 74.9387 40.7784 75.011C42.0199 75.1908 43.1815 75.8746 43.9313 76.8799C44.647 77.8394 44.9959 79.1606 44.8209 80.3456L44.8029 80.4594C44.678 81.2814 44.4013 82.0725 43.9424 82.7694C43.2269 83.856 42.1253 84.4478 40.8762 84.6986C39.6817 84.8347 38.5927 84.6949 37.5474 84.0589C36.3945 83.3574 35.6357 82.2894 35.3261 80.9797C35.015 79.6644 35.233 78.2382 35.9629 77.0976C36.7542 75.8615 37.873 75.3106 39.2596 75.0101Z" fill="#064789"/>
<path d="M33.5439 44.1626C34.6605 44.0523 35.7642 44.196 36.7391 44.7823C37.8678 45.4611 38.6237 46.6112 38.9296 47.8783L38.9576 47.9976C39.0788 48.5016 39.1066 49.0129 39.0333 49.5272L39.0155 49.6459C38.9058 50.4138 38.6689 51.1031 38.2261 51.7438C37.438 52.8841 36.2105 53.5972 34.8663 53.8549C34.2123 53.9266 33.5705 53.8771 32.9339 53.7214C32.4023 53.5914 31.8623 53.3845 31.4067 53.0754C30.3183 52.3371 29.6038 51.2545 29.3378 49.9672C29.0745 48.6919 29.3846 47.3618 30.1096 46.285C30.9421 45.0489 32.1183 44.4512 33.5439 44.1626Z" fill="#064789"/>
<path d="M4.61284 55.0286C5.73098 54.9246 6.95966 55.2919 7.86914 55.9388C8.88402 56.6606 9.48572 57.7813 9.68153 58.9966C9.89776 60.3382 9.63368 61.775 8.82161 62.8785C7.94626 64.068 6.74671 64.5944 5.32237 64.7992C4.59955 64.8165 3.89417 64.7841 3.20963 64.5324C2.00123 64.0882 0.997615 63.1415 0.465624 61.9721L0.420322 61.8708C0.300296 61.6074 0.216403 61.3668 0.15559 61.0827L0.127626 60.9485C0.0114275 60.4146 -0.0535563 59.7936 0.0568152 59.2531C0.252665 58.2937 0.535163 57.5085 1.15852 56.7354C2.03607 55.6471 3.25819 55.1827 4.61284 55.0286Z" fill="#36948D"/>
<path d="M31.4245 54.9545C32.4953 54.8248 33.5362 55.0327 34.4594 55.5946C35.577 56.2746 36.4546 57.4218 36.7454 58.7042C37.0197 59.9151 36.7819 61.3408 36.1007 62.3814C35.2706 63.6495 34.0432 64.4086 32.5777 64.7112C31.359 64.8008 30.2382 64.6411 29.2189 63.9269C28.0589 63.1139 27.2284 61.8121 27.0145 60.4094C26.8215 59.1431 27.2028 57.9013 27.9582 56.8797C28.8246 55.7079 30.0148 55.1631 31.4245 54.9545Z" fill="#064789"/>
<path d="M33.3881 65.7269C34.5605 65.6187 35.7247 65.8098 36.7532 66.398C37.8138 67.0049 38.6154 68.147 38.9078 69.3283C39.2211 70.5947 39.0423 71.8879 38.3739 73.0128C37.5817 74.3457 36.3834 75.1075 34.9042 75.4643C34.4681 75.5138 34.0305 75.5802 33.5924 75.5228L33.4692 75.5053C32.7519 75.4144 32.1421 75.204 31.5248 74.8229C30.4247 74.1433 29.6272 73.0053 29.3414 71.7474C29.0445 70.4403 29.23 69.1002 29.9587 67.9656C30.7643 66.711 31.9667 66.0481 33.3881 65.7269Z" fill="#064789"/>
<path d="M114.449 55.0174C115.705 54.9763 116.709 55.1084 117.785 55.7976C118.889 56.504 119.651 57.7881 119.908 59.0531C120.169 60.3379 119.869 61.6758 119.126 62.7497C118.288 63.9622 117.065 64.5841 115.643 64.8484C115.083 64.8977 114.43 64.9147 113.887 64.7597L113.771 64.7242C112.597 64.3744 111.602 63.6416 110.919 62.6227C110.234 61.6004 109.915 60.3029 110.152 59.0878C110.393 57.8532 111.151 56.5811 112.222 55.8896L112.315 55.8312C112.991 55.3956 113.664 55.1701 114.449 55.0174Z" fill="#36948D"/>
<path d="M59.7221 109.729C60.4116 109.684 61.0252 109.756 61.6887 109.946C62.879 110.288 63.9897 111.255 64.5669 112.338C65.089 113.318 65.3159 114.667 64.9772 115.74L64.9429 115.843C64.7385 116.483 64.4685 117.067 64.067 117.609C63.1962 118.786 61.9718 119.324 60.5649 119.523C59.8147 119.585 58.9579 119.495 58.2513 119.226C57.0474 118.768 56.1266 117.828 55.5926 116.669L55.5489 116.572C55.3597 116.164 55.2248 115.741 55.1691 115.293C54.9965 113.905 55.3552 112.609 56.2202 111.506C57.0815 110.408 58.3702 109.888 59.7221 109.729Z" fill="#36948D"/>
<path d="M99.1679 94.2984C100.334 94.1225 101.743 94.473 102.7 95.1631C103.795 95.954 104.528 97.2394 104.689 98.576C104.855 99.9445 104.531 101.313 103.677 102.407C102.802 103.528 101.613 104.079 100.219 104.258C98.9257 104.32 97.8622 104.068 96.7748 103.352L96.6814 103.292C95.6605 102.609 94.8957 101.336 94.6779 100.14C94.437 98.8164 94.9287 97.3998 95.6859 96.3252C96.5433 95.1085 97.7315 94.5417 99.1679 94.2984Z" fill="#36948D"/>
<path d="M87.3568 100.584C88.846 100.454 90.2818 100.683 91.5617 101.48C92.7957 102.248 93.77 103.67 94.0905 105.087C94.4503 106.678 94.2462 108.456 93.3581 109.845C92.3467 111.426 90.8672 112.283 89.0677 112.672C88.2313 112.749 87.4547 112.76 86.6345 112.565C85.9526 112.402 85.3251 112.119 84.7492 111.719C83.393 110.777 82.4785 109.385 82.2045 107.754C81.9284 106.112 82.2953 104.451 83.2733 103.1C84.2841 101.703 85.6721 100.863 87.3568 100.584Z" fill="#064789"/>
<path d="M87.3532 6.68343C88.7047 6.48606 90.3275 6.92651 91.4509 7.68217C92.857 8.62807 93.7254 10.0727 94.0458 11.7151C94.3479 13.264 93.9467 15.0364 93.0589 16.3341C92.0109 17.8658 90.5371 18.6746 88.7469 19.0071C87.118 19.1092 85.5876 18.8122 84.28 17.7933C82.9444 16.7524 82.0806 15.2608 81.8739 13.5786C81.6731 11.9459 82.1226 10.2951 83.1456 9.00412C84.2136 7.65632 85.6582 6.89052 87.3532 6.68343Z" fill="#064789"/>
<path d="M31.1224 6.89009C32.6379 6.75584 34.0335 7.00649 35.3202 7.83942C36.6918 8.72733 37.6613 10.16 37.9998 11.754C38.3454 13.382 37.9499 15.1718 37.0269 16.5467C36.0437 18.0111 34.6068 18.8777 32.9038 19.2129C32.4255 19.2913 31.9429 19.3162 31.4612 19.255L31.1117 19.2123C29.5612 19.0178 28.1222 18.1145 27.1831 16.8798C26.15 15.521 25.6497 13.8097 25.9045 12.1057L25.9247 11.9771C26.0656 11.007 26.4099 10.1311 26.9728 9.32446C27.9694 7.89612 29.4473 7.18288 31.1224 6.89009Z" fill="#064789"/>
<path d="M106.164 25.7455C107.661 25.6025 109.128 25.9476 110.381 26.7842C111.78 27.7179 112.686 29.2617 113.005 30.8926C113.297 32.3858 112.834 34.2517 111.965 35.481C110.967 36.8928 109.438 37.7705 107.753 38.0582C107.262 38.1209 106.841 38.129 106.35 38.0705C104.597 37.8618 103.012 36.97 101.937 35.5733C100.99 34.3436 100.523 32.6017 100.743 31.065L100.763 30.9365C100.905 29.918 101.295 28.9367 101.916 28.1126C102.963 26.724 104.473 25.9846 106.164 25.7455Z" fill="#064789"/>
<path d="M73.1784 106.443C74.5256 106.223 76.2062 106.661 77.3232 107.415C78.7326 108.365 79.7259 109.953 80.0157 111.623C80.2959 113.238 79.8331 114.887 78.8962 116.214C77.9099 117.61 76.3922 118.531 74.7196 118.831C73.1734 119.094 71.5227 118.719 70.2473 117.809C68.9007 116.847 67.9324 115.264 67.6858 113.628C67.4276 111.915 67.8644 110.137 68.903 108.753C69.9837 107.314 71.4396 106.69 73.1784 106.443Z" fill="#064789"/>
<path d="M12.6175 25.606C13.977 25.5395 15.2051 25.7515 16.3698 26.4921C17.7792 27.3881 18.8367 28.8455 19.1961 30.4812C19.5543 32.1125 19.2482 33.8483 18.3337 35.2531C17.2666 36.8924 15.7258 37.7529 13.856 38.1491C13.3633 38.1863 12.8224 38.196 12.3333 38.1319C10.7341 37.9223 9.1831 37.0385 8.19407 35.7647C7.20333 34.4889 6.68461 32.7012 6.91098 31.0952L6.92954 30.9722C7.08636 29.8835 7.4994 28.8867 8.1648 28.0087C9.28936 26.5248 10.8098 25.8538 12.6175 25.606Z" fill="#064789"/>
<path d="M73.4644 0.826783L73.4709 0.825055C75.0021 0.711898 76.3939 1.00477 77.6722 1.88831C78.9443 2.76751 79.9427 4.26198 80.2064 5.79273C80.4989 7.48986 80.1569 9.21927 79.1443 10.6256C78.0542 12.1398 76.476 12.9981 74.6531 13.2899C74.1685 13.3306 73.645 13.3383 73.1629 13.2819C71.4842 13.0853 69.958 12.1495 68.9416 10.8111C68.0034 9.57575 67.5389 7.7905 67.7524 6.25518L67.772 6.1215C67.9171 5.06249 68.3413 4.10216 68.9868 3.25053C70.083 1.80433 71.7024 1.05381 73.4644 0.826783Z" fill="#064789"/>
<path d="M31.1764 100.657C31.9129 100.563 32.776 100.611 33.5022 100.779C35.1296 101.157 36.4767 102.122 37.3564 103.549C38.1667 104.863 38.4979 106.661 38.119 108.168L38.0826 108.309C37.8744 109.136 37.5426 109.9 37.0404 110.593C36.001 112.028 34.3906 112.845 32.6677 113.107C32.1693 113.166 31.5287 113.174 31.0343 113.092C29.9329 112.911 28.9627 112.518 28.0788 111.836C26.7491 110.81 25.8815 109.263 25.6772 107.598C25.4736 105.938 25.8886 104.255 26.9218 102.933C28.0015 101.551 29.4653 100.876 31.1764 100.657Z" fill="#064789"/>
<path d="M12.3102 81.6615C13.8301 81.4819 15.4023 81.8444 16.6524 82.7355C17.9357 83.6503 18.8882 85.1628 19.149 86.7207L19.1699 86.8506C19.4329 88.4067 19.05 90.2155 18.1414 91.51C17.0788 93.0239 15.5237 93.9669 13.7133 94.2737C12.0263 94.318 10.5469 94.0709 9.16501 93.0279C7.84863 92.0341 6.98814 90.532 6.75849 88.901C6.51926 87.202 6.96458 85.4687 8.00702 84.0999C9.07689 82.695 10.5819 81.9056 12.3102 81.6615Z" fill="#064789"/>
<path d="M45.9435 0.687419C47.3868 0.58096 48.9741 1.06805 50.095 1.97974C51.416 3.05418 52.3254 4.73974 52.4825 6.43973C52.6404 8.148 52.177 9.69389 51.0766 11.0057C49.909 12.3973 48.3787 13.1616 46.5759 13.3115C44.9794 13.3117 43.4955 12.9448 42.2216 11.9345C40.8951 10.8824 40.1031 9.31442 39.9317 7.64256C39.7575 5.942 40.2942 4.28472 41.3839 2.97091C42.5818 1.52654 44.0997 0.850434 45.9435 0.687419Z" fill="#064789"/>
<path d="M112.853 39.8909L113.806 39.9446C115.45 40.1142 117.117 41.1007 118.121 42.3978C119.064 43.6156 119.496 45.2722 119.299 46.7977C119.141 48.0303 118.748 49.1356 117.941 50.1009C116.691 51.5963 115.125 52.3309 113.204 52.5112C111.552 52.5122 110.181 52.064 108.898 51.0254C107.591 49.9673 106.76 48.3838 106.602 46.7132C106.446 45.0532 106.976 43.4869 108.048 42.2236C109.342 40.6972 110.894 40.0561 112.853 39.8909Z" fill="#064789"/>
<path d="M45.3895 106.368C46.972 106.247 48.4678 106.479 49.8053 107.375C51.1146 108.251 52.1212 109.693 52.4267 111.248L52.4519 111.38L52.495 111.589C52.7895 113.119 52.3747 114.838 51.4943 116.109C50.4447 117.624 49.0119 118.574 47.2068 118.91L47.1502 118.923C45.691 119.215 43.8948 118.745 42.6751 117.921C41.307 116.997 40.2533 115.354 39.9725 113.725C39.6787 112.021 40.0995 110.246 41.1147 108.85C42.2048 107.351 43.5866 106.648 45.3895 106.368Z" fill="#064789"/>
<path d="M106.759 81.4494C108.267 81.3688 109.674 81.7067 110.912 82.5979C112.294 83.5924 113.182 85.1648 113.433 86.8356C113.681 88.4936 113.302 90.281 112.3 91.6383C111.144 93.2036 109.661 93.936 107.768 94.2072C107.307 94.2339 106.812 94.2432 106.352 94.1809C104.731 93.9606 103.199 93.0838 102.198 91.7886C101.188 90.4812 100.657 88.7255 100.889 87.0811L100.907 86.9577C101.062 85.8889 101.465 84.8401 102.11 83.9693C103.268 82.4073 104.894 81.7236 106.759 81.4494Z" fill="#064789"/>
<path d="M6.70539 67.0906C8.15145 66.9429 9.60864 67.226 10.8536 67.9921C12.2664 68.8613 13.302 70.3453 13.6693 71.958C14.0529 73.6424 13.7337 75.4104 12.81 76.8652C11.7228 78.5772 10.2222 79.4531 8.28327 79.8863C6.74167 80.0915 5.12194 79.7097 3.8437 78.8208C2.44735 77.8498 1.45318 76.2963 1.1628 74.6222C0.857862 72.8642 1.30236 71.0918 2.33752 69.6446C3.38254 68.184 4.96441 67.3726 6.70539 67.0906Z" fill="#064789"/>
<path d="M30.5563 82.8833C31.0665 82.8495 31.6545 82.9075 32.1523 83.0262C32.9196 83.209 33.5931 83.4405 34.2644 83.8662C35.5827 84.7024 36.6073 86.1801 36.9287 87.708L36.9571 87.8485L37.0588 88.493C37.186 90.3578 36.7022 92.1218 35.4615 93.5449C34.2799 94.9004 32.6545 95.6243 30.8807 95.744C29.6149 95.8564 28.2536 95.4661 27.2172 94.7386L27.1208 94.67L26.9091 94.5215C25.5856 93.5527 24.6757 91.9539 24.4226 90.3497C24.3324 89.778 24.3167 89.1392 24.4016 88.5644L24.4188 88.4573C24.6142 87.1901 25.099 86.0661 25.9327 85.0796C27.1244 83.6693 28.7617 83.0317 30.5563 82.8833Z" fill="#36948D"/>
<path d="M112.454 67.2371C113.875 67.0306 115.611 67.4325 116.805 68.2299C118.243 69.1899 119.098 70.6023 119.439 72.2737L119.496 72.5593C119.781 74.2116 119.296 76.0172 118.323 77.3644C117.271 78.819 115.675 79.6865 113.924 79.9721C112.232 80.1418 110.664 79.7582 109.289 78.75C107.942 77.7623 107.053 76.152 106.816 74.508C106.584 72.9011 107.054 71.0537 108.039 69.7539C109.163 68.2692 110.631 67.4862 112.454 67.2371Z" fill="#064789"/>
<path d="M59.1179 94.4413C60.6692 94.3108 62.02 94.4666 63.3756 95.2744C64.8163 96.1329 65.9553 97.6725 66.3457 99.3068L66.3717 99.4187L66.4431 99.7359C66.7341 101.353 66.4053 103.114 65.449 104.462C64.3831 105.964 62.9565 106.86 61.1582 107.18C59.5255 107.374 57.9112 107.056 56.5454 106.111C55.1532 105.149 54.131 103.632 53.8434 101.959C53.531 100.143 53.8511 98.4054 54.9273 96.8957C55.9717 95.4303 57.3765 94.7441 59.1179 94.4413Z" fill="#36948D"/>
<path d="M29.7724 23.8935C31.227 23.7417 32.8476 24.0439 34.06 24.8959L34.1428 24.9551L34.3546 25.0994C35.6483 26.0171 36.5384 27.6107 36.7843 29.1554C37.0495 30.8202 36.7317 32.6586 35.718 34.0354C34.5961 35.5593 33.1547 36.3374 31.3001 36.6346C29.6513 36.7957 28.0513 36.5142 26.6869 35.5315C25.2641 34.5069 24.3492 32.9997 24.0967 31.2627C23.8478 29.5509 24.2408 27.7252 25.2886 26.3323C26.4177 24.8314 27.9604 24.1491 29.7724 23.8935Z" fill="#36948D"/>
<path d="M89.0884 24.1085C89.5031 24.0204 90.1214 24.068 90.545 24.1269C91.6988 24.2875 92.7133 24.6165 93.6789 25.2928C94.9728 26.199 95.8739 27.6762 96.1398 29.2298C96.4419 30.9957 96.096 32.806 95.0497 34.2749C93.9778 35.7793 92.3572 36.6248 90.5657 36.9231C89.1045 37.0967 87.6342 36.7988 86.3782 36.0251C85.0148 35.1855 83.956 33.7577 83.5856 32.2011L83.5574 32.079L83.4567 31.5782C83.2086 29.7749 83.6281 28.0336 84.7413 26.5879C85.8638 25.1302 87.2713 24.333 89.0884 24.1085Z" fill="#36948D"/>
<path d="M7.26722 39.6063C8.70699 39.5397 10.3534 40.0271 11.4924 40.9106C12.8572 41.9694 13.7357 43.5155 13.9342 45.2339C14.1343 46.9653 13.6207 48.6703 12.5311 50.0266C11.3346 51.516 9.78557 52.2793 7.91134 52.4896C6.27876 52.538 4.6489 52.0385 3.38323 50.9876C2.0887 49.913 1.19722 48.2423 1.04546 46.5647C0.891699 44.8652 1.39931 43.2066 2.50902 41.9057C3.7777 40.4182 5.35143 39.7641 7.26722 39.6063Z" fill="#064789"/>
<path d="M88.5659 82.8745C89.2403 82.8179 89.9867 82.7893 90.6455 82.9576L90.7763 82.993C91.5966 83.2084 92.3924 83.527 93.0972 84.0056C94.4437 84.9197 95.4676 86.5127 95.7712 88.1083C96.1028 89.8511 95.6908 91.7306 94.6811 93.1824C93.6892 94.6087 92.0866 95.4069 90.4163 95.6956C88.8114 95.7986 87.3034 95.6866 85.9175 94.7864C84.5495 93.8979 83.3994 92.479 83.0638 90.8537L83.0369 90.7177C82.8958 90.0305 82.8741 89.283 82.9684 88.5871L82.9874 88.4573C83.1422 87.3406 83.5406 86.343 84.1915 85.4238C85.2399 83.9433 86.8191 83.1778 88.5659 82.8745Z" fill="#36948D"/>
<path d="M59.6474 11.8277C61.2708 11.7431 62.8217 12.1296 64.1162 13.1468C65.4259 14.1756 66.3529 15.8879 66.5273 17.5411C66.716 19.332 66.1601 21.1598 65.0137 22.543C63.8842 23.906 62.2444 24.6067 60.5155 24.7728C58.88 24.8482 57.4927 24.5134 56.1826 23.4938C54.8492 22.4559 53.8396 20.8221 53.6501 19.1308C53.4606 17.4395 53.9357 15.6256 55.0129 14.2922C56.169 12.861 57.8252 12.0045 59.6474 11.8277Z" fill="#36948D"/>
<path d="M18.6968 53.3902C19.0733 53.3765 19.49 53.4018 19.8618 53.4609C21.5752 53.7337 23.1452 54.6549 24.1685 56.058C25.1377 57.3869 25.5896 59.1989 25.3205 60.8267C25.1234 62.0192 24.7738 63.106 23.9957 64.0521C22.7945 65.5125 21.2154 66.2391 19.3616 66.425C17.6134 66.4387 16.0463 66.0328 14.6997 64.8618C13.4427 63.7688 12.5617 62.3783 12.4577 60.6788C12.346 58.8527 12.7348 57.148 13.9659 55.7515C15.245 54.3007 16.7809 53.5313 18.6968 53.3902Z" fill="#36948D"/>
<path d="M100.245 53.4513C100.832 53.3996 101.459 53.3826 102.043 53.4594C103.695 53.6764 105.2 54.5699 106.186 55.9074C107.218 57.306 107.717 59.1685 107.446 60.8961C107.279 61.9619 106.949 62.8597 106.339 63.7551C105.316 65.2532 103.661 66.1554 101.908 66.4784C101.376 66.5418 100.877 66.5572 100.342 66.5003C98.6027 66.3154 96.9648 65.4195 95.8875 64.0367C94.8292 62.6783 94.3489 60.9966 94.5576 59.2864C94.6858 58.2361 95.0973 57.1253 95.707 56.2546C96.8033 54.6887 98.384 53.7866 100.245 53.4513Z" fill="#36948D"/>
</svg>
