<svg width="178" height="23" viewBox="0 0 178 23" fill="none" xmlns="http://www.w3.org/2000/svg">
<path d="M9.792 22C8.064 22 6.48 21.964 5.04 21.892C3.624 21.796 2.484 21.64 1.62 21.424C0.78 21.208 0.36 20.908 0.36 20.524L2.16 17.752C2.856 18.064 3.816 18.28 5.04 18.4C6.288 18.496 7.932 18.544 9.972 18.544H13.428C14.556 18.544 15.3 18.28 15.66 17.752C16.02 17.2 16.2 16.612 16.2 15.988V3.712L15.912 0.832H20.952V15.556C20.952 16.756 20.796 17.848 20.484 18.832C20.196 19.816 19.584 20.596 18.648 21.172C17.736 21.724 16.332 22 14.436 22H9.792ZM23.1328 22L33.6808 0.832H40.7728L51.2848 22H45.7408L43.6168 17.428H30.7288L28.3888 22H23.1328ZM32.0248 13.9H42.2848L37.3528 4.072H36.9928L32.0248 13.9ZM54.533 22V3.712L54.173 0.832H59.645L67.781 15.232L76.205 0.832H81.065V22H76.313V8.572H75.917L74.513 11.704L69.977 19.84H65.621L61.085 11.704L59.645 8.572H59.285V22H54.533Z" fill="#333333"/>
<path d="M9.792 22C8.064 22 6.48 21.964 5.04 21.892C3.624 21.796 2.484 21.64 1.62 21.424C0.78 21.208 0.36 20.908 0.36 20.524L2.16 17.752C2.856 18.064 3.816 18.28 5.04 18.4C6.288 18.496 7.932 18.544 9.972 18.544H13.428C14.556 18.544 15.3 18.28 15.66 17.752C16.02 17.2 16.2 16.612 16.2 15.988V3.712L15.912 0.832H20.952V15.556C20.952 16.756 20.796 17.848 20.484 18.832C20.196 19.816 19.584 20.596 18.648 21.172C17.736 21.724 16.332 22 14.436 22H9.792ZM23.1328 22L33.6808 0.832H40.7728L51.2848 22H45.7408L43.6168 17.428H30.7288L28.3888 22H23.1328ZM32.0248 13.9H42.2848L37.3528 4.072H36.9928L32.0248 13.9ZM54.533 22V3.712L54.173 0.832H59.645L67.781 15.232L76.205 0.832H81.065V22H76.313V8.572H75.917L74.513 11.704L69.977 19.84H65.621L61.085 11.704L59.645 8.572H59.285V22H54.533Z" fill="#FF3366"/>
<path d="M92.1611 22.36C89.9771 22.36 88.4531 21.772 87.5891 20.596C86.7251 19.42 86.2931 17.86 86.2931 15.916V0.832H91.0451V16.06C91.0451 17.188 91.3211 17.944 91.8731 18.328C92.4251 18.712 93.1091 18.904 93.9251 18.904H101.557C102.325 18.904 102.997 18.712 103.573 18.328C104.149 17.92 104.437 17.164 104.437 16.06V0.832H109.189V15.916C109.189 17.212 109.009 18.34 108.649 19.3C108.289 20.26 107.689 21.016 106.849 21.568C106.009 22.096 104.845 22.36 103.357 22.36H92.1611ZM137.4 22.36C136.44 22.36 135.492 22.216 134.556 21.928C133.644 21.616 132.6 20.872 131.424 19.696L128.832 17.104C127.776 16.024 126.612 15.232 125.34 14.728C124.092 14.224 122.52 13.972 120.624 13.972H119.508V22H114.756V3.712L114.396 0.795998H130.344C131.88 0.795998 133.08 0.999999 133.944 1.408C134.832 1.816 135.48 2.356 135.888 3.028C136.32 3.676 136.596 4.372 136.716 5.116C136.836 5.86 136.896 6.568 136.896 7.24V7.924C136.896 8.452 136.824 9.04 136.68 9.688C136.536 10.336 136.26 10.972 135.852 11.596C135.444 12.22 134.856 12.748 134.088 13.18C133.344 13.612 132.36 13.864 131.136 13.936C131.448 14.104 131.844 14.368 132.324 14.728C132.804 15.064 133.296 15.436 133.8 15.844C134.328 16.252 134.808 16.624 135.24 16.96C135.672 17.296 136.008 17.536 136.248 17.68C137.112 18.184 137.88 18.532 138.552 18.724C139.224 18.916 139.776 19.024 140.208 19.048C140.64 19.072 140.892 19.084 140.964 19.084L140.244 22C140.028 22.072 139.668 22.144 139.164 22.216C138.66 22.312 138.072 22.36 137.4 22.36ZM124.908 10.696C125.82 10.696 126.636 10.684 127.356 10.66C128.076 10.612 128.724 10.564 129.3 10.516C130.356 10.396 131.088 10.108 131.496 9.652C131.928 9.172 132.144 8.56 132.144 7.816V6.988C132.144 6.22 131.94 5.572 131.532 5.044C131.124 4.516 130.392 4.252 129.336 4.252H119.508V10.516C120.564 10.588 121.536 10.636 122.424 10.66C123.312 10.684 124.14 10.696 124.908 10.696ZM141.328 22L151.876 0.832H158.968L169.48 22H163.936L161.812 17.428H148.924L146.584 22H141.328ZM150.22 13.9H160.48L155.548 4.072H155.188L150.22 13.9ZM172.368 22V0.832H177.12V22H172.368Z" fill="#333333"/>
</svg>
