<?xml version="1.0" encoding="utf-8" ?>
<svg xmlns="http://www.w3.org/2000/svg" xmlns:xlink="http://www.w3.org/1999/xlink" width="60" height="60">
	<path fill="#716086" transform="scale(0.0585938 0.0585938)" d="M-0 -0L1024 0L1024 1024L-0 1024L0 -0Z"/>
	<path fill="#634371" transform="scale(0.0585938 0.0585938)" d="M435.234 929.257L435.811 928.942C439.805 926.716 443.032 923.504 446.424 920.479L460.345 908.174C462.525 906.273 464.899 903.837 467.463 902.478C468.819 901.76 470.436 901.538 471.922 901.939C476.873 903.276 494.317 924.65 498.993 929.265L480.612 946.11L471.9 954.363C470.742 955.453 468.915 957.395 467.352 957.824C466.229 958.132 462.289 958.227 461.369 957.706C458.67 956.179 456.251 952.781 454.322 950.401L443.731 937.774C441.587 935.211 439.01 931.474 436.12 929.752L435.234 929.257Z"/>
	<path fill="#634371" transform="scale(0.0585938 0.0585938)" d="M334.919 891.541C334.908 894.804 334.432 899.167 335.823 902.13L336.089 902.705C337.302 905.147 340.289 907.344 342.855 908.177C347.57 909.707 351.95 907.132 355.908 904.861L377.603 892.526C382.25 889.828 387.352 885.978 392.424 884.283C393.585 883.895 394.942 884.049 396.105 884.349C397.572 884.728 398.511 885.568 399.441 886.733C401.856 889.756 403.675 893.691 405.639 897.046L415.073 912.913C412.228 914.358 409.57 916.43 406.871 918.146L390.411 928.642C387.414 930.653 384.262 933.359 380.957 934.803C379.928 935.252 378.867 935.312 377.78 935.08C372.75 934.008 362.007 915.297 359.099 910.61C356.157 911.601 353.204 912.63 350.105 912.978C345.04 913.548 339.811 913.352 334.718 913.35L310.46 913.216L249.55 913.04L103.102 913.512C103.099 912.896 103.022 913.253 103.655 912.576L121.418 891.575L306.435 892.325L328.032 892.26C329.45 892.264 332.722 892.733 333.979 892.322C334.366 892.195 334.606 891.802 334.919 891.541Z"/>
	<path fill="#634371" transform="scale(0.0585938 0.0585938)" d="M906.008 352.011C909.543 353.567 912.901 356.795 916.075 359.06L928.144 367.521C931.536 369.881 934.847 371.849 937.238 375.297L914.426 417.528C917.472 421.405 922.659 424.628 926.527 427.738C937.987 436.952 950.024 445.686 960.971 455.498L925.17 498.463C934.063 508.286 944.703 516.829 954.376 525.896C958.188 529.469 962.571 533.237 965.641 537.475L925.988 575.276L959.533 625.568C953.645 629.741 947.097 633.318 940.835 636.908L910.419 653.463L932.062 709.335L895.596 719.581C889.708 721.291 883.649 722.486 878.044 725.032L848.38 725.256L847.108 702.106L899.989 688.618L880.96 633.599C881.85 632.45 883.792 631.703 885.061 631L895.853 625.141L931.154 605.784L897.013 556.127C909.284 542.035 925.682 531.519 938.539 517.976C937.049 515.105 933.752 512.568 931.357 510.409L919.855 499.791L896.974 477.511L917.887 451.724C922.424 446.238 927.777 441.041 931.247 434.813C927.322 430.756 921.838 427.614 917.216 424.343L883.316 401.418L892.025 383.637C894.509 378.517 906.352 355.832 906.008 352.011Z"/>
	<path fill="#634371" transform="scale(0.0585938 0.0585938)" d="M935.599 742.077L978.068 742.009L908.315 826.531L987.534 913.928L926.089 913.496L848.675 913.953L807.44 913.989C800.171 913.992 792.405 914.548 785.213 913.621C774.735 912.269 765.534 907.881 755.722 904.302L740 898.893C737.52 898.05 734.299 896.631 731.678 896.539C730.42 896.496 729.545 896.767 728.656 897.658C726.999 899.319 725.768 901.967 724.662 904.05L717.682 917.943C716.555 920.169 715.326 923.175 713.416 924.837C712.08 925.999 710.195 926.47 708.469 926.57C707.184 926.644 706.203 926.461 705 926.052L704.364 925.846C700.352 924.497 696.53 922.328 692.686 920.544C683.803 916.42 675.124 912.039 666 908.47C664.566 907.909 661.404 906.108 659.992 906.436C656.316 911.14 653.414 916.514 650.445 921.681L641.083 937.608C639.101 941.043 637.048 945.698 634.331 948.614C632.996 950.047 631.444 950.812 629.5 951.029C628.142 951.181 626.541 951.207 625.271 950.647C618.016 947.444 610.839 941.465 604.246 936.99C601.844 935.359 598.691 933.851 596.579 931.914C596.237 931.6 596.169 931.447 595.953 931.094C598.158 930.654 600.898 930.132 602.653 928.635C606.171 925.635 608.736 918.366 610.902 914.131L621.397 894.332C622.793 891.751 624.374 887.989 626.582 886.051C627.68 885.086 630.132 885.346 631.488 885.769C635.908 887.15 640.627 890.34 644.75 892.507L669.436 904.903C672.35 906.257 676.73 908.647 679.976 908.597C682.615 908.557 684.887 907.028 686.66 905.173C690.294 901.368 689.606 896.111 689.575 891.242L690.011 894.75L690.75 895.044C699.237 892.62 707.217 887.847 715.179 884.037C720.578 887.883 726.866 892.027 733.557 893.063C740.605 894.153 748.482 893.484 755.629 893.475L797.495 893.396L949.453 892.927L882.087 808.764C886.389 802.174 891.91 796.227 896.807 790.074L935.599 742.077Z"/>
	<defs>
		<linearGradient id="gradient_0" gradientUnits="userSpaceOnUse" x1="327.54239" y1="804.0235" x2="73.353317" y2="812.66711">
			<stop offset="0" stop-color="#16577F"/>
			<stop offset="1" stop-color="#0C6B89"/>
		</linearGradient>
	</defs>
	<path fill="url(#gradient_0)" transform="scale(0.0585938 0.0585938)" d="M224.955 724.981L225.036 738.835L225.049 798.678L225.001 816.956C224.998 820.596 224.643 824.697 225.514 828.25C226.946 834.098 230.775 839.624 234.98 843.821C252.534 861.337 276.901 868.798 299.114 878.343L321.916 887.286C325.848 888.807 330.73 890.974 334.918 891.145L334.919 891.541C334.606 891.802 334.366 892.195 333.979 892.322C332.722 892.733 329.45 892.264 328.032 892.26L306.435 892.325L121.418 891.575L74.0777 891.658L142.516 808.452L74.3036 724.88L171.997 724.927L224.955 724.981Z"/>
	<path fill="#EC7C67" transform="scale(0.0585938 0.0585938)" d="M104.471 738.508L175.486 738.606L175.392 877.543L120.75 877.52L105.134 877.576L161.006 808.542L104.471 738.508Z"/>
	<path fill="#EC7C67" transform="scale(0.0585938 0.0585938)" d="M299.114 878.343C295.439 878.923 291.113 878.299 287.35 878.18L268.234 877.88L189.037 877.544L188.696 738.64L225.036 738.835L225.049 798.678L225.001 816.956C224.998 820.596 224.643 824.697 225.514 828.25C226.946 834.098 230.775 839.624 234.98 843.821C252.534 861.337 276.901 868.798 299.114 878.343Z"/>
	<path fill="#0A4171" transform="scale(0.0585938 0.0585938)" d="M878.044 725.032L949.977 724.954L935.599 742.077L896.807 790.074C891.91 796.227 886.389 802.174 882.087 808.764L949.453 892.927L797.495 893.396L755.629 893.475C748.482 893.484 740.605 894.153 733.557 893.063C726.866 892.027 720.578 887.883 715.179 884.037L727.919 878.394L789.658 844.112C793.811 841.166 797.257 837.023 798.507 831.994C799.908 826.356 798.955 818.421 798.945 812.573L798.981 760.317L798.988 746.208C798.991 743.368 798.744 740.283 799.25 737.489L801.412 737.234L799.149 736.75L798.988 725.331L848.38 725.256L878.044 725.032Z"/>
	<path fill="#D74E47" transform="scale(0.0585938 0.0585938)" d="M845.483 737.535L918.91 737.596L861.783 808.613L892.606 846.866L916.98 877.992L845.539 878.114L845.483 737.535Z"/>
	<path fill="#D74E47" transform="scale(0.0585938 0.0585938)" d="M801.412 737.234L833.768 737.429L833.653 877.976L755.545 878.066L737.88 878.306C734.746 878.39 730.958 878.947 727.919 878.394L789.658 844.112C793.811 841.166 797.257 837.023 798.507 831.994C799.908 826.356 798.955 818.421 798.945 812.573L798.981 760.317L798.988 746.208C798.991 743.368 798.744 740.283 799.25 737.489L801.412 737.234Z"/>
	<path fill="#F09C29" transform="scale(0.0585938 0.0585938)" d="M803.761 330.742C812.533 334.462 820.446 340.353 828.637 345.195L892.025 383.637L883.316 401.418L917.216 424.343C921.838 427.614 927.322 430.756 931.247 434.813C927.777 441.041 922.424 446.238 917.887 451.724L896.974 477.511L919.855 499.791L931.357 510.409C933.752 512.568 937.049 515.105 938.539 517.976C925.682 531.519 909.284 542.035 897.013 556.127L931.154 605.784L895.853 625.141L885.061 631C883.792 631.703 881.85 632.45 880.96 633.599L899.989 688.618L847.108 702.106L848.38 725.256L798.988 725.331C797.805 715.608 799.713 705.449 798.71 695.678C798.617 694.767 799.502 693.757 799.969 692.971C806.465 682.035 812.936 671.225 818.517 659.776C828.991 638.287 836.693 615.925 842.75 592.827C846.351 579.096 848.595 565.225 850.347 551.154C857.553 493.268 850.281 434.536 828.607 380.309C821.74 363.127 813.091 346.695 803.761 330.742Z"/>
	<path fill="#F5C678" transform="scale(0.0585938 0.0585938)" d="M104.384 610.154C101.195 608.369 96.2362 606.198 95.101 602.5C95.4605 599.714 97.0754 597.666 98.571 595.374L104.802 585.701L124.367 554.498L88.5861 521.359C87.1739 519.921 86.1723 518.799 86.3027 516.64C86.3592 515.705 86.6584 514.845 87.2423 514.101C89.8806 510.738 93.8659 507.622 96.8925 504.54C105.686 495.585 114.358 486.131 123.869 477.943C124.085 476.118 101.946 448.033 99.5613 444.956C97.5823 442.404 93.5386 438.439 92.5988 435.5C92.4146 434.924 92.4148 433.605 92.4774 433C92.6237 431.584 93.6822 430.432 94.75 429.58C97.8828 427.082 101.815 425.004 105.198 422.771L137.085 401.906L123.02 371.407L117.696 360.148C116.454 357.537 114.832 354.665 114.608 351.75C115.075 350.605 115.329 349.876 116.299 349.055C119.067 346.709 124.651 345.727 128.179 344.538L158.785 334.325C161.131 333.5 164.77 332.78 166.737 331.369L154.475 281.536C154.163 279.483 154.532 278.005 155.838 276.398C156.847 275.158 157.968 274.399 159.519 273.991C164.554 272.663 170.944 272.724 176.226 272.131L211.222 267.927L208.125 234.415C207.618 229.252 206.321 223.238 206.62 218.128C206.749 215.924 208.354 214.129 209.994 212.788C210.998 211.967 212.261 211.307 213.562 211.148C218.629 210.526 225.135 211.683 230.339 211.941L264.295 213.544L267.529 165.75C267.788 163.847 269.078 162.298 270.642 161.259C272.596 159.961 274.865 159.3 277.177 159.785L325.43 171.597C326.603 171.738 327.39 167.121 327.723 165.943L334.394 142.737C335.988 137.215 337.843 124.58 343.117 121.384C345.162 120.145 347.897 119.547 350.25 120.066C353.333 120.747 356.634 122.656 359.5 123.969L381.916 134.453C386.306 136.5 390.929 138.956 395.621 140.224L416.678 101.25C418.613 97.7789 421.016 94.1195 425.106 93.0802C427.489 92.4747 430.213 92.2382 432.531 93.2173C435.689 94.551 439.026 98.0972 441.693 100.362L460.107 115.882C464 119.135 467.869 122.816 472.32 125.282C480.726 117.884 488.121 108.157 495.202 99.4861C498.355 95.6258 501.396 91.0432 505.249 87.8867C507.326 86.1844 510.293 85.2857 512.968 85.5582C518.217 86.0928 521.55 90.7851 524.663 94.5195L525.843 94.1787L530.004 96.9989C539.45 103.723 546.844 113.559 555.889 120.917L576.873 104.534C580.692 101.422 584.504 97.7144 588.745 95.2192C591.563 93.561 595.534 92.7268 598.735 93.7506C602.816 95.0559 605.046 100.158 607.029 103.634C608.936 103.564 609.558 103.712 611.12 104.75L611.877 105.239C613.981 106.682 615.999 109.271 617.627 111.222L626.993 122.865C630.438 127.148 634.408 131.388 637.542 135.879C640.034 134.875 642.435 133.323 644.806 132.051L661.722 122.675C664.79 120.934 667.985 118.815 671.318 117.653L672 117.427L674.544 116.632C676.736 116.178 679.476 117.397 681.25 118.634C684.91 121.185 685.733 126.719 686.647 130.815C689.776 129.822 691.897 129.6 694.858 131.159C701.075 134.431 707.907 138.46 713.485 142.746C714.249 143.333 715.518 144.063 715.811 145.002C716.52 147.268 716.583 150.108 717.148 152.5C718.111 156.585 719.74 160.535 720.415 164.676C726.303 163.257 747.249 156.81 751.782 159.348C753.968 160.571 755.748 162.731 756.319 165.173L756.539 166.25L756.858 167.554C762.697 169.308 768.236 172.079 773.666 174.825C778.008 177.021 782.358 179.16 786.07 182.35C787.008 188.771 786.825 195.414 786.895 201.897C786.93 205.087 787.34 208.853 786.816 211.963L802.542 211.162C805.688 210.998 809.131 210.604 812.25 211.016C813.425 211.171 814.442 211.943 815.328 212.69C817.258 214.314 818.589 216.412 818.712 218.939C821.988 218.928 824.767 220.522 827.6 221.992L840.276 229.023C843.158 230.658 847.072 232.433 849.485 234.735C850.903 236.088 851.056 236.992 850.972 238.86C850.773 243.262 849.54 247.655 848.799 251.991L845.186 272.724L857.684 274.624C860.025 274.972 862.816 275.154 864.891 276.352C865.977 276.979 866.829 278.39 867.544 279.397C867.869 279.854 868.05 280.469 868.617 280.598C872.268 282.346 875.66 284.755 879.21 286.737C884.66 289.779 891.546 292.761 896.363 296.642C897.224 297.336 897.862 298.186 898.25 299.226C899.818 303.429 895.997 311.223 894.616 315.343L886.45 339.268L902.267 348.651C903.61 349.597 905.063 350.665 906.008 352.011C906.352 355.832 894.509 378.517 892.025 383.637L828.637 345.195C820.446 340.353 812.533 334.462 803.761 330.742C792.806 314.625 781.679 298.454 768.757 283.808C718.653 227.018 650.111 187.987 575.721 173.852C488.359 157.252 395.426 175.375 321.808 225.753C260.474 267.724 213.836 327.118 189.453 397.5C183.695 414.12 179.533 431.376 176.327 448.662C164.183 514.135 172.135 584.817 198.41 645.967C203.764 658.428 209.978 670.908 216.573 682.759L223.311 693.826C224.051 694.969 225.961 697.277 226.089 698.565C226.322 700.917 225.266 704.483 225.11 706.985C224.742 712.931 224.95 719.021 224.955 724.981L171.997 724.927L172.681 709.591C165.013 706.552 134.816 695.94 130.75 691.334L130.976 689.705C128.271 688.819 126.216 687.888 124.541 685.5C124.183 681.961 125.961 678.631 127.149 675.359L131.563 662.817L140.647 635.883C132.909 629.544 123.613 624.252 115.121 618.945C112.316 617.192 109.178 615.595 106.555 613.593C104.911 612.34 104.647 612.199 104.384 610.154Z"/>
	<path fill="#634371" transform="scale(0.0585938 0.0585938)" d="M104.384 610.154L142.256 631.08C141.697 632.656 141.027 634.255 140.647 635.883C132.909 629.544 123.613 624.252 115.121 618.945C112.316 617.192 109.178 615.595 106.555 613.593C104.911 612.34 104.647 612.199 104.384 610.154Z"/>
	<path fill="#634371" transform="scale(0.0585938 0.0585938)" d="M524.663 94.5195L525.843 94.1787L530.004 96.9989C539.45 103.723 546.844 113.559 555.889 120.917L550.245 124.924L524.663 94.5195Z"/>
	<path fill="#634371" transform="scale(0.0585938 0.0585938)" d="M130.976 689.705L173.639 703.154L172.681 709.591C165.013 706.552 134.816 695.94 130.75 691.334L130.976 689.705Z"/>
	<path fill="#634371" transform="scale(0.0585938 0.0585938)" d="M607.029 103.634C608.936 103.564 609.558 103.712 611.12 104.75L611.877 105.239C613.981 106.682 615.999 109.271 617.627 111.222L626.993 122.865C630.438 127.148 634.408 131.388 637.542 135.879L628.352 140.943C625.158 138.291 622.412 131.348 620.347 127.614L607.029 103.634Z"/>
	<path fill="#634371" transform="scale(0.0585938 0.0585938)" d="M686.647 130.815C689.776 129.822 691.897 129.6 694.858 131.159C701.075 134.431 707.907 138.46 713.485 142.746C714.249 143.333 715.518 144.063 715.811 145.002C716.52 147.268 716.583 150.108 717.148 152.5C718.111 156.585 719.74 160.535 720.415 164.676L697.79 170.309L686.647 130.815Z"/>
	<path fill="#634371" transform="scale(0.0585938 0.0585938)" d="M756.858 167.554C762.697 169.308 768.236 172.079 773.666 174.825C778.008 177.021 782.358 179.16 786.07 182.35C787.008 188.771 786.825 195.414 786.895 201.897C786.93 205.087 787.34 208.853 786.816 211.963L759.594 213.069C758.177 210.825 757.103 173.853 756.858 167.554Z"/>
	<path fill="#634371" transform="scale(0.0585938 0.0585938)" d="M818.712 218.939C821.988 218.928 824.767 220.522 827.6 221.992L840.276 229.023C843.158 230.658 847.072 232.433 849.485 234.735C850.903 236.088 851.056 236.992 850.972 238.86C850.773 243.262 849.54 247.655 848.799 251.991L845.186 272.724C841.313 271.598 836.821 271.227 832.815 270.624L813.05 267.532L818.712 218.939Z"/>
	<path fill="#634371" transform="scale(0.0585938 0.0585938)" d="M868.617 280.598C872.268 282.346 875.66 284.755 879.21 286.737C884.66 289.779 891.546 292.761 896.363 296.642C897.224 297.336 897.862 298.186 898.25 299.226C899.818 303.429 895.997 311.223 894.616 315.343L886.45 339.268L902.267 348.651C903.61 349.597 905.063 350.665 906.008 352.011C900.853 350.434 895.284 346.72 890.383 344.274L855.1 326.804L868.491 281.222L868.617 280.598Z"/>
	<path fill="#141B4F" transform="scale(0.0585938 0.0585938)" d="M224.955 724.981C224.95 719.021 224.742 712.931 225.11 706.985C225.266 704.483 226.322 700.917 226.089 698.565C225.961 697.277 224.051 694.969 223.311 693.826L216.573 682.759C209.978 670.908 203.764 658.428 198.41 645.967C172.135 584.817 164.183 514.135 176.327 448.662C179.533 431.376 183.695 414.12 189.453 397.5C213.836 327.118 260.474 267.724 321.808 225.753C395.426 175.375 488.359 157.252 575.721 173.852C650.111 187.987 718.653 227.018 768.757 283.808C781.679 298.454 792.806 314.625 803.761 330.742C813.091 346.695 821.74 363.127 828.607 380.309C850.281 434.536 857.553 493.268 850.347 551.154C848.595 565.225 846.351 579.096 842.75 592.827C836.693 615.925 828.991 638.287 818.517 659.776C812.936 671.225 806.465 682.035 799.969 692.971C799.502 693.757 798.617 694.767 798.71 695.678C799.713 705.449 797.805 715.608 798.988 725.331L799.149 736.75L801.412 737.234L799.25 737.489C798.744 740.283 798.991 743.368 798.988 746.208L798.981 760.317L798.945 812.573C798.955 818.421 799.908 826.356 798.507 831.994C797.257 837.023 793.811 841.166 789.658 844.112L727.919 878.394L715.179 884.037C707.217 887.847 699.237 892.62 690.75 895.044L690.011 894.75L689.575 891.242C689.606 896.111 690.294 901.368 686.66 905.173C684.887 907.028 682.615 908.557 679.976 908.597C676.73 908.647 672.35 906.257 669.436 904.903L644.75 892.507C640.627 890.34 635.908 887.15 631.488 885.769C630.132 885.346 627.68 885.086 626.582 886.051C624.374 887.989 622.793 891.751 621.397 894.332L610.902 914.131C608.736 918.366 606.171 925.635 602.653 928.635C600.898 930.132 598.158 930.654 595.953 931.094C594.536 930.354 592.802 929.992 591.315 929.286C588.822 928.102 586.787 926.522 584.651 924.795C575.588 931.734 568.115 941.912 560.515 950.447C558.18 953.069 555.942 956.175 553.066 958.228C551.25 959.524 548.518 960.462 546.25 960.16C543.043 959.733 538.958 955.405 536.572 953.318L522.658 941.603C521.155 940.385 519.533 938.62 517.944 937.604L511.161 938.414C506.219 936.483 502.76 932.876 498.993 929.265C494.317 924.65 476.873 903.276 471.922 901.939C470.436 901.538 468.819 901.76 467.463 902.478C464.899 903.837 462.525 906.273 460.345 908.174L446.424 920.479C443.032 923.504 439.805 926.716 435.811 928.942L435.234 929.257C433.208 929.945 431.387 930.268 429.25 929.866C422.331 928.563 418.483 918.366 415.073 912.913L405.639 897.046C403.675 893.691 401.856 889.756 399.441 886.733C398.511 885.568 397.572 884.728 396.105 884.349C394.942 884.049 393.585 883.895 392.424 884.283C387.352 885.978 382.25 889.828 377.603 892.526L355.908 904.861C351.95 907.132 347.57 909.707 342.855 908.177C340.289 907.344 337.302 905.147 336.089 902.705L335.823 902.13C334.432 899.167 334.908 894.804 334.919 891.541L334.918 891.145C330.73 890.974 325.848 888.807 321.916 887.286L299.114 878.343C276.901 868.798 252.534 861.337 234.98 843.821C230.775 839.624 226.946 834.098 225.514 828.25C224.643 824.697 224.998 820.596 225.001 816.956L225.049 798.678L225.036 738.835L224.955 724.981Z"/>
	<path fill="#1DB19D" transform="scale(0.0585938 0.0585938)" d="M612.623 808.759L635.305 808.967C605.615 822.952 572.59 830.505 540 833.207C499.958 836.528 459.697 832.951 421.177 821.257C417.907 820.659 414.284 819.283 411.105 818.251L386.256 809.041L612.623 808.759Z"/>
	<path fill="#F5C678" transform="scale(0.0585938 0.0585938)" d="M334.918 891.145L335.69 844.199C335.797 837.991 335.009 830.112 336.138 824.123C336.344 823.031 336.937 821.855 337.715 821.059C342.083 816.594 345.638 819.272 350.053 821.725L358.398 826.152C378.984 836.069 400.821 844.388 423 849.942C451.897 857.178 481.418 860.188 511.153 860.426C512.144 876.064 511.448 892.087 511.431 907.765L511.392 927.537C511.375 931.109 511.6 934.869 511.161 938.414C506.219 936.483 502.76 932.876 498.993 929.265C494.317 924.65 476.873 903.276 471.922 901.939C470.436 901.538 468.819 901.76 467.463 902.478C464.899 903.837 462.525 906.273 460.345 908.174L446.424 920.479C443.032 923.504 439.805 926.716 435.811 928.942L435.234 929.257C433.208 929.945 431.387 930.268 429.25 929.866C422.331 928.563 418.483 918.366 415.073 912.913L405.639 897.046C403.675 893.691 401.856 889.756 399.441 886.733C398.511 885.568 397.572 884.728 396.105 884.349C394.942 884.049 393.585 883.895 392.424 884.283C387.352 885.978 382.25 889.828 377.603 892.526L355.908 904.861C351.95 907.132 347.57 909.707 342.855 908.177C340.289 907.344 337.302 905.147 336.089 902.705L335.823 902.13C334.432 899.167 334.908 894.804 334.919 891.541L334.918 891.145Z"/>
	<path fill="#F09C29" transform="scale(0.0585938 0.0585938)" d="M511.153 860.426C521.776 860.361 532.525 860.272 543.112 859.363C580.767 856.132 617 846.853 651.598 831.721C663.811 826.38 676.145 820.52 687.428 813.399L689.575 891.242C689.606 896.111 690.294 901.368 686.66 905.173C684.887 907.028 682.615 908.557 679.976 908.597C676.73 908.647 672.35 906.257 669.436 904.903L644.75 892.507C640.627 890.34 635.908 887.15 631.488 885.769C630.132 885.346 627.68 885.086 626.582 886.051C624.374 887.989 622.793 891.751 621.397 894.332L610.902 914.131C608.736 918.366 606.171 925.635 602.653 928.635C600.898 930.132 598.158 930.654 595.953 931.094C594.536 930.354 592.802 929.992 591.315 929.286C588.822 928.102 586.787 926.522 584.651 924.795C575.588 931.734 568.115 941.912 560.515 950.447C558.18 953.069 555.942 956.175 553.066 958.228C551.25 959.524 548.518 960.462 546.25 960.16C543.043 959.733 538.958 955.405 536.572 953.318L522.658 941.603C521.155 940.385 519.533 938.62 517.944 937.604L511.161 938.414C511.6 934.869 511.375 931.109 511.392 927.537L511.431 907.765C511.448 892.087 512.144 876.064 511.153 860.426Z"/>
	<path fill="#634371" transform="scale(0.0585938 0.0585938)" d="M517.944 937.604C522.213 935.281 525.86 930.68 529.091 927.096L544.278 910.17C546.786 907.394 550.475 902.035 554.5 901.786C555.526 901.723 556.435 901.931 557.321 902.461C560.483 904.349 563.419 907.25 566.285 909.586L584.651 924.795C575.588 931.734 568.115 941.912 560.515 950.447C558.18 953.069 555.942 956.175 553.066 958.228C551.25 959.524 548.518 960.462 546.25 960.16C543.043 959.733 538.958 955.405 536.572 953.318L522.658 941.603C521.155 940.385 519.533 938.62 517.944 937.604Z"/>
	<path fill="#1DB19D" transform="scale(0.0585938 0.0585938)" d="M711.004 321.189L759.088 345.108C768.797 350.024 778.639 355.67 788.826 359.501C795.928 370.692 801.353 383.918 805.984 396.335C826.946 452.545 832.612 516.546 819.524 575.275C811.708 610.352 798.469 642.53 780.785 673.72L780.308 673.845C774.523 669.818 767.685 666.977 760.73 665.709C752.537 664.217 743.409 664.994 735.053 664.997L693.605 664.956L690.068 664.321C696.701 662.119 702.643 660.334 708.278 655.936C717.746 648.546 725.169 637.437 726.576 625.342L726.669 624.5C727.297 619.081 726.905 613.502 726.737 608.057L725.718 580.565L721.67 469.431L719.193 392.727L718.238 359.276C718.031 352.368 718.129 345.303 717.404 338.431C716.732 332.072 713.788 326.793 711.004 321.189Z"/>
	<path fill="#FFFEFC" transform="scale(0.0585938 0.0585938)" d="M759.53 490.75C759.928 490.692 760.338 490.465 760.726 490.575C761.599 490.824 769.502 498.152 771.052 499.398C771.388 499.668 773.014 501.093 773.169 501.091C773.208 501.091 774.4 500.003 774.479 499.931L781.111 493.881C781.578 493.481 782.745 492.264 783.25 492.068C783.794 491.856 784.417 492.02 785 491.996C786.23 493.024 786.472 492.932 786.615 494.5C784.662 498.615 780.614 501.96 777.386 505.065C780.006 507.92 786.182 512.547 786.909 516.25L785.513 517.75C783.576 518.049 783.457 517.87 781.8 517.004L773.604 509.025C769.216 511.208 764.522 516.628 761.006 520.132C759.517 520.057 759.225 519.303 758.215 518.287C758.597 514.851 767.237 508.038 769.842 505.516L758.25 493.936C758.005 492.305 758.585 492.047 759.53 490.75Z"/>
	<defs>
		<linearGradient id="gradient_1" gradientUnits="userSpaceOnUse" x1="778.66663" y1="835.70831" x2="248.47427" y2="663.57721">
			<stop offset="0" stop-color="#D64D2F"/>
			<stop offset="1" stop-color="#F59981"/>
		</linearGradient>
	</defs>
	<path fill="url(#gradient_1)" transform="scale(0.0585938 0.0585938)" d="M345.376 674.75L625.583 674.58L712.136 674.544L738.695 674.56C744.469 674.569 750.274 674.345 756.008 675.105C766.093 676.442 774.796 680.468 782.03 687.637C784.676 690.26 787.898 693.966 788.739 697.703C789.482 701.005 789.097 705.11 789.1 708.494L789.098 729.841L789.067 810.931C782.873 806.587 776.669 803.294 769.25 801.578C756.06 798.529 740.928 799.804 727.437 799.784L673.25 799.705L582.963 799.783L397.13 799.973L313.38 800.079C297.908 800.111 281.32 799.042 266.027 801.116C253.574 802.805 244.346 807.451 234.369 814.768L234.496 737.529L234.502 715.76C234.507 712.175 234.09 707.89 234.807 704.405C236.207 697.597 239.888 691.351 244.746 686.437C249.754 681.37 256.432 677.543 263.377 675.931C273.548 673.571 285.787 674.827 296.276 674.836L345.376 674.75Z"/>
	<path fill="#141B4F" transform="scale(0.0585938 0.0585938)" d="M472.995 698.999L512.521 698.898L512.45 710.456L499.072 710.451L499.153 762.25L499.168 775.889L487.475 775.896L487.565 710.355L473.016 710.392L472.995 698.999Z"/>
	<path fill="#141B4F" transform="scale(0.0585938 0.0585938)" d="M417.012 699.042L452.08 698.895L452.046 710.095L429.061 710.048C428.371 712.311 428.191 730.878 429.02 732.685L445.873 732.596L445.763 743.513L428.739 743.477L428.638 760.125L428.776 764.622L453.045 764.523L453.05 775.577L417.484 775.503L417.012 699.042Z"/>
	<path fill="#141B4F" transform="scale(0.0585938 0.0585938)" d="M519.073 698.956L530.751 698.807L530.678 739.416C530.689 746.144 529.967 753.87 530.894 760.5C531.065 761.726 531.633 763.077 532.57 763.93C534.223 765.434 535.851 765.675 537.984 765.664C540.26 765.652 542.123 765.291 543.75 763.603C544.656 762.663 545.289 761.575 545.427 760.251C546.073 754.06 545.421 747.041 545.373 740.772L545.085 698.862L557.354 698.819L557.276 708.453L557.173 741.903L557.115 755.588C557.083 759.369 557.291 762.966 555.719 766.508C553.951 770.491 549.861 773.84 545.846 775.344L545.012 775.643C544.268 775.915 543.547 776.182 542.763 776.323C537.404 777.281 530.279 776.444 525.75 773.29C522.515 771.037 520.07 767.478 519.421 763.556L519.339 763C518.272 756.054 519.016 748.314 519.036 741.243L519.073 698.956Z"/>
	<path fill="#141B4F" transform="scale(0.0585938 0.0585938)" d="M613.488 699.018L626.662 699C627.649 703.954 629.808 709.155 631.568 713.892L642.402 742.527L642.398 698.869L653.972 698.846L653.985 758.333L654.014 770.895C654.018 772.448 654.34 774.257 653.5 775.565L651.125 775.626L641.501 775.536L624.962 728.625L624.864 775.88L613.534 775.903L613.488 699.018Z"/>
	<path fill="#141B4F" transform="scale(0.0585938 0.0585938)" d="M369.994 698.936L385.704 698.973C389.638 698.993 393.24 698.732 396.982 700.186C401.055 701.768 404.121 704.514 405.78 708.602C407.826 713.646 406.959 721.437 406.947 726.916C406.939 730.215 407.219 733.814 405.85 736.898L405.566 737.5C404.285 740.258 402.203 742.008 399.991 744.006L401.608 745.37C407.12 750.459 406.049 755.828 406.068 762.701L406.365 775.549L394.556 775.574L394.56 767.25C394.597 762.185 395.784 753.94 391.96 750.027C389.374 747.38 384.881 747.981 381.505 747.975L381.456 775.476L370.045 775.487L369.994 698.936Z"/>
	<path fill="#EC7C67" transform="scale(0.0585938 0.0585938)" d="M381.542 709.893C384.508 709.868 390.3 709.191 392.83 710.845C393.992 711.605 395.019 712.906 395.232 714.3C395.756 717.744 395.397 721.895 395.399 725.415C395.4 727.655 395.707 730.392 395.291 732.55C395.062 733.736 394.626 734.306 393.919 735.25C390.606 737.954 385.663 737.122 381.573 737.107L381.542 709.893Z"/>
	<path fill="#141B4F" transform="scale(0.0585938 0.0585938)" d="M566.968 698.68L589.258 698.752C593.72 699.009 597.555 701.333 600.449 704.691C601.809 706.27 603.04 708.339 603.453 710.4C604.115 713.705 603.7 717.821 603.699 721.211C603.697 725.881 604.073 731.041 603.472 735.655C602.964 739.557 599.479 742.273 596.64 744.612L606.343 775.482C605.166 776.414 595.899 775.797 593.8 775.809L591.339 767.365L585.481 746.074L578.467 746.125L578.509 776.003L566.76 775.977L566.968 698.68Z"/>
	<path fill="#EC7C67" transform="scale(0.0585938 0.0585938)" d="M578.716 710.119C581.275 710.112 586.502 709.68 588.759 710.712C590.122 711.336 591.436 712.453 591.821 713.963C592.243 715.619 592.004 717.841 592.009 719.581C592.017 722.99 592.911 731.716 591.25 734.335C587.448 735.574 582.622 735.06 578.624 735.064L578.716 710.119Z"/>
	<path fill="#167076" transform="scale(0.0585938 0.0585938)" d="M690.268 310.716C699.245 312.298 704.59 314.593 711.004 321.189C713.788 326.793 716.732 332.072 717.404 338.431C718.129 345.303 718.031 352.368 718.238 359.276L719.193 392.727L721.67 469.431L725.718 580.565L726.737 608.057C726.905 613.502 727.297 619.081 726.669 624.5L726.576 625.342C725.169 637.437 717.746 648.546 708.278 655.936C702.643 660.334 696.701 662.119 690.068 664.321L693.605 664.956L511.037 665.048L510.959 363.436L511.622 363.196C524.691 360.243 537.632 355.81 550.5 352.045L606.5 336.042L662.5 320.017C671.303 317.434 681.124 315.236 689.541 311.591C690.218 311.298 689.942 311.533 690.268 310.716Z"/>
	<path fill="#FEEFC8" transform="scale(0.0585938 0.0585938)" d="M609.34 375.718L609.426 375.701C629.57 374.656 651.124 379.604 666.533 393.266C679.004 404.323 686.104 419.168 686.977 435.831L687.258 496.868L687.179 535.398C687.127 547.589 687.754 559.984 684.915 571.926C682.538 581.923 677.135 591.56 670.281 599.148C656.752 614.124 638.731 619.802 619.125 620.765L604.231 620.288C585.932 618.454 566.597 610.493 554.798 595.895C548.877 588.568 544.571 579.326 542.852 570.046C540.379 556.696 541.144 542.67 541.251 529.15L541.379 488.203L541.409 452.422C541.427 446.203 541.025 439.595 541.77 433.424C543.445 419.545 547.268 408.219 556.734 397.614C570.286 382.432 589.699 376.93 609.34 375.718Z"/>
	<path fill="#167076" transform="scale(0.0585938 0.0585938)" d="M609.11 409.178L609.621 409.085C618.088 408.197 628.744 409.789 635.47 415.334C641.387 420.212 644.842 426.83 645.477 434.461C646.168 442.779 645.63 451.547 645.602 459.912L645.537 505.616L645.549 543.755C645.552 550.013 646.129 556.848 645.308 563.019C644.597 568.354 642.437 573.572 638.922 577.674C633.898 583.536 626.908 586.069 619.39 586.582C614.471 586.918 608.895 587.119 604.119 585.799L603.25 585.546C599.647 584.555 596 583.263 593 580.957C586.265 575.779 583.658 566.821 582.721 558.704C582.065 553.023 582.594 546.966 582.653 541.245L582.834 509.063L582.748 459.101C582.735 450.551 582.042 441.451 583.126 433C583.771 427.978 585.626 423.33 588.814 419.357C594.029 412.858 601.006 410.146 609.11 409.178Z"/>
	<path fill="#A6DACB" transform="scale(0.0585938 0.0585938)" d="M313.634 665.002L287.165 664.987C277.491 664.971 267.83 664.293 258.515 667.407C253.095 669.22 248.56 672.219 243.763 675.239L230.25 651.224C193.648 578.089 187.602 487.85 213.532 410.318C239.914 331.433 296.408 264.396 371.151 227.217C413.485 206.158 461.693 194.355 509 194.032C544.066 193.793 579.155 200.088 612.34 211.223C677.183 232.979 734.702 275.989 772.764 333.012C778.473 341.566 784.239 350.291 788.826 359.501C778.639 355.67 768.797 350.024 759.088 345.108L711.004 321.189C704.59 314.593 699.245 312.298 690.268 310.716C689.942 311.533 690.218 311.298 689.541 311.591C681.124 315.236 671.303 317.434 662.5 320.017L606.5 336.042L550.5 352.045C537.632 355.81 524.691 360.243 511.622 363.196L510.959 363.436L511.037 665.048L313.634 665.002Z"/>
	<path fill="#1DB19D" transform="scale(0.0585938 0.0585938)" d="M267.592 512.018L268.267 510.791C270.075 512.487 271.02 513.488 271.391 516C270.947 517.657 270.602 519.057 269.021 520.016C268.314 520.445 267.516 521.065 266.673 520.871C264.871 520.457 263.088 518.206 262.25 516.658L262.132 516.248C264.582 515.356 266.422 514.445 267.592 512.018Z"/>
	<path fill="#1DB19D" transform="scale(0.0585938 0.0585938)" d="M248.438 516.039C250.878 514.951 253.321 512.447 255.401 510.72L259.938 515.303C257.841 517.315 255.812 519.569 253.25 520.977C250.919 520.907 249.422 519.231 247.907 517.635L247.547 517.25C247.894 516.357 247.624 516.779 248.438 516.039Z"/>
	<path fill="#FEEFC8" transform="scale(0.0585938 0.0585938)" d="M248.438 516.039L247.811 516.076C246.285 516.086 244.832 515.415 243.829 514.25C242.701 512.94 242.241 511.749 242.444 510C242.766 507.218 246.275 505.077 248.424 503.568C246.44 501.682 242.845 498.905 242.552 496.062C242.452 495.098 242.726 493.617 243.352 492.864C244.747 491.189 245.726 490.328 248 490.129C250.984 490.929 252.992 493.647 255.076 495.813C256.769 493.922 258.98 490.839 261.709 490.587C262.678 490.497 264.402 490.807 265.135 491.458C267.489 493.548 267.434 495.026 267.588 498.05C268.953 498.565 269.745 499.141 270.447 500.5C271.081 501.726 271.057 502.729 270.591 504C269.97 505.694 268.395 506.959 267.095 508.123L267.592 512.018C266.422 514.445 264.582 515.356 262.132 516.248L259.938 515.303L255.401 510.72C253.321 512.447 250.878 514.951 248.438 516.039Z"/>
	<path fill="#1DB19D" transform="scale(0.0585938 0.0585938)" d="M267.588 498.05C268.953 498.565 269.745 499.141 270.447 500.5C271.081 501.726 271.057 502.729 270.591 504C269.97 505.694 268.395 506.959 267.095 508.123L263.184 503.386C264.529 501.962 265.988 500.547 267.056 498.897L267.588 498.05Z"/>
	<path fill="#141B4F" transform="scale(0.0585938 0.0585938)" d="M553.371 232.582C562.06 230.88 569.413 233.335 576.593 238.25C595.14 250.948 602.973 270.907 607.252 291.991L690.268 310.716C689.942 311.533 690.218 311.298 689.541 311.591C681.124 315.236 671.303 317.434 662.5 320.017L606.5 336.042L550.5 352.045C537.632 355.81 524.691 360.243 511.622 363.196L510.959 363.436L332.865 312.599L411.812 288.933C415.047 280.852 419.086 274.118 425.074 267.764C430.989 261.488 437.945 256.848 445.951 253.647C456.954 249.249 468.688 247.363 480.266 245.173L517.5 238.396C526.978 236.783 536.979 234.301 546.567 233.97L553.371 232.582Z"/>
	<path fill="#148A8C" transform="scale(0.0585938 0.0585938)" d="M458.831 290.333L511.031 273.679L510.974 292.772C511.018 295.408 511.702 299.534 511.045 301.967L454.421 319.412C454.532 309.071 455.416 300.171 458.831 290.333Z"/>
	<path fill="#167076" transform="scale(0.0585938 0.0585938)" d="M543.073 264.543C547.284 265.701 551.861 269.972 553.998 273.75C555.586 276.558 556.48 279.678 557.448 282.736C560.368 292.609 559.549 304.439 559.569 314.713L512.349 302.167L511.045 301.967C511.702 299.534 511.018 295.408 510.974 292.772L511.031 273.679C512.455 273.29 513.828 273.094 515.293 272.925L543.073 264.543Z"/>
	<path fill="#A6DACB" transform="scale(0.0585938 0.0585938)" d="M543.073 264.543C547.284 265.701 551.861 269.972 553.998 273.75C555.586 276.558 556.48 279.678 557.448 282.736L515.293 272.925L543.073 264.543Z"/>
	<path fill="#9F3834" transform="scale(0.0585938 0.0585938)" d="M553.371 232.582C562.06 230.88 569.413 233.335 576.593 238.25C595.14 250.948 602.973 270.907 607.252 291.991L607.825 322.973C604.218 324.018 560.556 337.752 559.79 337.516L559.569 314.713C559.549 304.439 560.368 292.609 557.448 282.736C556.48 279.678 555.586 276.558 553.998 273.75C551.861 269.972 547.284 265.701 543.073 264.543C542.89 259.675 542.998 255.072 543.665 250.25C544.468 244.438 546.265 238.495 551.185 234.83C551.876 234.315 552.439 233.895 552.95 233.19L553.371 232.582Z"/>
	<path fill="#EC7C67" transform="scale(0.0585938 0.0585938)" d="M546.567 233.97L553.371 232.582L552.95 233.19C552.439 233.895 551.876 234.315 551.185 234.83C546.265 238.495 544.468 244.438 543.665 250.25C542.998 255.072 542.89 259.675 543.073 264.543L515.293 272.925C513.828 273.094 512.455 273.29 511.031 273.679L458.831 290.333C455.416 300.171 454.532 309.071 454.421 319.412L454.246 336.971C445.048 335.183 435.663 331.46 426.627 328.815L414.605 325.319C412.558 324.743 409.76 324.364 407.975 323.216C407.944 316.433 407.586 309.393 408.456 302.655C409.055 298.013 410.392 293.382 411.812 288.933C415.047 280.852 419.086 274.118 425.074 267.764C430.989 261.488 437.945 256.848 445.951 253.647C456.954 249.249 468.688 247.363 480.266 245.173L517.5 238.396C526.978 236.783 536.979 234.301 546.567 233.97Z"/>
	<path fill="#D74E47" transform="scale(0.0585938 0.0585938)" d="M546.567 233.97L553.371 232.582L552.95 233.19C552.439 233.895 551.876 234.315 551.185 234.83C546.265 238.495 544.468 244.438 543.665 250.25C542.998 255.072 542.89 259.675 543.073 264.543L515.293 272.925C513.828 273.094 512.455 273.29 511.031 273.679L458.831 290.333C465.544 272.878 482.438 256.368 499.206 248.514C506.756 244.979 515.146 242.791 523.181 240.647L537.057 236.935C539.871 236.236 543.223 235.77 545.768 234.416L546.567 233.97Z"/>
	<path fill="#1DB19D" transform="scale(0.0585938 0.0585938)" d="M313.634 665.002C306.609 656.386 301.033 647.342 298.526 636.398L298.329 635.514C296.495 627.523 297.075 618.451 297.063 610.27L297.029 578.082L297.002 456.687L297.051 388.843L297.118 365.963C297.16 360.897 296.994 355.391 298.168 350.446C299.106 346.494 300.138 342.803 301.878 339.112C308.39 325.298 318.826 317.676 332.865 312.599L510.959 363.436L511.037 665.048L313.634 665.002Z"/>
	<path fill="#167076" transform="scale(0.0585938 0.0585938)" d="M368.532 511.072C385.022 511.067 406.463 512.971 418.87 525.132C421.304 527.517 423.475 530.254 424.811 533.401L423.25 533.079C420.401 530.544 417.282 528.004 413.895 526.231L413.129 525.839C399.551 518.802 383.552 518.073 368.582 516.956L368.532 511.072Z"/>
	<path fill="#167076" transform="scale(0.0585938 0.0585938)" d="M348.906 428.821C365.128 419.565 385.689 410.913 404.716 415.965C410.811 417.584 416.47 420.805 419.589 426.484C420.101 427.417 420.542 428.349 420.888 429.357C415.728 426.992 411.669 424.307 406.037 422.834L402.879 422.123C384.729 419.43 367.212 426.581 352.769 436.996C351.254 434.356 349.732 431.773 348.906 428.821Z"/>
	<path fill="#167076" transform="scale(0.0585938 0.0585938)" d="M473.313 532.337C477.248 536.204 477.936 547.826 477.996 553.326C478.201 572.104 472.078 590.493 458.714 603.979C441.118 621.736 418.207 629.546 393.473 629.508C373.191 629.477 353.97 624.75 335.631 616.261C333.225 615.147 328.579 613.458 326.873 611.624L326.594 611.25L328.227 608.386C353.162 619.862 379.121 625.415 406.468 621.293C427.593 618.109 449.28 608.078 462.101 590.441C474.603 573.243 476.663 552.831 473.313 532.337Z"/>
	<path fill="#FEEFC8" transform="scale(0.0585938 0.0585938)" d="M348.906 428.821C345.958 424.429 344.223 418.849 342.146 413.979L333.873 394.475L351.112 386.17C377.618 375.956 411.198 371.772 437.812 383.977C449.575 389.371 458.406 398.725 463.422 410.638C464.523 413.252 465.036 415.959 466.047 418.572L466.372 419.394C468.035 422.139 468.459 424.969 469.029 428.078C470.661 436.969 470.451 446.539 468.287 455.329C465.213 467.815 457.434 478.586 447.458 486.515C444.297 489.027 440.789 491.026 437.612 493.509C450.782 498.21 462.747 506.621 468.865 519.514C470.238 522.408 471.267 525.383 472.171 528.453C472.403 529.239 472.862 531.885 473.313 532.337C476.663 552.831 474.603 573.243 462.101 590.441C449.28 608.078 427.593 618.109 406.468 621.293C379.121 625.415 353.162 619.862 328.227 608.386L321.903 605.009L336.096 569.272C343.61 573.986 352.749 578.116 361.259 580.538C377.901 585.274 397.101 585.679 412.55 576.994C419.66 572.997 425.55 566.466 427.618 558.428C429.585 550.78 428.821 540.307 424.811 533.401C423.475 530.254 421.304 527.517 418.87 525.132C406.463 512.971 385.022 511.067 368.532 511.072L366.75 510.721C365.324 508.69 365.96 504.082 365.917 501.468L365.828 473.015C379.451 472.88 393.861 472.415 406.13 465.848C413.189 462.07 419.075 455.753 421.336 447.956L421.608 447C423.244 441.473 422.882 434.764 420.888 429.357C420.542 428.349 420.101 427.417 419.589 426.484C416.47 420.805 410.811 417.584 404.716 415.965C385.689 410.913 365.128 419.565 348.906 428.821Z"/>
	<path fill="#167076" transform="scale(0.0585938 0.0585938)" d="M466.372 419.394C468.035 422.139 468.459 424.969 469.029 428.078C470.661 436.969 470.451 446.539 468.287 455.329C465.213 467.815 457.434 478.586 447.458 486.515C444.297 489.027 440.789 491.026 437.612 493.509L426.268 490.222C438.161 484.832 449.764 476.845 457.47 466.164C467.279 452.569 468.953 435.566 466.372 419.394Z"/>
</svg>
