<?xml version="1.0" encoding="utf-8" ?>
<svg xmlns="http://www.w3.org/2000/svg" xmlns:xlink="http://www.w3.org/1999/xlink" width="60" height="60">
	<path fill="#4D4B8E" transform="matrix(0.0585938 0 0 0.0585938 0 -7.62939e-06)" d="M-0 -0L1024 0L1024 1024L-0 1024L0 -0Z"/>
	<path fill="#09246D" transform="matrix(0.0585938 0 0 0.0585938 0 -7.62939e-06)" d="M870.279 267.582C874.316 271.335 876.779 290.822 876.987 296.5C877.216 302.759 876.719 308.601 876.011 314.8C875.724 317.315 875.696 320.023 874.549 322.317L867.503 304.913C868.607 302.89 869.019 299.295 869.4 296.988C871.041 287.05 871.256 277.575 870.279 267.582Z"/>
	<path fill="#09246D" transform="matrix(0.0585938 0 0 0.0585938 0 -7.62939e-06)" d="M139.984 660.774L157.779 660.468C161.686 668.502 166.354 676.147 170.998 683.77C187.484 710.828 206.96 734.783 227.777 758.561L227.824 781.534C222.451 777.522 217.483 771.421 212.9 766.454C190.743 742.445 171.632 716.54 154.949 688.464C149.658 679.56 144.09 670.278 139.984 660.774Z"/>
	<path fill="#09246D" transform="matrix(0.0585938 0 0 0.0585938 0 -7.62939e-06)" d="M878.952 616.534C879.515 616.982 897.739 616.498 899.82 616.475C897.121 625.955 893.482 635.181 889.916 644.362C869.115 697.916 837.002 745.082 795.464 784.736L779.426 798.939C776.857 801.033 773.988 802.835 771.486 804.987L761.574 786.979C771.899 779.499 781.835 770.026 790.794 761.002C830.812 720.691 861.522 670.654 878.952 616.534Z"/>
	<path fill="#F6C32A" transform="matrix(0.0585938 0 0 0.0585938 0 -7.62939e-06)" d="M867.503 304.913L874.549 322.317L875.113 323.987C882.935 342.577 888.654 361.809 893.237 381.432L897.774 403.043L814.964 403.094L812.83 385.689L810.064 370.984L819.75 366.563C835.44 357.923 849.419 344.63 858.082 328.879C862.319 321.174 865.064 313.328 867.503 304.913Z"/>
	<path fill="#E39F1D" transform="matrix(0.0585938 0 0 0.0585938 0 -7.62939e-06)" d="M867.503 304.913L874.549 322.317L875.113 323.987L874.715 324.551C873.608 326.235 873.374 328.704 872.68 330.616C871.356 334.267 869.801 337.773 868.038 341.231C859.111 358.743 844.684 373.576 826.5 381.449C822.131 383.34 817.417 384.457 812.83 385.689L810.064 370.984L819.75 366.563C835.44 357.923 849.419 344.63 858.082 328.879C862.319 321.174 865.064 313.328 867.503 304.913Z"/>
	<path fill="#1090B9" transform="matrix(0.0585938 0 0 0.0585938 0 -7.62939e-06)" d="M771.95 178.992C799.754 179.553 824.046 190.318 843.468 210.316C853.627 220.775 861.689 234.55 865.985 248.5C867.916 254.77 868.982 261.168 870.279 267.582C871.256 277.575 871.041 287.05 869.4 296.988C869.019 299.295 868.607 302.89 867.503 304.913C865.064 313.328 862.319 321.174 858.082 328.879C849.419 344.63 835.44 357.923 819.75 366.563L810.064 370.984C797.585 375.272 785.723 378.164 772.499 378.75L772.481 361.739C792.517 361.021 811.526 354.822 826.591 341.164C843.816 325.547 852.282 304.554 853.331 281.642C854.245 261.679 846.131 239.833 832.735 225.09C816.078 206.759 796.55 197.811 771.969 196.602L771.95 178.992Z"/>
	<path fill="#F6C32A" transform="matrix(0.0585938 0 0 0.0585938 0 -7.62939e-06)" d="M157.779 660.468C160.923 660.055 164.263 660.28 167.433 660.27L185.677 660.224L246.712 659.939L271.534 696.532L246.521 696.691C243.088 696.669 238.655 696.069 235.322 696.734C233.354 697.127 231.428 698.616 230.092 700.048C229.356 700.839 228.6 701.74 228.32 702.806C227.385 706.37 228.019 711.421 228.012 715.157L227.97 743.761C227.963 748.577 228.361 753.79 227.777 758.561C206.96 734.783 187.484 710.828 170.998 683.77C166.354 676.147 161.686 668.502 157.779 660.468Z"/>
	<path fill="#DEEBEF" transform="matrix(0.0585938 0 0 0.0585938 0 -7.62939e-06)" d="M771.969 196.602C796.55 197.811 816.078 206.759 832.735 225.09C846.131 239.833 854.245 261.679 853.331 281.642C852.282 304.554 843.816 325.547 826.591 341.164C811.526 354.822 792.517 361.021 772.481 361.739C770.965 361.927 769.432 361.704 767.917 361.573L771.95 361.291C772.921 359.747 772.409 356.047 772.392 354.144L772.136 335.446C770.332 334.884 769.199 334.403 767.762 333.161L768.408 332.771L771.544 334.416C772.237 330.591 771.966 326.533 771.97 322.657L771.942 304.354L771.586 244.311C771.565 233.921 771.126 223.365 771.852 213.008L770.448 212.894L771.808 212.378L771.969 196.602Z"/>
	<path fill="#F6C32A" transform="matrix(0.0585938 0 0 0.0585938 0 -7.62939e-06)" d="M771.852 213.008C775.584 213.754 778.989 215.204 781.231 218.441C782.296 219.979 783.214 221.738 783.574 223.585C784.797 229.869 784.019 237.636 784.063 244.084C784.072 245.533 783.728 248.954 784.372 250.134C785.251 251.744 788.525 254.162 789.924 255.515L806.526 271.425C811.066 275.642 817.862 280.479 821.035 285.695C822.686 288.407 823.285 292.136 822.608 295.223C821.744 299.165 819.667 302.427 816.217 304.637C811.182 307.864 803.824 306.056 798.189 305.453C791.991 304.789 785.697 303.893 779.46 303.85L779.475 319.176C779.462 323.618 780.317 329.346 776.925 332.809C775.65 334.112 773.879 334.991 772.136 335.446C770.332 334.884 769.199 334.403 767.762 333.161L768.408 332.771L771.544 334.416C772.237 330.591 771.966 326.533 771.97 322.657L771.942 304.354L771.586 244.311C771.565 233.921 771.126 223.365 771.852 213.008Z"/>
	<path fill="#FBFBF9" transform="matrix(0.0585938 0 0 0.0585938 0 -7.62939e-06)" d="M764.64 179.134L771.95 178.992L771.969 196.602L771.808 212.378L770.448 212.894L771.852 213.008C771.126 223.365 771.565 233.921 771.586 244.311L771.942 304.354L771.97 322.657C771.966 326.533 772.237 330.591 771.544 334.416L768.408 332.771L767.762 333.161C769.199 334.403 770.332 334.884 772.136 335.446L772.392 354.144C772.409 356.047 772.921 359.747 771.95 361.291L767.917 361.573C769.432 361.704 770.965 361.927 772.481 361.739L772.499 378.75C753.617 378.236 736.35 373.712 720.196 363.731C696.649 349.18 682.589 328.36 676.332 301.609C671.498 280.942 673.649 258.163 682.223 238.747C684.654 233.243 687.755 228.427 690.909 223.33L694.197 218.673C711.581 196.608 736.744 182.49 764.64 179.134Z"/>
	<path fill="#EFD922" transform="matrix(0.0585938 0 0 0.0585938 0 -7.62939e-06)" d="M770.448 212.894L771.852 213.008C771.126 223.365 771.565 233.921 771.586 244.311L771.942 304.354L771.97 322.657C771.966 326.533 772.237 330.591 771.544 334.416L768.408 332.771L767.762 333.161L767.387 332.829C766.474 331.894 765.803 330.66 765.49 329.393C764.937 327.153 765.35 323.884 765.347 321.559L765.363 302.295L744.929 305.296C741.263 305.857 736.937 306.998 733.258 306.837C730.936 306.735 728.458 305.749 726.5 304.538C722.983 302.362 720.876 298.963 720.059 294.942C719.551 292.441 719.565 289.282 720.702 286.95C723.664 280.878 731.046 275.411 736.004 270.828L753.884 253.852C754.689 253.056 757.797 250.556 758.069 249.691C758.414 248.594 758.062 245.95 758.06 244.723C758.052 237.342 756.367 224.136 760.81 217.962C763.036 214.869 766.861 213.576 770.448 212.894Z"/>
	<path fill="#7ABBDB" transform="matrix(0.0585938 0 0 0.0585938 0 -7.62939e-06)" d="M764.64 179.134L771.95 178.992L771.969 196.602C767.843 196.765 763.542 196.771 759.472 197.481C741.613 200.596 725.025 210.325 712.829 223.613C698.181 239.574 689.849 261.976 690.851 283.721C691.82 304.73 701.755 325.673 717.388 339.689C730.785 351.701 749.468 361.693 767.917 361.573C769.432 361.704 770.965 361.927 772.481 361.739L772.499 378.75C753.617 378.236 736.35 373.712 720.196 363.731C696.649 349.18 682.589 328.36 676.332 301.609C671.498 280.942 673.649 258.163 682.223 238.747C684.654 233.243 687.755 228.427 690.909 223.33L694.197 218.673C711.581 196.608 736.744 182.49 764.64 179.134Z"/>
	<path fill="#F6C32A" transform="matrix(0.0585938 0 0 0.0585938 0 -7.62939e-06)" d="M116.128 473.59C115.832 460.93 116.94 448.195 118.201 435.614C125.744 360.37 155.554 285.512 204.75 227.755C274.307 146.096 372.909 94.5512 480.026 86.0373C533.408 81.7944 586.71 88.4599 637.5 105.439C657.305 112.06 677.121 120.219 695.46 130.272C720.214 143.841 743.204 160.851 764.64 179.134C736.744 182.49 711.581 196.608 694.197 218.673L690.909 223.33C684.898 218.967 678.345 215.184 672.007 211.311C610.891 173.965 537.182 157.599 466.126 169.052C420.686 176.377 377.039 193.281 338.773 218.873L320.519 231.945C316.294 235.23 312.187 238.864 307.769 241.867C305.374 241.179 302.756 238.299 300.828 236.664C301.526 235.71 302.053 234.591 302.494 233.495C303.319 231.446 304.068 229.385 303.207 227.293C300.743 225.678 297.883 224.856 295.143 223.821C292.555 222.843 289.26 221.22 286.496 220.986C279.523 220.395 279.763 231.689 275.75 235.345C272.389 232.733 269.677 222.508 266.188 221.689C262.735 220.878 256 223.779 252.965 225.584L253.974 239.383C252.218 240.151 250.484 240.969 248.64 241.506C245.656 242.922 239.041 247.163 235.936 246.153C234.908 245.819 234.143 244.869 233.381 244.152C230.011 240.981 226.992 242.051 223 243.439C222.567 243.59 222.061 243.737 221.808 244.133L221.64 244.639C220.542 247.168 217.668 249.704 215.951 251.917C213.965 254.477 212.521 257.172 211.159 260.094L218.021 269L218.897 270C213.805 277.894 212.911 285.324 212.863 294.558C209.668 294.763 206.09 294.697 202.985 295.414C201.567 300.134 202.204 304.4 202.765 309.185C203.46 315.12 204.237 321.092 206.306 326.729L201.235 327.437C203.979 328.967 205.915 335.33 207.504 338.232C210.35 343.424 213.285 348.373 218.194 351.863C217.713 354.795 216.373 357.557 215.441 360.373C214.546 363.578 212.935 367.341 212.547 370.572C209.401 378.682 207.371 387.526 205.43 396C200.561 417.25 197.776 439.318 196.806 461.1L196.655 461.715C196.33 463.154 197.071 467.388 196.564 468.229C195.878 469.368 193.699 470.943 192.681 471.91L183.121 481.519L116.242 481.104L116.233 473.676L116.128 473.59Z"/>
	<path fill="#568446" transform="matrix(0.0585938 0 0 0.0585938 0 -7.62939e-06)" d="M252.965 225.584L253.974 239.383C252.218 240.151 250.484 240.969 248.64 241.506L245.677 228.946L252.965 225.584Z"/>
	<path fill="#568446" transform="matrix(0.0585938 0 0 0.0585938 0 -7.62939e-06)" d="M221.808 244.133L221.64 244.639C220.542 247.168 217.668 249.704 215.951 251.917C213.965 254.477 212.521 257.172 211.159 260.094L218.021 269C215.246 271.3 212.013 274.412 210.366 277.66C208.613 276.237 206.981 274.629 205.71 272.75C203.635 269.683 202.832 265.026 203.692 261.408C205.251 254.848 216.42 247.705 221.808 244.133Z"/>
	<path fill="#819E3A" transform="matrix(0.0585938 0 0 0.0585938 0 -7.62939e-06)" d="M218.021 269L218.897 270C213.805 277.894 212.911 285.324 212.863 294.558C209.668 294.763 206.09 294.697 202.985 295.414C201.567 300.134 202.204 304.4 202.765 309.185C203.46 315.12 204.237 321.092 206.306 326.729L201.235 327.437L200.93 327.49C198.25 327.647 194.383 328.015 192.3 326.186C189.272 318.129 189.032 309.058 188.9 300.544L203.072 294.976C204.67 292.213 205.442 288.758 206.497 285.75C207.509 282.863 208.827 280.298 210.366 277.66C212.013 274.412 215.246 271.3 218.021 269Z"/>
	<path fill="#4D4B8E" transform="matrix(0.0585938 0 0 0.0585938 0 -7.62939e-06)" d="M510.857 109.157C514.131 109.307 516.403 109.85 519.325 111.479C523.051 113.556 525.259 116.623 526.19 120.79C527.032 124.562 526.133 129.362 523.959 132.584C521.231 136.63 517.677 137.818 513.149 138.654C509.701 138.625 506.307 138.385 503.333 136.4C499.801 134.042 497.465 130.765 496.785 126.525C496.159 122.631 497.563 117.955 499.95 114.841C502.779 111.151 506.391 109.816 510.857 109.157Z"/>
	<path fill="#DF6374" transform="matrix(0.0585938 0 0 0.0585938 0 -7.62939e-06)" d="M702.448 403.415C707.114 402.742 712.202 403.061 716.924 403.049L741.564 403.015L814.964 403.094L897.774 403.043C911.489 402.882 926.572 400.881 938.909 407.946C947.178 412.053 953.038 418.769 956.059 427.5C956.969 430.129 957.536 432.64 957.708 435.411C958.269 444.442 957.895 453.71 957.91 462.767L957.964 514.215L957.939 559.899C957.916 568.802 958.267 577.949 957.478 586.814C957.143 590.578 955.993 594.124 954.285 597.482C950.121 605.668 943.353 611.903 934.516 614.644L933 615.068L932.197 615.299C927.701 616.512 922.78 616.422 918.15 616.453L899.82 616.475C897.739 616.498 879.515 616.982 878.952 616.534C861.522 670.654 830.812 720.691 790.794 761.002C781.835 770.026 771.899 779.499 761.574 786.979L771.486 804.987L768.797 805.477C765.882 804.957 762.189 805.363 759.198 805.356L738.087 805.448L737.835 804.051C736.656 803.986 735.415 803.391 734.232 803.142C729.365 802.117 725.421 800.844 721 798.492C717.163 796.45 714.362 794.054 711.31 791.02L702.988 805.529L693.317 805.597L683.742 805.65C688.736 796.827 692.728 787.453 696.679 778.135C697.977 775.073 700.473 770.92 700.425 767.614C695.308 769.571 694.82 777.825 690.75 781.542L689.543 781.427C687.057 778.454 686.036 773.761 684.825 770.107C682.531 763.19 680.015 756.323 678.661 749.144L676.918 741.061L660.815 685.229L651.785 658.183C648.838 650.069 645.746 642.189 640.657 635.133C634.149 626.11 625.132 619.525 615.767 613.743C632.903 609.442 648.653 602.104 663.579 592.703C662.249 589.033 661.837 585.478 661.52 581.627C658.092 579.26 654.129 577.532 650.5 575.483C638.071 568.466 621.602 559.08 614.243 546.508C609.896 539.081 608.414 531.231 610.7 522.873C613.083 514.157 616.752 506.342 620.524 498.177C629.56 493.829 638.504 489.577 646.307 483.179C653.267 478.033 659.188 471.979 664.761 465.39L670.205 457.616L670.47 457.157L678.024 457.043C684.034 454.636 687.911 450.945 690.576 445.024C693.567 441.494 696.036 437.422 697.696 433.102C701.572 423.014 699.985 413.078 695.746 403.474L702.448 403.415Z"/>
	<path fill="#D12E49" transform="matrix(0.0585938 0 0 0.0585938 0 -7.62939e-06)" d="M715.215 486.547L740.721 486.771C740.931 482.454 741.43 478.184 743.364 474.257C745.284 470.36 749.343 467.924 753.313 466.542C758.316 464.8 763.27 464.852 768.043 467.224C772.853 469.614 776.125 473.87 777.781 478.913C775.93 477.428 774.155 475.539 772.154 474.302C768.764 472.205 763.929 472.181 760.074 472.574C755.665 473.023 751.465 475.344 748.654 478.753C744.951 483.243 744.288 488.498 743.618 494.02L714.978 493.965C715.004 491.568 714.785 488.896 715.215 486.547Z"/>
	<path fill="#D12E49" transform="matrix(0.0585938 0 0 0.0585938 0 -7.62939e-06)" d="M810.036 553.744L813 554.052C813.988 555.83 813.484 559.197 813.463 561.304L813.382 580.936L714.749 580.937L714.849 574.546C727.181 574.559 806.898 575.405 809.582 574.036C810.323 572.458 809.988 569.801 809.997 568.043L810.036 553.744Z"/>
	<path fill="#FBFBF9" transform="matrix(0.0585938 0 0 0.0585938 0 -7.62939e-06)" d="M715.215 486.547L715.313 485.524C716.674 472.041 720.605 460.226 731.527 451.438C742.049 442.973 757.914 442.074 770.75 443.585C780.875 444.778 791.716 449.445 798.927 456.747C800.67 458.512 802.094 460.703 803.607 462.664C805.983 463.288 807.898 466.212 809.086 468.241C814.765 477.944 815.724 489.947 812.742 500.675C807.748 518.641 791.897 532.437 777.292 542.894C773.756 545.426 769.864 547.429 766.459 550.143C777.872 550.839 789.703 550.043 801.168 549.988C803.21 549.978 807.422 549.43 809.25 550.01C809.586 550.117 809.755 550.503 810.007 550.75L810.036 553.744L809.997 568.043C809.988 569.801 810.323 572.458 809.582 574.036L714.766 574.039L714.892 559.465C714.903 558.487 714.641 555.952 714.939 555.174C715.206 554.48 719.695 551.221 720.476 550.557L751.58 523.637C761.023 515.098 771.703 506.729 776.953 494.75C779.177 489.676 779.682 484.171 777.781 478.913C776.125 473.87 772.853 469.614 768.043 467.224C763.27 464.852 758.316 464.8 753.313 466.542C749.343 467.924 745.284 470.36 743.364 474.257C741.43 478.184 740.931 482.454 740.721 486.771L715.215 486.547Z"/>
	<path fill="#D12E49" transform="matrix(0.0585938 0 0 0.0585938 0 -7.62939e-06)" d="M803.607 462.664C805.983 463.288 807.898 466.212 809.086 468.241C814.765 477.944 815.724 489.947 812.742 500.675C807.748 518.641 791.897 532.437 777.292 542.894C773.756 545.426 769.864 547.429 766.459 550.143C763.316 551.241 757.531 550.481 754.068 550.498C760.728 544.785 767.962 540.674 775.078 535.639C788.942 525.83 802.574 511.483 807.783 495.087C811.421 483.634 808.955 473.026 803.607 462.664Z"/>
	<path fill="#FBFBF9" transform="matrix(0.0585938 0 0 0.0585938 0 -7.62939e-06)" d="M886.604 573.064C884.927 573.06 883.299 573.107 881.65 572.75L881.97 551.377L817.604 551.897L817.527 534.412C817.52 532.859 817.112 529.942 817.5 528.516C817.816 527.358 824.258 520.113 825.396 518.594L861.024 471.265L881.62 443.485L909.122 443.5L909.044 531.629C914.126 531.581 921.322 530.709 926.167 531.897L926.097 532.452C925.485 538.155 927.616 544.69 928.607 550.321L909.583 550.325L909.541 572.926L886.604 573.064Z"/>
	<path fill="#D12E49" transform="matrix(0.0585938 0 0 0.0585938 0 -7.62939e-06)" d="M880.229 476.727L880.356 485.56C880.368 486.387 880.653 488.369 880.408 489.098C879.319 492.33 876.032 496.259 874.157 499.151L855.958 526.906L844.618 526.959C849.019 522.269 852.498 516.442 856.155 511.158L880.229 476.727Z"/>
	<path fill="#DF6374" transform="matrix(0.0585938 0 0 0.0585938 0 -7.62939e-06)" d="M880.229 476.727L881.75 474.649L882.269 474.922L881.689 478.902C881.568 479.908 881.691 479.237 881.34 480.097C880.604 481.9 881.027 486.248 881.623 488.088C882.371 490.397 881.521 495.322 881.498 497.93L881.631 526.526C880.062 527.285 876.648 526.866 874.837 526.872L855.958 526.906L874.157 499.151C876.032 496.259 879.319 492.33 880.408 489.098C880.653 488.369 880.368 486.387 880.356 485.56L880.229 476.727Z"/>
	<path fill="#D12E49" transform="matrix(0.0585938 0 0 0.0585938 0 -7.62939e-06)" d="M938.909 407.946C947.178 412.053 953.038 418.769 956.059 427.5C956.969 430.129 957.536 432.64 957.708 435.411C958.269 444.442 957.895 453.71 957.91 462.767L957.964 514.215L957.939 559.899C957.916 568.802 958.267 577.949 957.478 586.814C957.143 590.578 955.993 594.124 954.285 597.482C950.121 605.668 943.353 611.903 934.516 614.644L933 615.068L932.197 615.299C927.701 616.512 922.78 616.422 918.15 616.453L899.82 616.475C897.739 616.498 879.515 616.982 878.952 616.534L792.638 616.729L782.73 616.934C781.796 616.935 779.47 616.634 778.659 616.927C778.037 617.152 776.457 619.06 775.932 619.573L766.017 629.617L737.905 657.651L727.088 669.226L732.899 639.159L764.401 611.378C765.173 610.727 766.086 609.845 767.044 609.5C769.961 608.447 774.25 608.571 777.397 608.082L799.219 604.016C818.713 599.931 838.375 593.99 856.692 586.122L875.211 577.413C876.831 576.55 880.214 573.778 881.929 573.57L886.604 573.064L909.541 572.926L909.583 550.325L928.607 550.321C927.616 544.69 925.485 538.155 926.097 532.452L926.167 531.897L926.25 531.918C926.555 531.582 926.711 531.438 926.956 531C928.902 527.527 930.335 523.166 931.742 519.43C935.316 509.934 938.414 499.739 940.021 489.706C942.4 474.855 941.588 459.212 941.604 444.184C941.612 435.582 942.128 426.469 941.246 417.919C940.89 414.474 940.021 411.219 938.909 407.946Z"/>
	<path fill="#E6797E" transform="matrix(0.0585938 0 0 0.0585938 0 -7.62939e-06)" d="M695.746 403.474L702.448 403.415L703.049 403.464L716.745 403.482C707.031 421.935 703.141 441.398 701.149 462C698.698 487.367 699.645 512.834 699.98 538.275L700.649 614.562C696.983 614.618 692.923 614.348 689.34 615.067L683.762 613.426C673.96 609.492 667.637 602.225 663.579 592.703C662.249 589.033 661.837 585.478 661.52 581.627C658.092 579.26 654.129 577.532 650.5 575.483C638.071 568.466 621.602 559.08 614.243 546.508C609.896 539.081 608.414 531.231 610.7 522.873C613.083 514.157 616.752 506.342 620.524 498.177C629.56 493.829 638.504 489.577 646.307 483.179C653.267 478.033 659.188 471.979 664.761 465.39L670.205 457.616L670.47 457.157L678.024 457.043C684.034 454.636 687.911 450.945 690.576 445.024C693.567 441.494 696.036 437.422 697.696 433.102C701.572 423.014 699.985 413.078 695.746 403.474Z"/>
	<path fill="#824304" transform="matrix(0.0585938 0 0 0.0585938 0 -7.62939e-06)" d="M664.761 465.39C665.45 472.7 663.996 480.425 664.042 487.796C664.171 508.563 667.351 531.328 677.75 549.647C680.974 555.327 684.871 560.071 689.021 565.059L662.012 566.673L661.52 581.627C658.092 579.26 654.129 577.532 650.5 575.483C638.071 568.466 621.602 559.08 614.243 546.508C609.896 539.081 608.414 531.231 610.7 522.873C613.083 514.157 616.752 506.342 620.524 498.177C629.56 493.829 638.504 489.577 646.307 483.179C653.267 478.033 659.188 471.979 664.761 465.39Z"/>
	<path fill="#4D4B8E" transform="matrix(0.0585938 0 0 0.0585938 0 -7.62939e-06)" d="M663.579 592.703C667.637 602.225 673.96 609.492 683.762 613.426L689.34 615.067C692.923 614.348 696.983 614.618 700.649 614.562L724.032 614.517C728.545 614.503 733.41 614.855 737.831 613.913L737.42 616.042L732.899 639.159L727.088 669.226L737.905 657.651L766.017 629.617L775.932 619.573C776.457 619.06 778.037 617.152 778.659 616.927C779.47 616.634 781.796 616.935 782.73 616.934L792.638 616.729C773.593 662.192 742.629 701.769 703.769 731.994C695.99 738.045 687.63 745.022 678.661 749.144L676.918 741.061L660.815 685.229L651.785 658.183C648.838 650.069 645.746 642.189 640.657 635.133C634.149 626.11 625.132 619.525 615.767 613.743C632.903 609.442 648.653 602.104 663.579 592.703Z"/>
	<path fill="#D12E49" transform="matrix(0.0585938 0 0 0.0585938 0 -7.62939e-06)" d="M737.831 613.913L737.42 616.042C730.961 616.913 724.036 616.543 717.511 616.57C708.312 616.608 698.235 617.49 689.34 615.067C692.923 614.348 696.983 614.618 700.649 614.562L724.032 614.517C728.545 614.503 733.41 614.855 737.831 613.913Z"/>
	<path fill="#F6C32A" transform="matrix(0.0585938 0 0 0.0585938 0 -7.62939e-06)" d="M792.638 616.729L878.952 616.534C861.522 670.654 830.812 720.691 790.794 761.002C781.835 770.026 771.899 779.499 761.574 786.979L771.486 804.987L768.797 805.477C765.882 804.957 762.189 805.363 759.198 805.356L738.087 805.448L737.835 804.051C736.656 803.986 735.415 803.391 734.232 803.142C729.365 802.117 725.421 800.844 721 798.492C717.163 796.45 714.362 794.054 711.31 791.02L702.988 805.529L693.317 805.597L683.742 805.65C688.736 796.827 692.728 787.453 696.679 778.135C697.977 775.073 700.473 770.92 700.425 767.614C695.308 769.571 694.82 777.825 690.75 781.542L689.543 781.427C687.057 778.454 686.036 773.761 684.825 770.107C682.531 763.19 680.015 756.323 678.661 749.144C687.63 745.022 695.99 738.045 703.769 731.994C742.629 701.769 773.593 662.192 792.638 616.729Z"/>
	<path fill="#D90A2A" transform="matrix(0.0585938 0 0 0.0585938 0 -7.62939e-06)" d="M711.31 791.02L731.534 754.75C733.074 751.997 734.339 748.946 737.527 748.051C739.121 748.215 739.906 748.244 741.005 749.5C743.262 752.078 745.069 756.617 746.796 759.699C751.822 768.671 757.311 777.619 761.574 786.979L771.486 804.987L768.797 805.477C765.882 804.957 762.189 805.363 759.198 805.356L738.087 805.448L737.835 804.051C736.656 803.986 735.415 803.391 734.232 803.142C729.365 802.117 725.421 800.844 721 798.492C717.163 796.45 714.362 794.054 711.31 791.02Z"/>
	<path fill="#D12E49" transform="matrix(0.0585938 0 0 0.0585938 0 -7.62939e-06)" d="M711.31 791.02L731.534 754.75C733.074 751.997 734.339 748.946 737.527 748.051L737.835 804.051C736.656 803.986 735.415 803.391 734.232 803.142C729.365 802.117 725.421 800.844 721 798.492C717.163 796.45 714.362 794.054 711.31 791.02Z"/>
	<path fill="#09246D" transform="matrix(0.0585938 0 0 0.0585938 0 -7.62939e-06)" d="M544.037 586.006C547.175 585.616 550.56 587.542 553.46 588.631L576.394 597.437L615.767 613.743C625.132 619.525 634.149 626.11 640.657 635.133C645.746 642.189 648.838 650.069 651.785 658.183L660.815 685.229L676.918 741.061L678.661 749.144C680.015 756.323 682.531 763.19 684.825 770.107C686.036 773.761 687.057 778.454 689.543 781.427L690.75 781.542C694.82 777.825 695.308 769.571 700.425 767.614C700.473 770.92 697.977 775.073 696.679 778.135C692.728 787.453 688.736 796.827 683.742 805.65L693.317 805.597L702.988 805.529L711.31 791.02C714.362 794.054 717.163 796.45 721 798.492C725.421 800.844 729.365 802.117 734.232 803.142C735.415 803.391 736.656 803.986 737.835 804.051L738.087 805.448L759.198 805.356C762.189 805.363 765.882 804.957 768.797 805.477L782.371 805.42C786.014 805.383 790.036 804.966 793.62 805.547C794.911 805.757 795.849 806.236 796.784 807.138C797.991 808.302 798.978 809.903 799.31 811.557C799.997 814.976 799.513 819.421 799.501 822.974L799.457 842.252C799.427 842.94 799.394 842.784 799.071 843.598L798.973 891.243C814.1 894.143 830.131 896.58 844.238 903.03C847.825 904.67 854.214 907.439 855.344 911.579C855.726 912.98 855.719 915.01 854.936 916.25C852.677 919.83 848.103 922.103 844.396 923.848C829.899 930.672 813.381 934.084 797.675 936.749C717.001 950.438 635.229 955.029 553.5 956.052L445.5 955.525C376.352 953.467 306.82 949.747 238.488 938.383C220.55 935.4 202.667 932.31 185.25 926.981C179.177 925.122 172.197 923.052 167.03 919.286L166.505 918.893C165.418 918.092 164.603 917.339 163.859 916.19C163.031 914.912 162.603 913.237 163.129 911.739C166.656 901.695 200.994 895.319 210.77 893.689C215.895 892.834 222.98 892.677 227.73 890.75L228.065 888.951C227.439 886 227.816 882.276 227.81 879.246L227.853 858.659L227.824 781.534L227.777 758.561C228.361 753.79 227.963 748.577 227.97 743.761L228.012 715.157C228.019 711.421 227.385 706.37 228.32 702.806C228.6 701.74 229.356 700.839 230.092 700.048C231.428 698.616 233.354 697.127 235.322 696.734C238.655 696.069 243.088 696.669 246.521 696.691L271.534 696.532L298.362 696.103L356.289 696.5L363.639 668.266C370.495 648.24 379.865 630.693 397.694 618.339C404.409 613.686 411.632 610.236 418.937 606.646L441.645 597.807L469.349 586.39L472.677 589.367C473.223 590.766 474.976 592.514 475.965 593.712L485.628 605.052L507.595 630.759L544.037 586.006Z"/>
	<path fill="#0A719D" transform="matrix(0.0585938 0 0 0.0585938 0 -7.62939e-06)" d="M266.308 886.956L278.615 887.092C275.89 887.228 269.611 886.695 267.848 888.416C261.043 888.603 253.387 889.506 246.671 888.591L247.373 888.231L247.25 887.755L246.248 887.875L247.549 886.994L266.308 886.956Z"/>
	<path fill="#FBFBF9" transform="matrix(0.0585938 0 0 0.0585938 0 -7.62939e-06)" d="M494.428 888.942C499.137 888.153 504.456 888.914 509.25 888.894L530.294 888.019L530.548 891C533.204 892.463 575.135 891.54 582.106 891.604C580.729 895.496 579.277 902.046 576.337 904.944C578.814 905.03 581.976 905.567 583.914 903.75C585.375 902.381 586.574 899.028 587.831 898.102C588.417 897.671 601.877 897.981 603.392 898.018C603.896 898.031 605.357 897.939 605.756 898.143C607.346 898.957 609.279 900.946 610.648 902.149L622.222 913.011L542.792 913.062L517.706 913.088C513.243 913.09 508.47 913.433 504.058 912.78L504.294 904.861C505.002 901.086 504.098 897.565 502.255 894.25C500.398 890.91 497.909 889.976 494.428 888.942Z"/>
	<path fill="#EFD922" transform="matrix(0.0585938 0 0 0.0585938 0 -7.62939e-06)" d="M494.428 888.942C499.137 888.153 504.456 888.914 509.25 888.894L530.294 888.019L530.548 891C533.204 892.463 575.135 891.54 582.106 891.604C580.729 895.496 579.277 902.046 576.337 904.944L504.294 904.861C505.002 901.086 504.098 897.565 502.255 894.25C500.398 890.91 497.909 889.976 494.428 888.942Z"/>
	<path fill="#0A719D" transform="matrix(0.0585938 0 0 0.0585938 0 -7.62939e-06)" d="M659.958 871.146C659.931 877.936 660.483 885.273 659.759 891.994L607.927 891.951C599.538 891.943 590.404 892.681 582.106 891.604C575.135 891.54 533.204 892.463 530.548 891L530.294 888.019L530.443 874.259L608.268 874.028L639.739 873.914C643.031 873.772 658.24 872.676 659.958 871.146Z"/>
	<defs>
		<linearGradient id="gradient_0" gradientUnits="userSpaceOnUse" x1="492.09439" y1="915.62024" x2="318.9946" y2="897.05023">
			<stop offset="0" stop-color="#024267"/>
			<stop offset="1" stop-color="#0B6292"/>
		</linearGradient>
	</defs>
	<path fill="url(#gradient_0)" transform="matrix(0.0585938 0 0 0.0585938 0 -7.62939e-06)" d="M318.994 896.368L441.016 895.956L476.793 895.909C480.934 895.908 487.97 895.007 491.677 896.312C494.51 900.033 493.152 912.862 493.073 917.799C487.165 918.356 480.986 917.96 475.033 917.946L440.209 917.689L356.103 917.398L263.878 917.463L237.916 917.466C233.016 917.459 227.678 917.867 222.845 917.042C221.585 916.929 220.716 916.534 219.735 915.753C217.579 914.037 216.561 910.663 216.382 908C216.154 904.627 216.712 901.536 219.162 899.062C220.222 897.992 221.925 896.958 223.425 896.686C226.8 896.073 231.158 896.688 234.648 896.694L266 896.531L308.934 896.524L318.994 896.368Z"/>
	<path fill="#0A719D" transform="matrix(0.0585938 0 0 0.0585938 0 -7.62939e-06)" d="M308.934 896.524L318.994 896.368L318.94 916.788L309.149 916.881L308.934 896.524Z"/>
	<path fill="#1090B9" transform="matrix(0.0585938 0 0 0.0585938 0 -7.62939e-06)" d="M266 896.531L308.934 896.524L309.149 916.881L222.845 917.042C221.585 916.929 220.716 916.534 219.735 915.753C217.579 914.037 216.561 910.663 216.382 908C216.154 904.627 216.712 901.536 219.162 899.062C220.222 897.992 221.925 896.958 223.425 896.686C226.8 896.073 231.158 896.688 234.648 896.694L266 896.531Z"/>
	<defs>
		<linearGradient id="gradient_1" gradientUnits="userSpaceOnUse" x1="522.41882" y1="843.36218" x2="212.90419" y2="758.66675">
			<stop offset="0" stop-color="#000750"/>
			<stop offset="1" stop-color="#1072A2"/>
		</linearGradient>
	</defs>
	<path fill="url(#gradient_1)" transform="matrix(0.0585938 0 0 0.0585938 0 -7.62939e-06)" d="M298.362 696.103L356.289 696.5L372.81 696.42L411.292 696.506L450.942 696.605C457.246 696.614 464.313 696.03 470.517 696.774C472.831 697.052 475.082 698.097 476.694 699.788C477.561 700.697 479.004 702.533 479.452 703.703C480.133 705.48 479.59 710.488 479.594 712.613L479.602 745.241L479.375 854.077L530.424 843.624L530.443 874.259L530.294 888.019L509.25 888.894C504.456 888.914 499.137 888.153 494.428 888.942C497.909 889.976 500.398 890.91 502.255 894.25C504.098 897.565 505.002 901.086 504.294 904.861L504.058 912.78C503.08 913.221 502.374 913.695 501.534 914.337C499.077 916.215 496.043 917.11 493.073 917.799C493.152 912.862 494.51 900.033 491.677 896.312C487.97 895.007 480.934 895.908 476.793 895.909L441.016 895.956L318.994 896.368L308.934 896.524L266 896.531L265.18 895.864C263.794 895.8 262.373 895.647 261 895.871C258.79 896.232 256.903 895.755 254.75 895.755L228.839 896C228.053 894.924 228.628 890.961 228.67 889.473L267.636 889.381L267.848 888.416C269.611 886.695 275.89 887.228 278.615 887.092L406.064 887.044L442.178 887.058C448.224 887.055 454.475 887.355 460.5 887.005C461.647 886.939 462.402 886.703 463.309 885.941C464.038 885.328 464.016 884.935 464.127 884.041C464.686 879.522 464.24 874.469 464.244 869.872L464.25 839.672L464.275 763.204L464.505 720.83C464.505 717.963 464.992 714.739 463.114 712.378C460.169 710.991 454.102 711.865 450.672 711.864L419.57 711.886L303.666 711.914L241.769 711.989L241.912 841.479L241.92 872.131C241.923 874.542 241.299 879.47 242.17 881.536C242.633 882.632 243.939 884.211 244.794 885.041C245.616 885.839 246.525 886.483 247.549 886.994L246.248 887.875L247.25 887.755L247.373 888.231L246.671 888.591C241.03 888.597 233.471 887.708 228.065 888.951C227.439 886 227.816 882.276 227.81 879.246L227.853 858.659L227.824 781.534L227.777 758.561C228.361 753.79 227.963 748.577 227.97 743.761L228.012 715.157C228.019 711.421 227.385 706.37 228.32 702.806C228.6 701.74 229.356 700.839 230.092 700.048C231.428 698.616 233.354 697.127 235.322 696.734C238.655 696.069 243.088 696.669 246.521 696.691L271.534 696.532L298.362 696.103Z"/>
	<path fill="#F1BABD" transform="matrix(0.0585938 0 0 0.0585938 0 -7.62939e-06)" d="M530.424 843.624L530.443 874.259L530.294 888.019L509.25 888.894C504.456 888.914 499.137 888.153 494.428 888.942L488.25 889.458L479.348 891.319L479.375 854.077L530.424 843.624Z"/>
	<path fill="#E39F1D" transform="matrix(0.0585938 0 0 0.0585938 0 -7.62939e-06)" d="M711.31 791.02C714.362 794.054 717.163 796.45 721 798.492C725.421 800.844 729.365 802.117 734.232 803.142C735.415 803.391 736.656 803.986 737.835 804.051L738.087 805.448L759.198 805.356C762.189 805.363 765.882 804.957 768.797 805.477L782.371 805.42C786.014 805.383 790.036 804.966 793.62 805.547C794.911 805.757 795.849 806.236 796.784 807.138C797.991 808.302 798.978 809.903 799.31 811.557C799.997 814.976 799.513 819.421 799.501 822.974L799.457 842.252C799.427 842.94 799.394 842.784 799.071 843.598L798.973 891.243C798.998 899.898 800.183 909.417 793.385 916.056C790.653 918.723 786.745 921.117 782.925 921.776C779.353 922.391 775.479 922.157 771.859 922.15L753.379 922.08L681.25 921.109C674.93 920.96 669.963 919.511 665.454 914.789C659.34 908.386 659.443 901.213 659.726 892.95L659.759 891.994C660.483 885.273 659.931 877.936 659.958 871.146L659.978 852.081L659.94 843.289L660.007 828.012L659.989 819.86C659.947 816.162 658.951 810.057 661.765 807.36C662.558 806.599 663.563 805.842 664.662 805.612C666.529 805.22 668.796 805.411 670.704 805.41L683.742 805.65L693.317 805.597L702.988 805.529L711.31 791.02Z"/>
	<path fill="#FBFBF9" transform="matrix(0.0585938 0 0 0.0585938 0 -7.62939e-06)" d="M747.525 901.75C748.407 901.52 748.126 901.534 748.928 901.516C750.662 901.478 751.957 901.693 753.214 903.034C754.324 904.219 755.071 905.89 754.934 907.537C754.737 909.885 753.485 911.011 751.75 912.332C750.743 912.55 749.671 912.802 748.639 912.648C747.088 912.417 745.902 911.584 744.997 910.329C744.095 909.078 743.727 907.371 744.083 905.857C744.545 903.891 745.894 902.763 747.525 901.75Z"/>
	<path fill="#FBFBF9" transform="matrix(0.0585938 0 0 0.0585938 0 -7.62939e-06)" d="M783.145 857.25L785.5 857.449C787.002 857.793 788.281 858.946 788.923 860.335C789.657 861.922 789.684 863.399 788.914 864.95C787.992 866.807 786.613 867.636 784.707 868.25C783.667 868.458 782.478 868.462 781.5 867.989C779.964 867.247 778.747 865.566 778.282 863.955C777.897 862.62 777.993 861.223 778.75 860.03C779.842 858.312 781.228 857.667 783.145 857.25Z"/>
	<path fill="#DEEBEF" transform="matrix(0.0585938 0 0 0.0585938 0 -7.62939e-06)" d="M781.978 900.75C783.249 900.341 784.947 900.249 786.25 900.582C787.611 900.929 788.638 901.918 789.378 903.06C790.154 904.256 790.353 906.047 789.926 907.423C789.317 909.386 787.995 910.248 786.25 911.098C785.425 911.413 784.783 911.502 783.911 911.425C782.151 911.269 780.805 910.47 779.743 909.066C778.857 907.894 778.407 906.276 778.674 904.822C779.053 902.762 780.311 901.777 781.978 900.75Z"/>
	<path fill="#DEEBEF" transform="matrix(0.0585938 0 0 0.0585938 0 -7.62939e-06)" d="M747.523 859.75L750 859.497C751.585 859.638 753.202 860.914 754.055 862.227C754.926 863.567 755.203 865.205 754.877 866.766C754.449 868.814 753.46 869.699 751.735 870.75C750.379 871.179 749.152 871.399 747.75 870.975C746.073 870.469 745.233 869.4 744.369 867.949C743.787 866.972 743.672 864.765 744.045 863.683C744.762 861.604 745.706 860.821 747.523 859.75Z"/>
	<path fill="#FBFBF9" transform="matrix(0.0585938 0 0 0.0585938 0 -7.62939e-06)" d="M769.255 882.25C770.315 882.085 771.507 881.841 772.573 882.026C773.896 882.256 775.145 883.067 775.856 884.204C776.765 885.656 776.976 887.239 776.457 888.88C775.76 891.084 774.245 892.207 772.288 893.25C771.428 893.475 770.772 893.487 769.909 893.308C768.23 892.958 766.695 891.983 765.81 890.486C764.97 889.066 764.912 887.389 765.445 885.848C766.103 883.95 767.545 883.081 769.255 882.25Z"/>
	<path fill="#F6C32A" transform="matrix(0.0585938 0 0 0.0585938 0 -7.62939e-06)" d="M659.94 843.289L738.154 843.472L738.514 843.564C738.422 850.22 737.169 855.893 732.236 860.778C728.458 864.519 723.019 864.62 718.059 865.069C728.18 871.485 736.422 877.234 739.252 889.716C740.492 895.187 741.396 905.064 739.75 910.544C733.427 916.316 720.607 915.037 712.444 915.033C709.618 915.032 706.722 915.433 703.923 915.31L686.884 915.211C683.033 915.32 677.963 916.084 674.258 915.027C670.956 914.086 667.296 911.244 665.059 908.671C664.538 908.072 663.294 906.646 663.111 905.86C662.825 904.628 663.073 902.674 663.069 901.339L663.498 887.5C663.764 878.268 663.226 868.705 664.086 859.527C664.434 855.808 666.034 853.125 668.911 850.737L672.351 848.041C668 848.899 663.824 849.739 659.978 852.081L659.94 843.289Z"/>
	<path fill="#FBFBF9" transform="matrix(0.0585938 0 0 0.0585938 0 -7.62939e-06)" d="M675.664 900.75C676.498 900.604 677.402 900.651 678.25 900.63C679.234 901.145 680.177 901.601 680.845 902.523C681.788 903.826 682.128 905.892 681.748 907.443C681.246 909.495 679.974 910.378 678.25 911.404C677.18 911.532 676.078 911.479 675 911.483C673.891 910.969 673.073 910.538 672.405 909.435C671.497 907.933 671.436 906.152 671.999 904.52C672.685 902.529 673.816 901.604 675.664 900.75Z"/>
	<path fill="#FBFBF9" transform="matrix(0.0585938 0 0 0.0585938 0 -7.62939e-06)" d="M729.482 882.25C730.045 882.213 730.496 882.159 731.072 882.25C732.666 882.503 734.269 883.582 735.047 885.003C735.814 886.403 736.091 887.871 735.522 889.389C734.745 891.465 733.692 892.179 731.75 893.003C730.464 893.073 729.194 893.06 728 892.509C726.729 891.923 725.578 890.599 725.198 889.25C724.791 887.803 724.816 886.057 725.585 884.75C726.496 883.203 727.828 882.669 729.482 882.25Z"/>
	<path fill="#FBFBF9" transform="matrix(0.0585938 0 0 0.0585938 0 -7.62939e-06)" d="M675.73 859.25L678 859.04C679.263 859.468 680.311 859.879 681.164 860.956C682.207 862.275 682.656 863.991 682.331 865.649C681.889 867.899 680.716 869.089 678.827 870.25C677.836 870.426 676.845 870.66 675.842 870.411C674.446 870.064 673.461 868.947 672.807 867.732C671.954 866.147 671.781 864.508 672.331 862.787C672.916 860.958 674.121 860.141 675.73 859.25Z"/>
	<path fill="#FBFBF9" transform="matrix(0.0585938 0 0 0.0585938 0 -7.62939e-06)" d="M689.86 882.25C690.737 882.104 691.633 881.918 692.526 882.029C693.913 882.201 695.328 882.953 696.074 884.16C696.948 885.575 697.155 887.085 696.756 888.694C696.19 890.975 694.978 892.094 693.023 893.25C692.003 893.402 690.691 893.698 689.693 893.361C688.679 893.019 687.61 891.977 687.078 891.073C686.187 889.559 685.739 887.707 686.301 885.997C686.941 884.048 688.118 883.189 689.86 882.25Z"/>
	<path fill="#FBFBF9" transform="matrix(0.0585938 0 0 0.0585938 0 -7.62939e-06)" d="M708.895 901.25C710.148 900.89 711.653 900.826 712.925 901.168C714.268 901.529 715.172 902.381 715.879 903.539C716.643 904.79 716.848 906.909 716.371 908.314C715.669 910.382 714.673 911.196 712.75 912.116C711.971 912.314 711.256 912.491 710.444 912.39C708.823 912.189 707.254 911.368 706.346 909.97C705.359 908.451 705.021 906.514 705.523 904.75C706.028 902.977 707.383 902.109 708.895 901.25Z"/>
	<path fill="#FBFBF9" transform="matrix(0.0585938 0 0 0.0585938 0 -7.62939e-06)" d="M709.299 859.75C710.654 859.325 711.717 859.125 713.126 859.495C714.812 859.938 716.174 861.303 716.941 862.828C717.599 864.139 717.702 865.4 717.196 866.762C716.531 868.552 715.395 869.309 713.75 870.136C712.514 870.552 711.049 870.676 709.75 870.473C708.604 870.294 707.632 869.46 706.962 868.558C705.906 867.138 705.571 865.597 705.886 863.865C706.247 861.872 707.718 860.811 709.299 859.75Z"/>
	<path fill="#0A719D" transform="matrix(0.0585938 0 0 0.0585938 0 -7.62939e-06)" d="M711.31 791.02C714.362 794.054 717.163 796.45 721 798.492C725.421 800.844 729.365 802.117 734.232 803.142C735.415 803.391 736.656 803.986 737.835 804.051L738.087 805.448L759.198 805.356C762.189 805.363 765.882 804.957 768.797 805.477L782.371 805.42C786.014 805.383 790.036 804.966 793.62 805.547C794.911 805.757 795.849 806.236 796.784 807.138C797.991 808.302 798.978 809.903 799.31 811.557C799.997 814.976 799.513 819.421 799.501 822.974L799.457 842.252C799.427 842.94 799.394 842.784 799.071 843.598L738.514 843.564L738.154 843.472L659.94 843.289L660.007 828.012L659.989 819.86C659.947 816.162 658.951 810.057 661.765 807.36C662.558 806.599 663.563 805.842 664.662 805.612C666.529 805.22 668.796 805.411 670.704 805.41L683.742 805.65L693.317 805.597L702.988 805.529L711.31 791.02Z"/>
	<path fill="#DEEBEF" transform="matrix(0.0585938 0 0 0.0585938 0 -7.62939e-06)" d="M738.909 819.882L795.577 819.876L795.553 828.42L738.125 828.275C733.958 828.587 729.578 828.307 725.388 828.316L699.295 828.37L673.034 828.406C669.024 828.408 664.277 828.934 660.37 828.029C668.212 827.013 677.316 827.86 685.289 827.859L738.437 827.865L738.491 819.911L738.909 819.882Z"/>
	<path fill="#FBFBF9" transform="matrix(0.0585938 0 0 0.0585938 0 -7.62939e-06)" d="M659.989 819.86L738.491 819.911L738.437 827.865L685.289 827.859C677.316 827.86 668.212 827.013 660.37 828.029L660.007 828.012L659.989 819.86Z"/>
	<path fill="#7ABBDB" transform="matrix(0.0585938 0 0 0.0585938 0 -7.62939e-06)" d="M660.007 828.012L660.37 828.029C664.277 828.934 669.024 828.408 673.034 828.406L699.295 828.37L725.388 828.316C729.578 828.307 733.958 828.587 738.125 828.275L738.154 843.472L659.94 843.289L660.007 828.012Z"/>
	<path fill="#7ABBDB" transform="matrix(0.0585938 0 0 0.0585938 0 -7.62939e-06)" d="M711.31 791.02C714.362 794.054 717.163 796.45 721 798.492C725.421 800.844 729.365 802.117 734.232 803.142C735.415 803.391 736.656 803.986 737.835 804.051L738.087 805.448C738.744 809.761 737.358 816.111 738.909 819.882L738.491 819.911L659.989 819.86C659.947 816.162 658.951 810.057 661.765 807.36C662.558 806.599 663.563 805.842 664.662 805.612C666.529 805.22 668.796 805.411 670.704 805.41L683.742 805.65L693.317 805.597L702.988 805.529L711.31 791.02Z"/>
	<path fill="#B60F2F" transform="matrix(0.0585938 0 0 0.0585938 0 -7.62939e-06)" d="M711.31 791.02C714.362 794.054 717.163 796.45 721 798.492C725.421 800.844 729.365 802.117 734.232 803.142C735.415 803.391 736.656 803.986 737.835 804.051L738.087 805.448L702.988 805.529L711.31 791.02Z"/>
	<path fill="#7ABBDB" transform="matrix(0.0585938 0 0 0.0585938 0 -7.62939e-06)" d="M266.308 886.956C271.798 883.3 277.059 878.164 282.141 873.866L314.213 846.74L364.503 804.25L420.855 756.958L452.648 730.31L460.746 723.914C462.36 722.724 463.422 722.648 464.505 720.83L464.275 763.204L464.25 839.672L464.244 869.872C464.24 874.469 464.686 879.522 464.127 884.041C464.016 884.935 464.038 885.328 463.309 885.941C462.402 886.703 461.647 886.939 460.5 887.005C454.475 887.355 448.224 887.055 442.178 887.058L406.064 887.044L278.615 887.092L266.308 886.956Z"/>
	<path fill="#DEEBEF" transform="matrix(0.0585938 0 0 0.0585938 0 -7.62939e-06)" d="M303.666 711.914L419.57 711.886L450.672 711.864C454.102 711.865 460.169 710.991 463.114 712.378C464.992 714.739 464.505 717.963 464.505 720.83C463.422 722.648 462.36 722.724 460.746 723.914L452.648 730.31L420.855 756.958L364.503 804.25L314.213 846.74L282.141 873.866C277.059 878.164 271.798 883.3 266.308 886.956L247.549 886.994C246.525 886.483 245.616 885.839 244.794 885.041C243.939 884.211 242.633 882.632 242.17 881.536C241.299 879.47 241.923 874.542 241.92 872.131L241.912 841.479L241.769 711.989L303.666 711.914Z"/>
	<path fill="#28A7B2" transform="matrix(0.0585938 0 0 0.0585938 0 -7.62939e-06)" d="M332.968 774.351C335.184 771.841 338.482 770.217 341.734 769.552C347.018 768.472 351.269 769.238 355.729 772.228C360.009 775.579 362.857 779.968 363.408 785.477C363.865 790.046 362.078 794.86 359.107 798.318C355.872 802.083 350.926 804.27 346 804.477C341.302 804.675 336.859 803.248 333.371 800.034C330.01 796.936 327.547 791.337 327.591 786.75C327.631 782.487 329.616 777.348 332.813 774.43L332.968 774.351Z"/>
	<path fill="#FBFBF9" transform="matrix(0.0585938 0 0 0.0585938 0 -7.62939e-06)" d="M334.627 775.571C336.396 774.209 338.185 773.017 340.304 772.259C345.067 770.555 349.059 771.317 353.511 773.336C357.391 776.529 360.346 779.878 360.931 785.115C361.396 789.272 360.222 793.113 357.44 796.252C354.318 799.775 350.026 802.011 345.289 802.078C341.159 802.136 337.443 800.586 334.489 797.699C331.385 794.665 329.781 790.748 329.898 786.422C330.015 782.085 331.908 778.792 334.627 775.571Z"/>
	<path fill="#1090B9" transform="matrix(0.0585938 0 0 0.0585938 0 -7.62939e-06)" d="M544.037 586.006C547.175 585.616 550.56 587.542 553.46 588.631L576.394 597.437L615.767 613.743C625.132 619.525 634.149 626.11 640.657 635.133C645.746 642.189 648.838 650.069 651.785 658.183L660.815 685.229L676.918 741.061L678.661 749.144C680.015 756.323 682.531 763.19 684.825 770.107C686.036 773.761 687.057 778.454 689.543 781.427L690.75 781.542C694.82 777.825 695.308 769.571 700.425 767.614C700.473 770.92 697.977 775.073 696.679 778.135C692.728 787.453 688.736 796.827 683.742 805.65L670.704 805.41C668.796 805.411 666.529 805.22 664.662 805.612C663.563 805.842 662.558 806.599 661.765 807.36C658.951 810.057 659.947 816.162 659.989 819.86L660.007 828.012L659.94 843.289L659.978 852.081L659.958 871.146C658.24 872.676 643.031 873.772 639.739 873.914L608.268 874.028L530.443 874.259L530.424 843.624L479.375 854.077L479.602 745.241L479.594 712.613C479.59 710.488 480.133 705.48 479.452 703.703C479.004 702.533 477.561 700.697 476.694 699.788C475.082 698.097 472.831 697.052 470.517 696.774C464.313 696.03 457.246 696.614 450.942 696.605L411.292 696.506L372.81 696.42L356.289 696.5L363.639 668.266C370.495 648.24 379.865 630.693 397.694 618.339C404.409 613.686 411.632 610.236 418.937 606.646L441.645 597.807L469.349 586.39L472.677 589.367C473.223 590.766 474.976 592.514 475.965 593.712L485.628 605.052L507.595 630.759L544.037 586.006Z"/>
	<path fill="#0A719D" transform="matrix(0.0585938 0 0 0.0585938 0 -7.62939e-06)" d="M372.81 696.42L399.591 695.983C403.699 688.842 407.406 681.645 410.507 674C412.158 669.928 413.303 665.445 415.195 661.519L411.292 696.506L372.81 696.42Z"/>
	<path fill="#F6C32A" transform="matrix(0.0585938 0 0 0.0585938 0 -7.62939e-06)" d="M632.718 787.773C637.854 803.362 642.972 821.377 643.092 837.88L612.99 839.309C610.184 839.447 605.543 839.078 602.979 839.874L607.838 796.333C616.219 794.996 624.925 791.023 632.718 787.773Z"/>
	<path fill="#FBFBF9" transform="matrix(0.0585938 0 0 0.0585938 0 -7.62939e-06)" d="M544.037 586.006C547.175 585.616 550.56 587.542 553.46 588.631L576.394 597.437L543.994 661.546L518.353 639.812C515.07 637.023 511.37 633.154 507.626 631.102L471.51 660.234L441.645 597.807L469.349 586.39L472.677 589.367C473.223 590.766 474.976 592.514 475.965 593.712L485.628 605.052L507.595 630.759L544.037 586.006Z"/>
	<path fill="#0A719D" transform="matrix(0.0585938 0 0 0.0585938 0 -7.62939e-06)" d="M479.602 745.241C480.172 748.407 479.884 751.936 479.903 755.153L479.985 772.063L503.064 773.447C530.146 773.486 558.348 766.612 577.977 746.919C595.496 729.343 598.593 706.184 598.575 682.45L618.938 742.887L628.041 772.247C629.599 777.255 631.754 782.642 632.718 787.773C624.925 791.023 616.219 794.996 607.838 796.333L602.979 839.874C594.231 840.061 533.866 841.38 530.424 843.624L479.375 854.077L479.602 745.241Z"/>
	<path fill="#4D4B8E" transform="matrix(0.0585938 0 0 0.0585938 0 -7.62939e-06)" d="M618.938 742.887L628.041 772.247C629.599 777.255 631.754 782.642 632.718 787.773C624.925 791.023 616.219 794.996 607.838 796.333C611.367 784.266 613.339 771.668 615.604 759.319C616.562 754.095 617.188 747.83 618.938 742.887Z"/>
	<path fill="#4D4B8E" transform="matrix(0.0585938 0 0 0.0585938 0 -7.62939e-06)" d="M307.769 241.867C312.187 238.864 316.294 235.23 320.519 231.945L338.773 218.873C377.039 193.281 420.686 176.377 466.126 169.052C537.182 157.599 610.891 173.965 672.007 211.311C678.345 215.184 684.898 218.967 690.909 223.33C687.755 228.427 684.654 233.243 682.223 238.747C673.649 258.163 671.498 280.942 676.332 301.609C682.589 328.36 696.649 349.18 720.196 363.731C736.35 373.712 753.617 378.236 772.499 378.75C785.723 378.164 797.585 375.272 810.064 370.984L812.83 385.689L814.964 403.094L741.564 403.015L716.924 403.049C712.202 403.061 707.114 402.742 702.448 403.415L695.746 403.474C699.985 413.078 701.572 423.014 697.696 433.102C696.036 437.422 693.567 441.494 690.576 445.024C687.911 450.945 684.034 454.636 678.024 457.043L670.47 457.157L670.205 457.616L664.761 465.39C659.188 471.979 653.267 478.033 646.307 483.179C638.504 489.577 629.56 493.829 620.524 498.177C616.752 506.342 613.083 514.157 610.7 522.873C608.414 531.231 609.896 539.081 614.243 546.508C621.602 559.08 638.071 568.466 650.5 575.483C654.129 577.532 658.092 579.26 661.52 581.627C661.837 585.478 662.249 589.033 663.579 592.703C648.653 602.104 632.903 609.442 615.767 613.743L576.394 597.437L553.46 588.631C550.56 587.542 547.175 585.616 544.037 586.006L507.595 630.759L485.628 605.052L475.965 593.712C474.976 592.514 473.223 590.766 472.677 589.367L469.349 586.39L441.645 597.807L418.937 606.646C411.632 610.236 404.409 613.686 397.694 618.339C379.865 630.693 370.495 648.24 363.639 668.266L356.289 696.5L298.362 696.103L271.534 696.532L246.712 659.939L185.677 660.224L167.433 660.27C164.263 660.28 160.923 660.055 157.779 660.468L139.984 660.774L106.946 660.739C102.178 660.742 96.9038 661.083 92.1989 660.352C83.0391 658.929 75.4584 653.98 70.0633 646.555C67.8689 642.872 66.6346 639.278 66.2679 634.998C65.5402 626.503 66.1333 617.558 66.1743 609.023L66.2914 559.671L66.0916 522.362C66.0464 516.233 65.3432 509.218 66.2508 503.179L66.3613 502.5C67.2887 496.351 69.9096 491.107 74.5021 486.89C81.8256 480.167 89.8223 480.5 99.1692 480.534L116.043 480.872L116.128 473.59L116.233 473.676L116.242 481.104L183.121 481.519L192.681 471.91C193.699 470.943 195.878 469.368 196.564 468.229C197.071 467.388 196.33 463.154 196.655 461.715L196.806 461.1C197.776 439.318 200.561 417.25 205.43 396C207.371 387.526 209.401 378.682 212.547 370.572C212.935 367.341 214.546 363.578 215.441 360.373C216.373 357.557 217.713 354.795 218.194 351.863C213.285 348.373 210.35 343.424 207.504 338.232C205.915 335.33 203.979 328.967 201.235 327.437L206.306 326.729C204.237 321.092 203.46 315.12 202.765 309.185C202.204 304.4 201.567 300.134 202.985 295.414C206.09 294.697 209.668 294.763 212.863 294.558C212.911 285.324 213.805 277.894 218.897 270L218.021 269L211.159 260.094C212.521 257.172 213.965 254.477 215.951 251.917C217.668 249.704 220.542 247.168 221.64 244.639L221.808 244.133C222.061 243.737 222.567 243.59 223 243.439C226.992 242.051 230.011 240.981 233.381 244.152C234.143 244.869 234.908 245.819 235.936 246.153C239.041 247.163 245.656 242.922 248.64 241.506C250.484 240.969 252.218 240.151 253.974 239.383L252.965 225.584C256 223.779 262.735 220.878 266.188 221.689C269.677 222.508 272.389 232.733 275.75 235.345C279.763 231.689 279.523 220.395 286.496 220.986C289.26 221.22 292.555 222.843 295.143 223.821C297.883 224.856 300.743 225.678 303.207 227.293C304.068 229.385 303.319 231.446 302.494 233.495C302.053 234.591 301.526 235.71 300.828 236.664C302.756 238.299 305.374 241.179 307.769 241.867Z"/>
	<path fill="#FBFBF9" transform="matrix(0.0585938 0 0 0.0585938 0 -7.62939e-06)" d="M331.042 397.25L331.839 397.75L331.508 439.358C328.18 437.608 325.244 435.925 322.315 433.571C320.56 431.559 318.875 429.605 317.727 427.166C315.142 421.674 314.845 415.916 317.023 410.25C319.566 403.636 324.917 400.086 331.042 397.25Z"/>
	<path fill="#09246D" transform="matrix(0.0585938 0 0 0.0585938 0 -7.62939e-06)" d="M215.441 360.373L219.248 364.066C224.175 368.932 230.139 372.445 236 376.067C237.792 377.175 240.161 379.045 242.26 379.393C246 375.908 249.027 372.108 251.959 367.928C257.191 369.638 262.766 371.536 268.299 371.851L268.402 372.501C269.058 376.398 270.556 383.707 273.521 386.364C279.225 387.785 286.726 386.616 292.5 385.604C294.353 385.279 296.752 385.027 298.396 384.125C299.595 383.467 300.623 382.044 301.248 380.859C301.993 384.739 302.119 392.031 300.909 395.75C299.43 397.275 298.076 398.124 296.001 398.674C290.689 400.082 284.7 400.545 279.232 400.51C277.062 400.496 274.771 400.551 272.917 399.237C270.005 397.174 268.642 388.401 268.009 384.925C260.679 384.333 254.23 383.346 247.296 380.818C244.526 384.644 242.075 388.35 238.555 391.528C233.345 390.364 228.496 386.859 223.988 384.089C220.327 381.839 216.567 379.853 213.199 377.168L213.442 372.536L213.544 371.75L212.547 370.572C212.935 367.341 214.546 363.578 215.441 360.373Z"/>
	<path fill="#9FB844" transform="matrix(0.0585938 0 0 0.0585938 0 -7.62939e-06)" d="M297.502 629.363C300.05 631.663 301.269 635.288 302.705 638.368L310.509 654.75C311.877 657.6 313.045 660.725 315.014 663.22C317.388 671.885 322.883 680.449 326.198 688.925L260.183 660.549C258.795 658.728 257.041 657.217 255.616 655.422C253.31 652.517 251.469 649.184 249.601 645.988C258.866 646.458 268.313 646.031 277.595 645.968C280.718 645.947 286.839 646.619 289.654 645.454C292.441 644.301 295.265 640.215 296.083 637.469L296.351 636.5C296.649 635.582 296.753 635.33 296.785 634.301C296.837 632.62 297.182 631.01 297.502 629.363Z"/>
	<path fill="#FBFBF9" transform="matrix(0.0585938 0 0 0.0585938 0 -7.62939e-06)" d="M351.214 362.931L363.02 363.654C362.743 365.577 363.101 367.75 363.238 369.69L363.433 427.219L363.422 449.142C363.412 453.216 363.635 457.452 363.145 461.492L357.205 462.353C352.595 462.746 347.874 463.369 344.25 460.058C343.552 459.42 341.94 457.799 341.568 456.977C341.27 456.318 341.406 453.823 341.394 453L341.391 440.267L341.561 376.124C343.09 373.626 344.821 371.898 346.95 369.926C348.678 367.771 349.913 365.354 351.214 362.931Z"/>
	<path fill="#B60F2F" transform="matrix(0.0585938 0 0 0.0585938 0 -7.62939e-06)" d="M351.214 362.931L363.02 363.654C362.743 365.577 363.101 367.75 363.238 369.69L346.95 369.926C348.678 367.771 349.913 365.354 351.214 362.931Z"/>
	<path fill="#819E3A" transform="matrix(0.0585938 0 0 0.0585938 0 -7.62939e-06)" d="M292.002 485.63C300.052 487.995 307.869 490.745 312.192 498.565C313.646 501.196 314.685 504.133 314.915 507.141C315.503 514.802 315.098 522.77 315.103 530.462L315.115 573.915L315.096 632.697L315.014 663.22C313.045 660.725 311.877 657.6 310.509 654.75L302.705 638.368C301.269 635.288 300.05 631.663 297.502 629.363L297.058 536.97L297.095 510.118C297.1 505.398 297.491 500.299 296.906 495.635C296.464 492.122 293.83 488.584 292.002 485.63Z"/>
	<path fill="#D90A2A" transform="matrix(0.0585938 0 0 0.0585938 0 -7.62939e-06)" d="M364.919 361.891C375.538 361.727 386.952 360.789 397.489 361.88L397.029 427.411L396.98 452.448C396.939 457.237 397.116 462.227 396.561 466.987L383.519 467.341L362.444 467.384L363.145 461.492C363.635 457.452 363.412 453.216 363.422 449.142L363.433 427.219L363.238 369.69C363.101 367.75 362.743 365.577 363.02 363.654C363.993 363.184 364.266 362.726 364.919 361.891Z"/>
	<path fill="#FBFBF9" transform="matrix(0.0585938 0 0 0.0585938 0 -7.62939e-06)" d="M359.709 309.583L360.054 308.806C362.701 302.762 364.858 296.708 367.956 290.832C386.41 255.831 415.684 228.672 452.5 213.969C491.464 198.409 534.452 198.939 572.946 215.59C610.677 231.911 640.96 262.479 655.98 300.827C661.7 315.429 665.529 330.763 666.407 346.45L666.582 370.57L667.388 370.75C672.052 371.813 675.212 373.977 677.943 377.949C678.902 377.494 678.766 377.326 679.868 377.691C682.624 378.603 686.035 382.33 687.269 384.902C689.1 388.719 689.121 392.462 689.782 396.54C692.075 398.693 694.229 400.667 695.746 403.474C699.985 413.078 701.572 423.014 697.696 433.102C696.036 437.422 693.567 441.494 690.576 445.024C687.911 450.945 684.034 454.636 678.024 457.043L670.47 457.157L670.205 457.616L664.761 465.39C659.188 471.979 653.267 478.033 646.307 483.179C645.592 483.154 644.959 483.19 644.25 483.255L643.125 484.502C642.791 484.745 641.998 485.283 641.625 485.502C640.585 486.115 639.683 486.89 638.625 487.502C637.026 488.428 635.051 490.265 633.245 490.231C632.509 488.879 632.192 488.327 632.352 486.731C634.817 485.58 640.98 482.342 642.167 480.036L642.565 479.209C647.262 475.447 651.92 471.673 656.012 467.238C658.901 464.108 661.385 460.5 664.199 457.264L657.918 457.135L657.524 456.844C655.57 457.017 653.508 456.702 651.555 456.539L651.489 446.093L651.375 445.101L651.608 369.45L651.937 369.178C652.808 368.247 653.3 367.586 654.423 366.92C654.135 366.613 653.736 366.381 653.557 366C653.376 365.614 653.552 363.775 653.55 363.293L653.457 352.5C653.347 347.742 652.932 342.864 652.289 338.147C648.408 309.67 634.481 280.947 614.243 260.445C587.929 233.789 551.863 216.874 514.106 216.713C473.574 216.539 436.31 230.903 407.43 259.685C380.023 286.999 364.959 323.198 364.919 361.891C364.266 362.726 363.993 363.184 363.02 363.654L351.214 362.931C352.112 357.996 351.238 352.358 351.807 347.262L354.753 328.559L354.852 327.69L359.709 309.583Z"/>
	<path fill="#40190A" transform="matrix(0.0585938 0 0 0.0585938 0 -7.62939e-06)" d="M654.423 366.92L654.841 367.041C656.37 367.469 657.756 367.621 659.337 367.683C659.902 369.184 659.711 371.755 659.25 373.287L657.6 373.75C656.497 381.537 657.273 390.581 657.237 398.502L657.524 456.844C655.57 457.017 653.508 456.702 651.555 456.539L651.489 446.093L651.375 445.101L651.608 369.45L651.937 369.178C652.808 368.247 653.3 367.586 654.423 366.92Z"/>
	<path fill="#0A719D" transform="matrix(0.0585938 0 0 0.0585938 0 -7.62939e-06)" d="M677.943 377.949C678.902 377.494 678.766 377.326 679.868 377.691C682.624 378.603 686.035 382.33 687.269 384.902C689.1 388.719 689.121 392.462 689.782 396.54C692.075 398.693 694.229 400.667 695.746 403.474C699.985 413.078 701.572 423.014 697.696 433.102C696.036 437.422 693.567 441.494 690.576 445.024C687.911 450.945 684.034 454.636 678.024 457.043L678.317 403.766L678.415 388.02C678.43 384.68 678.718 381.214 677.943 377.949Z"/>
	<path fill="#FBFBF9" transform="matrix(0.0585938 0 0 0.0585938 0 -7.62939e-06)" d="M689.782 396.54C692.075 398.693 694.229 400.667 695.746 403.474C699.985 413.078 701.572 423.014 697.696 433.102C696.036 437.422 693.567 441.494 690.576 445.024L689.782 396.54Z"/>
	<path fill="#4D4B8E" transform="matrix(0.0585938 0 0 0.0585938 0 -7.62939e-06)" d="M364.919 361.891C364.959 323.198 380.023 286.999 407.43 259.685C436.31 230.903 473.574 216.539 514.106 216.713C551.863 216.874 587.929 233.789 614.243 260.445C634.481 280.947 648.408 309.67 652.289 338.147C652.932 342.864 653.347 347.742 653.457 352.5L653.55 363.293C653.552 363.775 653.376 365.614 653.557 366C653.736 366.381 654.135 366.613 654.423 366.92C653.3 367.586 652.808 368.247 651.937 369.178L651.608 369.45L651.023 368.756C649.917 367.572 645.848 363.434 644.476 363.066C641.527 362.274 636.725 362.77 633.571 362.687L631.415 342.263C629.503 332.121 626.885 322.133 622.839 312.617C613.708 291.139 598.079 273.28 578.953 260.116C555.524 243.991 524.306 238.138 496.5 243.146C464.387 248.929 436.767 267.874 418.553 294.743C404.999 314.737 398.075 337.8 397.489 361.88C386.952 360.789 375.538 361.727 364.919 361.891Z"/>
	<path fill="#ADCD4C" transform="matrix(0.0585938 0 0 0.0585938 0 -7.62939e-06)" d="M252.965 225.584C256 223.779 262.735 220.878 266.188 221.689C269.677 222.508 272.389 232.733 275.75 235.345C279.763 231.689 279.523 220.395 286.496 220.986C289.26 221.22 292.555 222.843 295.143 223.821C297.883 224.856 300.743 225.678 303.207 227.293C304.068 229.385 303.319 231.446 302.494 233.495C302.053 234.591 301.526 235.71 300.828 236.664C302.756 238.299 305.374 241.179 307.769 241.867L322 252.318C324.393 248.964 326.547 247.54 330.51 246.459C334.076 249.719 337.285 253.325 340.495 256.93C342.315 258.973 344.553 261.203 345.646 263.737C347.493 267.163 348.702 270.676 349.825 274.38C348.164 277.905 345.846 280.628 343.9 283.941C342.907 285.63 341.96 288.777 340.15 289.444L340.523 293.992C345.251 294.136 350.834 293.887 354.441 297.56C356.757 299.919 356.36 303.769 356.99 306.775C356.93 311.61 357.462 317.968 353.646 321.645C350.955 324.238 342.871 323.31 339.359 323.024L338.34 322.939C337.804 325.238 337.341 327.527 336.44 329.718L334.166 334.776L333.285 335.028C332.753 336.224 332.445 336.623 332.525 337.948C336.769 341.401 341.304 344.708 344.615 349.112C342.372 358.571 338.179 362.838 330.503 368.469C331.387 370.337 330.982 371.753 330.311 373.622C329.652 375.456 328.768 376.873 326.889 377.609C325.549 378.134 323.991 378.01 322.742 377.353C319.543 375.672 316.704 372.53 314.183 369.965L302.25 376.044L301.584 373.983C301.566 376.289 301.613 378.575 301.248 380.859C300.623 382.044 299.595 383.467 298.396 384.125C296.752 385.027 294.353 385.279 292.5 385.604C286.726 386.616 279.225 387.785 273.521 386.364C270.556 383.707 269.058 376.398 268.402 372.501L268.299 371.851C262.766 371.536 257.191 369.638 251.959 367.928C249.027 372.108 246 375.908 242.26 379.393C240.161 379.045 237.792 377.175 236 376.067C230.139 372.445 224.175 368.932 219.248 364.066L215.441 360.373C216.373 357.557 217.713 354.795 218.194 351.863C213.285 348.373 210.35 343.424 207.504 338.232C205.915 335.33 203.979 328.967 201.235 327.437L206.306 326.729C204.237 321.092 203.46 315.12 202.765 309.185C202.204 304.4 201.567 300.134 202.985 295.414C206.09 294.697 209.668 294.763 212.863 294.558C212.911 285.324 213.805 277.894 218.897 270L218.021 269L211.159 260.094C212.521 257.172 213.965 254.477 215.951 251.917C217.668 249.704 220.542 247.168 221.64 244.639L221.808 244.133C222.061 243.737 222.567 243.59 223 243.439C226.992 242.051 230.011 240.981 233.381 244.152C234.143 244.869 234.908 245.819 235.936 246.153C239.041 247.163 245.656 242.922 248.64 241.506C250.484 240.969 252.218 240.151 253.974 239.383L252.965 225.584Z"/>
	<path fill="#819E3A" transform="matrix(0.0585938 0 0 0.0585938 0 -7.62939e-06)" d="M224.193 341.865L229.186 347.721L228.564 348.27C223.731 352.571 221.909 358.374 219.248 364.066L215.441 360.373C216.373 357.557 217.713 354.795 218.194 351.863L224.193 341.865Z"/>
	<path fill="#EFD922" transform="matrix(0.0585938 0 0 0.0585938 0 -7.62939e-06)" d="M300.828 236.664C302.756 238.299 305.374 241.179 307.769 241.867L322 252.318C321.226 253.36 320.506 254.492 319.481 255.303C318.777 255.739 318.529 255.822 317.75 255.966C314.455 252.375 311.241 249.702 306.922 247.417C304.387 246.075 300.997 245.333 299.017 243.25C298.843 240.377 299.263 239.071 300.828 236.664Z"/>
	<path fill="#09246D" transform="matrix(0.0585938 0 0 0.0585938 0 -7.62939e-06)" d="M345.646 263.737C347.493 267.163 348.702 270.676 349.825 274.38C348.164 277.905 345.846 280.628 343.9 283.941C342.907 285.63 341.96 288.777 340.15 289.444C339.14 283.988 337.825 278.861 335.461 273.818C339.836 271.72 342.984 267.652 345.646 263.737Z"/>
	<path fill="#568446" transform="matrix(0.0585938 0 0 0.0585938 0 -7.62939e-06)" d="M206.306 326.729L216.138 325.878L216.378 326.659C218.039 331.994 220.648 337.52 224.193 341.865L218.194 351.863C213.285 348.373 210.35 343.424 207.504 338.232C205.915 335.33 203.979 328.967 201.235 327.437L206.306 326.729Z"/>
	<path fill="#09246D" transform="matrix(0.0585938 0 0 0.0585938 0 -7.62939e-06)" d="M314.057 356.017C317.997 360.376 324.335 367.539 330.503 368.469C331.387 370.337 330.982 371.753 330.311 373.622C329.652 375.456 328.768 376.873 326.889 377.609C325.549 378.134 323.991 378.01 322.742 377.353C319.543 375.672 316.704 372.53 314.183 369.965L302.25 376.044L301.584 373.983L300.865 364.921C304.957 362.846 310.359 360.265 313.421 356.776L314.057 356.017Z"/>
	<path fill="#819E3A" transform="matrix(0.0585938 0 0 0.0585938 0 -7.62939e-06)" d="M272.392 254.705C279.254 254.378 286.903 255.816 293.199 258.604C304.185 263.468 312.964 272.42 317.203 283.691C321.816 295.953 321.56 309.679 315.91 321.594C311.107 331.721 302.813 340.184 292.096 343.913L291.201 344.218C286.932 345.702 282.898 346.35 278.401 346.648C270.635 346.571 263.946 345.795 256.845 342.441C245.754 337.202 236.652 326.538 232.655 315C228.444 302.841 229.714 289.17 235.396 277.721C240.193 268.052 248.927 261 259 257.427C263.505 255.83 267.645 255.114 272.392 254.705Z"/>
	<path fill="#DEEBEF" transform="matrix(0.0585938 0 0 0.0585938 0 -7.62939e-06)" d="M249.619 270.735C255.873 281.32 262.988 291.026 269.857 301.174L280.262 317.328C284.49 323.62 289.496 329.573 292.693 336.472C284.91 339.455 275.583 340.945 267.381 338.82L266.5 338.578C257.962 336.284 250.093 331.424 244.371 324.663C237.187 316.176 234.468 305.997 235.559 295C236.54 285.112 242.041 276.806 249.619 270.735Z"/>
	<path fill="#FBFBF9" transform="matrix(0.0585938 0 0 0.0585938 0 -7.62939e-06)" d="M249.619 270.735C258.669 264.485 268.287 261.435 279.407 263.469C290.001 265.408 299.29 270.627 305.474 279.589C311.14 287.8 313.757 298.639 312.096 308.5L311.949 309.416C310.323 319.022 304.588 328.535 296.576 334.134C295.324 335.009 294.062 335.789 292.693 336.472C289.496 329.573 284.49 323.62 280.262 317.328L269.857 301.174C262.988 291.026 255.873 281.32 249.619 270.735Z"/>
	<path fill="#824304" transform="matrix(0.0585938 0 0 0.0585938 0 -7.62939e-06)" d="M397.489 361.88C398.075 337.8 404.999 314.737 418.553 294.743C436.767 267.874 464.387 248.929 496.5 243.146C524.306 238.138 555.524 243.991 578.953 260.116C598.079 273.28 613.708 291.139 622.839 312.617C626.885 322.133 629.503 332.121 631.415 342.263L633.571 362.687L617.036 362.574L617.012 368.501L617.025 376.668C609.04 378.443 600.834 379.876 592.63 380.002C579.796 380.199 566.992 379.42 554.4 376.793C525.463 370.756 497.339 355.881 474.564 337.269C466.759 330.891 459.763 323.861 452.527 316.871L451.778 317.139L449.589 314.348C433.925 335.021 420.63 357.916 410.988 382C407.201 391.459 403.512 401.789 401.852 411.875C400.954 417.323 400.935 422.85 400.889 428.357C400.821 436.591 400.995 444.756 402.142 452.924C404.01 466.22 410.812 479.549 418.04 490.681L422.417 497.019C422.897 497.681 423.957 498.789 424.199 499.546C434.319 512.745 445.28 523.83 458.918 533.365C463.23 536.38 468.54 538.687 472.565 541.941L472.677 589.367L469.349 586.39L441.645 597.807L418.937 606.646C416.881 605.521 414.276 605.003 412.031 604.341L399.75 600.5C379.915 593.98 357.149 584.851 341.436 570.769C338.608 569.016 336.149 567.026 333.622 564.869C338.723 565.006 344.858 565.641 349.859 564.76L350.5 564.638C358.388 563.198 365.943 559.752 371.42 553.761C376.596 548.099 379.868 540.804 381.924 533.493C387.928 512.143 384.729 489.146 383.519 467.341L396.561 466.987C397.116 462.227 396.939 457.237 396.98 452.448L397.029 427.411L397.489 361.88Z"/>
	<path fill="#592704" transform="matrix(0.0585938 0 0 0.0585938 0 -7.62939e-06)" d="M617.012 368.501C610.773 367.491 604.083 367.64 597.747 366.82C577.281 364.17 557.364 357.819 539.386 347.557C523.308 338.38 509.207 326.325 497.311 312.188C491.816 305.658 486.724 299.102 482.729 291.506C480.877 287.985 478.824 284.207 477.766 280.359C481.633 285.754 485.329 290.994 489.79 295.933C501.241 308.615 515.713 319.317 530.602 327.648C561.824 345.117 596.57 352.166 631.415 342.263L633.571 362.687L617.036 362.574L617.012 368.501Z"/>
	<path fill="#592704" transform="matrix(0.0585938 0 0 0.0585938 0 -7.62939e-06)" d="M424.199 499.546C434.319 512.745 445.28 523.83 458.918 533.365C463.23 536.38 468.54 538.687 472.565 541.941L472.677 589.367L469.349 586.39L441.645 597.807L418.937 606.646C416.881 605.521 414.276 605.003 412.031 604.341L399.75 600.5C379.915 593.98 357.149 584.851 341.436 570.769C344.837 571.49 347.928 573.005 351.172 574.187C358.224 576.757 365.797 577.927 373.284 576.774L374 576.653C382.247 575.314 390.353 571.171 396.809 565.885C416.91 549.428 421.608 523.833 424.199 499.546Z"/>
	<path fill="#ADCD4C" transform="matrix(0.0585938 0 0 0.0585938 0 -7.62939e-06)" d="M196.806 461.1L196.82 467.559C205.443 457.995 215.25 449.524 224.53 440.604C231.496 433.908 238.721 425.551 246.636 420.055C249.071 418.365 251.851 417.692 254.67 416.92L244.65 464.467C243.705 469.075 241.787 474.635 241.76 479.305L242.31 479.144C248.309 477.533 255.486 478.027 261.697 477.974C266.845 477.93 272.36 477.531 277.444 478.309C280.396 478.761 283.327 479.923 285.904 481.412L292.002 485.63C293.83 488.584 296.464 492.122 296.906 495.635C297.491 500.299 297.1 505.398 297.095 510.118L297.058 536.97L297.502 629.363C297.182 631.01 296.837 632.62 296.785 634.301C296.753 635.33 296.649 635.582 296.351 636.5L296.083 637.469C295.265 640.215 292.441 644.301 289.654 645.454C286.839 646.619 280.718 645.947 277.595 645.968C268.313 646.031 258.866 646.458 249.601 645.988C251.469 649.184 253.31 652.517 255.616 655.422C257.041 657.217 258.795 658.728 260.183 660.549L246.712 659.939L185.677 660.224L167.433 660.27C164.263 660.28 160.923 660.055 157.779 660.468L139.984 660.774L106.946 660.739C102.178 660.742 96.9038 661.083 92.1989 660.352C83.0391 658.929 75.4584 653.98 70.0633 646.555C67.8689 642.872 66.6346 639.278 66.2679 634.998C65.5402 626.503 66.1333 617.558 66.1743 609.023L66.2914 559.671L66.0916 522.362C66.0464 516.233 65.3432 509.218 66.2508 503.179L66.3613 502.5C67.2887 496.351 69.9096 491.107 74.5021 486.89C81.8256 480.167 89.8223 480.5 99.1692 480.534L116.043 480.872L116.128 473.59L116.233 473.676L116.242 481.104L183.121 481.519L192.681 471.91C193.699 470.943 195.878 469.368 196.564 468.229C197.071 467.388 196.33 463.154 196.655 461.715L196.806 461.1Z"/>
	<path fill="#819E3A" transform="matrix(0.0585938 0 0 0.0585938 0 -7.62939e-06)" d="M70.0633 646.555L249.601 645.988C251.469 649.184 253.31 652.517 255.616 655.422C257.041 657.217 258.795 658.728 260.183 660.549L246.712 659.939L185.677 660.224L167.433 660.27C164.263 660.28 160.923 660.055 157.779 660.468L139.984 660.774L106.946 660.739C102.178 660.742 96.9038 661.083 92.1989 660.352C83.0391 658.929 75.4584 653.98 70.0633 646.555Z"/>
	<path fill="#FBFBF9" transform="matrix(0.0585938 0 0 0.0585938 0 -7.62939e-06)" d="M97.8411 510.324L275.974 510.954L276.015 627.047L97.5031 627.154L97.8411 510.324Z"/>
	<path fill="#7ABBDB" transform="matrix(0.0585938 0 0 0.0585938 0 -7.62939e-06)" d="M119.914 570.022L161.003 569.93L161.031 576.969L119.89 577.035L119.914 570.022Z"/>
	<path fill="#7ABBDB" transform="matrix(0.0585938 0 0 0.0585938 0 -7.62939e-06)" d="M177.903 543.027L256.139 542.815L256.116 549.989L178.016 550.004L177.903 543.027Z"/>
	<path fill="#7ABBDB" transform="matrix(0.0585938 0 0 0.0585938 0 -7.62939e-06)" d="M177.859 595.326L255.949 595.5L256.025 602.532L177.806 602.676L177.859 595.326Z"/>
	<path fill="#7ABBDB" transform="matrix(0.0585938 0 0 0.0585938 0 -7.62939e-06)" d="M178.498 568.939L255.904 568.891L255.85 576.01L178.507 576.201L178.498 568.939Z"/>
	<path fill="#D12E49" transform="matrix(0.0585938 0 0 0.0585938 0 -7.62939e-06)" d="M120.417 527.988L160.813 528.051L160.761 553.78C156.97 554.211 152.65 553.804 148.803 553.834L120.415 554.088L120.417 527.988Z"/>
	<path fill="#F8C496" transform="matrix(0.0585938 0 0 0.0585938 0 -7.62939e-06)" d="M424.199 499.546C423.957 498.789 422.897 497.681 422.417 497.019L418.04 490.681C410.812 479.549 404.01 466.22 402.142 452.924C400.995 444.756 400.821 436.591 400.889 428.357C400.935 422.85 400.954 417.323 401.852 411.875C403.512 401.789 407.201 391.459 410.988 382C420.63 357.916 433.925 335.021 449.589 314.348L451.778 317.139L452.527 316.871C459.763 323.861 466.759 330.891 474.564 337.269C497.339 355.881 525.463 370.756 554.4 376.793C566.992 379.42 579.796 380.199 592.63 380.002C600.834 379.876 609.04 378.443 617.025 376.668L617.012 368.501L617.036 362.574L633.571 362.687C636.725 362.77 641.527 362.274 644.476 363.066C645.848 363.434 649.917 367.572 651.023 368.756L651.608 369.45L651.375 445.101L651.489 446.093L651.555 456.539C653.508 456.702 655.57 457.017 657.524 456.844L657.918 457.135L664.199 457.264C661.385 460.5 658.901 464.108 656.012 467.238C651.92 471.673 647.262 475.447 642.565 479.209L642.167 480.036C640.98 482.342 634.817 485.58 632.352 486.731C632.192 488.327 632.509 488.879 633.245 490.231C635.051 490.265 637.026 488.428 638.625 487.502C639.683 486.89 640.585 486.115 641.625 485.502C641.998 485.283 642.791 484.745 643.125 484.502L644.25 483.255C644.959 483.19 645.592 483.154 646.307 483.179C638.504 489.577 629.56 493.829 620.524 498.177C616.752 506.342 613.083 514.157 610.7 522.873C608.414 531.231 609.896 539.081 614.243 546.508C621.602 559.08 638.071 568.466 650.5 575.483C654.129 577.532 658.092 579.26 661.52 581.627C661.837 585.478 662.249 589.033 663.579 592.703C648.653 602.104 632.903 609.442 615.767 613.743L576.394 597.437L553.46 588.631C550.56 587.542 547.175 585.616 544.037 586.006L507.595 630.759L485.628 605.052L475.965 593.712C474.976 592.514 473.223 590.766 472.677 589.367L472.565 541.941C468.54 538.687 463.23 536.38 458.918 533.365C445.28 523.83 434.319 512.745 424.199 499.546Z"/>
	<path fill="#E6797E" transform="matrix(0.0585938 0 0 0.0585938 0 -7.62939e-06)" d="M522.09 445.75L522.751 445.844C522.536 447.837 521.58 449.713 520.463 451.356C518.158 454.747 514.328 458.001 510.203 458.736C506.109 459.465 502.433 457.911 499.138 455.647C497.513 453.944 496.232 452.087 494.906 450.155L496.078 450.436C500.232 451.512 504.505 451.955 508.783 451.263L509.5 451.137C514.322 450.339 518.281 448.874 522.09 445.75Z"/>
	<path fill="#592704" transform="matrix(0.0585938 0 0 0.0585938 0 -7.62939e-06)" d="M451.287 372.662L452.324 372.621C457.4 372.436 466.624 372.637 470.521 376.25C470.687 379.774 469.149 382.744 467.591 385.795C458.498 382.33 451.29 381.224 441.869 384.251C439.116 385.348 436.553 386.593 433.962 388.033C431.499 389.401 429.611 390.97 426.75 390.968C425.39 389.939 425.22 389.847 424.67 388.25C424.919 387.617 425.141 387.056 425.543 386.5C431.392 378.413 441.729 374.032 451.287 372.662Z"/>
	<defs>
		<linearGradient id="gradient_2" gradientUnits="userSpaceOnUse" x1="593.90955" y1="507.03098" x2="592.96063" y2="489.0022">
			<stop offset="0" stop-color="#9ECF87"/>
			<stop offset="1" stop-color="#ABECEC"/>
		</linearGradient>
	</defs>
	<path fill="url(#gradient_2)" transform="matrix(0.0585938 0 0 0.0585938 0 -7.62939e-06)" d="M642.565 479.209L642.167 480.036C640.98 482.342 634.817 485.58 632.352 486.731C632.192 488.327 632.509 488.879 633.245 490.231C635.051 490.265 637.026 488.428 638.625 487.502C639.683 486.89 640.585 486.115 641.625 485.502C641.998 485.283 642.791 484.745 643.125 484.502L644.25 483.255C644.959 483.19 645.592 483.154 646.307 483.179C638.504 489.577 629.56 493.829 620.524 498.177L595.121 506.669C591.402 506.413 587.689 507.558 584.025 508.088C576.509 509.176 568.981 509.64 561.397 509.851C559.208 509.912 555.989 510.344 553.959 509.582C552.598 508.691 553.06 509.738 551.677 509.75C552.146 508.285 552.527 507.743 551.879 506.188L551.685 505.75L552.75 505.943L553.709 504.144C556.016 503.366 560.641 503.767 563.196 503.632C571.998 503.167 580.814 502.567 589.5 500.997C593.426 500.288 597.672 499.572 601.247 497.764C607.006 494.811 614.33 493.409 620.417 490.903C628.47 487.813 635.457 484.074 642.565 479.209Z"/>
	<defs>
		<linearGradient id="gradient_3" gradientUnits="userSpaceOnUse" x1="450.89609" y1="426.50851" x2="448.72247" y2="399.94089">
			<stop offset="0" stop-color="#27081E"/>
			<stop offset="1" stop-color="#4F2F60"/>
		</linearGradient>
	</defs>
	<path fill="url(#gradient_3)" transform="matrix(0.0585938 0 0 0.0585938 0 -7.62939e-06)" d="M446.674 399.583C449.323 399.384 451.64 399.226 454.159 400.151C457.707 401.455 460.493 404.304 462.037 407.732C463.907 411.882 463.888 415.862 462.057 420.017C460.349 423.891 457.283 425.712 453.504 427.242C451.668 427.698 448.753 427.799 446.894 427.31C443.393 426.388 440.139 423.265 438.526 420.098C436.507 416.134 436.434 411.967 437.923 407.828C439.488 403.478 442.722 401.462 446.674 399.583Z"/>
	<path fill="#FBFBF9" transform="matrix(0.0585938 0 0 0.0585938 0 -7.62939e-06)" d="M448.692 405.75C450.56 405.436 451.554 405.946 453.087 406.912C454.099 408.39 454.818 409.495 454.366 411.391C453.9 413.347 452.875 414.071 451.25 414.997C450.276 415.123 448.975 415.302 448 415.045C446.828 414.736 445.658 413.673 445.25 412.503C444.826 411.286 444.847 410.169 445.308 408.985C446.022 407.156 446.951 406.539 448.692 405.75Z"/>
	<defs>
		<linearGradient id="gradient_4" gradientUnits="userSpaceOnUse" x1="564.06842" y1="426.65985" x2="567.87683" y2="401.20599">
			<stop offset="0" stop-color="#210624"/>
			<stop offset="1" stop-color="#4D3362"/>
		</linearGradient>
	</defs>
	<path fill="url(#gradient_4)" transform="matrix(0.0585938 0 0 0.0585938 0 -7.62939e-06)" d="M565.913 399.098C568.419 399.281 570.728 399.599 572.892 400.98C576.327 403.172 578.793 407.522 579.421 411.5C580.022 415.304 579.221 419.107 576.926 422.227C574.258 425.856 570.961 427.217 566.629 427.88C563.875 427.832 561.648 427.409 559.25 425.989C555.963 424.042 553.844 420.351 553.145 416.653C552.392 412.672 553.329 408.139 555.669 404.836C558.13 401.363 561.924 399.911 565.913 399.098Z"/>
	<path fill="#FBFBF9" transform="matrix(0.0585938 0 0 0.0585938 0 -7.62939e-06)" d="M564.636 406.25L566.75 405.955C568.46 406.514 569.057 406.899 570.245 408.25C570.752 409.719 571.049 410.718 570.518 412.25C570.034 413.644 568.963 414.062 567.75 414.668L566.93 414.936C565.368 415.245 563.642 414.948 562.543 413.75C561.317 412.415 561.542 410.913 561.517 409.25C562.348 407.608 563.031 407.116 564.636 406.25Z"/>
	<path fill="#0A719D" transform="matrix(0.0585938 0 0 0.0585938 0 -7.62939e-06)" d="M524.941 497.897C529.775 497.259 534.931 497.451 539.794 497.78C542.083 497.934 544.428 497.956 546.546 498.905C547.062 499.581 547.6 500.222 548.015 500.966C549.198 502.712 551.759 503.311 553.709 504.144L552.75 505.943L551.685 505.75L551.879 506.188C552.527 507.743 552.146 508.285 551.677 509.75C553.06 509.738 552.598 508.691 553.959 509.582C553.938 511.469 554.201 512.57 553.159 514.176C552.39 514.335 551.847 514.408 551.215 514.915C550.564 515.436 550.712 516.461 550.618 517.25C549.125 518.055 548.067 519.194 546.766 520.25C541.482 524.54 535.682 524.031 529.25 523.315C525.695 522.92 522.454 521.366 520.249 518.512C517.881 515.449 517.254 511.512 517.853 507.75C518.603 503.043 521.208 500.562 524.941 497.897Z"/>
	<path fill="#E6797E" transform="matrix(0.0585938 0 0 0.0585938 0 -7.62939e-06)" d="M475.261 543.776C480.075 545.917 485.134 548.166 490.25 549.484C507.644 553.965 526.676 551.39 543.418 545.301L543.659 545.19L543.725 566.5C543.814 570.846 544.401 575.792 543.578 580.088C543.127 576.174 543.464 571.904 543.463 567.95C535.784 570.053 527.484 571.293 519.5 570.916C501.27 570.054 486.874 556.736 475.261 543.776Z"/>
	<path fill="#FBFBF9" transform="matrix(0.0585938 0 0 0.0585938 0 -7.62939e-06)" d="M524.822 497.565C522.476 497.709 519.823 498.702 517.454 499.076C507.887 500.588 497.429 500.623 488.718 495.853C481.187 491.729 478.644 486.331 476.225 478.487C497.779 478.144 519.44 479.769 540.367 473.311C545.414 471.753 550.034 469.522 554.731 467.137L555.071 468.471L555.874 468.5C556.305 473.621 556.303 478.982 555.139 484C553.839 489.603 552.224 495.655 548.596 500.224L548.015 500.966C547.6 500.222 547.062 499.581 546.546 498.905C544.428 497.956 542.083 497.934 539.794 497.78C534.931 497.451 529.775 497.259 524.941 497.897L524.822 497.565Z"/>
	<path fill="#E07D56" transform="matrix(0.0585938 0 0 0.0585938 0 -7.62939e-06)" d="M555.071 468.471L555.874 468.5C556.305 473.621 556.303 478.982 555.139 484C553.839 489.603 552.224 495.655 548.596 500.224L548.015 500.966C547.6 500.222 547.062 499.581 546.546 498.905C544.428 497.956 542.083 497.934 539.794 497.78C534.931 497.451 529.775 497.259 524.941 497.897L524.822 497.565C536.578 491.513 549.591 480.778 555.071 468.471Z"/>
	<path fill="#592704" transform="matrix(0.0585938 0 0 0.0585938 0 -7.62939e-06)" d="M451.778 317.139L452.527 316.871C459.763 323.861 466.759 330.891 474.564 337.269C497.339 355.881 525.463 370.756 554.4 376.793C566.992 379.42 579.796 380.199 592.63 380.002C600.834 379.876 609.04 378.443 617.025 376.668L617.018 391.814C604.448 392.463 592.096 393.95 579.452 393.414C572.481 393.118 565.539 391.892 558.739 390.393C524.474 382.839 492.128 366.588 468.554 340.128C462.169 332.962 456.923 325.209 451.778 317.139Z"/>
	<path fill="#D90A2A" transform="matrix(0.0585938 0 0 0.0585938 0 -7.62939e-06)" d="M633.571 362.687C636.725 362.77 641.527 362.274 644.476 363.066C645.848 363.434 649.917 367.572 651.023 368.756L651.608 369.45L651.375 445.101L651.489 446.093L651.555 456.539C653.508 456.702 655.57 457.017 657.524 456.844L657.918 457.135L664.199 457.264C661.385 460.5 658.901 464.108 656.012 467.238C651.92 471.673 647.262 475.447 642.565 479.209C635.457 484.074 628.47 487.813 620.417 490.903C614.33 493.409 607.006 494.811 601.247 497.764C605.524 489.988 609.437 482.236 612.473 473.876C614.263 468.947 615.454 463.792 617.085 458.801C618.096 451.349 617.385 443.072 617.351 435.537L617.018 391.814L617.025 376.668L617.012 368.501L617.036 362.574L633.571 362.687Z"/>
	<path fill="#592704" transform="matrix(0.0585938 0 0 0.0585938 0 -7.62939e-06)" d="M650.976 467.957L651.375 445.101L651.489 446.093L651.555 456.539C653.508 456.702 655.57 457.017 657.524 456.844L657.918 457.135C658.27 458.926 658.89 460.801 658.102 462.534C655.988 464.585 653.665 466.678 650.976 467.957Z"/>
	<path fill="#824304" transform="matrix(0.0585938 0 0 0.0585938 0 -7.62939e-06)" d="M657.918 457.135L664.199 457.264C661.385 460.5 658.901 464.108 656.012 467.238C651.92 471.673 647.262 475.447 642.565 479.209C635.457 484.074 628.47 487.813 620.417 490.903L627.765 470.538C633.312 470.491 639.842 470.773 645.249 469.683C647.017 469.327 648.633 468.504 650.38 468.082L650.976 467.957C653.665 466.678 655.988 464.585 658.102 462.534C658.89 460.801 658.27 458.926 657.918 457.135Z"/>
	<path fill="#592704" transform="matrix(0.0585938 0 0 0.0585938 0 -7.62939e-06)" d="M617.085 458.801L617.161 459.27C617.666 462.544 617.021 467.846 619.25 470.381L627.765 470.538L620.417 490.903C614.33 493.409 607.006 494.811 601.247 497.764C605.524 489.988 609.437 482.236 612.473 473.876C614.263 468.947 615.454 463.792 617.085 458.801Z"/>
	<path fill="#592704" transform="matrix(0.0585938 0 0 0.0585938 0 -7.62939e-06)" d="M595.121 506.669L620.524 498.177C616.752 506.342 613.083 514.157 610.7 522.873C608.414 531.231 609.896 539.081 614.243 546.508C621.602 559.08 638.071 568.466 650.5 575.483C654.129 577.532 658.092 579.26 661.52 581.627C661.837 585.478 662.249 589.033 663.579 592.703C648.653 602.104 632.903 609.442 615.767 613.743L576.394 597.437L553.46 588.631C550.56 587.542 547.175 585.616 544.037 586.006C543.174 584.372 543.558 581.937 543.578 580.088C544.401 575.792 543.814 570.846 543.725 566.5L543.659 545.19C547.928 544.14 551.809 541.973 555.68 539.944C571.237 531.79 584.073 520.2 595.121 506.669Z"/>
</svg>
