<?xml version="1.0" encoding="utf-8" ?>
<svg xmlns="http://www.w3.org/2000/svg" xmlns:xlink="http://www.w3.org/1999/xlink" width="60" height="60">
	<path fill="#32A289" transform="matrix(0.0585938 0 0 0.0585938 -0.00012207 0)" d="M-0 -0L1024 0L1024 1024L-0 1024L0 -0Z"/>
	<path fill="#223D6D" transform="matrix(0.0585938 0 0 0.0585938 -0.00012207 0)" d="M880.42 698.632C883.942 699.444 886.225 700.455 888.199 703.629C890.288 706.988 889.508 711.887 889.56 715.795L889.742 735.212C887.984 738.484 885.829 741.162 882.179 742.304L879.937 742.924C879.645 742.397 879.534 742.021 879.518 741.415C879.412 737.29 879.855 733.123 879.855 728.986L879.619 704.99C879.612 703.875 879.192 700.394 879.585 699.5C879.746 699.132 880.142 698.921 880.42 698.632Z"/>
	<path fill="#3F8875" transform="matrix(0.0585938 0 0 0.0585938 -0.00012207 0)" d="M241.018 767.901L248.512 775.317C256.956 781.752 265.654 786.464 276.031 789.05C281.605 790.44 287.295 790.846 292.979 791.511C292.167 792.064 291.562 792.395 290.564 792.497C285.433 793.022 279.867 792.507 274.677 792.608L242.704 792.598C237.052 792.545 231.243 792.755 225.611 792.408L224.845 792.058C220.581 787.163 216.617 781.439 212.004 776.957L212.035 776.486L207.99 771.925L207.99 771.628C215.802 771.324 223.675 770.206 231.422 769.225C234.584 768.824 238.001 768.969 241.018 767.901Z"/>
	<path fill="#66B6A0" transform="matrix(0.0585938 0 0 0.0585938 -0.00012207 0)" d="M241.018 767.901L248.512 775.317L212.035 776.486L207.99 771.925L207.99 771.628C215.802 771.324 223.675 770.206 231.422 769.225C234.584 768.824 238.001 768.969 241.018 767.901Z"/>
	<path fill="#86D7BB" transform="matrix(0.0585938 0 0 0.0585938 -0.00012207 0)" d="M186.426 741.301L205.006 741.555C207.846 741.569 211.184 741.256 213.939 741.837L215.28 742.014C219.029 742.913 223.447 742.505 227.307 742.518C229.785 752.264 234.609 760.238 241.018 767.901C238.001 768.969 234.584 768.824 231.422 769.225C223.675 770.206 215.802 771.324 207.99 771.628L186.426 741.301Z"/>
	<path fill="#86D7BB" transform="matrix(0.0585938 0 0 0.0585938 -0.00012207 0)" d="M812.974 739.056C814.813 737.571 816.717 737.925 818.958 737.971C820.055 739.428 821.334 741.557 823.25 741.943L833.428 742.553C830.255 750.172 825.315 757.581 820.535 764.289C818.614 766.985 816.497 770.355 814.013 772.554C808.123 769.967 802.093 768.842 795.742 768.091C792.125 767.663 786.149 767.951 782.956 766.382C788.765 758.084 793.042 749.854 795.561 740.015L806.046 739.921L812.494 739.851L812.974 739.056Z"/>
	<path fill="#274464" transform="matrix(0.0585938 0 0 0.0585938 -0.00012207 0)" d="M874.974 698.843L880.42 698.632C880.142 698.921 879.746 699.132 879.585 699.5C879.192 700.394 879.612 703.875 879.619 704.99L879.855 728.986C879.855 733.123 879.412 737.29 879.518 741.415C879.534 742.021 879.645 742.397 879.937 742.924L833.428 742.553L823.25 741.943C821.334 741.557 820.055 739.428 818.958 737.971C818.14 732.678 818.701 726.99 818.781 721.642C818.859 716.397 817.825 707.822 820.732 703.25C822.401 700.625 824.235 699.438 827.234 698.863L860.153 698.969C864.982 698.959 870.185 699.342 874.974 698.843Z"/>
	<path fill="#2B9272" transform="matrix(0.0585938 0 0 0.0585938 -0.00012207 0)" d="M207.99 771.925L212.035 776.486L212.004 776.957C216.617 781.439 220.581 787.163 224.845 792.058L225.611 792.408L254.455 820.863C251.023 821.547 246.759 820.821 243.234 820.604L220.462 819.098C181.011 815.97 141.27 813.527 102.359 805.888C95.3682 804.516 81.6762 802.642 77.5711 796.5C77.6874 795.37 77.5779 794.964 78.2704 794.013C87.711 781.047 186.568 775.09 207.99 771.925Z"/>
	<path fill="#0A6458" transform="matrix(0.0585938 0 0 0.0585938 -0.00012207 0)" d="M212.004 776.957C216.617 781.439 220.581 787.163 224.845 792.058C214.342 792.023 204.019 791.756 193.586 790.416C189.728 789.92 185.335 789.525 181.734 787.944C180.713 787.496 180.768 787.527 180.376 786.5C181.712 784.728 183.816 783.913 185.814 783.07C190.34 781.16 195.622 779.694 200.465 778.875C203.993 778.277 207.831 778.146 211.258 777.177L212.004 776.957Z"/>
	<path fill="#2B9272" transform="matrix(0.0585938 0 0 0.0585938 -0.00012207 0)" d="M814.043 773.136C822.037 774.12 830.098 773.965 838.123 774.589C854.564 775.868 930.548 782.188 939.845 793.25C940.874 794.474 940.96 795.188 941.015 796.75C936.618 803.358 921.123 806.099 913.771 807.579C889.254 812.515 863.881 814.706 839 817.042L784.248 821.74L772.842 822.473C770.851 822.606 768.415 823.056 766.455 822.716C778.075 813.212 789.146 802.382 798.853 790.93C800.985 789.092 802.82 786.173 804.63 783.979C807.618 780.357 810.915 776.896 813.656 773.088L814.043 773.136Z"/>
	<path fill="#3F8875" transform="matrix(0.0585938 0 0 0.0585938 -0.00012207 0)" d="M566.104 702.946L646.34 702.782C643.194 715.341 642.924 729.121 643.88 742L644.898 742.748L663.38 742.528L665.343 749.023C667.955 755.248 670.951 760.489 674.965 765.903C678.481 769.73 682.026 773.57 686.103 776.815C698.653 785.929 710.752 791.231 726.5 791.636C746.778 791.262 764.293 785.198 778.927 770.878L782.956 766.382C786.149 767.951 792.125 767.663 795.742 768.091C802.093 768.842 808.123 769.967 814.013 772.554L814.043 773.136L813.656 773.088C810.915 776.896 807.618 780.357 804.63 783.979C802.82 786.173 800.985 789.092 798.853 790.93C782.12 792.829 765.715 794.097 748.868 793.683C744.028 793.564 739.024 793.71 734.25 792.863L733.266 792.697L731.833 792.354C730.172 791.968 728.204 792.147 726.5 792.151L722 792.255L721.277 792.75C716.179 793.278 710.742 792.662 705.601 792.617L660.406 791.333L606.204 790.193L551.252 789.543L412.664 790.052L336.21 791.553L308.336 792.039C304.755 792.089 301.135 792.557 297.556 792.363C296.391 792.3 295.325 791.949 294.27 791.475C304.802 790.412 314.846 788.081 324.284 783.164C328.893 780.763 333.123 777.667 337.404 774.739C341.059 771.514 344.196 767.953 347.241 764.157C351.644 758.515 355.167 750.753 356.887 743.807L358.113 738.545L372.716 738.28C375.023 738.176 377.678 738.274 379.912 737.719C381.258 737.385 382.139 736.295 382.779 735.094C384.721 731.445 383.652 726.898 382.874 723.048C381.492 716.208 379.707 709.572 377.707 702.888L493.445 702.59C508.727 703.507 524.39 702.74 539.722 702.705L550.208 702.771C551.611 702.79 553.682 702.566 555.015 702.901L566.104 702.946Z"/>
	<path fill="#66B6A0" transform="matrix(0.0585938 0 0 0.0585938 -0.00012207 0)" d="M778.927 770.878L782.956 766.382C786.149 767.951 792.125 767.663 795.742 768.091C802.093 768.842 808.123 769.967 814.013 772.554L814.043 773.136L813.656 773.088L778.927 770.878Z"/>
	<path fill="#32A289" transform="matrix(0.0585938 0 0 0.0585938 -0.00012207 0)" d="M347.241 764.157L402.079 763.006L575.922 762.093L641.086 764.386L663.813 765.56C667.296 765.743 671.529 766.464 674.965 765.903C678.481 769.73 682.026 773.57 686.103 776.815C683.204 777.428 679.667 777.094 676.717 776.96L664.5 776.553L599.531 775.123L421.978 774.504L337.404 774.739C341.059 771.514 344.196 767.953 347.241 764.157Z"/>
	<path fill="#86D7BB" transform="matrix(0.0585938 0 0 0.0585938 -0.00012207 0)" d="M644.898 742.748L663.38 742.528L665.343 749.023C667.955 755.248 670.951 760.489 674.965 765.903C671.529 766.464 667.296 765.743 663.813 765.56L641.086 764.386L575.922 762.093L402.079 763.006L347.241 764.157C351.644 758.515 355.167 750.753 356.887 743.807L643.589 743.365L644.898 742.748Z"/>
	<path fill="#3D5F83" transform="matrix(0.0585938 0 0 0.0585938 -0.00012207 0)" d="M566.104 702.946L646.34 702.782C643.194 715.341 642.924 729.121 643.88 742L644.898 742.748L643.589 743.365L356.887 743.807L358.113 738.545L372.716 738.28C375.023 738.176 377.678 738.274 379.912 737.719C381.258 737.385 382.139 736.295 382.779 735.094C384.721 731.445 383.652 726.898 382.874 723.048C381.492 716.208 379.707 709.572 377.707 702.888L493.445 702.59C508.727 703.507 524.39 702.74 539.722 702.705L550.208 702.771C551.611 702.79 553.682 702.566 555.015 702.901L566.104 702.946Z"/>
	<path fill="#86D7BB" transform="matrix(0.0585938 0 0 0.0585938 -0.00012207 0)" d="M255.004 821.266L765.488 823.149C696.853 880.519 611.095 914.759 521.243 916.042C502.41 916.311 483.62 915.818 464.898 913.611C408.883 907.01 354.826 887.862 306.5 858.982C296.713 853.133 287.464 846.781 278.236 840.088C270.027 834.133 262.299 828.358 255.004 821.266Z"/>
	<path fill="#F9B855" transform="matrix(0.0585938 0 0 0.0585938 -0.00012207 0)" d="M172.595 599.509L185.99 599.59C190.093 599.806 194.152 600.107 198.25 599.8L370.213 599.885L384.521 600.018L418.928 600.092L455.068 600.205L490.069 600.076L514.642 600.111L515.268 600.668L521.891 600.703L521.912 621.993L522.546 622.105L554.988 622.005L555.015 702.901C553.682 702.566 551.611 702.79 550.208 702.771L539.722 702.705C524.39 702.74 508.727 703.507 493.445 702.59L377.707 702.888C379.707 709.572 381.492 716.208 382.874 723.048C383.652 726.898 384.721 731.445 382.779 735.094C382.139 736.295 381.258 737.385 379.912 737.719C377.678 738.274 375.023 738.176 372.716 738.28L358.113 738.545L356.887 743.807C355.167 750.753 351.644 758.515 347.241 764.157C344.196 767.953 341.059 771.514 337.404 774.739C333.123 777.667 328.893 780.763 324.284 783.164C314.846 788.081 304.802 790.412 294.27 791.475L292.979 791.511C287.295 790.846 281.605 790.44 276.031 789.05C265.654 786.464 256.956 781.752 248.512 775.317L241.018 767.901C234.609 760.238 229.785 752.264 227.307 742.518C223.447 742.505 219.029 742.913 215.28 742.014L213.939 741.837C211.184 741.256 207.846 741.569 205.006 741.555L186.426 741.301C183.737 740.615 180.169 741.016 177.359 741.019L151.456 741.028C147.547 741.025 143.097 741.431 139.244 740.939C137.821 740.757 136.589 740.062 135.582 739.07C134.705 738.206 133.945 737.161 133.665 735.945C133.06 733.321 133.369 729.992 133.344 727.271L133.297 711.42C133.352 708.488 133.092 704.688 135.628 702.632C137.258 701.312 139.991 701.577 141.949 701.647L149.869 701.993L159.971 702.006L160.028 666.756C159.548 662.378 159.996 657.434 159.998 653.004L160.013 622.164L159.987 599.549L172.595 599.509Z"/>
	<path fill="#B92A31" transform="matrix(0.0585938 0 0 0.0585938 -0.00012207 0)" d="M189.556 635.507C191.497 635.845 192.678 636.426 193.88 638.059C194.852 639.378 195.026 641.691 194.563 643.242C194.037 645.005 192.608 646.394 191.016 647.229L190.473 647.451C189.133 644.616 190.334 638.932 189.556 635.507Z"/>
	<path fill="#D64341" transform="matrix(0.0585938 0 0 0.0585938 -0.00012207 0)" d="M190.473 647.451C189.642 647.812 188.828 647.993 187.917 647.898C186.082 647.706 184.103 646.994 182.956 645.482C181.816 643.981 181.573 642.072 181.929 640.25C182.23 638.707 183.197 637.315 184.498 636.441C186.107 635.359 187.693 635.185 189.556 635.507C190.334 638.932 189.133 644.616 190.473 647.451Z"/>
	<path fill="#B92A31" transform="matrix(0.0585938 0 0 0.0585938 -0.00012207 0)" d="M188.635 671.668C191.026 671.619 193.308 671.349 195.524 672.388C195.851 672.758 196.349 673.031 196.506 673.5C196.79 674.352 196.543 676.615 196.549 677.581L196.474 691.45L188.543 691.575L188.635 671.668Z"/>
	<path fill="#E6C497" transform="matrix(0.0585938 0 0 0.0585938 -0.00012207 0)" d="M160.028 666.756L160.179 667.443C160.874 670.726 160.744 673.861 160.796 677.192C160.813 678.262 161.252 679.156 161.269 680.233L161.305 690.864L162 691.25L161.862 690.625C161.659 689.381 161.764 687.558 161.755 686.25L161.868 685.596C162.244 683.297 161.987 680.36 161.877 678L161.901 675.719C161.901 674.996 161.798 674.642 161.502 674.003L161.755 672.75L162.277 672.426L162.519 672.953L162.493 690.736L163.418 691.635L164.099 691.846C166.168 692.434 169.185 692.073 171.363 692.07L188.942 692.002L188.928 702.02L159.971 702.006L160.028 666.756Z"/>
	<path fill="#D64341" transform="matrix(0.0585938 0 0 0.0585938 -0.00012207 0)" d="M162.519 672.953C162.8 672.697 163.424 672.038 163.75 671.916C164.895 671.49 168.265 671.918 169.598 671.918L188.635 671.668L188.543 691.575L163.418 691.635L162.493 690.736L162.519 672.953Z"/>
	<path fill="#F29744" transform="matrix(0.0585938 0 0 0.0585938 -0.00012207 0)" d="M522.546 622.105L554.988 622.005L555.015 702.901C553.682 702.566 551.611 702.79 550.208 702.771L539.722 702.705C524.39 702.74 508.727 703.507 493.445 702.59C496.229 701.922 499.783 702.334 502.653 702.328L522.061 702.313L522.343 645.562L522.349 631.334C522.321 628.62 522.028 625.676 522.407 623.001L522.546 622.105Z"/>
	<path fill="#3D5F83" transform="matrix(0.0585938 0 0 0.0585938 -0.00012207 0)" d="M188.928 702.02C190.029 702.028 203.575 702.191 203.648 702.122C204.126 701.674 204.952 699.223 205.278 698.513L210.284 688.479C216.061 677.948 223.603 668.485 232.796 660.725C253.115 643.572 276.908 637.158 303.11 639.423L303.601 653.558C283.681 650.554 263.115 655.247 246.838 667.218C230.287 679.391 216.626 697.749 213.727 718.547C212.753 725.532 211.584 735.114 213.939 741.837C211.184 741.256 207.846 741.569 205.006 741.555L186.426 741.301C183.737 740.615 180.169 741.016 177.359 741.019L151.456 741.028C147.547 741.025 143.097 741.431 139.244 740.939C137.821 740.757 136.589 740.062 135.582 739.07C134.705 738.206 133.945 737.161 133.665 735.945C133.06 733.321 133.369 729.992 133.344 727.271L133.297 711.42C133.352 708.488 133.092 704.688 135.628 702.632C137.258 701.312 139.991 701.577 141.949 701.647L149.869 701.993L159.971 702.006L188.928 702.02Z"/>
	<path fill="#FDE6BF" transform="matrix(0.0585938 0 0 0.0585938 -0.00012207 0)" d="M172.595 599.509L185.99 599.59C190.093 599.806 194.152 600.107 198.25 599.8L370.213 599.885L384.521 600.018L418.928 600.092L455.068 600.205L490.069 600.076L514.642 600.111L515.268 600.668L521.891 600.703L521.912 621.993L160.013 622.164L159.987 599.549L172.595 599.509Z"/>
	<path fill="#2F2546" transform="matrix(0.0585938 0 0 0.0585938 -0.00012207 0)" d="M303.11 639.423C328.192 643.536 349.571 655.741 364.521 676.609C370.393 684.805 374.469 693.376 377.707 702.888C379.707 709.572 381.492 716.208 382.874 723.048C383.652 726.898 384.721 731.445 382.779 735.094C382.139 736.295 381.258 737.385 379.912 737.719C377.678 738.274 375.023 738.176 372.716 738.28L358.113 738.545L356.887 743.807C355.167 750.753 351.644 758.515 347.241 764.157C344.196 767.953 341.059 771.514 337.404 774.739C333.123 777.667 328.893 780.763 324.284 783.164C314.846 788.081 304.802 790.412 294.27 791.475L292.979 791.511C287.295 790.846 281.605 790.44 276.031 789.05C265.654 786.464 256.956 781.752 248.512 775.317L241.018 767.901C234.609 760.238 229.785 752.264 227.307 742.518C223.447 742.505 219.029 742.913 215.28 742.014L213.939 741.837C211.584 735.114 212.753 725.532 213.727 718.547C216.626 697.749 230.287 679.391 246.838 667.218C263.115 655.247 283.681 650.554 303.601 653.558L303.11 639.423Z"/>
	<defs>
		<linearGradient id="gradient_0" gradientUnits="userSpaceOnUse" x1="286.71561" y1="720.89709" x2="230.46275" y2="733.29291">
			<stop offset="0" stop-color="#686172"/>
			<stop offset="1" stop-color="#99898B"/>
		</linearGradient>
	</defs>
	<path fill="url(#gradient_0)" transform="matrix(0.0585938 0 0 0.0585938 -0.00012207 0)" d="M281.491 667.87L281.051 668.299C279.758 669.355 278.004 669.842 276.5 670.561C273.716 671.892 270.883 673.373 268.25 674.979C253.372 684.055 242.562 699.002 239.862 716.344C238.962 722.124 239.034 727.715 239.499 733.519C240.632 747.671 249.115 762.788 259.987 771.842C261.909 773.443 263.909 774.916 266.061 776.192C267.824 777.237 275.183 780.217 275.75 781.345L271.095 780.858C258.923 776.756 247.616 769.299 240.054 758.784C230.918 746.079 228.205 730.825 230.436 715.5C231.464 708.438 234.338 701.517 238.259 695.566C248.248 680.407 264.091 671.49 281.491 667.87Z"/>
	<path fill="#274464" transform="matrix(0.0585938 0 0 0.0585938 -0.00012207 0)" d="M303.11 639.423C328.192 643.536 349.571 655.741 364.521 676.609C370.393 684.805 374.469 693.376 377.707 702.888C379.707 709.572 381.492 716.208 382.874 723.048C383.652 726.898 384.721 731.445 382.779 735.094C382.139 736.295 381.258 737.385 379.912 737.719C377.678 738.274 375.023 738.176 372.716 738.28L358.113 738.545L357.953 738.013C357.973 733.482 358.163 728.819 357.686 724.31C355.97 708.096 349.116 692.544 337.627 680.87C324.625 667.658 306.539 661.674 288.279 661.89L282.5 662.322C265.542 664.623 249.085 674.009 238.498 687.582C228.698 700.144 223.344 716.114 225.407 732.14L226.475 738.959L227.307 742.518C223.447 742.505 219.029 742.913 215.28 742.014L213.939 741.837C211.584 735.114 212.753 725.532 213.727 718.547C216.626 697.749 230.287 679.391 246.838 667.218C263.115 655.247 283.681 650.554 303.601 653.558L303.11 639.423Z"/>
	<path fill="#4A8892" transform="matrix(0.0585938 0 0 0.0585938 -0.00012207 0)" d="M226.475 738.959L227.307 742.518C223.447 742.505 219.029 742.913 215.28 742.014L215.496 739.75C216.973 738.312 224.082 738.972 226.475 738.959Z"/>
	<path fill="#234C5C" transform="matrix(0.0585938 0 0 0.0585938 -0.00012207 0)" d="M303.11 639.423C328.192 643.536 349.571 655.741 364.521 676.609C370.393 684.805 374.469 693.376 377.707 702.888C379.707 709.572 381.492 716.208 382.874 723.048C383.652 726.898 384.721 731.445 382.779 735.094C382.139 736.295 381.258 737.385 379.912 737.719C377.678 738.274 375.023 738.176 372.716 738.28L358.113 738.545L357.953 738.013L369.519 737.978C369.011 719.985 365.328 701.733 354.95 686.704C343.13 669.587 323.995 657.3 303.601 653.558L303.11 639.423Z"/>
	<path fill="#4D4453" transform="matrix(0.0585938 0 0 0.0585938 -0.00012207 0)" d="M281.491 667.87C286.939 664.608 298.863 666.822 304.67 668.304C319.545 672.1 333.078 682.151 340.905 695.337C348.165 707.567 350.676 722.281 348.106 736.25C345.252 751.758 336.702 765.697 323.684 774.74C311.745 783.033 296.082 787.273 281.611 784.554C277.813 783.84 274.063 783.556 271.095 780.858L275.75 781.345C275.183 780.217 267.824 777.237 266.061 776.192C263.909 774.916 261.909 773.443 259.987 771.842C249.115 762.788 240.632 747.671 239.499 733.519C239.034 727.715 238.962 722.124 239.862 716.344C242.562 699.002 253.372 684.055 268.25 674.979C270.883 673.373 273.716 671.892 276.5 670.561C278.004 669.842 279.758 669.355 281.051 668.299L281.491 667.87Z"/>
	<path fill="#2F2546" transform="matrix(0.0585938 0 0 0.0585938 -0.00012207 0)" d="M287.756 690.659C291.277 690.27 295.474 690.044 298.951 690.776C303.139 691.658 306.836 692.629 310.498 694.945L311.25 695.427L311.939 695.85C319.469 700.624 324.248 708.861 326.057 717.434C327.931 726.314 325.849 736.341 320.937 743.928L320.559 744.5L319.774 745.689C314.141 753.507 305.821 757.241 296.613 758.894C289.441 759.522 282.119 758.831 275.717 755.318L275 754.915L272.657 753.535C264.877 748.325 259.593 738.841 257.989 729.79C256.407 720.859 259.092 711.615 264.316 704.312C269.952 696.432 278.344 692.038 287.756 690.659Z"/>
	<path fill="#FEC9AF" transform="matrix(0.0585938 0 0 0.0585938 -0.00012207 0)" d="M304.837 696.35C312.364 699.683 317.675 705.352 320.793 712.953C323.906 720.54 323.42 729.697 320.087 737.095C316.723 744.56 310.3 750.558 302.584 753.305L300 754.072L299.143 754.311C291.709 756.267 283.422 754.561 276.862 750.752C272.303 748.106 268.269 743.921 265.677 739.359C266.561 739.226 267.895 738.83 268.75 738.897C269.617 738.966 271.62 740.36 272.411 740.812C274.565 742.044 276.538 743.015 278.982 743.526L279.75 743.682C285.355 744.89 290.833 744.644 296.359 743.084C302.512 741.347 307.434 737.47 310.483 731.85C313.628 726.053 314.819 718.082 312.787 711.684L312.557 711C310.934 705.909 307.615 700.905 304.837 696.35Z"/>
	<path fill="#FDFCFA" transform="matrix(0.0585938 0 0 0.0585938 -0.00012207 0)" d="M265.677 739.359L264.387 736.713C261.146 729.177 260.832 720.911 263.994 713.274C267.286 705.324 273.421 698.88 281.479 695.727C288.745 692.884 297.758 693.224 304.837 696.35C307.615 700.905 310.934 705.909 312.557 711L312.787 711.684C314.819 718.082 313.628 726.053 310.483 731.85C307.434 737.47 302.512 741.347 296.359 743.084C290.833 744.644 285.355 744.89 279.75 743.682L278.982 743.526C276.538 743.015 274.565 742.044 272.411 740.812C271.62 740.36 269.617 738.966 268.75 738.897C267.895 738.83 266.561 739.226 265.677 739.359Z"/>
	<path fill="#86D7BB" transform="matrix(0.0585938 0 0 0.0585938 -0.00012207 0)" d="M149.869 701.993C141.672 682.708 133.431 663.427 127.058 643.442C107.988 583.642 101.457 520.061 110.019 457.75C113.781 430.372 120.753 403.354 129.722 377.243C135.283 361.055 142.467 345.558 150.248 330.337C190.309 251.976 255.377 186.543 334.731 147.992C432.214 100.635 544.166 94.3205 646.5 129.975C746.529 164.826 831.902 241.233 877.76 336.739C903.312 389.957 917.332 449.149 917.904 508.214C918.137 532.195 915.802 556.641 911.887 580.275C909.615 593.986 907.008 607.747 903.309 621.158C898.991 636.813 894.026 652.411 888.005 667.5C883.838 677.944 878.858 688.037 875.101 698.647L874.974 698.843C870.185 699.342 864.982 698.959 860.153 698.969L827.234 698.863C824.235 699.438 822.401 700.625 820.732 703.25C817.825 707.822 818.859 716.397 818.781 721.642C818.701 726.99 818.14 732.678 818.958 737.971C816.717 737.925 814.813 737.571 812.974 739.056L812.494 739.851L806.046 739.921L795.561 740.015C793.042 749.854 788.765 758.084 782.956 766.382L778.927 770.878C764.293 785.198 746.778 791.262 726.5 791.636C710.752 791.231 698.653 785.929 686.103 776.815C682.026 773.57 678.481 769.73 674.965 765.903C670.951 760.489 667.955 755.248 665.343 749.023L663.38 742.528L644.898 742.748L643.88 742C642.924 729.121 643.194 715.341 646.34 702.782L566.104 702.946L555.015 702.901L554.988 622.005L522.546 622.105L521.912 621.993L521.891 600.703L515.268 600.668L514.642 600.111L490.069 600.076L455.068 600.205L418.928 600.092L384.521 600.018L370.213 599.885L198.25 599.8C194.152 600.107 190.093 599.806 185.99 599.59L172.595 599.509L159.987 599.549L160.013 622.164L159.998 653.004C159.996 657.434 159.548 662.378 160.028 666.756L159.971 702.006L149.869 701.993Z"/>
	<path fill="#BF9133" transform="matrix(0.0585938 0 0 0.0585938 -0.00012207 0)" d="M650.301 306.936C668.524 315.262 678.913 331.843 687.952 349C692.727 358.062 697.161 367.476 700.726 377.078L704.25 386.999C704.7 388.267 705.677 390.123 705.817 391.424C702.936 391.791 699.771 391.537 696.857 391.534L680.89 391.58L680.604 391.466C675.688 370.051 668.585 348.546 660.092 328.269L650.301 306.936Z"/>
	<path fill="#F29744" transform="matrix(0.0585938 0 0 0.0585938 -0.00012207 0)" d="M465.922 320.738L555.372 320.517L555.375 328.588L555.076 342.956L521.875 342.96L490.016 342.984L455.354 343.01L424.062 343.007L423.999 320.918L465.922 320.738Z"/>
	<path fill="#FDFCFA" transform="matrix(0.0585938 0 0 0.0585938 -0.00012207 0)" d="M387.734 181.206C393.973 181.504 399.347 182.534 404.754 185.809C412.72 190.632 417.686 198.178 419.797 207.172L419.93 207.754C421.739 207.31 423.49 207.072 425.348 207.009C431.146 206.813 435.971 208.874 440.148 212.839C446.175 218.56 447.896 224.98 448.126 232.998L387.75 232.935L327.42 233.012L328.121 226.327C329.227 220.082 332.759 214.75 338.064 211.223C343.449 207.641 348.892 207.672 354.961 208.957C356.101 202.726 358.06 197.22 362.367 192.426C369.427 184.566 377.398 181.757 387.734 181.206Z"/>
	<path fill="#FDFCFA" transform="matrix(0.0585938 0 0 0.0585938 -0.00012207 0)" d="M625.491 207.646C633.446 206.502 642.187 208.686 648.787 213.2C658.506 219.848 661.857 228.38 664.035 239.613C666.352 238.111 669.061 236.291 671.882 236.004C676.953 235.489 681.844 237.155 685.686 240.489C691.915 245.892 693.586 251.917 694.304 259.818L645.125 259.536L571.977 259.921L572.262 254.702C572.879 248.692 575.87 242.595 580.704 238.843C586.305 234.495 591.312 234.249 597.991 235.077L598.465 232C599.049 228.213 600.626 224.537 602.792 221.377C608.255 213.407 616.168 209.372 625.491 207.646Z"/>
	<path fill="#BF9133" transform="matrix(0.0585938 0 0 0.0585938 -0.00012207 0)" d="M305.131 320.506L480.47 248.578L421.037 307.739L530.187 252.908L465.922 320.738L423.999 320.918L342 320.901L319.609 320.947C314.838 320.957 309.848 321.276 305.131 320.506Z"/>
	<path fill="#E36043" transform="matrix(0.0585938 0 0 0.0585938 -0.00012207 0)" d="M172.559 342.954L206.534 342.916L206.57 353L206.544 418.949C202.551 419.768 200.083 420.806 197.614 424.278C196.255 426.189 195.822 428.277 195.666 430.577C194.977 440.711 195.606 451.237 195.6 461.413L195.698 525.733L195.787 556.426C195.765 563.704 194.85 572.207 196.47 579.295L196.635 579.969L196.48 599.532L185.99 599.59L172.595 599.509L172.577 353.019L172.559 342.954Z"/>
	<path fill="#D54E47" transform="matrix(0.0585938 0 0 0.0585938 -0.00012207 0)" d="M172.559 342.954L206.534 342.916L206.57 353L172.577 353.019L172.559 342.954Z"/>
	<path fill="#C93A3A" transform="matrix(0.0585938 0 0 0.0585938 -0.00012207 0)" d="M705.817 391.424C714.397 392.405 721.482 397.068 726.75 403.786C730.269 408.273 732.698 413.509 735.123 418.636L744.584 439.341L778.844 515.381C783.271 525.211 787.206 537.478 794.397 545.584C800.051 551.956 807.087 553.975 814.82 556.906L836.857 565.382C850.971 570.892 865.72 576.242 872.277 591.101C873.498 593.867 874.478 596.831 874.829 599.845C875.831 608.439 875.034 617.915 875.044 626.595L875.101 698.647L874.974 698.843C870.185 699.342 864.982 698.959 860.153 698.969L827.234 698.863C829.034 698.509 831.06 698.994 832.582 698L832.598 644.02C832.525 634.66 833.38 624.173 831.493 615C829.391 604.788 824.238 595.151 815.364 589.272C803.365 581.324 790.434 574.618 777.612 568.076C772.214 565.322 765.543 562.837 760.632 559.451C759.342 558.561 743.063 559.022 740.252 558.873C747.805 558.2 760.65 560.926 766.72 556.011C768.368 554.677 770.82 551.315 770.741 549.141C770.637 546.254 768.591 542.156 767.477 539.5L756.177 514.826L739.129 477.248L725.397 446.545C723.267 441.912 721.282 437.069 718.799 432.622C716.887 429.198 714.863 426.815 711.802 424.384C711.271 421.934 710.636 419.223 709.45 417C704.856 408.388 694.092 401.897 686.283 396.292C684.391 394.934 681.935 393.706 680.89 391.58L696.857 391.534C699.771 391.537 702.936 391.791 705.817 391.424Z"/>
	<path fill="#F9B855" transform="matrix(0.0585938 0 0 0.0585938 -0.00012207 0)" d="M843.652 644.689L871.975 644.629L871.985 660.192C871.984 663.315 872.208 666.619 871.75 669.706L870.25 670.017L842.031 670.002L842.163 645.122L843.652 644.689Z"/>
	<path fill="#FDFCFA" transform="matrix(0.0585938 0 0 0.0585938 -0.00012207 0)" d="M844.071 608.574L871.512 608.508L871.446 641.489L844.037 641.513L844.071 608.574Z"/>
	<path fill="#F9B855" transform="matrix(0.0585938 0 0 0.0585938 -0.00012207 0)" d="M305.131 320.506C309.848 321.276 314.838 320.957 319.609 320.947L342 320.901L423.999 320.918L424.062 343.007L418.931 342.993L384.562 342.991L349.561 342.975L349.592 352.545L349.494 353.133L349.478 400.744L349.467 413.136C349.467 415.07 349.191 417.209 349.985 419.001L314.025 418.999L278.051 418.983L243.099 419.009L206.544 418.949L206.57 353L206.534 342.916L172.559 342.954L172.553 320.893L305.131 320.506Z"/>
	<path fill="#E36043" transform="matrix(0.0585938 0 0 0.0585938 -0.00012207 0)" d="M313.972 343.003L349.561 342.975L349.592 352.545L349.494 353.133L313.988 353.022L313.972 343.003Z"/>
	<path fill="#E36043" transform="matrix(0.0585938 0 0 0.0585938 -0.00012207 0)" d="M238.279 342.912C244.217 342.335 311.446 341.91 313.972 343.003L313.508 343.169L277.971 343.057L278.115 352.956L277.968 353.337C275.542 352.487 271.648 353.04 268.981 353.031L252.846 352.998C249.613 352.998 246.214 352.728 243.036 353.324L242.889 352.969C243.229 350.222 243.366 345.876 242.832 343.21L238.279 342.912Z"/>
	<path fill="#D64341" transform="matrix(0.0585938 0 0 0.0585938 -0.00012207 0)" d="M313.972 343.003L313.988 353.022L349.494 353.133L349.478 400.744L349.467 413.136C349.467 415.07 349.191 417.209 349.985 419.001L314.025 418.999L278.051 418.983L277.968 353.337L278.115 352.956L277.971 343.057L313.508 343.169L313.972 343.003Z"/>
	<path fill="#C93A3A" transform="matrix(0.0585938 0 0 0.0585938 -0.00012207 0)" d="M278.115 352.956L277.971 343.057L313.508 343.169L313.692 353.023L278.115 352.956Z"/>
	<path fill="#F2814E" transform="matrix(0.0585938 0 0 0.0585938 -0.00012207 0)" d="M313.988 353.022L349.494 353.133L349.478 400.744L349.467 413.136C349.467 415.07 349.191 417.209 349.985 419.001L314.025 418.999L313.988 353.022Z"/>
	<path fill="#D64341" transform="matrix(0.0585938 0 0 0.0585938 -0.00012207 0)" d="M206.979 342.939L238.279 342.912L242.832 343.21C243.366 345.876 243.229 350.222 242.889 352.969L243.036 353.324C246.214 352.728 249.613 352.998 252.846 352.998L268.981 353.031C271.648 353.04 275.542 352.487 277.968 353.337L278.051 418.983L243.099 419.009L206.544 418.949L206.57 353L206.534 342.916L206.979 342.939Z"/>
	<path fill="#C93A3A" transform="matrix(0.0585938 0 0 0.0585938 -0.00012207 0)" d="M206.979 342.939L238.279 342.912L242.832 343.21C243.366 345.876 243.229 350.222 242.889 352.969L206.921 353.032L206.979 342.939Z"/>
	<path fill="#F2814E" transform="matrix(0.0585938 0 0 0.0585938 -0.00012207 0)" d="M243.036 353.324C246.214 352.728 249.613 352.998 252.846 352.998L268.981 353.031C271.648 353.04 275.542 352.487 277.968 353.337L278.051 418.983L243.099 419.009L243.036 353.324Z"/>
	<path fill="#FDE6BF" transform="matrix(0.0585938 0 0 0.0585938 -0.00012207 0)" d="M314.025 418.999L349.985 419.001C356.258 418.946 361.572 418.087 366.459 422.87C368.631 424.995 369.937 427.561 370.289 430.575C370.917 435.961 370.481 441.864 370.498 447.297L370.555 482.303L370.213 599.885L198.25 599.8C194.152 600.107 190.093 599.806 185.99 599.59L196.48 599.532L196.635 579.969L196.47 579.295C194.85 572.207 195.765 563.704 195.787 556.426L195.698 525.733L195.6 461.413C195.606 451.237 194.977 440.711 195.666 430.577C195.822 428.277 196.255 426.189 197.614 424.278C200.083 420.806 202.551 419.768 206.544 418.949L243.099 419.009L278.051 418.983L314.025 418.999Z"/>
	<path fill="#223D6D" transform="matrix(0.0585938 0 0 0.0585938 -0.00012207 0)" d="M220.429 522.519C224.329 522.524 241.109 521.629 243.356 523.106C243.411 524.8 243.847 526.036 242.75 527.375L225.633 527.395L225.6 538.026C227.529 538.05 237.908 537.58 239.25 538.177C239.741 538.395 240.052 538.892 240.454 539.25L240.498 541.75C238.268 543.811 228.773 542.806 225.511 542.8C225.511 545.923 226.389 556.137 224.946 558.38C223.331 558.813 222.252 559.002 220.59 558.75C219.592 555.618 220.26 550.899 220.285 547.505L220.429 522.519Z"/>
	<path fill="#223D6D" transform="matrix(0.0585938 0 0 0.0585938 -0.00012207 0)" d="M285.144 522.75C287.494 522.09 290.82 522.467 293.287 522.454C297.648 522.432 303.488 521.705 307.672 522.75C308.548 524.323 308.508 524.76 308.51 526.5C306.713 527.726 292.225 527.03 289 527.032L289.008 537.434C290.121 537.93 291.579 537.688 292.788 537.672C295.934 537.631 303.264 536.737 305.598 538.25C305.961 539.744 305.674 540.28 305.25 541.73C304.066 542.58 302.42 542.264 301.024 542.256C297.195 542.235 293.337 542.032 289.52 542.394L289.029 543.75L289.024 554.297L302.216 554.325C304.452 554.3 307.106 553.994 309.25 554.613C309.781 555.832 309.524 556.974 309.375 558.25C307.33 559.46 303.639 558.923 301.222 558.927L283.677 558.954L283.972 523.75L285.144 522.75Z"/>
	<path fill="#223D6D" transform="matrix(0.0585938 0 0 0.0585938 -0.00012207 0)" d="M316.036 522.605C320.487 522.597 339.017 521.497 341.75 523.343C342.095 524.86 342.202 525.192 341.75 526.659C339.876 527.52 337.479 527.197 335.433 527.197L321.594 527.154L321.563 537.325C324.483 537.331 335.276 536.575 337.075 538.25L336.982 541.5C335.836 542.291 334.702 541.994 333.328 541.988C330.329 541.974 324.428 541.159 321.853 542.448L321.708 543.875L321.765 554.461L335.954 554.441C337.934 554.442 340.887 554.026 342.608 554.96C342.978 556.261 342.699 557.147 342.373 558.408C340.191 559.986 320.126 559 316.004 558.981L316.036 522.605Z"/>
	<path fill="#223D6D" transform="matrix(0.0585938 0 0 0.0585938 -0.00012207 0)" d="M249.933 522.566C255.635 522.528 264.509 521.364 269.75 523.564C272.015 524.514 274.169 526.499 275.039 528.841C276.141 531.808 276.152 535.747 274.726 538.613C273.3 541.48 270.936 542.643 268.046 543.582L267.412 543.783L277.208 558.369C275.433 558.647 273.785 558.718 271.99 558.672L270.557 557.75L260.633 543.846L255.04 543.716C255.058 548.36 255.758 554.13 254.86 558.633L249.519 558.751L249.933 522.566Z"/>
	<path fill="#FDE6BF" transform="matrix(0.0585938 0 0 0.0585938 -0.00012207 0)" d="M255.218 527.214C258.845 527.151 265.023 526.403 268.101 528.515C269.21 529.276 269.779 530.846 269.971 532.122C270.333 534.53 269.726 536.156 268.25 538.014C265.474 540.481 258.77 539.429 255.204 539.335L255.218 527.214Z"/>
	<path fill="#2B9272" transform="matrix(0.0585938 0 0 0.0585938 -0.00012207 0)" d="M280.937 437.051C284.92 438.428 287.984 440.318 289.806 444.285C291.515 448.007 291.687 451.567 290.872 455.543C295.571 452.175 300.519 449.336 306.552 450.508C309.286 451.038 311.858 452.657 313.363 455.01C315.116 457.749 316.237 461.449 315.356 464.684C314.495 467.847 312.703 470.362 310.898 473.037C314.267 472.971 317.519 472.718 320.75 473.808L321.456 474.036C325.1 475.271 327.601 477.345 329.254 480.825C330.419 483.278 330.458 485.923 329.417 488.457C327.885 492.187 325.21 493.846 321.749 495.486C320.803 495.934 321.191 495.701 320.386 496.329C322.466 498.889 325.337 501.989 324.924 505.57C324.652 507.937 323.387 509.999 321.486 511.406C317.136 514.624 307.359 513.033 302.081 512.992L280.071 513.013C280.375 508.995 280.119 504.784 280.116 500.749L280.153 476.734L280.261 454.127C280.3 449.02 280.562 443.823 279.99 438.741L279.902 438L280.937 437.051Z"/>
	<path fill="#7AAE7D" transform="matrix(0.0585938 0 0 0.0585938 -0.00012207 0)" d="M280.071 513.013L256 513.321C251.09 513.392 242.833 514.696 238.431 512.315C236.739 511.399 234.958 509.695 234.522 507.77L234.418 507.25C233.924 505.098 233.875 503.175 234.943 501.146C236.625 497.949 240.005 495.956 243.32 494.893L243.864 494.724C239.952 493.27 236.126 492.366 233.302 489.059C231.694 487.177 230.34 484.168 230.735 481.649C231.154 478.977 232.76 476.422 234.984 474.889C238.954 472.152 245.358 472.795 249.792 473.804L250.699 474.015C247.611 470.994 244.257 467.122 244.249 462.526C244.242 458.98 245.223 455.784 247.851 453.304C249.875 451.394 252.805 450.639 255.537 450.811C261.143 451.164 264.234 454.675 267.579 458.676C267.053 455.209 266.488 450.77 267.264 447.325L267.407 446.75C268.052 444.034 269.167 442.363 271.163 440.4C274.249 437.366 276.711 436.975 280.937 437.051L279.902 438L279.99 438.741C280.562 443.823 280.3 449.02 280.261 454.127L280.153 476.734L280.116 500.749C280.119 504.784 280.375 508.995 280.071 513.013Z"/>
	<path fill="#E6C497" transform="matrix(0.0585938 0 0 0.0585938 -0.00012207 0)" d="M349.985 419.001C356.258 418.946 361.572 418.087 366.459 422.87C368.631 424.995 369.937 427.561 370.289 430.575C370.917 435.961 370.481 441.864 370.498 447.297L370.555 482.303L370.213 599.885L198.25 599.8C194.152 600.107 190.093 599.806 185.99 599.59L196.48 599.532L196.635 579.969C197.93 581.368 199.464 583.233 201.183 584.085C202.475 584.727 204.072 584.933 205.5 584.967L291.747 585.008L324.432 584.993C328.804 584.986 335.99 585.932 340.045 584.305C342.23 583.428 344.413 581.258 345.18 579.034C346.611 574.883 346.192 569.607 346.315 565.237L347.003 542.647L350.499 438.42L350.56 425.229C350.558 423.212 350.859 420.859 349.985 419.001Z"/>
	<path fill="#D54E47" transform="matrix(0.0585938 0 0 0.0585938 -0.00012207 0)" d="M424.062 343.007L455.354 343.01L490.016 342.984L490.084 352.062L489.948 353.031L490.167 531.497L490.14 579.273L490.137 593.105C490.129 595.292 490.399 597.93 490.069 600.076L455.068 600.205L418.928 600.092L384.521 600.018L370.213 599.885L370.555 482.303L370.498 447.297C370.481 441.864 370.917 435.961 370.289 430.575C369.937 427.561 368.631 424.995 366.459 422.87C361.572 418.087 356.258 418.946 349.985 419.001C349.191 417.209 349.467 415.07 349.467 413.136L349.478 400.744L349.494 353.133L349.592 352.545L349.561 342.975L384.562 342.991L418.931 342.993L424.062 343.007Z"/>
	<path fill="#C93A3A" transform="matrix(0.0585938 0 0 0.0585938 -0.00012207 0)" d="M424.062 343.007L455.354 343.01C455.317 346.248 455.581 349.867 455.039 353.043L419.033 352.996L418.931 342.993L424.062 343.007Z"/>
	<path fill="#F2814E" transform="matrix(0.0585938 0 0 0.0585938 -0.00012207 0)" d="M455.354 343.01L490.016 342.984L490.084 352.062L489.948 353.031L490.167 531.497L490.14 579.273L490.137 593.105C490.129 595.292 490.399 597.93 490.069 600.076L455.068 600.205L455.082 376.835C454.546 374.943 454.91 372.196 454.908 370.195L455.039 353.043C455.581 349.867 455.317 346.248 455.354 343.01Z"/>
	<path fill="#E36043" transform="matrix(0.0585938 0 0 0.0585938 -0.00012207 0)" d="M455.354 343.01L490.016 342.984L490.084 352.062L489.948 353.031C485.14 353.105 457.045 352.342 455.444 353.307L455.212 376.709L455.082 376.835C454.546 374.943 454.91 372.196 454.908 370.195L455.039 353.043C455.581 349.867 455.317 346.248 455.354 343.01Z"/>
	<path fill="#F2814E" transform="matrix(0.0585938 0 0 0.0585938 -0.00012207 0)" d="M384.562 342.991L418.931 342.993L419.033 352.996L418.928 600.092L384.521 600.018L370.213 599.885L370.555 482.303L370.498 447.297C370.481 441.864 370.917 435.961 370.289 430.575C369.937 427.561 368.631 424.995 366.459 422.87C361.572 418.087 356.258 418.946 349.985 419.001C349.191 417.209 349.467 415.07 349.467 413.136L349.478 400.744L349.494 353.133L349.592 352.545L349.561 342.975L384.562 342.991Z"/>
	<path fill="#E36043" transform="matrix(0.0585938 0 0 0.0585938 -0.00012207 0)" d="M384.562 342.991L418.931 342.993L419.033 352.996L384.527 353.106L384.452 352.579L384.562 342.991Z"/>
	<path fill="#D54E47" transform="matrix(0.0585938 0 0 0.0585938 -0.00012207 0)" d="M349.561 342.975L384.562 342.991L384.452 352.579L384.527 353.106L384.521 600.018L370.213 599.885L370.555 482.303L370.498 447.297C370.481 441.864 370.917 435.961 370.289 430.575C369.937 427.561 368.631 424.995 366.459 422.87C361.572 418.087 356.258 418.946 349.985 419.001C349.191 417.209 349.467 415.07 349.467 413.136L349.478 400.744L349.494 353.133L349.592 352.545L349.561 342.975Z"/>
	<path fill="#C93A3A" transform="matrix(0.0585938 0 0 0.0585938 -0.00012207 0)" d="M349.561 342.975L384.562 342.991L384.452 352.579L383.86 352.82C381.151 353.524 351.543 353.508 349.592 352.545L349.561 342.975Z"/>
	<path fill="#E36043" transform="matrix(0.0585938 0 0 0.0585938 -0.00012207 0)" d="M555.372 320.517L555.365 320.263C555.33 316.38 554.165 306.502 557.431 303.912C558.843 302.792 560.034 302.871 561.75 302.988C563.424 303.773 564.355 305.051 565.526 306.446C567.683 305.869 570.013 306.138 572.233 306.183L583.113 306.245L632.509 306.133L644.587 306.193C646.398 306.208 648.662 306.076 650.301 306.936L660.092 328.269C668.585 348.546 675.688 370.051 680.604 391.466L680.89 391.58C681.935 393.706 684.391 394.934 686.283 396.292C694.092 401.897 704.856 408.388 709.45 417C710.636 419.223 711.271 421.934 711.802 424.384C714.863 426.815 716.887 429.198 718.799 432.622C721.282 437.069 723.267 441.912 725.397 446.545L739.129 477.248L756.177 514.826L767.477 539.5C768.591 542.156 770.637 546.254 770.741 549.141C770.82 551.315 768.368 554.677 766.72 556.011C760.65 560.926 747.805 558.2 740.252 558.873C743.063 559.022 759.342 558.561 760.632 559.451C765.543 562.837 772.214 565.322 777.612 568.076C790.434 574.618 803.365 581.324 815.364 589.272C824.238 595.151 829.391 604.788 831.493 615C833.38 624.173 832.525 634.66 832.598 644.02L832.582 698C831.06 698.994 829.034 698.509 827.234 698.863C824.235 699.438 822.401 700.625 820.732 703.25C817.825 707.822 818.859 716.397 818.781 721.642C818.701 726.99 818.14 732.678 818.958 737.971C816.717 737.925 814.813 737.571 812.974 739.056L812.494 739.851L806.046 739.921L795.561 740.015C793.042 749.854 788.765 758.084 782.956 766.382L778.927 770.878C764.293 785.198 746.778 791.262 726.5 791.636C710.752 791.231 698.653 785.929 686.103 776.815C682.026 773.57 678.481 769.73 674.965 765.903C670.951 760.489 667.955 755.248 665.343 749.023L663.38 742.528L644.898 742.748L643.88 742C642.924 729.121 643.194 715.341 646.34 702.782L566.104 702.946L555.015 702.901L554.988 622.005L522.546 622.105L521.912 621.993L521.891 600.703L515.268 600.668L514.642 600.111L490.069 600.076C490.399 597.93 490.129 595.292 490.137 593.105L490.14 579.273L490.167 531.497L489.948 353.031L490.084 352.062L490.016 342.984L521.875 342.96L555.076 342.956L555.375 328.588L555.372 320.517Z"/>
	<path fill="#223D6D" transform="matrix(0.0585938 0 0 0.0585938 -0.00012207 0)" d="M594.14 585.47C599.433 586.166 604.89 585.9 610.228 585.907L632.164 585.887L631.199 594.165L628.75 594.369L605.764 594.482C603.304 594.486 599.505 595.008 597.165 594.371C596.255 594.123 595.414 593.191 594.75 592.552C593.878 590.169 594.046 587.953 594.14 585.47Z"/>
	<path fill="#FDFCFA" transform="matrix(0.0585938 0 0 0.0585938 -0.00012207 0)" d="M594.14 585.47C592.772 583.952 591.328 582.602 591.505 580.395C591.623 578.925 592.567 577.004 593.933 576.238C596.159 574.989 627.957 575.258 631.25 576.128C632.652 577.224 633.87 578.175 634.09 580.087C634.36 582.442 633.638 584.118 632.164 585.887L610.228 585.907C604.89 585.9 599.433 586.166 594.14 585.47Z"/>
	<path fill="#2F2546" transform="matrix(0.0585938 0 0 0.0585938 -0.00012207 0)" d="M648.154 696.444C654.077 675.983 668.304 658.933 686.913 648.672C706.299 637.983 729.813 635.224 751.056 641.442C773.015 647.871 791.429 663.58 802.263 683.607C811.844 701.317 813.118 719.34 812.974 739.056L812.494 739.851L806.046 739.921C804.325 739.84 802.64 739.87 801.01 739.25C800.493 731.477 802.059 723.568 801.019 715.69C799.305 702.705 796.429 690.411 789.352 679.176L786.263 674.331C775.389 658.107 757.849 648.023 738.923 644.411C706.398 638.205 675.354 653.641 657.283 680.826C655.114 684.09 653.245 687.891 651.456 691.398C650.522 693.227 649.869 695.283 648.154 696.444Z"/>
	<path fill="#274464" transform="matrix(0.0585938 0 0 0.0585938 -0.00012207 0)" d="M648.154 696.444C649.869 695.283 650.522 693.227 651.456 691.398C653.245 687.891 655.114 684.09 657.283 680.826C675.354 653.641 706.398 638.205 738.923 644.411C757.849 648.023 775.389 658.107 786.263 674.331L789.352 679.176C796.429 690.411 799.305 702.705 801.019 715.69C802.059 723.568 800.493 731.477 801.01 739.25C802.64 739.87 804.325 739.84 806.046 739.921L795.561 740.015C796.474 732.446 796.966 722.722 795.593 715.25C792.079 696.124 782.908 680.71 766.923 669.449C751.912 658.873 735.037 656.08 717.088 659.245C698.734 662.481 683.373 672.638 672.54 687.75C662.629 701.577 658.727 718.226 661.837 735.019L663.38 742.528L644.898 742.748L643.88 742C642.924 729.121 643.194 715.341 646.34 702.782L648.154 696.444Z"/>
	<path fill="#223D6D" transform="matrix(0.0585938 0 0 0.0585938 -0.00012207 0)" d="M555.372 320.517L555.365 320.263C555.33 316.38 554.165 306.502 557.431 303.912C558.843 302.792 560.034 302.871 561.75 302.988C563.424 303.773 564.355 305.051 565.526 306.446L565.985 391.423L566.104 702.946L555.015 702.901L554.988 622.005L554.974 600.333L555.095 366.589C555.739 361.894 555.27 356.556 555.287 351.795L555.375 328.588L555.372 320.517Z"/>
	<path fill="#F9B855" transform="matrix(0.0585938 0 0 0.0585938 -0.00012207 0)" d="M565.526 306.446C567.683 305.869 570.013 306.138 572.233 306.183L583.113 306.245L632.509 306.133L644.587 306.193C646.398 306.208 648.662 306.076 650.301 306.936L660.092 328.269C668.585 348.546 675.688 370.051 680.604 391.466L565.985 391.423L565.526 306.446Z"/>
	<path fill="#2F2546" transform="matrix(0.0585938 0 0 0.0585938 -0.00012207 0)" d="M663.38 742.528L661.837 735.019C658.727 718.226 662.629 701.577 672.54 687.75C683.373 672.638 698.734 662.481 717.088 659.245C735.037 656.08 751.912 658.873 766.923 669.449C782.908 680.71 792.079 696.124 795.593 715.25C796.966 722.722 796.474 732.446 795.561 740.015C793.042 749.854 788.765 758.084 782.956 766.382L778.927 770.878C764.293 785.198 746.778 791.262 726.5 791.636C710.752 791.231 698.653 785.929 686.103 776.815C682.026 773.57 678.481 769.73 674.965 765.903C670.951 760.489 667.955 755.248 665.343 749.023L663.38 742.528Z"/>
	<path fill="#4D4453" transform="matrix(0.0585938 0 0 0.0585938 -0.00012207 0)" d="M716.13 666.284C726.065 663.371 738.577 665.065 748.338 668.029C762.324 672.277 774.825 683.995 781.533 696.698C789.17 711.159 791.206 728.197 786.322 743.851C781.55 759.145 772.173 771.417 757.853 778.832C751.722 782.006 744.71 783.997 737.896 784.997C736.184 785.248 734.286 785.744 732.564 785.449C729.228 785.521 725.842 785.721 722.535 785.194C713.655 783.78 705.715 781.299 697.979 776.641C683.66 768.019 672.995 754.806 669.014 738.461C665.392 723.587 667.668 707.036 675.767 693.973C685.042 679.014 699.311 670.255 716.13 666.284Z"/>
	<defs>
		<linearGradient id="gradient_1" gradientUnits="userSpaceOnUse" x1="711.04669" y1="734.91473" x2="671.44379" y2="745.36566">
			<stop offset="0" stop-color="#6A6570"/>
			<stop offset="1" stop-color="#88848B"/>
		</linearGradient>
	</defs>
	<path fill="url(#gradient_1)" transform="matrix(0.0585938 0 0 0.0585938 -0.00012207 0)" d="M716.13 666.284L716.583 666.888C708.827 668.712 701.877 671.189 695.193 675.616L690.309 679.097C686.719 681.983 683.398 684.89 680.626 688.625L679.349 690.327C679.604 691.606 679.278 690.941 680.006 691.67C680.74 692.407 680.559 692.83 681.031 693.611C681.201 693.892 681.584 694.15 681.845 694.348L682.034 695.25L683 695.75C683.713 694.681 684.262 693.556 685 692.5L687.398 688.876C687.911 688.145 688.5 687.715 689.139 687.12C689.905 686.406 689.094 687.124 689.875 685.875C691.09 683.932 694.754 680.792 696.625 679.625L698.25 677.755L699 677.75L700.25 676.255L701 676.25L701.75 675.255L702.5 675.25L703.25 674.255L704 674.25C705.309 673.968 706.218 672.74 707.5 672.25L710.25 671L710.997 671.348C696.281 678.188 685.307 689.704 679.704 704.969C674.357 719.538 675.966 734.681 682.434 748.54C683.924 751.734 685.885 754.564 687.889 757.452C690.181 760.753 693.179 763.637 696.042 766.446C705.588 775.809 715.461 782.177 728.75 784.427L731.689 784.798L732.564 785.449C729.228 785.521 725.842 785.721 722.535 785.194C713.655 783.78 705.715 781.299 697.979 776.641C683.66 768.019 672.995 754.806 669.014 738.461C665.392 723.587 667.668 707.036 675.767 693.973C685.042 679.014 699.311 670.255 716.13 666.284Z"/>
	<path fill="#502D38" transform="matrix(0.0585938 0 0 0.0585938 -0.00012207 0)" d="M728.086 681.707C736.775 681.165 746.881 683.731 753.639 689.285L754.199 689.75C762.464 696.52 767.302 706.773 769.677 716.992L770.375 720.75C771.37 732.436 768.413 744.95 760.638 753.891C752.831 762.868 741.396 766.832 729.858 767.782C727.43 767.972 724.848 767.698 722.43 767.433C712.473 766.341 703.985 760.066 697.923 752.367C690.787 743.304 686.358 732.448 687.749 720.726C688.636 713.242 690.304 706.158 695.114 700.081L698.856 695.515C706.597 686.717 716.59 682.444 728.086 681.707Z"/>
	<path fill="#F29744" transform="matrix(0.0585938 0 0 0.0585938 -0.00012207 0)" d="M726.482 692.179C734.059 691.458 741.593 693.441 747.866 697.689C754.673 702.299 760.028 710.166 761.557 718.281C763.1 726.472 761.834 735.267 756.927 742.156C750.963 750.529 742.169 755.285 732.117 756.904C724.256 757.323 716.44 755.418 710.098 750.624C702.621 744.973 697.853 736.516 696.765 727.25C695.85 719.461 698.294 711.219 703.212 705.112C709.028 697.892 717.303 693.311 726.482 692.179Z"/>
	<path fill="#FDFCFA" transform="matrix(0.0585938 0 0 0.0585938 -0.00012207 0)" d="M725.703 695.614C732.128 695.246 738.624 696.319 744.269 699.524C750.966 703.326 756.003 710.318 757.815 717.744C759.633 725.194 758.047 733.428 753.915 739.829C749.147 747.215 742.237 751.067 733.829 752.863C726.929 753.709 720.883 752.962 714.863 749.25C708.024 745.033 702.404 737.775 700.688 729.887C699.085 722.514 700.951 714.789 705.167 708.605C710.116 701.347 717.203 697.174 725.703 695.614Z"/>
	<path fill="#C93A3A" transform="matrix(0.0585938 0 0 0.0585938 -0.00012207 0)" d="M521.875 342.96L555.076 342.956L555.375 328.588L555.287 351.795C555.27 356.556 555.739 361.894 555.095 366.589L554.974 600.333L554.988 622.005L522.546 622.105L521.912 621.993L521.891 600.703L515.268 600.668L514.642 600.111L490.069 600.076C490.399 597.93 490.129 595.292 490.137 593.105L490.14 579.273L490.167 531.497L489.948 353.031L490.084 352.062L490.016 342.984L521.875 342.96Z"/>
	<path fill="#B92A31" transform="matrix(0.0585938 0 0 0.0585938 -0.00012207 0)" d="M521.875 342.96L555.076 342.956L555.375 328.588L555.287 351.795C555.27 356.556 555.739 361.894 555.095 366.589C554.314 362.387 554.833 357.318 554.82 353.013L522.083 352.977L521.875 342.96Z"/>
	<path fill="#E6C497" transform="matrix(0.0585938 0 0 0.0585938 -0.00012207 0)" d="M521.8 600.117L554.974 600.333L554.988 622.005L522.546 622.105L521.912 621.993L521.891 600.703L515.268 600.668L514.642 600.111L521.8 600.117Z"/>
	<path fill="#D54E47" transform="matrix(0.0585938 0 0 0.0585938 -0.00012207 0)" d="M490.084 352.062L491 352.992L512.692 353.021C515.478 353.025 519.357 352.516 521.928 353.4L521.8 600.117L514.642 600.111L490.069 600.076C490.399 597.93 490.129 595.292 490.137 593.105L490.14 579.273L490.167 531.497L489.948 353.031L490.084 352.062Z"/>
	<path fill="#223D6D" transform="matrix(0.0585938 0 0 0.0585938 -0.00012207 0)" d="M740.252 558.873L637.698 558.947L608.998 558.921C604.73 558.912 597.235 559.822 593.414 558.005C590.672 556.7 588.679 553.895 587.704 551.089C586.61 547.937 586.9 544.557 586.903 541.27L586.942 526.044L586.889 486.021C586.833 469.016 585.792 451.569 586.741 434.628C586.862 432.48 587.254 430.781 588.259 428.881C589.817 425.934 593.116 422.615 596.41 421.812C600.067 420.921 605.38 421.542 609.233 421.551L635.738 421.579L682.161 421.598C689.987 421.605 698.234 421.084 706 421.818C707.98 422.005 710.075 423.443 711.802 424.384C714.863 426.815 716.887 429.198 718.799 432.622C721.282 437.069 723.267 441.912 725.397 446.545L739.129 477.248L756.177 514.826L767.477 539.5C768.591 542.156 770.637 546.254 770.741 549.141C770.82 551.315 768.368 554.677 766.72 556.011C760.65 560.926 747.805 558.2 740.252 558.873Z"/>
	<path fill="#FDFCFA" transform="matrix(0.0585938 0 0 0.0585938 -0.00012207 0)" d="M596.01 512.381L596.399 509.75C598.175 509.75 617.174 529.231 619.712 531.77C622.868 534.926 634.82 546.009 635.543 549.432L607.697 549.499C605.116 549.501 599.888 550.134 597.75 548.987C597.015 548.079 596.337 547.184 596.11 545.998C595.519 542.912 595.973 538.902 595.97 535.687L596.01 512.381Z"/>
	<path fill="#B6E9F1" transform="matrix(0.0585938 0 0 0.0585938 -0.00012207 0)" d="M596.01 512.381L596.09 457.673L596.042 443.259C596.029 440.517 595.761 437.636 596.404 434.96L596.616 451.479C596.619 452.168 596.366 455.202 596.634 455.684C597.128 456.575 598.803 457.824 599.568 458.604L611.25 470.105L662.192 521.876L680.25 540.396C683.201 543.418 686.421 546.1 688.943 549.516L635.543 549.432C634.82 546.009 622.868 534.926 619.712 531.77C617.174 529.231 598.175 509.75 596.399 509.75L596.01 512.381Z"/>
	<path fill="#FDFCFA" transform="matrix(0.0585938 0 0 0.0585938 -0.00012207 0)" d="M596.404 434.96C596.778 433.49 597.097 433.076 598.173 431.988C601.83 428.291 612.03 430.503 617.091 430.436L732.068 549.519L688.943 549.516C686.421 546.1 683.201 543.418 680.25 540.396L662.192 521.876L611.25 470.105L599.568 458.604C598.803 457.824 597.128 456.575 596.634 455.684C596.366 455.202 596.619 452.168 596.616 451.479L596.404 434.96Z"/>
	<path fill="#B6E9F1" transform="matrix(0.0585938 0 0 0.0585938 -0.00012207 0)" d="M617.091 430.436L708.014 430.229L746.406 515.459L755.597 535.488C757.43 539.464 759.791 543.746 760.794 548L760.326 549.25C757.691 550.214 753.803 549.674 751 549.66L732.068 549.519L617.091 430.436Z"/>
</svg>
