<svg width="20" height="23" viewBox="0 0 20 23" fill="none" xmlns="http://www.w3.org/2000/svg">
<path fill-rule="evenodd" clip-rule="evenodd" d="M14.5917 5.06977C14.5727 4.98795 14.5531 4.90594 14.5325 4.82385C14.2648 3.75303 13.8433 2.58947 13.1559 1.67303C12.4472 0.72804 11.4123 0 10 0C8.58766 0 7.5528 0.72804 6.84405 1.67303C6.15672 2.58947 5.73517 3.75303 5.46747 4.82386C5.44694 4.90594 5.42722 4.98795 5.40825 5.06977H3.78557C2.18414 5.06977 0.856973 6.31141 0.750447 7.90929L0.00687376 19.0628C-0.110167 20.8185 1.2824 22.307 3.04201 22.307H16.958C18.7176 22.307 20.1101 20.8185 19.9931 19.0628L19.2495 7.90929C19.143 6.31141 17.8159 5.06977 16.2144 5.06977H14.5917ZM5.94418 10.1395C6.52515 10.1395 6.95616 9.70193 6.95814 9.12374C6.95829 9.09962 6.95858 9.0755 6.95898 9.05139C6.95988 8.99797 6.96169 8.91728 6.96541 8.81324C6.97284 8.60495 6.98784 8.30428 7.01801 7.94235C7.0394 7.68553 7.06823 7.40047 7.10692 7.09768H12.8931C12.9317 7.40047 12.9605 7.68553 12.982 7.94236C13.0122 8.30428 13.0272 8.60495 13.0346 8.81324C13.0383 8.91728 13.0401 8.99797 13.041 9.05139C13.0415 9.07625 13.0418 9.10113 13.0419 9.126C13.0419 9.126 13.0419 10.1395 14.0558 10.1395C15.0698 10.1395 15.0698 9.12424 15.0698 9.12424C15.0697 9.08869 15.0693 9.05314 15.0687 9.0176C15.0675 8.95221 15.0654 8.85862 15.0612 8.74086C15.0528 8.50554 15.0361 8.17249 15.0028 7.77394C14.9856 7.56615 14.9636 7.33913 14.9358 7.09768H16.2144C16.7483 7.09768 17.1907 7.51156 17.2261 8.04419L17.9697 19.1977C18.0087 19.783 17.5445 20.2791 16.958 20.2791H3.04201C2.45547 20.2791 1.99128 19.783 2.03029 19.1977L2.77387 8.04419C2.80937 7.51156 3.25176 7.09768 3.78557 7.09768H5.06415C5.03633 7.33913 5.01441 7.56615 4.99709 7.77395C4.96389 8.17249 4.9472 8.50554 4.93879 8.74086C4.93458 8.85862 4.93244 8.95221 4.93136 9.0176C4.93077 9.05244 4.93033 9.08728 4.93022 9.12213C4.92945 9.70071 5.36453 10.1395 5.94418 10.1395ZM7.4991 5.06977H12.5009C12.2665 4.21118 11.9478 3.44203 11.5336 2.88977C11.1017 2.31382 10.6156 2.02791 10 2.02791C9.38442 2.02791 8.89833 2.31382 8.46639 2.88977C8.05219 3.44203 7.73352 4.21118 7.4991 5.06977Z" fill="#0F0F0F"/>
</svg>
