<svg width="22" height="22" viewBox="0 0 22 22" fill="none" xmlns="http://www.w3.org/2000/svg">
<path fill-rule="evenodd" clip-rule="evenodd" d="M0 1.1C0 0.492487 0.492487 0 1.1 0H4.4C4.94293 0 5.40465 0.396122 5.48721 0.932736L5.68217 2.20001H20.9C21.2452 2.20001 21.5703 2.36203 21.7782 2.6376C21.986 2.91316 22.0525 3.27032 21.9577 3.60221L19.7577 11.3022C19.6227 11.7744 19.1911 12.1 18.7 12.1H7.20526L7.54372 14.3H19.8C20.4075 14.3 20.9 14.7925 20.9 15.4C20.9 16.0075 20.4075 16.5 19.8 16.5H6.60001C6.05708 16.5 5.59536 16.1039 5.5128 15.5672L4.85691 11.304C4.83185 11.2166 4.81732 11.1249 4.81477 11.0301L3.6723 3.60409C3.64722 3.5167 3.63267 3.42484 3.63014 3.33L3.45629 2.2H1.1C0.492487 2.2 0 1.70751 0 1.1ZM6.02064 4.40001L6.86679 9.9H17.8703L19.4417 4.40001H6.02064ZM4.39999 19.8C4.39999 18.585 5.38497 17.6 6.60001 17.6C7.81504 17.6 8.8 18.585 8.8 19.8C8.8 21.0151 7.815 22 6.60001 22C5.38501 22 4.39999 21.0151 4.39999 19.8ZM16.5 19.8C16.5 18.585 17.4849 17.6 18.7 17.6C19.915 17.6 20.9 18.585 20.9 19.8C20.9 21.0151 19.915 22 18.7 22C17.4849 22 16.5 21.015 16.5 19.8Z" fill="black"/>
</svg>
