<svg width="16" height="17" viewBox="0 0 16 17" fill="none" xmlns="http://www.w3.org/2000/svg">
<path d="M8.03345 2.39353C8.69429 2.37506 9.21506 1.8244 9.19655 1.16358C9.17804 0.502748 8.62742 -0.0179741 7.96659 0.000475504L8.03345 2.39353ZM1.19952 8.37893L2.39609 8.41085C2.39665 8.38963 2.39665 8.36824 2.39609 8.34701L1.19952 8.37893ZM8.00001 15.5609L7.96659 16.7574C7.98887 16.758 8.01117 16.758 8.03345 16.7574L8.00001 15.5609ZM14.8005 8.37893L15.997 8.34701C15.9798 7.69856 15.4491 7.18194 14.8005 7.18194V8.37893ZM8.00001 7.18194C7.33894 7.18194 6.80302 7.71788 6.80302 8.37893C6.80302 9.03999 7.33894 9.57592 8.00001 9.57592V7.18194ZM7.96659 0.000475504C3.44636 0.12675 -0.117392 3.8904 0.00296079 8.41085L2.39609 8.34701C2.3109 5.14714 4.83362 2.4829 8.03345 2.39353L7.96659 0.000475504ZM0.00296079 8.34701C-0.117392 12.8675 3.44636 16.6311 7.96659 16.7574L8.03345 14.3644C4.83362 14.275 2.3109 11.6106 2.39609 8.41085L0.00296079 8.34701ZM8.03345 16.7574C12.5537 16.6311 16.1174 12.8675 15.997 8.34701L13.6039 8.41085C13.6891 11.6106 11.1665 14.275 7.96659 14.3644L8.03345 16.7574ZM14.8005 7.18194H8.00001V9.57592H14.8005V7.18194Z" fill="black"/>
</svg>
