<svg width="22" height="21" viewBox="0 0 22 21" fill="none" xmlns="http://www.w3.org/2000/svg">
<path fill-rule="evenodd" clip-rule="evenodd" d="M18.509 3.33553C17.6333 2.50347 16.4527 2.06922 15.2458 2.13613C14.0305 2.2035 12.898 2.7729 12.1191 3.70809C12.1021 3.72844 12.0844 3.74815 12.066 3.76718L11.7665 4.07666C11.5692 4.28046 11.2988 4.39713 11.0152 4.40079C10.7316 4.40445 10.4582 4.29479 10.2558 4.09614L9.95338 3.79944C9.92794 3.77448 9.90377 3.74826 9.88096 3.72087C9.10206 2.78568 7.96952 2.21628 6.75423 2.1489C5.54734 2.082 4.36676 2.51623 3.49103 3.34831C1.67094 5.29092 1.67553 8.31638 3.50478 10.2535L7.61454 14.505L7.61746 14.508L11 17.9797L14.3841 14.4936L18.4953 10.2407C20.3245 8.30355 20.329 5.27813 18.509 3.33553ZM15.1279 0.00999901C16.9332 -0.0900849 18.6991 0.564646 20.0027 1.81759C20.0148 1.82925 20.0267 1.8412 20.0382 1.85343C22.6539 4.61765 22.6539 8.94403 20.0382 11.7082C20.0369 11.7096 20.0356 11.711 20.0343 11.7124C20.033 11.7138 20.0317 11.7151 20.0304 11.7164L15.9136 15.9752L11.7654 20.2484C11.5651 20.4547 11.2899 20.5712 11.0024 20.5715C10.7149 20.5718 10.4395 20.4557 10.2389 20.2498L6.08938 15.991L6.08645 15.988L1.96963 11.7292C1.967 11.7265 1.96439 11.7238 1.96179 11.721C-0.65393 8.95681 -0.65393 4.63042 1.96179 1.8662C1.97336 1.85397 1.98522 1.84202 1.99736 1.83035C3.30101 0.577436 5.06674 -0.0773094 6.8721 0.0227758C8.42099 0.10864 9.87945 0.743452 10.9933 1.79942C12.1088 0.7358 13.5728 0.09621 15.1279 0.00999901Z" fill="black"/>
</svg>
