<svg width="33" height="20" viewBox="0 0 33 20" fill="none" xmlns="http://www.w3.org/2000/svg">
<path d="M19.7454 9.87272C19.7454 15.3255 15.325 19.7454 9.8725 19.7454C4.41997 19.7454 0 15.3255 0 9.87272C0 4.4204 4.41991 0 9.8725 0C15.325 0 19.7454 4.4204 19.7454 9.87272Z" fill="#D9222A"/>
<path d="M23.1272 0C20.5763 0 18.2519 0.96778 16.4997 2.55568C16.1429 2.87925 15.8097 3.22877 15.5028 3.60046H17.4975C17.7702 3.93206 18.0214 4.28087 18.2501 4.64612H14.7503C14.5405 4.98184 14.3502 5.33066 14.1814 5.69157H18.8187C18.9771 6.03031 19.1168 6.37884 19.2367 6.73678H13.7635C13.6494 7.07729 13.5533 7.42588 13.4766 7.78222H19.5233C19.6684 8.45597 19.7456 9.15541 19.7456 9.87266C19.7456 10.969 19.5667 12.0238 19.2367 13.0088H13.7634C13.8831 13.367 14.0229 13.7158 14.1812 14.0543H18.8186C18.6495 14.4152 18.4596 14.764 18.2496 15.0999H14.7502C14.9787 15.4646 15.2303 15.8138 15.5028 16.1447H17.4971C17.1907 16.5171 16.8572 16.8671 16.4999 17.1904C18.2521 18.778 20.5763 19.7454 23.1272 19.7454C28.5798 19.7454 33.0002 15.3255 33.0002 9.87272C33.0002 4.42062 28.5798 0 23.1272 0Z" fill="#EE9F2D"/>
<path d="M31.6841 15.3759C31.6841 15.1999 31.8266 15.0569 32.0029 15.0569C32.1791 15.0569 32.3216 15.1999 32.3216 15.3759C32.3216 15.5519 32.1791 15.6949 32.0029 15.6949C31.8266 15.6949 31.6841 15.5519 31.6841 15.3759ZM32.0029 15.6184C32.1367 15.6184 32.2453 15.5098 32.2453 15.3759C32.2453 15.2418 32.1367 15.1337 32.0029 15.1337C31.8688 15.1337 31.7606 15.2419 31.7606 15.3759C31.7606 15.5098 31.8688 15.6184 32.0029 15.6184ZM31.9598 15.5161H31.8945V15.2359H32.0128C32.0375 15.2359 32.0627 15.2359 32.0845 15.2498C32.1072 15.2652 32.12 15.2922 32.12 15.3202C32.12 15.3516 32.1014 15.3809 32.0714 15.3924L32.123 15.5161H32.0506L32.0078 15.4052H31.9599V15.5161H31.9598ZM31.9598 15.3571H31.996C32.0095 15.3571 32.0238 15.3583 32.0359 15.3516C32.0466 15.3448 32.0522 15.3319 32.0522 15.3195C32.0522 15.3088 32.0455 15.2964 32.0364 15.2911C32.0249 15.284 32.0068 15.2855 31.9947 15.2855H31.9598V15.3571Z" fill="black"/>
<path d="M7.56734 10.9538C7.45481 10.9407 7.40536 10.9372 7.32808 10.9372C6.72055 10.9372 6.41299 11.1456 6.41299 11.557C6.41299 11.8106 6.56309 11.9719 6.79728 11.9719C7.23392 11.9719 7.54853 11.5563 7.56734 10.9538ZM8.34674 12.7686H7.45871L7.47911 12.3464C7.20818 12.68 6.84684 12.8386 6.35569 12.8386C5.77472 12.8386 5.37646 12.3849 5.37646 11.726C5.37646 10.7347 6.06924 10.1563 7.2584 10.1563C7.37984 10.1563 7.53571 10.1672 7.69515 10.1876C7.72837 10.0534 7.73712 9.99585 7.73712 9.92364C7.73712 9.6537 7.55034 9.5531 7.04962 9.5531C6.5253 9.54716 6.09284 9.67801 5.91524 9.73642C5.92646 9.66882 6.06374 8.82017 6.06374 8.82017C6.5979 8.66364 6.95012 8.60474 7.34662 8.60474C8.26688 8.60474 8.7544 9.01795 8.75346 9.7989C8.75528 10.0082 8.72063 10.2664 8.66662 10.6058C8.57362 11.1961 8.37402 12.4603 8.34674 12.7686Z" fill="black"/>
<path d="M4.92791 12.7685H3.85613L4.47004 8.91874L3.09916 12.7685H2.36882L2.27851 8.94074L1.63319 12.7685H0.629883L1.46792 7.7605H3.00907L3.10257 10.5637L4.04263 7.7605H5.75682L4.92791 12.7685Z" fill="black"/>
<path d="M24.4517 10.9538C24.3396 10.9407 24.2899 10.9372 24.2128 10.9372C23.6056 10.9372 23.298 11.1456 23.298 11.557C23.298 11.8106 23.4479 11.9719 23.6821 11.9719C24.1187 11.9719 24.4336 11.5563 24.4517 10.9538ZM25.2318 12.7686H24.3437L24.3639 12.3464C24.093 12.68 23.7314 12.8386 23.2407 12.8386C22.6596 12.8386 22.2617 12.3849 22.2617 11.726C22.2617 10.7347 22.9541 10.1563 24.1434 10.1563C24.2649 10.1563 24.4205 10.1672 24.5798 10.1876C24.613 10.0534 24.6217 9.99585 24.6217 9.92364C24.6217 9.6537 24.4352 9.5531 23.9344 9.5531C23.4101 9.54716 22.9781 9.67801 22.7998 9.73642C22.8111 9.66882 22.9488 8.82017 22.9488 8.82017C23.483 8.66364 23.835 8.60474 24.231 8.60474C25.1518 8.60474 25.6393 9.01795 25.6383 9.7989C25.6402 10.0082 25.6056 10.2664 25.5515 10.6058C25.4589 11.1961 25.2588 12.4603 25.2318 12.7686Z" fill="black"/>
<path d="M13.1101 12.7067C12.8168 12.7991 12.5881 12.8387 12.3401 12.8387C11.7922 12.8387 11.4932 12.5238 11.4932 11.944C11.4854 11.7641 11.572 11.2906 11.6401 10.8584C11.7019 10.478 12.1048 8.07935 12.1048 8.07935H13.1702L13.0457 8.69579H13.6892L13.5439 9.67457H12.8981C12.7743 10.4491 12.5981 11.4139 12.5961 11.5418C12.5961 11.7517 12.7081 11.8434 12.963 11.8434C13.0851 11.8434 13.1797 11.831 13.252 11.8049L13.1101 12.7067Z" fill="black"/>
<path d="M16.3769 12.6736C16.0109 12.7855 15.6577 12.8395 15.2835 12.8386C14.0909 12.8374 13.4692 12.2146 13.4692 11.0218C13.4692 9.62955 14.2601 8.60474 15.3337 8.60474C16.2121 8.60474 16.7731 9.17855 16.7731 10.0785C16.7731 10.3771 16.7346 10.6686 16.6417 11.0802H14.5202C14.4484 11.6709 14.8265 11.9171 15.4462 11.9171C15.8276 11.9171 16.1716 11.8385 16.554 11.6606L16.3769 12.6736ZM15.778 10.2591C15.784 10.1743 15.8911 9.53215 15.2823 9.53215C14.943 9.53215 14.7002 9.79087 14.6015 10.2591H15.778Z" fill="black"/>
<path d="M8.98961 9.9832C8.98961 10.4984 9.23942 10.8536 9.80592 11.1204C10.24 11.3243 10.3071 11.3849 10.3071 11.5697C10.3071 11.8237 10.1157 11.9383 9.69157 11.9383C9.37186 11.9383 9.07442 11.8883 8.73138 11.7776C8.73138 11.7776 8.59042 12.6752 8.58398 12.7181C8.82763 12.7713 9.04488 12.8205 9.69933 12.8386C10.8303 12.8386 11.3526 12.408 11.3526 11.4774C11.3526 10.9178 11.1339 10.5894 10.597 10.3425C10.1476 10.1363 10.0961 10.0902 10.0961 9.90004C10.0961 9.67982 10.2741 9.56751 10.6206 9.56751C10.831 9.56751 11.1184 9.58995 11.3906 9.62867L11.5433 8.68405C11.2657 8.64005 10.845 8.60474 10.6 8.60474C9.40096 8.60479 8.98592 9.23108 8.98961 9.9832Z" fill="black"/>
<path d="M21.5894 8.71173C21.8871 8.71173 22.1646 8.78989 22.5471 8.98239L22.7224 7.89542C22.5655 7.83377 22.0127 7.47192 21.5445 7.47192C20.8273 7.47192 20.2209 7.82783 19.7944 8.41517C19.1724 8.20914 18.9167 8.62555 18.6032 9.04036L18.3248 9.1052C18.3458 8.96864 18.3649 8.83295 18.3584 8.69567H17.3741C17.2396 9.95611 17.0013 11.2327 16.8147 12.4948L16.7661 12.7685H17.8384C18.0174 11.6056 18.1154 10.8611 18.175 10.3572L18.5788 10.1325C18.6391 9.90826 18.8279 9.83236 19.2067 9.84154C19.1573 10.1074 19.1307 10.3869 19.1307 10.6767C19.1307 12.009 19.8495 12.8386 21.0034 12.8386C21.3006 12.8386 21.5557 12.7994 21.9506 12.6924L22.1392 11.5507C21.784 11.7256 21.4925 11.8078 21.2285 11.8078C20.6054 11.8078 20.2284 11.3479 20.2284 10.5877C20.2284 9.48492 20.7892 8.71173 21.5894 8.71173Z" fill="black"/>
<path d="M5.23645 12.4709H4.16445L4.77885 8.62159L3.40792 12.4709H2.67736L2.58705 8.64359L1.94173 12.4709H0.938477L1.77651 7.46362H3.31767L3.36101 10.5635L4.40073 7.46362H6.06541L5.23645 12.4709Z" fill="white"/>
<path d="M30.6638 7.7605L30.4262 9.20749C30.1331 8.82178 29.8182 8.54265 29.4025 8.54265C28.8617 8.54265 28.3694 8.95268 28.0472 9.55603C27.5985 9.46297 27.1344 9.30506 27.1344 9.30506L27.1342 9.30875C27.1704 8.97138 27.1849 8.76562 27.1816 8.69572H26.1971C26.063 9.95615 25.8247 11.2328 25.6384 12.4948L25.5894 12.7685H26.6614C26.8062 11.8282 26.9171 11.0475 26.9987 10.4282C27.3649 10.0973 27.5483 9.80859 27.9184 9.82784C27.7545 10.2241 27.6585 10.6806 27.6585 11.1488C27.6585 12.167 28.1736 12.8386 28.9528 12.8386C29.3456 12.8386 29.647 12.7032 29.941 12.3892L29.8908 12.7679H30.9047L31.721 7.76055H30.6638V7.7605ZM29.3234 11.8273C28.9586 11.8273 28.7744 11.5573 28.7744 11.0245C28.7744 10.224 29.1193 9.65635 29.6055 9.65635C29.9738 9.65635 30.1732 9.93707 30.1732 10.4543C30.1732 11.2617 29.8228 11.8273 29.3234 11.8273Z" fill="black"/>
<path d="M7.87554 10.657C7.76323 10.644 7.71351 10.6405 7.63651 10.6405C7.02898 10.6405 6.72164 10.8488 6.72164 11.2602C6.72164 11.5134 6.87174 11.6752 7.10549 11.6752C7.54257 11.6752 7.85723 11.2595 7.87554 10.657ZM8.65533 12.4711H7.7673L7.78749 12.0496C7.51683 12.3826 7.15499 12.5419 6.66433 12.5419C6.08315 12.5419 5.68506 12.0881 5.68506 11.4293C5.68506 10.4375 6.37762 9.85947 7.56699 9.85947C7.68843 9.85947 7.8443 9.87047 8.00358 9.89087C8.0368 9.75662 8.04555 9.69909 8.04555 9.62643C8.04555 9.35644 7.85899 9.25634 7.35827 9.25634C6.83373 9.2504 6.40149 9.38124 6.22367 9.43899C6.23489 9.37162 6.37217 8.52396 6.37217 8.52396C6.90611 8.36677 7.25877 8.30786 7.65477 8.30786C8.57531 8.30786 9.06299 8.7213 9.06211 9.50158C9.06371 9.71174 9.02889 9.9698 8.97499 10.3087C8.88221 10.8985 8.68245 12.1635 8.65533 12.4711Z" fill="white"/>
<path d="M23.0309 7.59847L22.8553 8.68566C22.4731 8.49338 22.1953 8.41506 21.8979 8.41506C21.0977 8.41506 20.5367 9.18825 20.5367 10.2909C20.5367 11.0511 20.9138 11.5108 21.5368 11.5108C21.8008 11.5108 22.0921 11.4288 22.4472 11.2537L22.2591 12.395C21.864 12.5027 21.6092 12.5419 21.3117 12.5419C20.158 12.5419 19.439 11.7123 19.439 10.3799C19.439 8.58963 20.4322 7.33838 21.8528 7.33838C22.3207 7.33838 22.8737 7.53682 23.0309 7.59847Z" fill="white"/>
<path d="M24.7603 10.657C24.6479 10.644 24.5984 10.6405 24.5212 10.6405C23.9139 10.6405 23.6064 10.8488 23.6064 11.2602C23.6064 11.5134 23.7564 11.6752 23.9904 11.6752C24.427 11.6752 24.7419 11.2595 24.7603 10.657ZM25.54 12.4711H24.6518L24.6722 12.0496C24.4013 12.3826 24.0397 12.5419 23.549 12.5419C22.9681 12.5419 22.5698 12.0881 22.5698 11.4293C22.5698 10.4375 23.2626 9.85947 24.4515 9.85947C24.5732 9.85947 24.7288 9.87047 24.8883 9.89087C24.9213 9.75662 24.9302 9.69909 24.9302 9.62643C24.9302 9.35644 24.7436 9.25634 24.243 9.25634C23.7187 9.2504 23.2862 9.38124 23.1083 9.43899C23.1196 9.37162 23.257 8.52396 23.257 8.52396C23.791 8.36677 24.1435 8.30786 24.5395 8.30786C25.4602 8.30786 25.9477 8.7213 25.9466 9.50158C25.9484 9.71174 25.9138 9.9698 25.8597 10.3087C25.7671 10.8985 25.5669 12.1635 25.54 12.4711Z" fill="white"/>
<path d="M13.4187 12.4094C13.1251 12.5017 12.8964 12.5418 12.6487 12.5418C12.1008 12.5418 11.8017 12.2269 11.8017 11.6471C11.7941 11.4668 11.8808 10.9937 11.9489 10.5616C12.0105 10.1807 12.4133 7.78223 12.4133 7.78223H13.4785L13.3543 8.39889H13.901L13.7555 9.37723H13.2069C13.0831 10.1523 12.9064 11.1164 12.9046 11.2445C12.9046 11.4551 13.0169 11.546 13.2715 11.546C13.3937 11.546 13.4881 11.5342 13.5605 11.508L13.4187 12.4094Z" fill="white"/>
<path d="M16.685 12.3769C16.3192 12.4887 15.9656 12.5426 15.5916 12.5419C14.399 12.5408 13.7773 11.9179 13.7773 10.7251C13.7773 9.33246 14.5682 8.30786 15.6418 8.30786C16.5202 8.30786 17.0812 8.88146 17.0812 9.78186C17.0812 10.0807 17.0427 10.3722 16.9501 10.7836H14.8285C14.7567 11.3743 15.1349 11.6207 15.7545 11.6207C16.1357 11.6207 16.4799 11.5419 16.8621 11.3636L16.685 12.3769ZM16.086 9.96177C16.0923 9.87718 16.1992 9.23483 15.5903 9.23483C15.2511 9.23483 15.0084 9.49427 14.9096 9.96177H16.086Z" fill="white"/>
<path d="M9.29804 9.68649C9.29804 10.2016 9.54785 10.5564 10.1143 10.8236C10.5484 11.0276 10.6155 11.0883 10.6155 11.2731C10.6155 11.527 10.4239 11.6415 10.0002 11.6415C9.68029 11.6415 9.38279 11.5916 9.03948 11.4809C9.03948 11.4809 8.89901 12.3785 8.89258 12.4214C9.13573 12.4746 9.3532 12.5232 10.0077 12.5419C11.1388 12.5419 11.6609 12.1113 11.6609 11.1809C11.6609 10.621 11.4425 10.2926 10.9054 10.0459C10.4562 9.83912 10.4042 9.79374 10.4042 9.60333C10.4042 9.38333 10.5827 9.27009 10.929 9.27009C11.1392 9.27009 11.4265 9.29324 11.6992 9.33196L11.8516 8.38712C11.5743 8.34312 11.1536 8.30786 10.9086 8.30786C9.70938 8.30786 9.29457 8.93371 9.29804 9.68649Z" fill="white"/>
<path d="M31.2127 12.4709H30.1986L30.2491 12.0918C29.955 12.4063 29.6537 12.5417 29.2609 12.5417C28.4817 12.5417 27.9668 11.87 27.9668 10.8518C27.9668 9.49719 28.7654 8.35528 29.7107 8.35528C30.1265 8.35528 30.4411 8.52507 30.734 8.91056L30.9718 7.46362H32.029L31.2127 12.4709ZM29.6317 11.5299C30.1308 11.5299 30.4814 10.9644 30.4814 10.1575C30.4814 9.64025 30.2819 9.35953 29.9136 9.35953C29.4275 9.35953 29.0822 9.92691 29.0822 10.7277C29.0822 11.2604 29.2669 11.5299 29.6317 11.5299Z" fill="white"/>
<path d="M26.5054 8.39886C26.3712 9.65929 26.1329 10.936 25.9465 12.1973L25.8975 12.471H26.9695C27.3529 9.98088 27.4457 9.49457 28.0468 9.55551C28.1426 9.04582 28.3209 8.59945 28.4538 8.37417C28.0048 8.28067 27.7541 8.53438 27.426 9.01629C27.4519 8.80795 27.4993 8.60561 27.4899 8.39892H26.5054" fill="white"/>
<path d="M17.6827 8.39886C17.5482 9.65929 17.3099 10.936 17.1235 12.1973L17.0747 12.471H18.1472C18.5302 9.98088 18.6227 9.49457 19.2236 9.55551C19.3199 9.04582 19.4981 8.59945 19.6306 8.37417C19.1821 8.28067 18.9311 8.53438 18.6032 9.01629C18.6291 8.80795 18.6761 8.60561 18.6671 8.39892H17.6827" fill="white"/>
<path d="M31.6836 12.1522C31.6836 11.9755 31.8264 11.8333 32.0024 11.8333C32.1786 11.8333 32.3212 11.9755 32.3212 12.1522C32.3212 12.328 32.1786 12.471 32.0024 12.471C31.8263 12.471 31.6836 12.328 31.6836 12.1522ZM32.0024 12.3945C32.1365 12.3945 32.2446 12.2858 32.2446 12.1523C32.2446 12.0184 32.1364 11.9098 32.0024 11.9098C31.8685 11.9098 31.7599 12.0185 31.7599 12.1523C31.7599 12.2858 31.8685 12.3945 32.0024 12.3945ZM31.9593 12.2916H31.8939V12.0121H32.0123C32.0369 12.0121 32.0623 12.0125 32.0836 12.026C32.1065 12.0416 32.1196 12.0682 32.1196 12.0961C32.1196 12.1277 32.101 12.1573 32.0707 12.1685L32.1225 12.2915H32.0499L32.007 12.1811H31.9592L31.9593 12.2916ZM31.9593 12.1332H31.9952C32.0087 12.1332 32.0234 12.1342 32.0353 12.1277C32.046 12.1208 32.0515 12.1078 32.0515 12.0954C32.0515 12.085 32.0452 12.0727 32.0358 12.0666C32.0245 12.0602 32.0059 12.062 31.9938 12.062H31.9592L31.9593 12.1332Z" fill="white"/>
</svg>
