<svg width="75" height="20" viewBox="0 0 75 20" fill="none" xmlns="http://www.w3.org/2000/svg">
<path d="M13.7259 1.43447C12.845 0.43047 11.2527 3.24288e-05 9.21579 3.24288e-05H3.30387C3.10223 -7.49079e-05 2.90716 0.0717899 2.75379 0.202692C2.60041 0.333594 2.49878 0.514938 2.4672 0.714093L0.00666688 16.3271C-0.00474226 16.3996 -0.00031397 16.4736 0.0196469 16.5442C0.0396078 16.6147 0.0746268 16.6801 0.122291 16.7358C0.169955 16.7915 0.229131 16.8363 0.295743 16.8669C0.362355 16.8975 0.434818 16.9134 0.508141 16.9133H4.1579L5.07455 11.0993L5.04614 11.2814C5.07711 11.0826 5.17806 10.9014 5.33078 10.7705C5.4835 10.6396 5.67796 10.5675 5.87912 10.5673H7.61349C11.0207 10.5673 13.6885 9.18337 14.4678 5.18C14.491 5.0616 14.511 4.94637 14.5284 4.83376C14.7599 3.35407 14.5268 2.34691 13.7264 1.435" fill="#003087"/>
<path d="M58.407 8.86396C58.1839 10.3289 57.0652 10.3289 55.9833 10.3289H55.3676L55.7996 7.5937C55.8259 7.42847 55.968 7.30692 56.1354 7.30692H56.4179C57.1546 7.30692 57.8503 7.30692 58.2091 7.7263C58.4233 7.9773 58.488 8.34985 58.407 8.86396ZM57.936 5.0416H53.8548C53.7196 5.04167 53.5889 5.08991 53.4861 5.17767C53.3833 5.26543 53.3151 5.38696 53.2938 5.52045L51.6447 15.9851C51.6371 16.0336 51.6401 16.0832 51.6535 16.1304C51.6669 16.1777 51.6903 16.2215 51.7222 16.2588C51.7541 16.2962 51.7937 16.3262 51.8383 16.3468C51.8828 16.3674 51.9313 16.3781 51.9804 16.3782H54.0747C54.27 16.3782 54.4362 16.2361 54.4668 16.0435L54.9351 13.0757C54.9782 12.8005 55.2161 12.5969 55.495 12.5969H56.7863C59.4752 12.5969 61.0264 11.2966 61.4316 8.71767C61.6142 7.59054 61.439 6.70441 60.9112 6.08401C60.3308 5.40205 59.3021 5.04108 57.9366 5.04108" fill="#009CDE"/>
<path d="M29.2977 8.86402C29.0746 10.329 27.9559 10.329 26.8735 10.329H26.2578L26.6898 7.59376C26.7161 7.42853 26.8582 7.30698 27.0255 7.30698H27.3081C28.0448 7.30698 28.7404 7.30698 29.0993 7.72637C29.314 7.97737 29.3787 8.34992 29.2977 8.86402ZM28.8267 5.04166H24.7455C24.4666 5.04166 24.2288 5.24478 24.1851 5.52051L22.5354 15.9852C22.5277 16.0337 22.5307 16.0833 22.544 16.1306C22.5574 16.1779 22.5808 16.2217 22.6127 16.2591C22.6446 16.2964 22.6842 16.3264 22.7289 16.347C22.7735 16.3676 22.822 16.3782 22.8711 16.3782H24.8202C25.0991 16.3782 25.3364 16.1751 25.3801 15.8994L25.8258 13.0763C25.8689 12.8006 26.1068 12.5974 26.3857 12.5974H27.677C30.3659 12.5974 31.9172 11.2967 32.3223 8.71774C32.5049 7.5906 32.3297 6.70447 31.8019 6.08408C31.2215 5.40211 30.1928 5.04114 28.8273 5.04114M38.3021 12.6211C38.1127 13.7377 37.2271 14.4876 36.0963 14.4876C35.5295 14.4876 35.0754 14.305 34.7839 13.9598C34.4945 13.6178 34.3861 13.13 34.4777 12.5875C34.6534 11.4803 35.5543 10.7068 36.6677 10.7068C37.2229 10.7068 37.6728 10.891 37.9706 11.2393C38.27 11.5903 38.3879 12.0807 38.3021 12.6211ZM41.0258 8.81666H39.0714C38.9902 8.81657 38.9116 8.84552 38.8498 8.89831C38.7881 8.9511 38.7472 9.02423 38.7347 9.1045L38.6494 9.6507L38.5126 9.45285C38.0895 8.83876 37.1461 8.63302 36.2041 8.63302C34.0451 8.63302 32.2008 10.2695 31.8419 12.5638C31.6551 13.7093 31.9203 14.8033 32.5696 15.5668C33.1658 16.2683 34.0167 16.5603 35.0307 16.5603C36.7714 16.5603 37.7365 15.4426 37.7365 15.4426L37.6491 15.9857C37.6414 16.0343 37.6444 16.0839 37.6577 16.1312C37.6711 16.1786 37.6946 16.2224 37.7265 16.2598C37.7585 16.2972 37.7982 16.3272 37.8429 16.3477C37.8876 16.3682 37.9362 16.3788 37.9854 16.3788H39.745C40.0239 16.3788 40.2617 16.1762 40.3054 15.8999L41.362 9.21026C41.3696 9.16166 41.3666 9.11199 41.3532 9.06467C41.3397 9.01734 41.3162 8.97349 41.2842 8.93614C41.2522 8.89878 41.2125 8.8688 41.1678 8.84827C41.1231 8.82773 41.0744 8.81713 41.0252 8.81719" fill="#003087"/>
<path d="M67.4117 12.6211C67.2223 13.7377 66.3367 14.4876 65.2059 14.4876C64.6392 14.4876 64.1851 14.305 63.8935 13.9598C63.6041 13.6178 63.4957 13.13 63.5873 12.5875C63.763 11.4803 64.6634 10.7068 65.7774 10.7068C66.3325 10.7068 66.7824 10.891 67.0802 11.2393C67.3796 11.5903 67.4975 12.0807 67.4117 12.6211ZM70.1354 8.81666H68.1811C68.0998 8.81657 68.0212 8.84552 67.9594 8.89831C67.8977 8.9511 67.8568 9.02423 67.8443 9.1045L67.759 9.6507L67.6222 9.45285C67.1992 8.83876 66.2557 8.63302 65.3138 8.63302C63.1553 8.63302 61.3109 10.2695 60.9515 12.5638C60.7647 13.7093 61.0305 14.8033 61.6798 15.5668C62.276 16.2683 63.1269 16.5603 64.1409 16.5603C65.8821 16.5603 66.8471 15.4426 66.8471 15.4426L66.7598 15.9857C66.7519 16.0342 66.7547 16.0838 66.7679 16.1312C66.7812 16.1785 66.8045 16.2224 66.8364 16.2598C66.8683 16.2972 66.908 16.3272 66.9526 16.3477C66.9972 16.3683 67.0458 16.3789 67.095 16.3788H68.8541C69.133 16.3788 69.3708 16.1762 69.415 15.8999L70.4716 9.21026C70.4792 9.16166 70.4762 9.11199 70.4628 9.06467C70.4493 9.01734 70.4258 8.97349 70.3938 8.93614C70.3618 8.89878 70.3221 8.8688 70.2774 8.84827C70.2327 8.82773 70.1841 8.81713 70.1349 8.81719" fill="#009CDE"/>
<path d="M51.4345 8.81715H49.4696C49.2818 8.81715 49.1065 8.91029 49.0013 9.06605L46.2913 13.0568L45.1426 9.22181C45.1076 9.10483 45.0358 9.00226 44.9379 8.92928C44.84 8.85631 44.7212 8.8168 44.5991 8.81663H42.6684C42.6143 8.81666 42.5609 8.82959 42.5128 8.85437C42.4646 8.87914 42.4231 8.91504 42.3916 8.95908C42.3601 9.00312 42.3396 9.05403 42.3317 9.10759C42.3239 9.16116 42.3289 9.21582 42.3464 9.26706L44.5091 15.6163L42.4748 18.4867C42.4388 18.5377 42.4176 18.5975 42.4133 18.6597C42.409 18.7219 42.4219 18.7841 42.4506 18.8395C42.4793 18.8949 42.5226 18.9413 42.5759 18.9737C42.6291 19.0062 42.6903 19.0234 42.7526 19.0234H44.7154C44.9006 19.0234 45.0748 18.9324 45.181 18.7798L51.7134 9.35125C51.7488 9.30029 51.7697 9.24058 51.7736 9.17861C51.7775 9.11664 51.7644 9.05478 51.7357 8.99974C51.7069 8.9447 51.6637 8.89858 51.6106 8.8664C51.5575 8.83421 51.4966 8.81718 51.4345 8.81715Z" fill="#003087"/>
<path d="M72.4383 5.3294L70.7629 15.9856C70.7553 16.0341 70.7583 16.0838 70.7717 16.1311C70.7851 16.1783 70.8086 16.2222 70.8405 16.2595C70.8725 16.2969 70.9121 16.3269 70.9568 16.3474C71.0014 16.368 71.05 16.3786 71.0991 16.3787H72.7835C73.0624 16.3787 73.3002 16.1755 73.3439 15.8998L74.9957 5.43464C75.0034 5.38607 75.0004 5.33641 74.9871 5.28908C74.9737 5.24176 74.9502 5.1979 74.9182 5.16053C74.8863 5.12316 74.8466 5.09317 74.8019 5.07263C74.7572 5.05209 74.7086 5.04149 74.6594 5.04156H72.7746C72.6934 5.04136 72.6149 5.07022 72.5532 5.12293C72.4915 5.17564 72.4508 5.24922 72.4383 5.3294Z" fill="#009CDE"/>
<path d="M13.7259 1.43447C12.845 0.43047 11.2527 3.24288e-05 9.21579 3.24288e-05H3.30387C3.10223 -7.49079e-05 2.90716 0.0717899 2.75379 0.202692C2.60041 0.333594 2.49878 0.514938 2.4672 0.714093L0.00666688 16.3271C-0.00474226 16.3996 -0.00031397 16.4736 0.0196469 16.5442C0.0396078 16.6147 0.0746268 16.6801 0.122291 16.7358C0.169955 16.7915 0.229131 16.8363 0.295743 16.8669C0.362355 16.8975 0.434818 16.9134 0.508141 16.9133H4.1579L5.07455 11.0993L5.04614 11.2814C5.07711 11.0826 5.17806 10.9014 5.33078 10.7705C5.4835 10.6396 5.67796 10.5675 5.87912 10.5673H7.61349C11.0207 10.5673 13.6885 9.18337 14.4678 5.18C14.491 5.0616 14.511 4.94637 14.5284 4.83376C14.7599 3.35407 14.5268 2.34691 13.7264 1.435" fill="#003087"/>
<path d="M6.0592 4.85326C6.08686 4.67925 6.17563 4.52078 6.30958 4.40631C6.44354 4.29184 6.6139 4.22885 6.7901 4.22866H11.4249C11.9738 4.22866 12.4858 4.26444 12.9535 4.33916C13.2093 4.38031 13.4624 4.43689 13.7113 4.5086C13.994 4.58808 14.2675 4.69708 14.5274 4.83379C14.76 3.35358 14.5264 2.34695 13.726 1.43451C12.8446 0.431033 11.2529 0.000596072 9.21591 0.000596072H3.30347C3.102 0.000739255 2.90719 0.072716 2.75403 0.203596C2.60087 0.334476 2.4994 0.515682 2.46785 0.714658L0.00626175 16.3261C-0.00522461 16.3985 -0.000871984 16.4726 0.01902 16.5432C0.038912 16.6138 0.0738702 16.6792 0.121486 16.735C0.169101 16.7907 0.228242 16.8355 0.294832 16.8662C0.361422 16.8969 0.433879 16.9128 0.507209 16.9128H4.1575L5.07415 11.0983L6.0592 4.85326Z" fill="#003087"/>
<path d="M14.5279 4.83325C14.5099 4.94903 14.4897 5.06446 14.4674 5.17949C13.6881 9.18234 11.0202 10.5668 7.61305 10.5668H5.87815C5.67702 10.5669 5.48258 10.639 5.32992 10.7699C5.17726 10.9009 5.07645 11.0821 5.04569 11.2808L4.15746 16.9123L3.90488 18.5099C3.89484 18.5733 3.89867 18.6381 3.91611 18.6999C3.93354 18.7617 3.96418 18.819 4.00589 18.8678C4.04761 18.9167 4.09941 18.9558 4.15774 18.9827C4.21606 19.0096 4.27952 19.0235 4.34373 19.0234H7.42046C7.78459 19.0234 8.094 18.7582 8.15136 18.3988L8.18135 18.242L8.76123 14.567L8.79807 14.3639C8.82564 14.1897 8.91445 14.0311 9.04854 13.9166C9.18262 13.8021 9.35317 13.7392 9.52949 13.7393H9.98992C12.9703 13.7393 15.3041 12.529 15.986 9.02658C16.2702 7.56373 16.1228 6.34136 15.3704 5.48312C15.1314 5.21703 14.8459 4.9968 14.5279 4.83325Z" fill="#009CDE"/>
<path d="M13.712 4.5085C13.5931 4.47324 13.4704 4.44167 13.3442 4.41378C13.2179 4.38589 13.0874 4.36116 12.9537 4.34011C12.4854 4.26381 11.9739 4.22803 11.4246 4.22803H6.79027C6.61387 4.22781 6.44322 4.29072 6.30917 4.40538C6.17511 4.52003 6.08651 4.67886 6.05937 4.85316L5.07431 11.0992L5.0459 11.2808C5.07666 11.082 5.17747 10.9008 5.33013 10.7698C5.48278 10.6389 5.67723 10.5668 5.87835 10.5667H7.61325C11.0204 10.5667 13.6883 9.18278 14.4676 5.17941C14.4908 5.06101 14.5102 4.9463 14.5281 4.83317C14.3223 4.72548 14.1079 4.63501 13.8872 4.5627C13.8298 4.54375 13.7714 4.52639 13.712 4.5085Z" fill="#012169"/>
</svg>
