<svg width="13" height="17" viewBox="0 0 13 17" fill="none" xmlns="http://www.w3.org/2000/svg">
<path d="M5.34388 11.0523C4.90493 13.3529 4.36925 15.5584 2.78185 16.7105C2.29145 13.2333 3.50108 10.6219 4.06287 7.84932C3.10494 6.23739 4.17791 2.9932 6.19779 3.79239C8.68314 4.7756 4.04573 9.78591 7.15856 10.4117C10.4093 11.0649 11.7364 4.77151 9.72102 2.72511C6.80852 -0.230196 1.24333 2.65781 1.92752 6.88894C2.09397 7.92316 3.16249 8.2369 2.35467 9.66478C0.490642 9.2511 -0.0654158 7.78117 0.00597177 5.82126C0.121408 2.61298 2.88832 0.367066 5.66413 0.0562045C9.17432 -0.336672 12.4687 1.34458 12.9236 4.64672C13.436 8.37398 11.3395 12.4105 7.58571 12.12C6.5682 12.0408 6.14105 11.5366 5.34388 11.0523Z" fill="black"/>
</svg>
