<svg width="130" height="130" viewBox="0 0 130 130" fill="none" xmlns="http://www.w3.org/2000/svg">
<g opacity="0.4">
<mask id="mask0_131_16786" style="mask-type:luminance" maskUnits="userSpaceOnUse" x="0" y="0" width="130" height="130">
<path d="M70.8148 129.707C68.1414 129.953 64.544 130.112 61.8672 129.903C55.2996 129.389 55.2996 129.389 49.0238 128.002C46.7388 127.496 43.7582 126.521 41.5922 125.637C38.7511 124.478 35.0673 122.677 32.3734 121.209C28.8445 119.288 22.6055 114.632 19.6746 111.573C17.5487 109.355 14.7529 106.342 12.9136 103.881C10.8476 101.116 9.00233 98.1889 7.42652 95.1811C6.20403 92.8463 4.71806 89.6425 3.88053 87.1435C3.42712 85.7897 2.78465 83.9937 2.42363 82.6116C1.87698 80.5189 1.24136 77.7017 0.857242 75.5722C0.380735 72.9355 0.0633493 69.3597 0.0128755 66.6803C-0.019633 64.9698 0.0308426 62.6872 0.116391 60.9784C0.178842 59.7375 0.373026 58.0911 0.505627 56.8562C0.509904 56.8168 1.03946 52.4945 2.14818 48.4235C2.61356 46.7165 3.33558 44.4672 3.91217 42.7944C4.2749 41.7424 4.83183 40.3663 5.27668 39.346C6.93889 35.5317 9.76629 29.7212 15.1131 23.33C17.6334 20.3179 19.9492 18.0917 21.448 16.7558C22.8604 15.4969 24.8323 13.9198 26.3294 12.7627C27.1797 12.105 28.3612 11.29 29.2663 10.711C30.2672 10.0713 31.5932 9.19892 32.6386 8.63446C34.5943 7.5791 37.236 6.22953 39.2627 5.31785C40.6802 4.6807 42.6307 3.97 44.0979 3.45942C45.2784 3.04891 46.8833 2.59478 48.0844 2.2484C50.0076 1.69421 52.6245 1.11864 54.6075 0.847525C57.4418 0.460103 61.3223 -0.0701465 64.473 0.00768014C66.9249 0.068402 70.2116 0.0735348 72.6352 0.444708C74.0973 0.66878 76.0623 0.887721 77.5081 1.20416C79.8025 1.70533 82.8438 2.47076 85.0869 3.16607C87.999 4.0692 91.7349 5.71981 94.475 7.05655C96.6035 8.09481 99.3513 9.68384 101.275 11.0642C102.55 11.9776 104.272 13.1681 105.489 14.1567C106.987 15.3729 108.917 17.0757 110.315 18.4056C112.541 20.5231 115.155 23.6995 117.075 26.0975C118.074 27.3445 119.234 29.1379 120.087 30.4892C120.882 31.7498 121.854 33.4851 122.562 34.797C123.814 37.1164 125.16 40.3757 126.108 42.8354C127.127 45.4798 128.052 49.1616 128.673 51.9266C129.135 53.9834 129.512 56.7783 129.71 58.8771C130.161 63.6433 130.085 68.4369 129.483 73.1245C129.032 76.6387 128.609 78.3859 127.841 81.5571C127.424 83.277 126.635 85.5066 126.077 87.1863C128.58 80.2974 123.724 70.7871 111.202 60.8065C88.6038 42.7943 49.5995 30.0676 24.0803 32.3776C49.5995 30.0667 88.6038 42.7943 111.202 60.8065C123.724 70.7871 128.581 80.2974 126.077 87.1863C124.373 91.8533 122.745 94.8381 121.774 96.6204C121.321 97.4509 120.691 98.5456 120.174 99.3367C119.18 100.856 117.823 102.864 116.737 104.319C116.712 104.353 114.119 107.815 110.815 111.073C107.999 113.851 106.425 115.089 103.663 117.215C102.53 118.087 99.631 120.058 97.3537 121.344C96.399 121.882 95.1192 122.591 94.1345 123.074C92.8179 123.719 91.0573 124.578 89.6868 125.099C88.5507 125.531 87.0511 126.149 85.8936 126.519C84.0774 127.099 81.6341 127.811 79.7811 128.263C77.1334 128.911 73.5275 129.456 70.8148 129.707Z" fill="white"/>
</mask>
<g mask="url(#mask0_131_16786)">
<path d="M70.815 129.707C88.2747 128.096 100.222 119.849 103.467 117.359C116.15 107.631 121.65 98.3385 126.006 87.3786C128.579 80.2981 123.723 70.7878 111.201 60.8072C123.723 70.7878 128.579 80.2981 126.075 87.187C128.272 80.5692 132.845 66.7999 127.564 47.368C122.675 29.3781 111.298 19.2529 106.438 14.9297C105.035 13.6811 92.1655 2.66648 72.6347 0.445426C56.5421 -1.38393 43.7525 2.94785 35.8572 6.90504C24.2671 12.713 14.4504 22.1086 8.21474 33.3592C-1.17424 50.3006 -0.118578 65.4135 0.278369 71.1026C1.03633 81.9555 6.15727 95.3349 12.7334 103.638C16.4274 108.303 26.2398 120.694 44.2128 126.584C47.4979 127.661 57.4925 130.937 70.815 129.707Z" fill="#BB3467"/>
<path d="M120.179 99.329C121.098 97.8152 122.047 96.2502 123.296 93.7144L124.712 90.6355C125.123 89.6015 125.694 88.2323 126.076 87.1881C128.579 80.2991 123.723 70.7889 111.201 60.8083C105.541 56.2969 98.8524 52.1173 91.603 48.4219C91.9923 48.6357 92.5116 48.9205 92.9008 49.1343C131.368 72.0675 124.693 92.0338 120.038 99.5539C120.081 99.4864 120.138 99.3974 120.179 99.329Z" fill="#BB3467"/>
<path d="M68.4996 38.8953L71.5734 39.7403C80.4713 42.6644 83.6015 43.8993 91.6037 48.421C98.8523 52.1156 105.541 56.296 111.202 60.8074C123.724 70.788 128.58 80.2982 126.076 87.1872C126.425 86.1386 126.889 84.7403 127.237 83.6918L127.84 81.558L128.717 77.7932C128.955 76.3941 129.295 74.5322 129.482 73.1253L129.871 69.0031C129.922 67.2926 130 65.0117 129.975 63.3004L129.709 58.8779C129.439 56.7869 129.055 54.0005 128.672 51.9274L127.564 47.3682C126.771 44.9016 125.632 41.6372 124.676 39.228L122.561 34.7979C119.34 29.1918 119.214 28.9729 117.075 26.0984L113.865 22.1395C109.313 17.3527 108.942 16.9619 105.49 14.1576L101.276 11.065C99.2612 9.82067 96.5622 8.17775 94.4756 7.05739L89.8372 4.91845C87.6095 4.09657 84.6272 3.02837 82.3534 2.34504L77.5087 1.20415C75.0518 0.821007 71.7641 0.366018 69.2875 0.14109L64.4737 0.00852966C62.8833 0.0812248 60.76 0.135965 59.1748 0.272803L54.6082 0.848375C52.6448 1.2358 50.027 1.76177 48.0851 2.24925L44.0985 3.46027C42.6433 4.00506 40.6954 4.71576 39.2633 5.3187L35.8584 6.90517C34.7497 7.50041 33.2612 8.27441 32.1722 8.90557L29.2661 10.711C28.3841 11.325 27.1941 12.1247 26.3292 12.7627L23.82 14.7169C23.0869 15.3472 22.0954 16.1708 21.3776 16.8191L19.1764 18.9059C18.5451 19.5618 17.6887 20.4222 17.0736 21.0927L15.1129 23.33C14.5551 24.0287 13.7945 24.9481 13.253 25.6597L11.4865 28.0954C10.9834 28.8617 10.2948 29.8726 9.81055 30.6508L8.21591 33.3585C7.75822 34.2309 7.12773 35.3829 6.69314 36.2663L5.27731 39.3452C4.86668 40.3792 4.29435 41.7484 3.91281 42.7935L2.75191 46.2888L2.14881 48.4227L1.27194 52.1874C1.03326 53.5866 0.69361 55.4484 0.506258 56.8553C0.431831 57.5421 0.331752 58.4589 0.257324 59.1456C0.262457 59.0926 0.26843 59.0225 0.273563 58.9695C3.89484 37.1489 32.5879 28.706 68.4996 38.8953Z" fill="#BB3467"/>
<path d="M0.0145355 66.6811C0.145425 69.8079 0.249777 72.2778 1.31743 78.0532L2.42529 82.6125C3.21833 85.079 4.35785 88.3434 5.31343 90.7518L7.42818 95.1819C10.7133 100.898 10.7757 101.007 12.9153 103.881L16.1259 107.84C20.678 112.628 21.0493 113.019 24.5029 115.824L28.717 118.916L32.3751 121.21L36.9168 123.617C39.0864 124.555 41.9916 125.782 44.215 126.586L49.0263 128.003C51.4148 128.51 54.6118 129.141 57.0277 129.497L61.8697 129.905C64.5542 129.93 68.137 129.866 70.8173 129.709L75.3839 129.133C77.3481 128.746 79.9659 128.22 81.907 127.732L85.8935 126.521C87.3487 125.976 89.2967 125.265 90.7296 124.663L94.1344 123.076C95.2432 122.48 96.7317 121.706 97.8208 121.076L100.727 119.271C101.609 118.656 102.799 117.857 103.664 117.219L106.173 115.265C106.906 114.634 107.898 113.811 108.614 113.162L110.816 111.077C111.447 110.421 112.302 109.56 112.918 108.89L114.879 106.652L115.947 105.341L116.409 104.738C138.186 71.5226 74.9758 32.7145 28.2987 40.7555C18.1586 42.5019 1.00091 48.1618 0.0102539 66.4434C0.0128204 66.5135 0.0119691 66.6093 0.0145355 66.6811Z" fill="#BD3668"/>
<path d="M1.31695 78.0532C2.61472 83.3924 2.96292 84.8284 5.31295 90.7518L7.4277 95.1819C10.7128 100.898 10.7752 101.007 12.9148 103.881L16.1254 107.84C20.6775 112.628 21.0488 113.019 24.5024 115.824L28.7165 118.916L32.3746 121.21L36.9164 123.617C39.0859 124.555 41.9911 125.782 44.2145 126.586L49.0258 128.003C51.4143 128.51 54.6113 129.141 57.0272 129.497L61.8692 129.905C64.5538 129.93 68.1366 129.866 70.8168 129.709L75.3834 129.133C77.3476 128.746 79.9654 128.22 81.9065 127.732L85.893 126.521C87.3482 125.976 89.2962 125.265 90.7291 124.663L94.134 123.076C95.2427 122.48 96.7312 121.706 97.8203 121.076L100.726 119.271C101.608 118.656 102.798 117.857 103.663 117.219L106.172 115.265C106.906 114.634 107.897 113.811 108.614 113.162L110.815 111.076L112.286 109.568L112.676 109.144C134.994 81.5887 84.5747 40.2876 33.3396 44.155C29.8073 44.4218 -1.13146 47.4708 0.381047 72.0776L1.0295 76.5531L1.31695 78.0532Z" fill="#BF386A"/>
<path d="M1.31684 78.0533C2.60093 83.9142 3.91754 87.2351 5.31284 90.7518L7.42759 95.182C10.7127 100.898 10.7751 101.007 12.9147 103.881L16.1253 107.84C20.6774 112.628 21.0487 113.019 24.5023 115.824L28.7164 118.917L32.3745 121.21L36.9163 123.617C39.0858 124.555 41.991 125.782 44.2144 126.586L49.0257 128.003C51.4142 128.51 54.6112 129.141 57.0271 129.497L61.8691 129.905C64.5537 129.93 68.1364 129.866 70.8167 129.709L75.3833 129.133C77.3475 128.746 79.9653 128.22 81.9064 127.732L85.8929 126.521C87.3481 125.976 89.2961 125.265 90.729 124.663L94.1338 123.076C95.2426 122.48 96.7311 121.706 97.8202 121.076L100.726 119.271C101.608 118.657 102.798 117.857 103.663 117.219L106.172 115.265C106.905 114.634 107.897 113.811 108.614 113.162L110.341 111.454C133.095 86.0189 87.408 46.6105 36.2721 47.5632C16.6883 47.9284 -2.29844 58.3229 1.08587 76.8679C1.15431 77.2228 1.23899 77.6992 1.31684 78.0533Z" fill="#C13A6B"/>
<path d="M5.31241 90.751C7.13203 94.5628 9.1946 98.8826 12.9143 103.881L16.1249 107.839C20.677 112.627 21.0483 113.018 24.5019 115.823L28.716 118.916L32.3741 121.209L36.9158 123.616C39.0853 124.554 41.9906 125.782 44.214 126.585L49.0253 128.003C51.4138 128.509 54.6107 129.14 57.0266 129.496L61.8687 129.904C64.5532 129.929 68.136 129.865 70.8163 129.708L75.3828 129.132C77.347 128.745 79.9648 128.219 81.9059 127.731L85.8925 126.52C87.3477 125.976 89.2956 125.264 90.7286 124.662L94.1334 123.076C95.2421 122.479 96.7307 121.705 97.8197 121.075L100.726 119.27C101.608 118.656 102.798 117.856 103.663 117.218C104.709 116.417 106.072 115.304 107.071 114.444C128.311 92.2442 93.2249 52.4492 39.2291 50.8123C22.2391 50.2974 -2.87719 58.1049 2.05812 81.2484L3.40981 85.7923C3.97357 87.2813 4.65625 89.2988 5.31241 90.751Z" fill="#C33C6D"/>
<path d="M5.31177 90.751C7.13139 94.5628 9.19396 98.8826 12.9136 103.881L16.1243 107.84C20.6763 112.627 21.0476 113.018 24.5012 115.823L28.7153 118.916L32.3734 121.209L36.9152 123.616C39.0847 124.554 41.9899 125.782 44.2134 126.585L49.0246 128.003C51.4131 128.509 54.6101 129.14 57.026 129.496L61.868 129.904C64.5526 129.929 68.1354 129.865 70.8156 129.708L75.3822 129.132C77.3464 128.745 79.9642 128.219 81.9053 127.732L85.8919 126.52C87.347 125.976 89.295 125.264 90.7279 124.662L94.1328 123.076C95.2415 122.479 96.73 121.706 97.8191 121.075L100.725 119.27L102.035 118.385L102.858 117.792C127.536 97.4304 96.322 60.1994 49.8433 54.5591C17.4349 50.6259 -3.44759 64.4824 3.2928 85.4486L4.96958 89.9446L5.31177 90.751Z" fill="#C53E6E"/>
<path d="M5.31248 90.751C8.13645 97.0823 11.2872 101.695 12.9143 103.881L16.125 107.839C20.677 112.627 21.0483 113.018 24.5019 115.823L28.7161 118.916L32.3741 121.209L36.9159 123.616C39.0854 124.554 41.9907 125.782 44.2141 126.585L49.0253 128.003C51.4138 128.509 54.6108 129.14 57.0267 129.496L61.8688 129.904C64.5533 129.929 68.1361 129.865 70.8163 129.708L75.3829 129.132C77.3471 128.745 79.9649 128.219 81.906 127.731L85.8926 126.52C87.3478 125.976 89.2957 125.264 90.7287 124.662L94.1335 123.076C95.2422 122.479 96.7308 121.705 97.8198 121.075C98.6633 120.572 99.7532 119.846 100.57 119.302C126.116 99.8131 92.6047 63.4416 53.7177 57.9544C18.3458 52.9632 -3.21759 66.6436 4.62638 89.0987C4.83169 89.5939 5.09348 90.2609 5.31248 90.751Z" fill="#C74070"/>
<path d="M12.9146 103.881C16.2733 108.023 18.9253 111.294 24.5022 115.824L28.7163 118.917L32.3744 121.21L36.9162 123.617C39.0857 124.555 41.9909 125.782 44.2143 126.586L49.0256 128.003C51.4141 128.51 54.6111 129.141 57.027 129.497L61.869 129.905C64.5536 129.93 68.1364 129.866 70.8166 129.709L75.3832 129.133C77.3474 128.746 79.9652 128.22 81.9063 127.732L85.8929 126.521C87.348 125.977 89.296 125.265 90.7289 124.663L94.1338 123.076L95.1715 122.544L97.1015 121.442C122.711 103.657 96.4256 67.6374 52.457 60.2644C22.4234 55.2279 -4.91462 68.567 6.18534 92.6847L8.45666 97.0669C9.74331 99.1417 11.4372 101.936 12.9146 103.881Z" fill="#C94271"/>
<path d="M12.9141 103.881C16.2728 108.023 18.9248 111.294 24.5017 115.824L28.7159 118.917L32.3739 121.21L36.9157 123.617C39.0852 124.555 41.9905 125.782 44.2139 126.586L49.0251 128.003C51.4137 128.51 54.6106 129.141 57.0265 129.497L61.8686 129.905C64.5531 129.93 68.1359 129.866 70.8161 129.709L75.3827 129.133C77.3469 128.746 79.9647 128.22 81.9058 127.732L85.8924 126.521C87.3476 125.976 89.2955 125.265 90.7285 124.663C91.0886 124.504 91.5694 124.294 91.9279 124.131C121.51 108.966 95.1736 76.4625 69.7288 66.9215C35.2544 53.9946 -5.49339 66.8822 6.75548 93.7272C7.11992 94.526 7.66574 95.5634 8.05584 96.3502L10.6274 100.62L12.9141 103.881Z" fill="#CB4473"/>
<path d="M12.9141 103.881C16.2728 108.022 18.9248 111.294 24.5017 115.824L28.7158 118.916L32.3739 121.21L36.9157 123.617C39.0852 124.555 41.9904 125.782 44.2139 126.586L49.0251 128.003C51.4136 128.51 54.6106 129.141 57.0265 129.497L61.8686 129.905C64.5531 129.93 68.1359 129.866 70.8161 129.709L75.3827 129.133C77.3469 128.746 79.9647 128.22 81.9058 127.732L85.8924 126.521L87.9738 125.776L90.5522 124.68C118.688 109.903 92.3068 77.2177 68.3574 68.6516C31.9658 55.6366 -3.21952 70.9992 7.63491 95.1657C8.69999 97.5373 9.68124 99.1246 10.0508 99.7215L12.9013 103.862L12.9141 103.881Z" fill="#CD4675"/>
<path d="M12.9143 103.881C15.5072 107.239 18.9121 111.283 24.5019 115.824L28.716 118.916L32.374 121.21L36.9158 123.617C39.0853 124.555 41.9906 125.782 44.214 126.586L49.0253 128.003C51.4138 128.51 54.6107 129.141 57.0266 129.497L61.8687 129.905C64.5532 129.93 68.136 129.866 70.8162 129.709L75.3828 129.133C77.347 128.746 79.9648 128.22 81.9059 127.732C82.6981 127.503 83.7581 127.209 84.5451 126.961C117.373 114.9 92.709 81.7683 72.7616 72.5352C41.6518 58.1356 -0.727336 69.2391 8.34768 95.8575C9.18777 98.3223 10.4907 100.3 12.2932 103.036C12.4788 103.29 12.7218 103.633 12.9143 103.881Z" fill="#CF4876"/>
<path d="M14.931 106.441C19.0485 111.025 19.9048 111.979 24.5022 115.824L28.7163 118.916L32.3744 121.21L36.9162 123.617C39.0857 124.555 41.9909 125.782 44.2144 126.586L49.0256 128.003C51.4141 128.51 54.6111 129.141 57.027 129.497L61.8691 129.905C64.5536 129.93 68.1364 129.866 70.8166 129.709L75.3832 129.133C76.7383 128.865 78.5545 128.553 79.8993 128.239L83.003 127.378C116.794 114.621 88.6672 79.7714 66.1705 71.2481C40.7471 61.6164 -1.36945 73.8044 9.88877 98.3565C10.4731 99.6334 12.0309 103.03 14.931 106.441Z" fill="#D14A78"/>
<path d="M17.9978 109.884C19.8987 111.72 22.4814 114.121 24.5012 115.824L28.7154 118.916L32.3734 121.21L36.9152 123.617C39.0847 124.555 41.99 125.782 44.2134 126.586L49.0246 128.003C51.4132 128.51 54.6101 129.141 57.026 129.497L61.8681 129.905C64.5526 129.93 68.1354 129.866 70.8157 129.709L75.3822 129.133L75.7801 129.067L79.0232 128.376C110.837 119.318 92.6374 86.0702 70.8405 74.817C47.9005 62.9737 3.06442 72.6909 10.5422 98.2351C11.5081 101.535 14.7829 106.653 17.9978 109.884Z" fill="#D34C79"/>
<path d="M19.5998 111.472L21.7334 113.489C23.7618 115.2 26.5772 117.346 28.7168 118.916L32.3748 121.21L36.9166 123.617C39.0861 124.555 41.9914 125.782 44.2148 126.586L49.0261 128.003C51.4146 128.51 54.6115 129.141 57.0274 129.497L61.8695 129.905C64.3239 129.928 67.5995 129.903 70.0514 129.773L73.9421 129.314C110.213 121.708 88.5787 88.1005 75.0637 78.8178C49.2305 61.0733 7.81463 76.1127 11.045 96.1457C11.9201 101.58 14.7988 106.737 19.5998 111.472Z" fill="#D54E7B"/>
<path d="M20.8111 112.501C23.3425 114.941 24.7301 116.004 26.3367 117.234L30.6398 120.165L32.373 121.209L36.9148 123.616C39.0843 124.554 41.9895 125.781 44.213 126.585L49.0242 128.002C51.4128 128.509 54.6097 129.14 57.0256 129.496L61.8677 129.904L64.7438 129.975H64.9603C112.021 127.914 83.4063 87.8465 78.6737 83.3651C55.5516 61.4684 10.6 75.1796 12.5206 97.1318C13.157 104.406 18.5304 110.303 20.8111 112.501Z" fill="#D7507C"/>
<path d="M22.1206 113.463C25.1653 116.377 27.8985 118.586 33.6141 121.913L38.1969 124.214C39.9943 124.944 42.3819 125.946 44.2135 126.585L49.0248 128.003C51.0061 128.422 53.647 128.996 55.6471 129.312L60.2206 129.789C102.764 132.096 88.343 94.8569 77.7795 84.3521C56.4718 63.1627 13.0524 76.672 14.1098 98.0017C14.4751 105.387 19.833 111.275 22.1206 113.463Z" fill="#D9527E"/>
<path d="M27.7751 118.001C48.6379 133.319 90.5799 137.813 86.3281 106.592C81.4561 70.8162 36.9485 64.7731 19.1526 89.9196C9.75339 103.201 23.3762 114.771 27.7751 118.001Z" fill="#DA5380"/>
<path d="M29.3358 118.784C41.0569 127.248 87.1386 143.353 84.1341 104.963C82.1459 79.5628 46.7381 63.9658 25.4596 86.0104C14.1475 97.7306 15.4513 108.757 29.3358 118.784Z" fill="#DC5581"/>
<path d="M31.1255 119.516C44.1666 128.534 85.5405 141.125 82.057 103.352C79.5042 75.6706 40.9482 66.5538 24.759 89.8026C12.8617 106.888 26.6077 116.393 31.1255 119.516Z" fill="#DE5783"/>
<path d="M33.1342 120.155C48.8067 130.642 64.7949 128.596 68.8456 126.665C84.5635 119.17 79.718 98.1778 79.6616 97.97C73.6004 75.42 40.3895 69.973 27.4024 89.398C24.3269 93.9991 14.967 108 33.1342 120.155Z" fill="#E05984"/>
<path d="M35.2451 120.645C44.4296 126.833 59.6984 129.39 66.6629 125.907C81.2293 118.622 78.5559 99.1947 78.5114 99.0074C72.6351 74.2261 39.1615 73.6513 29.6596 88.896C21.5085 101.973 23.388 112.656 35.2451 120.645Z" fill="#E25B86"/>
<path d="M38.1329 121.049C44.6817 124.845 57.3874 129.985 68.9039 121.774C71.8314 119.687 80.9312 106.17 75.936 94.0949C74.0728 89.5904 67.631 79.1377 48.1088 79.3558C42.016 79.4233 33.7374 82.1267 28.8988 94.6192C26.4076 101.048 24.2954 113.031 38.1329 121.049Z" fill="#E45D87"/>
<path d="M41.2327 121.188C64.0554 134.068 80.456 108.794 75.0605 94.8937C67.5253 75.4806 35.8175 75.2172 30.4194 94.5234C28.9257 99.8626 26.9906 113.15 41.2327 121.188Z" fill="#E65F89"/>
<path d="M40.1201 117.687C52.0234 125.868 61.3969 120.223 64.4767 118.368C68.4701 115.963 72.8836 109.17 73.8374 107.136C74.2489 106.258 74.8888 99.843 74.5056 96.9797C72.443 81.576 44.6251 76.2094 36.6999 86.4543C22.9693 104.202 39.9396 117.563 40.1201 117.687Z" fill="#E8618A"/>
<path d="M39.6777 113.525C43.737 117.377 53.1123 121.416 62.3011 116.754C75.3216 110.146 73.7604 99.8678 73.2471 96.4905C72.1863 89.5058 64.0754 84.5539 60.8724 83.6662C56.2015 82.3714 45.2623 79.3387 37.9111 86.6938L33.6628 93.6981C33.0263 95.3573 32.8492 97.8084 32.9664 99.5813C33.0212 100.404 34.8434 108.938 39.6777 113.525Z" fill="#EA638C"/>
<path d="M42.604 112.983C55.3422 121.251 74.2622 113.719 72.2296 97.3534C70.5888 84.14 47.8618 77.6308 38.454 87.6807C35.5445 90.7895 33.9653 96.8488 34.3605 99.2614C35.8234 108.177 41.4842 112.256 42.604 112.983Z" fill="#ED769A"/>
<path d="M45.3461 112.298C50.9384 115.165 60.1007 115.561 66.066 110.651L70.6677 104.42C71.1818 101.664 72.0433 97.0506 69.464 92.4443C64.6416 83.8312 51.3088 83.3908 51.1779 83.3916C49.0067 83.4079 45.9261 83.726 44.0988 84.8994C39.551 87.8183 38.1779 88.7001 36.6954 92.6881C34.3368 99.0331 36.0974 107.557 45.3461 112.298Z" fill="#EE7DA0"/>
<path d="M42.0774 108.096C43.6044 109.417 45.9348 110.952 47.8716 111.523C50.6528 112.342 54.7146 113.523 57.4736 112.633C61.8554 111.219 70.974 108.275 70.1716 99.0263C69.3478 89.5323 61.846 86.5134 59.567 85.8138L51.7974 84.1811C49.633 84.5942 46.6192 84.7781 44.6071 85.6752C42.8499 86.4586 40.8369 88.193 39.5631 89.635C39.4818 89.7265 32.8783 100.138 42.0774 108.096Z" fill="#EE83A4"/>
<path d="M42.7537 106.363C47.3152 111.484 54.9615 111.793 56.2567 111.473C58.6444 110.882 62.1964 110.486 64.0211 108.837C69.3765 103.995 69.2234 101.39 69.1318 99.8336C68.6288 91.2992 63.2469 87.8278 58.8198 86.4183C56.9728 85.8299 54.4405 85.0628 52.502 85.0662C52.0238 85.0671 45.1816 86.432 45.12 86.4457C43.2191 86.8716 41.3918 89.1175 40.1299 90.6004C39.1034 91.8072 38.3377 98.0419 38.3445 98.0863C39.0264 102.178 39.2368 102.415 42.7537 106.363Z" fill="#EF88A8"/>
<path d="M45.1734 107.112C46.1521 107.785 49.7554 110.003 55.0543 110.278C57.5745 110.409 60.9794 109.306 63.1643 108.044C65.1798 106.879 67.3254 104.187 67.9636 101.949C68.4897 100.104 67.0474 94.526 67.0285 94.4841C63.8205 87.3001 54.3074 86.0891 53.2329 85.9745C53.0105 85.9506 45.8407 87.1205 45.6371 87.2137C45.2384 87.3968 40.9721 91.3266 40.7804 91.6866C39.9164 93.3124 38.9779 95.9132 39.4818 97.6844C40.8224 102.391 41.4341 104.538 45.1734 107.112Z" fill="#F08DAB"/>
<path d="M46.5028 106.627C48.4909 107.828 51.5399 108.953 53.8617 109.042C55.0234 109.086 62.2771 107.255 62.3113 107.235C62.6578 107.033 66.8942 101.498 67.0336 101.065C67.5837 99.3573 66.8976 96.7975 66.2081 95.1401C63.1959 87.9022 54.0601 86.8836 53.9686 86.8759L46.1589 87.9766C46.0083 88.0493 41.647 92.7138 41.5384 92.9173C38.9574 97.7631 42.0217 103.918 46.5028 106.627Z" fill="#F091AE"/>
<path d="M47.832 106.103C54.0463 109.624 61.3975 106.447 61.4617 106.41C63.4507 105.24 65.1026 102.296 65.9017 100.132C66.3568 98.8997 65.8597 97.0088 65.3832 95.7849C62.738 88.9995 54.7872 87.7765 54.7093 87.7713C52.3148 87.6003 48.9202 87.7816 46.7849 88.8772C44.9413 89.8231 43.2441 92.287 42.3099 94.136C40.6673 97.3859 42.5314 103.1 47.832 106.103Z" fill="#F195B1"/>
<path d="M49.1614 105.544C52.5603 107.383 60.5591 105.6 60.613 105.567C62.6362 104.354 63.9639 101.14 64.8964 98.9741C65.2027 98.2634 64.7655 97.1619 64.5525 96.4178C64.0863 94.7886 62.6183 92.8848 61.3436 91.767C59.9183 90.5167 57.564 89.4211 55.7957 88.7352C55.3269 88.5539 47.4761 89.7709 47.4308 89.7966C45.5958 90.8434 44.2989 93.6083 43.0909 95.3402C42.9232 95.5805 42.865 96.0064 42.8976 96.2972C43.0806 97.9658 43.6067 100.254 44.5486 101.643C45.5658 103.144 47.5677 104.681 49.1614 105.544Z" fill="#F198B3"/>
<path d="M49.867 104.524C51.5147 105.544 59.6144 104.63 59.6641 104.601C61.7087 103.407 62.7147 99.9875 63.8337 97.9007C63.9569 97.6706 63.7704 97.2943 63.7199 97.0386C63.3931 95.3769 61.8122 93.5176 60.6025 92.3322C59.6897 91.4368 58.0669 90.7073 56.8538 90.3045C53.8082 89.2944 48.1218 90.6885 48.0859 90.7099C46.5212 91.6139 45.3672 93.9666 44.5065 95.5556C44.2448 96.0388 44.403 96.8428 44.4732 97.3884C44.8864 100.59 45.2132 101.642 49.867 104.524Z" fill="#F29BB5"/>
<path d="M47.0191 100.915C48.6146 101.984 50.8209 103.448 52.6927 103.88C54.4567 104.287 57.1686 104.546 58.7213 103.616C60.3459 102.642 62.0799 100.138 62.038 98.2455C61.9935 96.2451 61.0046 92.9678 58.4638 92.1416C56.799 91.5994 50.0946 90.8186 48.7455 91.614C47.8446 92.1451 46.9028 93.416 46.712 94.4439C46.3835 96.2143 46.5828 98.6483 46.6675 100.447C46.6769 100.622 46.8728 100.817 47.0191 100.915Z" fill="#F29EB8"/>
<path d="M54.7767 102.779C55.6664 102.94 57.0053 103.071 57.7855 102.614C58.5939 102.141 59.3792 100.913 59.4605 99.9807C59.6222 98.1231 59.8737 95.1451 58.5503 93.8315C56.7649 92.0586 52.7706 92.7813 50.2794 92.4212C50.0202 92.3836 49.6378 92.3793 49.4119 92.5127C49.1852 92.6461 48.9397 92.9703 48.9089 93.232C48.6771 95.2024 47.5521 98.1197 48.5505 99.8344C49.589 101.619 52.7432 102.412 54.7767 102.779Z" fill="#F2A1BA"/>
<path d="M56.8508 101.595C56.7285 99.7019 57.6909 96.6957 56.4205 95.288C55.2528 93.9932 52.102 93.1704 50.7076 94.2181C49.586 95.0605 49.6767 97.681 50.4004 98.8826C51.4843 100.679 54.7754 101.278 56.8508 101.595Z" fill="#F3A4BC"/>
<path d="M54.4028 98.7867C54.3643 98.1479 54.6962 97.1387 54.2736 96.658C53.8835 96.215 52.8064 95.9251 52.3402 96.2877C51.9663 96.5785 51.998 97.4594 52.2461 97.8622C52.6157 98.4609 53.7552 98.5096 54.4028 98.7867Z" fill="#F3A6BE"/>
</g>
<mask id="mask1_131_16786" style="mask-type:luminance" maskUnits="userSpaceOnUse" x="0" y="0" width="130" height="130">
<path d="M126.076 87.1871C125.691 88.1672 125.226 89.4954 124.79 90.4533C124.367 91.3804 123.827 92.6273 123.381 93.5424C122.932 94.4618 122.294 95.6677 121.805 96.5657C121.345 97.4107 120.706 98.5242 120.18 99.3289C119.186 100.849 117.83 102.857 116.743 104.312C115.691 105.723 115.375 106.083 112.917 108.886C112.323 109.565 111.475 110.421 110.833 111.055C109.227 112.639 109.227 112.639 106.245 115.201C105.499 115.842 104.462 116.646 103.661 117.216C102.012 118.391 99.7557 119.878 98.0353 120.946C97.0438 121.561 95.657 122.272 94.6279 122.822C92.2051 124.119 88.37 125.667 86.9935 126.134C85.4785 126.647 83.4467 127.303 81.9051 127.73C80.6278 128.083 78.9057 128.493 77.602 128.732C73.156 129.545 70.8359 129.811 66.0571 129.964C63.3453 130.05 59.7163 129.842 57.0258 129.495C54.0752 129.113 50.1494 128.404 47.3023 127.541C44.9198 126.818 41.7279 125.84 39.4772 124.777C37.3205 123.758 34.4606 122.364 32.374 121.208C31.0121 120.455 29.3063 119.265 27.9965 118.423C25.5806 116.872 22.6369 114.383 20.5521 112.409C18.3149 110.291 15.5911 107.201 13.6337 104.823C12.4489 103.384 11.0142 101.342 10.0621 99.7395C8.54785 97.1917 6.66322 93.7092 5.42789 91.016C4.31918 88.5983 3.22757 85.4724 2.18217 81.7264C1.51146 79.3232 0.840765 76.0494 0.560165 73.5709C0.103334 69.535 -0.0951422 67.5304 0.0434468 62.4391C0.0776663 61.1888 0.200856 59.5236 0.342011 58.281C0.52423 56.6791 0.856163 54.5539 1.12051 52.964C1.1265 52.9263 1.85108 48.9042 3.19761 44.8691C3.73914 43.2459 4.55527 41.1129 5.19945 39.5273C5.6041 38.531 6.2115 37.2285 6.69314 36.2663C8.86351 31.9303 10.4393 29.6271 11.4822 28.1031C14.0598 24.3349 17.0454 21.1235 17.0745 21.0918C18.3141 19.7705 20.043 18.0814 21.3588 16.8362C22.0457 16.1862 23.0116 15.3729 23.7464 14.7776C26.3275 12.6857 28.1248 11.3601 31.9557 9.03214C33.8771 7.86474 37.0869 6.23294 39.2633 5.31784C40.3737 4.85088 41.8597 4.24024 42.9975 3.84426C44.5083 3.31829 46.5324 2.62983 48.0859 2.24839C49.3734 1.93196 51.0844 1.47868 52.389 1.24605C54.414 0.885141 57.1293 0.484035 59.1748 0.271936C62.0287 -0.0239762 65.8698 -0.011997 68.7366 0.106881C72.9952 0.283915 77.2221 1.14941 79.0272 1.51802C81.5141 2.02688 84.7667 3.0087 87.1526 3.87506C98.2945 7.91776 105.689 14.0515 109.44 17.5691C114.081 21.9214 117.048 26.0565 117.076 26.0967C120.953 31.5805 121.694 32.8214 124.561 38.9595C125.209 40.3458 125.956 42.2513 126.419 43.7094C127.191 46.146 128.119 49.4301 128.674 51.9257C128.97 53.2565 129.275 55.0525 129.43 56.4063C129.666 58.4666 129.911 61.2256 129.977 63.2987C130.056 65.819 129.852 69.1844 129.648 71.6979C129.519 73.3049 129.129 75.4242 128.87 77.0158C128.645 78.3944 128.211 80.2101 127.841 81.5571C127.372 83.265 126.653 85.5143 126.076 87.1871C124.063 92.7282 117.289 96.5734 105.913 97.6031C117.289 96.5734 124.063 92.7282 126.076 87.1871Z" fill="white"/>
</mask>
<g mask="url(#mask1_131_16786)">
<path d="M126.076 87.1872C124.274 91.761 122.232 96.9454 116.742 104.312C112.811 109.585 107.379 114.564 103.739 117.159C95.8017 122.816 84.3459 129.384 66.0564 129.964C46.9063 130.572 33.1672 121.747 27.9958 118.425C26.4867 117.455 13.0307 108.449 5.42798 91.0186C-6.39914 63.9042 2.75458 36.363 17.0729 21.0953C28.9753 8.40354 41.6117 3.84085 48.0843 2.25011C53.1847 0.99719 68.7042 -2.81631 87.1502 3.87763C97.511 7.63725 104.989 13.3998 109.437 17.5717C118.565 26.1318 122.614 34.7979 124.559 38.962C126.058 42.17 129.586 50.9636 129.973 63.3004C130.337 74.823 127.241 83.8055 126.076 87.1872Z" fill="#BA3365"/>
<path d="M129.715 71.0103C123.141 110.653 36.9446 96.9095 12.5298 61.0896C5.56098 50.8652 4.57291 39.1168 9.95136 30.4293L11.6307 27.891L13.2544 25.6614L15.1134 23.3326C15.7019 22.6612 16.471 21.7521 17.075 21.0944L19.159 18.9255C19.8245 18.2935 20.698 17.4366 21.379 16.8208L23.7469 14.7802C24.522 14.1747 25.5409 13.3502 26.3305 12.7653L29.0621 10.8495C29.9946 10.2654 31.2248 9.46575 32.1735 8.90813L35.3636 7.15918C36.5314 6.60242 38.0781 5.83869 39.2638 5.32128L42.998 3.84769C44.5199 3.35508 46.5449 2.68201 48.0864 2.25182L52.3895 1.24949C54.4196 0.921077 57.1307 0.496879 59.1753 0.275373L63.9275 0.0187988C65.5358 0.0495874 67.6822 0.0470244 69.288 0.144521L74.1591 0.644835C76.6306 1.09041 79.9174 1.74381 82.3539 2.34846L87.1523 3.87934C89.3706 4.78418 92.3177 6.02085 94.4761 7.06082L98.9734 9.58463C100.957 10.9162 103.592 12.7114 105.491 14.161L109.44 17.5734C114.154 22.3508 114.436 22.6373 117.076 26.101L119.929 30.2403C123.215 35.9003 123.279 36.008 124.678 39.2306L126.419 43.7137C127.167 46.158 128.088 49.4421 128.674 51.93L129.431 56.4106C129.633 58.4751 129.884 61.2307 129.977 63.303L129.948 67.5441L129.733 70.8376L129.715 71.0103Z" fill="#BB3467"/>
<path d="M129.864 66.4006C123.118 104.438 42.5379 93.1122 17.7202 59.5125C7.81709 46.105 6.58004 34.3728 14.0459 24.6428L15.9502 22.3525L17.0752 21.0944L19.1592 18.9255C19.8247 18.2935 20.6982 17.4366 21.3791 16.8208L23.7471 14.7802C24.5222 14.1747 25.5411 13.3502 26.3307 12.7653L29.0623 10.8495C29.9948 10.2654 31.2249 9.46575 32.1737 8.90813L35.3638 7.15918C36.5315 6.60242 38.0782 5.83869 39.264 5.32127L42.9982 3.84769C44.5201 3.35508 46.545 2.68201 48.0866 2.25182L52.3897 1.24949C54.4198 0.921077 57.1308 0.496879 59.1755 0.275373L63.9277 0.0187988C65.536 0.0495874 67.6824 0.0470244 69.2882 0.144521L74.1593 0.644835C76.6308 1.09041 79.9176 1.74381 82.354 2.34846L87.1525 3.87934C89.3708 4.78418 92.3179 6.02085 94.4763 7.06082L98.9736 9.58463C100.957 10.9162 103.592 12.7114 105.492 14.161L109.44 17.5734C114.154 22.3508 114.437 22.6373 117.077 26.101L119.929 30.2403C123.216 35.9003 123.279 36.008 124.678 39.2306L126.419 43.7137C127.167 46.158 128.088 49.4421 128.674 51.93L129.431 56.4106C129.633 58.4751 129.884 61.2307 129.977 63.3029L129.864 66.4006Z" fill="#BD3668"/>
<path d="M129.742 59.6571C128.479 97.8742 53.8518 91.6908 23.0285 59.3637C10.3014 46.0152 8.21236 30.7278 17.7057 20.4154L19.8265 18.2704L21.3775 16.8208L23.7455 14.7802C24.5205 14.1747 25.5394 13.3502 26.329 12.7653L29.0606 10.8495C29.9931 10.2654 31.2233 9.46575 32.172 8.90813L35.3621 7.15918C36.5299 6.60242 38.0766 5.83869 39.2623 5.32128L42.9965 3.84769C44.5184 3.35508 46.5433 2.68201 48.0849 2.25182L52.388 1.24949C54.4181 0.921077 57.1291 0.496879 59.1738 0.275373L63.926 0.0187988C65.5343 0.0495874 67.6808 0.0470244 69.2865 0.144521L74.1577 0.644835C76.6292 1.09041 79.9159 1.74381 82.3524 2.34846L87.1508 3.87934C89.3691 4.78418 92.3162 6.02085 94.4746 7.06082L98.9719 9.58463C100.956 10.9162 103.591 12.7114 105.49 14.161L109.439 17.5734C114.153 22.3508 114.435 22.6373 117.075 26.101L119.927 30.2403C123.214 35.9003 123.277 36.008 124.677 39.2306L126.418 43.7137C127.165 46.158 128.087 49.4421 128.673 51.93L129.429 56.4106L129.61 57.9073L129.742 59.6571Z" fill="#BF386A"/>
<path d="M128.945 53.336C133.093 89.9735 68.6065 91.3034 32.7821 63.303C16.2814 50.406 6.30902 31.0733 21.227 16.9559L23.7456 14.7785C24.5206 14.173 25.5395 13.3485 26.3291 12.7636L29.0607 10.8478C29.9932 10.2637 31.2234 9.46405 32.1721 8.90643L35.3622 7.15747C36.53 6.60071 38.0767 5.83699 39.2624 5.31957L42.9966 3.84599C44.5185 3.35338 46.5435 2.68031 48.085 2.25012L52.3881 1.24779C54.4182 0.919376 57.1293 0.495178 59.1739 0.273671L63.9261 0.0170975C65.5344 0.047886 67.6809 0.045323 69.2866 0.14282L74.1578 0.643133C76.6293 1.08871 79.916 1.74211 82.3525 2.34676L87.1509 3.87764C89.3692 4.78248 92.3163 6.01915 94.4747 7.05912L98.972 9.58293C100.956 10.9145 103.591 12.7097 105.49 14.1593L109.439 17.5717C114.153 22.3491 114.435 22.6356 117.075 26.0993L119.927 30.2386C123.214 35.8986 123.277 36.0063 124.677 39.2289L126.418 43.712C127.166 46.1563 128.087 49.4404 128.673 51.9283C128.755 52.3499 128.882 52.9101 128.945 53.336Z" fill="#C13A6B"/>
<path d="M128.418 51.0063C131.799 86.5295 68.9408 87.4822 34.5399 60.1642C14.5566 44.2953 10.6744 26.1942 24.6505 14.049C25.9482 13.0552 27.7225 11.786 29.0605 10.8478C29.993 10.2637 31.2232 9.46405 32.1719 8.90643L35.362 7.15747C36.5298 6.60071 38.0765 5.83699 39.2622 5.31957L42.9964 3.84599C44.5183 3.35338 46.5432 2.68031 48.0848 2.25012L52.3879 1.24779C54.418 0.919375 57.129 0.495178 59.1737 0.273671L63.9259 0.0170975C65.5342 0.047886 67.6806 0.045323 69.2864 0.14282L74.1575 0.643133C76.629 1.08871 79.9158 1.74211 82.3522 2.34676L87.1507 3.87764C89.369 4.78248 92.3161 6.01915 94.4745 7.05912L98.9718 9.58293C100.956 10.9145 103.591 12.7097 105.49 14.1593L109.439 17.5717C114.152 22.3491 114.435 22.6356 117.075 26.0993L119.927 30.2386C123.214 35.8986 123.277 36.0063 124.677 39.2289L126.418 43.712C126.878 45.2173 127.534 47.2117 127.933 48.734L128.418 51.0063Z" fill="#C33C6D"/>
<path d="M126.9 45.1685C135.489 80.6147 79.3385 83.7448 45.3696 64.0222C21.2449 50.0151 8.49042 25.6067 27.957 11.5979L30.7878 9.74029L32.1729 8.90643L35.363 7.15747C36.5307 6.60071 38.0775 5.83699 39.2632 5.31957L42.9974 3.84599C44.5193 3.35338 46.5442 2.68031 48.0858 2.25012L52.3889 1.24779C54.419 0.919376 57.13 0.495178 59.1747 0.273671L63.9269 0.0170975C65.5352 0.047886 67.6816 0.045323 69.2874 0.14282L74.1585 0.643133C76.63 1.08871 79.9168 1.74211 82.3532 2.34676L87.1517 3.87764C89.3699 4.78248 92.3171 6.01915 94.4755 7.05912L98.9728 9.58293C100.957 10.9145 103.592 12.7097 105.491 14.1593L109.44 17.5717C114.153 22.3491 114.436 22.6356 117.076 26.0993L119.928 30.2386C123.215 35.8986 123.278 36.0063 124.678 39.2289L126.419 43.712L126.697 44.5339L126.9 45.1685Z" fill="#C53E6E"/>
<path d="M126.226 43.3494C133.874 77.0834 79.5477 82.3508 42.766 59.1054C23.7322 47.0765 10.1736 22.3516 31.3281 9.41017C32.519 8.70032 34.1478 7.82456 35.3626 7.15747C36.5304 6.60071 38.0771 5.83699 39.2628 5.31957L42.997 3.84599C44.5189 3.35338 46.5438 2.68031 48.0854 2.25012L52.3885 1.24779C54.4186 0.919375 57.1296 0.495178 59.1743 0.273671L63.9265 0.0170975C65.5348 0.047886 67.6812 0.045323 69.287 0.14282L74.1581 0.643133C76.6296 1.08871 79.9164 1.74211 82.3528 2.34676L87.1513 3.87764C89.3696 4.78248 92.3167 6.01915 94.4751 7.05912L98.9724 9.58293C100.956 10.9145 103.591 12.7097 105.49 14.1593L109.439 17.5717C114.153 22.3491 114.435 22.6356 117.075 26.0993L119.928 30.2386C123.214 35.8986 123.278 36.0063 124.677 39.2289C125.184 40.4484 125.862 42.0802 126.226 43.3494Z" fill="#C74070"/>
<path d="M124.074 37.881C136.784 71.5526 88.1723 76.5968 58.9283 64.827C30.0607 53.2086 7.77607 22.8759 34.8206 7.43799L38.1682 5.80363L39.2632 5.31957L42.9974 3.84599C44.5193 3.35338 46.5442 2.68031 48.0858 2.25012L52.3889 1.24779C54.419 0.919375 57.13 0.495178 59.1747 0.273671L63.9269 0.0170975C65.5352 0.047886 67.6816 0.045323 69.2874 0.14282L74.1585 0.643133C76.63 1.08871 79.9168 1.74211 82.3532 2.34676L87.1517 3.87764C89.37 4.78248 92.3171 6.01915 94.4755 7.05912L98.9728 9.58293C100.957 10.9145 103.592 12.7097 105.491 14.1593L109.44 17.5717C114.153 22.3491 114.436 22.6356 117.076 26.0993L119.928 30.2386C121.141 32.328 122.725 35.1366 123.806 37.2969L124.074 37.881Z" fill="#C94271"/>
<path d="M123.17 36.1115C135.564 69.7788 82.8657 74.3791 54.7184 60.6551C29.2009 48.2131 11.3144 18.0395 38.2683 5.7583C39.6687 5.14082 41.5739 4.40788 42.9974 3.84599C44.5193 3.35338 46.5443 2.68031 48.0858 2.25012L52.3889 1.24779C54.419 0.919376 57.1301 0.495178 59.1747 0.273671L63.9269 0.0170975C65.5352 0.047886 67.6816 0.045323 69.2874 0.14282L74.1585 0.643133C76.63 1.08871 79.9168 1.74211 82.3533 2.34676L87.1517 3.87764C89.37 4.78248 92.3171 6.01915 94.4755 7.05912L98.9728 9.58293C100.957 10.9145 103.592 12.7097 105.491 14.1593L109.44 17.5717C114.153 22.3491 114.436 22.6356 117.076 26.0993L119.928 30.2386L121.935 33.6313L123.17 36.1115Z" fill="#CB4473"/>
<path d="M120.407 31.0152C136.399 61.4283 95.3357 71.1882 67.6256 63.3286C32.8192 53.4557 14.8925 19.3104 37.6544 6.24237C38.2362 5.90797 39.599 5.12629 42.0174 4.20605L45.9013 2.87787L48.0845 2.24927L52.3876 1.24693C54.4177 0.918521 57.1287 0.494323 59.1734 0.272817L63.9256 0.016243C65.5339 0.0470315 67.6803 0.0444685 69.2861 0.141966L74.1572 0.642279C76.6287 1.08786 79.9155 1.74126 82.3519 2.34591L87.1504 3.87678C89.3687 4.78163 92.3158 6.0183 94.4742 7.05827L98.9715 9.58208C100.955 10.9137 103.59 12.7088 105.489 14.1585L109.438 17.5708C114.152 22.3482 114.434 22.6347 117.074 26.0984L119.927 30.2378L119.94 30.2583L120.407 31.0152Z" fill="#CD4675"/>
<path d="M119.482 29.6545C134.738 59.2919 95.2207 68.4438 68.8469 61.9311C41.5465 55.1902 14.4721 20.7301 39.0092 5.8883C41.8725 4.15644 45.5998 2.97195 45.7572 2.92234C47.7283 2.35275 50.3906 1.71218 52.389 1.24693C54.4191 0.918521 57.1301 0.494323 59.1747 0.272817L63.9269 0.016243C65.5353 0.0470315 67.6817 0.0444685 69.2874 0.141966L74.1586 0.642279C76.6301 1.08786 79.9169 1.74126 82.3533 2.34591L87.1517 3.87678C89.37 4.78163 92.3172 6.0183 94.4756 7.05827L98.9729 9.58208C100.957 10.9137 103.592 12.7088 105.491 14.1585L109.44 17.5708C114.154 22.3482 114.436 22.6347 117.076 26.0984C117.838 27.1367 118.832 28.5427 119.482 29.6545Z" fill="#CF4876"/>
<path d="M118.475 28.3759C132.349 53.4797 97.462 67.1703 70.0923 60.5653C41.3608 53.6319 18.592 19.7568 40.0767 5.84554C43.6569 3.52785 46.6392 2.70083 50.0928 1.74382L54.4857 0.868916C55.8921 0.688461 57.7622 0.402812 59.1746 0.273671L63.9268 0.0170975C65.5352 0.047886 67.6816 0.045323 69.2873 0.14282L74.1585 0.643133C76.63 1.08871 79.9168 1.74211 82.3532 2.34676L87.1516 3.87764C89.3699 4.78248 92.3171 6.01915 94.4755 7.05912L98.9728 9.58293C100.957 10.9145 103.592 12.7097 105.491 14.1593L109.44 17.5717C111.167 19.3224 113.446 21.6837 115.059 23.5395L115.894 24.5787C116.679 25.7101 117.809 27.17 118.475 28.3759Z" fill="#D14A78"/>
<path d="M117.392 27.1837C130.581 51.5246 95.1761 67.4799 64.8234 57.6054C44.2909 50.926 19.9043 17.2211 43.6929 4.35144C47.5622 2.25782 51.0946 1.54369 54.2102 0.913384L58.7632 0.310446L59.1738 0.271956L63.926 0.0153885C65.5343 0.046177 67.6808 0.0436075 69.2865 0.141105L74.1577 0.641424C76.6292 1.087 79.9159 1.7404 82.3524 2.34505L87.1508 3.87593C89.3691 4.78077 92.3163 6.01744 94.4746 7.05741L98.9719 9.58122C100.956 10.9128 103.591 12.708 105.49 14.1576L109.439 17.57L111.992 20.0964L114.774 23.3052C115.571 24.4615 116.724 25.9496 117.392 27.1837Z" fill="#D34C79"/>
<path d="M116.233 26.0788C128.512 49.2651 94.1635 65.6258 65.8426 56.497C41.8983 48.7785 25.2018 15.7903 45.02 4.35745C50.3976 1.2555 57.2586 0.42165 59.9585 0.206985L64.7227 0.00685883L69.2876 0.14199L74.1588 0.642303C76.6303 1.08788 79.9171 1.74128 82.3535 2.34593L87.1519 3.87681C89.3702 4.78165 92.3174 6.01832 94.4758 7.05829L98.9731 9.5821C100.957 10.9137 103.592 12.7088 105.491 14.1585C106.994 15.4259 108.964 17.1586 110.393 18.5099C113.746 22.255 114.877 23.5173 116.233 26.0788Z" fill="#D54E7B"/>
<path d="M114.997 25.0618C125.65 45.6842 95.9682 64.4036 66.8765 55.4091C44.1761 48.391 27.9039 15.6046 46.7537 4.25563C49.4031 2.66061 55.365 -0.0128611 65.524 0.0085198C68.1195 0.100885 71.5748 0.377986 74.1584 0.64311C76.6299 1.08869 79.9167 1.74209 82.3531 2.34674L87.1515 3.87762C89.3698 4.78246 92.317 6.01912 94.4754 7.05909L98.9727 9.5829C100.382 10.5288 102.293 11.7458 103.66 12.7524L105.066 13.83C107.877 16.2803 112.581 20.3846 114.997 25.0618Z" fill="#D7507C"/>
<path d="M113.635 24.1014C123.978 45.0659 92.01 62.2331 67.7663 54.5C42.396 46.4077 31.4791 12.1709 51.3144 2.90438C53.9476 1.67369 61.4417 -1.01004 74.1166 0.637145L78.9843 1.5112L82.3532 2.34591L87.1517 3.87679C89.3699 4.78163 92.3171 6.0183 94.4755 7.05827C95.7673 7.74417 97.4663 8.7029 98.7298 9.4384C103.034 12.3471 110.238 17.2159 113.635 24.1014Z" fill="#D9527E"/>
<path d="M109.734 19.3668C124.601 40.1021 93.9128 58.417 75.5788 55.1893C39.6595 48.8648 37.4899 13.3246 50.0836 4.6234C64.5002 -5.33841 97.949 2.92917 109.734 19.3668Z" fill="#DA5380"/>
<path d="M108.208 18.5621C120.668 36.1406 97.9501 56.9896 76.2909 54.2178C42.3503 49.874 39.7307 13.8206 51.9018 5.01167C65.4604 -4.80133 97.0339 2.79747 108.208 18.5621Z" fill="#DC5581"/>
<path d="M106.529 17.8334C117.579 33.8742 98.0542 55.9821 75.347 53.1401C43.9317 49.2086 42.6323 14.7956 53.8315 5.56072C66.6407 -5.00061 97.0841 4.12306 106.529 17.8334Z" fill="#DE5783"/>
<path d="M104.568 17.1637C115.344 33.0685 95.647 58.1424 70.9722 51.4262C43.9336 44.066 45.3015 12.1871 58.8636 4.50532C72.1741 -3.03445 96.6753 5.51449 104.568 17.1637Z" fill="#E05984"/>
<path d="M102.507 16.6429C110.599 28.7103 98.6962 43.2177 98.5705 43.3563C91.9746 50.6677 81.9637 53.4096 71.7911 50.6899C55.0783 46.2213 52.3639 34.7509 51.4716 30.9818C50.4313 26.5851 52.1149 10.953 61.0676 5.37517C71.7894 -1.30338 94.6386 4.90992 102.507 16.6429Z" fill="#E25B86"/>
<path d="M99.9638 16.2255C106.442 26.3259 101.841 55.2577 72.6198 49.9638C62.0802 48.054 55.3107 40.4356 54.0549 35.8874C53.0035 32.0816 51.8118 27.7678 53.5826 20.7942C53.9034 19.5293 58.358 10.1097 61.0835 8.20936C76.2291 -2.34854 95.4468 9.18262 99.9638 16.2255Z" fill="#E45D87"/>
<path d="M97.1051 16.0177C103.45 25.7178 102.661 53.277 73.4808 49.2275C56.2487 46.8354 44.8605 26.9673 63.1628 10.0379C72.4448 1.45219 90.7352 6.27915 97.1051 16.0177Z" fill="#E65F89"/>
<path d="M96.447 20.3102C105.058 39.6112 87.4918 55.6118 67.5289 46.6489C63.4551 44.8205 54.1217 39.3085 55.4247 27.6524C57.0817 12.8303 71.6404 8.59089 71.7867 8.55497C83.7182 5.61124 93.5555 13.8292 96.447 20.3102Z" fill="#E8618A"/>
<path d="M95.0615 24.0073C102.476 40.0122 85.6725 53.8038 68.2249 46.0323C57.7101 41.349 56.7425 33.5663 56.7416 33.4919C56.6783 29.5972 56.7143 24.7471 57.2472 23.761C58.4312 21.569 61.2047 16.4368 67.6902 13.2288C74.4913 9.86512 81.0538 11.1813 85.3603 12.8773C90.9192 15.0667 93.8219 21.3321 95.0615 24.0073Z" fill="#EA638C"/>
<path d="M94.2777 25.5827C99.3045 37.9528 88.4629 52.6928 68.9424 45.4105C53.6993 39.724 54.0364 19.6011 69.4582 14.651C80.5924 11.0778 91.0105 17.5426 94.2777 25.5827Z" fill="#ED769A"/>
<path d="M92.8327 25.9111C96.6926 34.5353 91.049 41.2686 90.9848 41.3208C87.0453 44.5322 81.0278 48.9102 69.6806 44.7845C63.2131 42.4335 59.1401 37.5732 58.7859 31.7841C58.6713 29.9136 58.3163 27.1418 59.3232 25.5613C63.1404 19.5636 63.1404 19.5636 67.9987 17.3109C78.765 12.318 89.7195 18.9546 92.8327 25.9111Z" fill="#EE7DA0"/>
<path d="M92.8284 31.5052C92.8404 31.6771 93.0842 35.7762 90.4262 40.3466C89.4595 42.0092 87.2002 43.6743 85.3823 44.3064C85.3301 44.3243 78.1158 45.809 77.8754 45.7723C73.5209 45.1052 69.0185 44.4158 64.9917 41.183C57.7817 35.3948 60.1976 26.4584 60.2249 26.3703C60.2549 26.2763 64.9105 20.3606 65.0148 20.2845C65.6017 19.8534 71.7723 17.4399 72.5174 17.3501C75.3962 17.0021 79.3374 17.6401 82.1194 18.4594C84.0563 19.0298 86.2566 20.7309 87.9128 21.8855C91.6273 24.4743 92.7352 30.1317 92.8284 31.5052Z" fill="#EE83A4"/>
<path d="M90.302 27.9602C90.6827 29.1473 91.693 30.6474 91.6451 31.8926C91.6426 31.955 90.6562 38.7302 89.8606 39.3793C88.3506 40.61 86.7723 43.109 84.8705 43.5341C76.5509 45.3959 76.3918 45.431 71.1708 43.5614C63.9196 40.9649 62.1565 36.2098 62.1462 36.1645C60.5712 29.3765 60.5712 29.3765 61.1273 27.1931C61.7005 24.9404 64.0651 22.4764 65.9702 21.1431C66.0301 21.1012 72.0836 16.955 80.061 19.1897C83.4821 20.1493 88.9444 23.7302 90.302 27.9602Z" fill="#EF88A8"/>
<path d="M90.5075 32.2963C90.593 34.135 90.1422 36.7067 89.2097 38.2941C88.9727 38.6977 84.6611 42.6695 84.3531 42.7678C73.8314 46.1212 68.2708 41.4892 66.4426 39.9669C65.1371 38.879 63.5519 37.0916 62.9625 35.4974C62.9436 35.4461 61.5269 29.226 62.0274 28.0329C62.9274 25.8863 64.8719 23.2 66.8276 21.9385C68.9483 20.571 72.4199 19.8791 74.9376 19.7046C78.4151 19.4626 90.0703 22.916 90.5075 32.2963Z" fill="#F08DAB"/>
<path d="M89.3679 32.7291C89.4312 34.0564 89.1318 35.9217 88.4508 37.0626L83.8303 42.0033C83.6874 42.046 76.0967 43.1159 76.0205 43.104C74.3763 42.844 70.2238 41.9605 67.1722 39.3717C65.877 38.2727 64.4167 36.4143 63.7819 34.8398C63.1104 33.1755 62.1899 30.538 62.9555 28.9147C63.4226 27.9244 67.653 22.7621 67.6787 22.7467C69.8183 21.4263 73.3668 21.2321 75.8657 20.9499C78.6221 20.6386 88.965 24.3135 89.3679 32.7291Z" fill="#F091AE"/>
<path d="M88.2298 33.1918C88.2683 34.0034 88.1169 35.1588 87.6806 35.8447C86.5701 37.5937 85.2031 40.5537 83.2055 41.1036C80.8914 41.7407 77.6542 42.5686 75.2803 42.2094C72.0354 41.7185 67.9393 38.8167 67.9068 38.7884C63.2307 34.7466 64.0135 29.9958 64.0255 29.9521C64.6705 27.7003 66.7553 25.1029 68.5279 23.5721C69.4672 22.7613 71.3202 22.7775 72.5478 22.5937C75.424 22.1626 79.7468 22.2499 82.1567 23.8782C84.3347 25.3484 87.9774 27.8106 88.2298 33.1918Z" fill="#F195B1"/>
<path d="M87.0908 33.6826C87.1045 33.9751 87.0652 34.3993 86.8975 34.6397C85.6896 36.3724 84.3884 39.1296 82.5576 40.1833C82.508 40.2115 74.3903 41.3481 74.1935 41.2446C72.515 40.362 69.9058 39.6308 68.6457 38.2128C65.0047 34.1162 64.8345 32.2099 65.0928 31.0057C65.5882 28.7 67.3505 25.6212 69.3771 24.4136C69.4302 24.3819 77.482 22.686 80.8278 24.4367C82.3087 25.2124 86.8145 27.5703 87.0908 33.6826Z" fill="#F198B3"/>
<path d="M85.515 32.5923C85.592 33.137 85.7434 33.9418 85.4816 34.4259C84.6219 36.0158 83.4541 38.3446 81.9031 39.2717C81.4146 39.5641 75.0806 40.5648 73.1344 39.6762C71.9718 39.1451 70.2505 38.59 69.3856 37.6484C69.3497 37.6091 65.9004 33.3141 66.1553 32.08C66.6327 29.7614 68.2769 26.568 70.3258 25.3809C72.6784 24.0176 76.9293 23.9193 79.3863 25.0858C84.8152 27.6635 85.0633 29.4142 85.515 32.5923Z" fill="#F29BB5"/>
<path d="M83.3208 29.533C83.5937 31.3136 83.6895 33.7836 83.2772 35.5377C83.0376 36.5545 82.1445 37.8357 81.2437 38.3668C80.3394 38.8996 78.8175 38.8354 77.7695 38.779C75.8781 38.6764 73.2201 38.6849 71.5253 37.8391C67.5567 35.8592 67.946 31.7746 67.9528 31.7353C68.289 29.8726 69.6287 27.312 71.2687 26.3661C72.8368 25.4621 75.5461 25.6417 77.2964 26.1018C77.3538 26.1164 83.2105 28.8138 83.3208 29.533Z" fill="#F29EB8"/>
<path d="M81.0804 36.7495C80.9957 36.9984 80.8041 37.3345 80.5783 37.4679C80.3533 37.6005 79.97 37.5962 79.7117 37.5595C77.2205 37.2003 73.2305 37.9187 71.4416 36.1492C70.1156 34.8381 70.3697 31.8576 70.5323 30C70.6135 29.0678 71.3989 27.8405 72.2065 27.3676C72.9867 26.9109 74.3486 26.9417 75.2144 27.2025C77.1931 27.7978 80.4149 28.3537 81.4397 30.1471C82.4236 31.8696 81.7186 34.8714 81.0804 36.7495Z" fill="#F2A1BA"/>
<path d="M79.2808 35.7626C77.906 36.8342 74.7501 35.9747 73.5696 34.6927C72.2855 33.2987 73.253 30.2814 73.1333 28.3896C75.0795 29.1782 78.5117 29.2953 79.5879 31.099C80.3057 32.3032 80.3869 34.9006 79.2808 35.7626Z" fill="#F3A4BC"/>
<path d="M77.6491 33.6921C77.1829 34.0547 76.1067 33.7648 75.7166 33.3217C75.2948 32.842 75.6259 31.8328 75.5874 31.1948C76.2342 31.4719 77.3728 31.5206 77.7424 32.1184C77.9913 32.5212 78.0221 33.4021 77.6491 33.6921Z" fill="#F3A6BE"/>
</g>
</g>
<g filter="url(#filter0_d_131_16786)">
<mask id="mask2_131_16786" style="mask-type:luminance" maskUnits="userSpaceOnUse" x="9" y="9" width="112" height="113">
<path d="M70.01 120.748C67.7068 120.96 64.6075 121.097 62.3013 120.917C56.6431 120.474 56.6431 120.474 51.2362 119.279C49.2675 118.843 46.6997 118.003 44.8335 117.241C42.3858 116.243 39.2121 114.691 36.8912 113.427C33.8509 111.771 28.4757 107.76 25.9506 105.125C24.1191 103.214 21.7104 100.618 20.1258 98.4974C18.3458 96.1152 16.756 93.5938 15.3984 91.0024C14.3452 88.9909 13.065 86.2307 12.3434 84.0778C11.9528 82.9114 11.3993 81.364 11.0882 80.1733C10.6173 78.3703 10.0696 75.9432 9.73871 74.1085C9.32818 71.8369 9.05474 68.7563 9.01125 66.4478C8.98325 64.9742 9.02673 63.0076 9.10044 61.5354C9.15424 60.4663 9.32154 59.0479 9.43578 57.9839C9.43947 57.95 9.8957 54.2261 10.8509 50.7189C11.2519 49.2482 11.8739 47.3103 12.3707 45.8691C12.6832 44.9628 13.163 43.7773 13.5462 42.8982C14.9783 39.612 17.4142 34.606 22.0207 29.0998C24.192 26.5047 26.1872 24.5867 27.4785 23.4358C28.6953 22.3512 30.3942 20.9925 31.684 19.9956C32.4166 19.429 33.4345 18.7268 34.2143 18.2279C35.0766 17.6768 36.219 16.9253 37.1197 16.4389C38.8045 15.5297 41.0805 14.367 42.8266 13.5815C44.0478 13.0326 45.7283 12.4203 46.9923 11.9804C48.0094 11.6268 49.3921 11.2355 50.4269 10.9371C52.0838 10.4596 54.3384 9.96375 56.0468 9.73018C58.4886 9.3964 61.8318 8.93957 64.5463 9.00662C66.6587 9.05893 69.4904 9.06335 71.5784 9.38313C72.838 9.57618 74.531 9.76481 75.7766 10.0374C77.7533 10.4692 80.3735 11.1287 82.306 11.7277C84.8149 12.5058 88.0335 13.9279 90.3943 15.0795C92.228 15.974 94.5954 17.343 96.253 18.5323C97.3512 19.3192 98.8348 20.3448 99.8836 21.1966C101.173 22.2444 102.837 23.7114 104.041 24.8571C105.959 26.6815 108.211 29.4181 109.865 31.4841C110.725 32.5584 111.725 34.1035 112.46 35.2677C113.145 36.3538 113.982 37.8488 114.593 38.9791C115.671 40.9773 116.831 43.7854 117.648 45.9045C118.526 48.1827 119.322 51.3547 119.857 53.7369C120.255 55.5089 120.58 57.9169 120.751 59.725C121.139 63.8314 121.073 67.9612 120.555 71.9998C120.167 75.0274 119.802 76.5327 119.14 79.2648C118.781 80.7466 118.101 82.6675 117.62 84.1146C119.777 78.1795 115.594 69.986 104.806 61.3873C85.336 45.8691 51.7322 34.9044 29.7463 36.8946C51.7322 34.9037 85.336 45.8691 104.806 61.3873C115.594 69.986 119.778 78.1795 117.62 84.1146C116.152 88.1354 114.75 90.707 113.913 92.2425C113.523 92.9579 112.981 93.9011 112.535 94.5826C111.678 95.892 110.51 97.6213 109.574 98.8754C109.552 98.9048 107.318 101.887 104.472 104.694C102.045 107.087 100.69 108.154 98.3101 109.986C97.3342 110.737 94.8364 112.435 92.8744 113.543C92.0519 114.007 90.9493 114.618 90.1009 115.033C88.9666 115.589 87.4498 116.329 86.2691 116.778C85.2903 117.15 83.9983 117.683 83.001 118.001C81.4363 118.501 79.3313 119.114 77.7349 119.504C75.4538 120.062 72.3471 120.532 70.01 120.748Z" fill="white"/>
</mask>
<g mask="url(#mask2_131_16786)">
<path d="M70.0101 120.748C85.0523 119.36 95.3451 112.254 98.1414 110.11C109.068 101.729 113.806 93.7227 117.559 84.2803C119.776 78.1801 115.592 69.9867 104.804 61.3879C115.592 69.9867 119.776 78.1801 117.619 84.1152C119.512 78.4137 123.451 66.5509 118.902 49.8095C114.689 34.3105 104.887 25.5872 100.701 21.8626C99.4924 20.7868 88.4044 11.2973 71.5778 9.38376C57.7134 7.8077 46.6947 11.5397 39.8925 14.949C29.9071 19.9527 21.4496 28.0475 16.0774 37.7404C7.98838 52.3361 8.89788 65.3565 9.23987 70.2578C9.89288 79.6081 14.3048 91.1349 19.9704 98.2887C23.1529 102.307 31.6068 112.983 47.0912 118.058C49.9214 118.985 58.5322 121.807 70.0101 120.748Z" fill="#BB3467"/>
<path d="M112.539 94.576C113.331 93.2719 114.149 91.9235 115.225 89.7388L116.445 87.0862C116.799 86.1954 117.291 85.0158 117.62 84.1161C119.776 78.181 115.593 69.9875 104.805 61.3888C99.9285 57.5021 94.1656 53.9012 87.9199 50.7174C88.2553 50.9016 88.7027 51.147 89.038 51.3312C122.179 71.0891 116.429 88.2909 112.418 94.7698C112.454 94.7116 112.504 94.635 112.539 94.576Z" fill="#BB3467"/>
<path d="M68.0152 42.5099L70.6634 43.2379C78.3293 45.7571 81.0261 46.8211 87.9204 50.7167C94.1653 53.8997 99.9282 57.5013 104.805 61.3881C115.593 69.9868 119.777 78.1802 117.62 84.1153C117.92 83.212 118.32 82.0073 118.62 81.1039L119.139 79.2656L119.895 76.0221C120.1 74.8166 120.393 73.2126 120.554 72.0005L120.89 68.449C120.933 66.9754 121 65.0103 120.979 63.5359L120.75 59.7258C120.517 57.9243 120.186 55.5237 119.856 53.7376L118.902 49.8096C118.219 47.6846 117.237 44.8722 116.414 42.7966L114.592 38.9798C111.816 34.1499 111.708 33.9613 109.865 31.4849L107.1 28.0741C103.178 23.9501 102.858 23.6134 99.884 21.1973L96.2533 18.533C94.5176 17.4609 92.1923 16.0455 90.3946 15.0802L86.3984 13.2375C84.4792 12.5294 81.9098 11.6091 79.9508 11.0204L75.777 10.0374C73.6602 9.70734 70.8277 9.31535 68.694 9.12156L64.5467 9.00735C63.1766 9.06998 61.3472 9.11715 59.9815 9.23504L56.0472 9.73092C54.3557 10.0647 52.1003 10.5178 50.4273 10.9378L46.9927 11.9812C45.739 12.4505 44.0607 13.0628 42.8269 13.5823L39.8935 14.9491C38.9383 15.4619 37.6559 16.1287 36.7176 16.6725L34.2139 18.2279C33.454 18.757 32.4288 19.4459 31.6836 19.9956L29.5219 21.6792C28.8903 22.2223 28.036 22.9318 27.4177 23.4903L25.5213 25.2882C24.9773 25.8533 24.2396 26.5946 23.7096 27.1722L22.0203 29.0998C21.5398 29.7017 20.8846 30.4938 20.418 31.1069L18.896 33.2053C18.4627 33.8655 17.8693 34.7365 17.4522 35.407L16.0783 37.7397C15.684 38.4913 15.1408 39.4838 14.7664 40.2449L13.5466 42.8975C13.1928 43.7883 12.6997 44.968 12.371 45.8684L11.3709 48.8798L10.8513 50.7181L10.0958 53.9616C9.89018 55.1671 9.59756 56.7711 9.43615 57.9832C9.37202 58.5749 9.2858 59.3647 9.22168 59.9564C9.2261 59.9107 9.23125 59.8503 9.23567 59.8046C12.3556 41.0053 37.0758 33.7314 68.0152 42.5099Z" fill="#BB3467"/>
<path d="M9.01248 66.4486C9.12524 69.1424 9.21515 71.2703 10.135 76.2461L11.0894 80.1741C11.7727 82.2991 12.7544 85.1115 13.5777 87.1864L15.3996 91.0032C18.2299 95.9281 18.2837 96.0217 20.127 98.4981L22.8931 101.909C26.8149 106.034 27.1348 106.37 30.1102 108.787L33.7408 111.451L36.8924 113.428L40.8053 115.501C42.6745 116.309 45.1775 117.367 47.093 118.059L51.2381 119.28C53.2959 119.716 56.0502 120.26 58.1316 120.567L62.3033 120.918C64.6161 120.94 67.7028 120.885 70.012 120.749L73.9463 120.254C75.6385 119.92 77.8938 119.467 79.5662 119.047L83.0008 118.003C84.2545 117.534 85.9327 116.921 87.1673 116.402L90.1007 115.035C91.0559 114.522 92.3383 113.855 93.2766 113.312L95.7803 111.756C96.5402 111.227 97.5654 110.539 98.3105 109.989L100.472 108.305C101.104 107.762 101.958 107.053 102.576 106.494L104.472 104.697C105.016 104.132 105.753 103.391 106.284 102.813L107.973 100.885L108.893 99.7559L109.291 99.2364C128.053 70.6197 73.5947 37.1849 33.3804 44.1125C24.6443 45.6171 9.86228 50.4934 9.00879 66.2437C9.011 66.3041 9.01027 66.3867 9.01248 66.4486Z" fill="#BD3668"/>
<path d="M10.1345 76.2461C11.2526 80.846 11.5526 82.0832 13.5772 87.1864L15.3992 91.0031C18.2294 95.928 18.2832 96.0216 20.1266 98.4981L22.8927 101.909C26.8144 106.034 27.1343 106.37 30.1097 108.787L33.7404 111.451L36.892 113.428L40.8049 115.501C42.674 116.309 45.177 117.367 47.0926 118.059L51.2377 119.28C53.2955 119.716 56.0498 120.26 58.1312 120.567L62.3028 120.918C64.6157 120.94 67.7024 120.885 70.0115 120.749L73.9458 120.254C75.6381 119.92 77.8934 119.467 79.5657 119.047L83.0003 118.003C84.254 117.534 85.9323 116.921 87.1668 116.402L90.1002 115.035C91.0554 114.522 92.3379 113.855 93.2761 113.312L95.7798 111.756C96.5397 111.227 97.5649 110.539 98.3101 109.989L100.472 108.305C101.103 107.762 101.958 107.053 102.575 106.494L104.472 104.697L105.739 103.397L106.075 103.032C125.303 79.2921 81.8646 43.7095 37.7233 47.0414C34.6801 47.2713 8.02512 49.898 9.32821 71.0979L9.88688 74.9537L10.1345 76.2461Z" fill="#BF386A"/>
<path d="M10.1346 76.2461C11.2409 81.2956 12.3752 84.1566 13.5773 87.1865L15.3993 91.0032C18.2295 95.9281 18.2833 96.0217 20.1266 98.4982L22.8927 101.909C26.8145 106.034 27.1344 106.37 30.1098 108.787L33.7405 111.451L36.892 113.428L40.805 115.501C42.6741 116.309 45.1771 117.367 47.0927 118.059L51.2377 119.28C53.2956 119.716 56.0499 120.26 58.1313 120.567L62.3029 120.918C64.6157 120.94 67.7025 120.885 70.0116 120.749L73.9459 120.254C75.6381 119.92 77.8935 119.467 79.5658 119.047L83.0004 118.003C84.2541 117.534 85.9324 116.921 87.1669 116.402L90.1003 115.035C91.0555 114.522 92.338 113.855 93.2762 113.312L95.7799 111.757C96.5398 111.227 97.565 110.539 98.3102 109.989L100.472 108.305C101.104 107.762 101.958 107.053 102.575 106.494L104.063 105.022C123.667 83.1089 84.3057 49.1568 40.25 49.9777C23.3777 50.2923 7.01989 59.2476 9.93561 75.2249C9.99458 75.5307 10.0675 75.9411 10.1346 76.2461Z" fill="#C13A6B"/>
<path d="M13.577 87.1857C15.1446 90.4697 16.9216 94.1914 20.1263 98.4974L22.8924 101.908C26.8142 106.033 27.134 106.37 30.1095 108.786L33.7401 111.451L36.8917 113.427L40.8046 115.5C42.6737 116.309 45.1767 117.366 47.0923 118.059L51.2374 119.279C53.2952 119.716 56.0495 120.259 58.1309 120.566L62.3025 120.917C64.6154 120.94 67.7021 120.884 70.0112 120.749L73.9455 120.253C75.6378 119.919 77.8931 119.466 79.5654 119.046L83 118.003C84.2537 117.533 85.932 116.92 87.1665 116.401L90.0999 115.035C91.0551 114.521 92.3376 113.854 93.2758 113.311L95.7796 111.756C96.5394 111.227 97.5647 110.538 98.3098 109.988C99.2112 109.298 100.385 108.339 101.246 107.599C119.545 88.4722 89.3172 54.1871 42.7976 52.7769C28.16 52.3333 6.52129 59.0597 10.7733 78.9989L11.9378 82.9136C12.4235 84.1964 13.0117 85.9346 13.577 87.1857Z" fill="#C33C6D"/>
<path d="M13.5764 87.1858C15.1441 90.4698 16.9211 94.1915 20.1257 98.4975L22.8918 101.908C26.8136 106.033 27.1335 106.37 30.1089 108.786L33.7395 111.451L36.8911 113.427L40.804 115.5C42.6732 116.309 45.1761 117.366 47.0917 118.059L51.2368 119.28C53.2946 119.716 56.0489 120.26 58.1303 120.566L62.302 120.918C64.6148 120.94 67.7015 120.884 70.0106 120.749L73.9449 120.253C75.6372 119.919 77.8925 119.466 79.5649 119.046L82.9995 118.003C84.2532 117.533 85.9314 116.92 87.1659 116.402L90.0993 115.035C91.0545 114.521 92.337 113.854 93.2753 113.311L95.779 111.756L96.9074 110.993L97.6164 110.483C118.878 92.9404 91.9854 60.8643 51.9421 56.0049C24.0209 52.6163 6.02984 64.5543 11.837 82.6175L13.2816 86.491L13.5764 87.1858Z" fill="#C53E6E"/>
<path d="M13.5768 87.1857C16.0098 92.6404 18.7243 96.6141 20.1261 98.4974L22.8923 101.908C26.814 106.033 27.1339 106.37 30.1093 108.786L33.74 111.451L36.8916 113.427L40.8045 115.5C42.6736 116.309 45.1766 117.366 47.0922 118.059L51.2373 119.279C53.2951 119.716 56.0494 120.259 58.1308 120.566L62.3024 120.917C64.6152 120.94 67.702 120.884 70.0111 120.749L73.9454 120.253C75.6376 119.919 77.893 119.466 79.5653 119.046L82.9999 118.003C84.2536 117.533 85.9319 116.92 87.1664 116.401L90.0998 115.035C91.055 114.521 92.3375 113.854 93.2757 113.311C94.0024 112.878 94.9414 112.252 95.6453 111.784C117.654 94.9931 88.7827 63.6575 55.2799 58.9301C24.8056 54.63 6.22782 66.4162 12.9857 85.7622C13.1626 86.1888 13.3881 86.7635 13.5768 87.1857Z" fill="#C74070"/>
<path d="M20.1265 98.4982C23.0202 102.066 25.305 104.884 30.1097 108.787L33.7404 111.452L36.892 113.428L40.8049 115.501C42.674 116.309 45.177 117.367 47.0926 118.059L51.2377 119.28C53.2955 119.716 56.0498 120.26 58.1312 120.567L62.3028 120.918C64.6156 120.94 67.7024 120.885 70.0115 120.749L73.9458 120.254C75.638 119.92 77.8934 119.467 79.5657 119.047L83.0003 118.003C84.254 117.534 85.9323 116.921 87.1668 116.402L90.1002 115.035L90.9942 114.577L92.657 113.627C114.721 98.3051 92.0747 67.2724 54.1939 60.9202C28.3187 56.5811 4.76594 68.0733 14.329 88.8517L16.2858 92.6272C17.3943 94.4147 18.8537 96.8219 20.1265 98.4982Z" fill="#C94271"/>
<path d="M20.1262 98.4982C23.0198 102.066 25.3046 104.884 30.1093 108.787L33.74 111.452L36.8916 113.428L40.8045 115.501C42.6736 116.309 45.1766 117.367 47.0922 118.059L51.2373 119.28C53.2951 119.716 56.0494 120.26 58.1308 120.567L62.3024 120.918C64.6153 120.94 67.702 120.885 70.0111 120.749L73.9454 120.254C75.6377 119.92 77.893 119.467 79.5653 119.047L82.9999 118.003C84.2536 117.534 85.9319 116.921 87.1664 116.402C87.4767 116.265 87.8909 116.085 88.1998 115.944C113.686 102.879 90.9961 74.8756 69.0743 66.6557C39.3732 55.5186 4.26731 66.6218 14.8202 89.7499C15.1342 90.4381 15.6044 91.3318 15.9405 92.0097L18.1561 95.6879L20.1262 98.4982Z" fill="#CB4473"/>
<path d="M20.126 98.4981C23.0196 102.066 25.3044 104.884 30.1092 108.787L33.7398 111.451L36.8914 113.428L40.8043 115.501C42.6735 116.309 45.1764 117.367 47.092 118.059L51.2371 119.28C53.2949 119.716 56.0492 120.26 58.1306 120.567L62.3023 120.918C64.6151 120.94 67.7018 120.885 70.0109 120.749L73.9452 120.254C75.6375 119.92 77.8928 119.467 79.5652 119.047L82.9998 118.003L84.793 117.361L87.0144 116.417C111.255 103.686 88.5261 75.5262 67.8927 68.1462C36.5398 56.9332 6.22619 70.1688 15.5777 90.9892C16.4953 93.0324 17.3407 94.3999 17.6591 94.9142L20.1149 98.4812L20.126 98.4981Z" fill="#CD4675"/>
<path d="M20.1261 98.4981C22.3601 101.391 25.2935 104.875 30.1093 108.787L33.74 111.451L36.8915 113.428L40.8045 115.501C42.6736 116.309 45.1766 117.367 47.0921 118.059L51.2372 119.28C53.295 119.716 56.0494 120.26 58.1307 120.567L62.3024 120.918C64.6152 120.94 67.7019 120.885 70.0111 120.749L73.9454 120.254C75.6376 119.92 77.8929 119.467 79.5653 119.047C80.2478 118.849 81.161 118.596 81.8391 118.382C110.121 107.991 88.8726 79.4468 71.6871 71.4921C44.8847 59.0862 8.37332 68.6524 16.1918 91.5852C16.9156 93.7088 18.0381 95.4123 19.591 97.7701C19.751 97.9882 19.9603 98.2837 20.1261 98.4981Z" fill="#CF4876"/>
<path d="M21.8636 100.703C25.411 104.653 26.1488 105.474 30.1096 108.787L33.7403 111.451L36.8919 113.428L40.8048 115.501C42.6739 116.309 45.1769 117.367 47.0925 118.059L51.2376 119.28C53.2954 119.716 56.0497 120.26 58.1311 120.567L62.3027 120.918C64.6155 120.94 67.7023 120.885 70.0114 120.749L73.9457 120.254C75.1132 120.023 76.6779 119.754 77.8365 119.483L80.5105 118.742C109.623 107.751 85.3904 77.7263 66.0086 70.3832C44.1053 62.0851 7.82013 72.5855 17.5196 93.7382C18.023 94.8383 19.3651 97.7642 21.8636 100.703Z" fill="#D14A78"/>
<path d="M24.506 103.67C26.1437 105.251 28.3688 107.32 30.109 108.787L33.7396 111.451L36.8912 113.428L40.8041 115.501C42.6732 116.309 45.1762 117.367 47.0918 118.059L51.2369 119.28C53.2947 119.716 56.049 120.26 58.1304 120.567L62.302 120.918C64.6149 120.94 67.7016 120.885 70.0107 120.749L73.945 120.254L74.2878 120.197L77.0819 119.601C104.491 111.798 88.8111 83.153 70.0321 73.4579C50.2684 63.2544 11.6402 71.6262 18.0827 93.6336C18.9148 96.477 21.7362 100.886 24.506 103.67Z" fill="#D34C79"/>
<path d="M25.886 105.038L27.7242 106.776C29.4717 108.249 31.8973 110.099 33.7406 111.451L36.8922 113.428L40.8051 115.501C42.6743 116.309 45.1773 117.367 47.0928 118.059L51.2379 119.28C53.2957 119.716 56.05 120.26 58.1314 120.567L62.3031 120.918C64.4176 120.939 67.2398 120.917 69.3521 120.805L72.7042 120.409C103.953 113.856 85.3141 84.9022 73.6704 76.9048C51.4141 61.6172 15.7326 74.5742 18.5156 91.8335C19.2696 96.5153 21.7498 100.958 25.886 105.038Z" fill="#D54E7B"/>
<path d="M26.9296 105.925C29.1105 108.027 30.306 108.942 31.6901 110.002L35.3974 112.527L36.8907 113.427L40.8036 115.5C42.6727 116.309 45.1757 117.366 47.0913 118.059L51.2364 119.279C53.2942 119.716 56.0485 120.259 58.1299 120.566L62.3015 120.917L64.7795 120.979H64.9659C105.51 119.203 80.8579 84.6834 76.7807 80.8225C56.86 61.9576 18.1323 73.7703 19.787 92.6831C20.3353 98.9505 24.9647 104.031 26.9296 105.925Z" fill="#D7507C"/>
<path d="M28.0579 106.753C30.681 109.264 33.0358 111.167 37.96 114.033L41.9083 116.015C43.4568 116.645 45.5139 117.507 47.0919 118.059L51.237 119.279C52.9439 119.641 55.2192 120.136 56.9424 120.408L60.8826 120.819C97.5355 122.806 85.1112 90.7232 76.0103 81.6728C57.6529 63.4173 20.2453 75.0561 21.1562 93.4325C21.4709 99.7957 26.087 104.868 28.0579 106.753Z" fill="#D9527E"/>
<path d="M32.9294 110.663C50.9036 123.86 87.0383 127.732 83.3752 100.833C79.1778 70.0111 40.8327 64.8047 25.5008 86.4695C17.403 97.9116 29.1396 107.88 32.9294 110.663Z" fill="#DA5380"/>
<path d="M34.274 111.337C44.3721 118.63 84.0734 132.505 81.4849 99.4303C79.772 77.5466 49.2668 64.1092 30.9344 83.1015C21.1886 93.1989 22.3118 102.699 34.274 111.337Z" fill="#DC5581"/>
<path d="M35.816 111.968C47.0514 119.737 82.6967 130.585 79.6955 98.0421C77.4962 74.1934 44.2786 66.3388 30.3309 86.3686C20.0809 101.088 31.9237 109.277 35.816 111.968Z" fill="#DE5783"/>
<path d="M37.5463 112.518C51.0489 121.553 64.8234 119.791 68.3133 118.127C81.8549 111.67 77.6803 93.5843 77.6316 93.4052C72.4097 73.9774 43.7972 69.2846 32.6082 86.02C29.9585 89.9842 21.8946 102.047 37.5463 112.518Z" fill="#E05984"/>
<path d="M39.3652 112.941C47.278 118.272 60.4327 120.475 66.4329 117.474C78.9825 111.198 76.6792 94.4604 76.6409 94.299C71.5782 72.9488 42.7394 72.4537 34.5531 85.5875C27.5306 96.8543 29.1498 106.058 39.3652 112.941Z" fill="#E25B86"/>
<path d="M41.8531 113.289C47.4951 116.559 58.4416 120.987 68.3636 113.913C70.8858 112.115 78.7256 100.47 74.4221 90.0667C72.8168 86.1858 67.2669 77.1804 50.4477 77.3683C45.1985 77.4265 38.0662 79.7556 33.8975 90.5183C31.7513 96.057 29.9315 106.381 41.8531 113.289Z" fill="#E45D87"/>
<path d="M44.5237 113.408C64.1864 124.505 78.3161 102.73 73.6677 90.7548C67.1758 74.0297 39.8582 73.8027 35.2075 90.4358C33.9207 95.0358 32.2535 106.484 44.5237 113.408Z" fill="#E65F89"/>
<path d="M43.565 110.392C53.8202 117.44 61.8959 112.577 64.5493 110.979C67.9897 108.907 71.7921 103.055 72.6139 101.302C72.9684 100.546 73.5197 95.0189 73.1895 92.552C71.4125 79.2811 47.4463 74.6575 40.6184 83.4839C28.7889 98.7745 43.4095 110.285 43.565 110.392Z" fill="#E8618A"/>
<path d="M43.184 106.807C46.6812 110.125 54.7584 113.605 62.675 109.588C73.8927 103.895 72.5476 95.0403 72.1054 92.1305C71.1915 86.1129 64.2036 81.8467 61.4441 81.0819C57.4199 79.9663 47.9954 77.3536 41.662 83.6903L38.0019 89.7248C37.4535 91.1543 37.301 93.266 37.4019 94.7934C37.4491 95.5023 39.019 102.854 43.184 106.807Z" fill="#EA638C"/>
<path d="M45.7051 106.339C56.6796 113.463 72.9799 106.974 71.2287 92.874C69.8151 81.4901 50.2349 75.8821 42.1297 84.5405C39.623 87.2189 38.2624 92.4393 38.603 94.5178C39.8633 102.199 44.7403 105.713 45.7051 106.339Z" fill="#ED769A"/>
<path d="M48.0675 105.749C52.8855 108.219 60.7792 108.561 65.9186 104.331L69.8831 98.9623C70.326 96.5875 71.0683 92.6131 68.8461 88.6446C64.6914 81.2241 53.2047 80.8446 53.0919 80.8453C51.2213 80.8593 48.5672 81.1334 46.9929 82.1444C43.0748 84.6591 41.8918 85.4188 40.6146 88.8546C38.5825 94.3211 40.0994 101.665 48.0675 105.749Z" fill="#EE7DA0"/>
<path d="M45.2514 102.129C46.5671 103.268 48.5747 104.59 50.2434 105.082C52.6395 105.788 56.139 106.805 58.5159 106.038C62.291 104.819 70.1471 102.283 69.4558 94.3153C68.746 86.1358 62.2829 83.5348 60.3195 82.9321L53.6257 81.5255C51.761 81.8814 49.1644 82.0398 47.4309 82.8127C45.917 83.4877 44.1827 84.9819 43.0853 86.2242C43.0153 86.3031 37.3261 95.2731 45.2514 102.129Z" fill="#EE83A4"/>
<path d="M45.8341 100.636C49.764 105.048 56.3517 105.314 57.4675 105.038C59.5246 104.529 62.5848 104.189 64.1569 102.767C68.7708 98.5961 68.6388 96.3518 68.56 95.0108C68.1266 87.658 63.4899 84.6672 59.6757 83.453C58.0844 82.946 55.9028 82.2851 54.2327 82.288C53.8207 82.2888 47.9258 83.4647 47.8728 83.4765C46.2351 83.8435 44.6608 85.7784 43.5736 87.056C42.6892 88.0957 42.0295 93.4671 42.0354 93.5054C42.6229 97.0304 42.8042 97.2345 45.8341 100.636Z" fill="#EF88A8"/>
<path d="M47.9187 101.281C48.7619 101.861 51.8663 103.772 56.4315 104.009C58.6028 104.122 61.5362 103.172 63.4186 102.084C65.1551 101.081 67.0036 98.7612 67.5534 96.833C68.0067 95.2436 66.7641 90.4381 66.7478 90.402C63.9839 84.2127 55.7881 83.1693 54.8624 83.0706C54.6707 83.05 48.4936 84.0579 48.3182 84.1382C47.9747 84.2959 44.2991 87.6816 44.134 87.9918C43.3896 89.3925 42.5811 91.6332 43.0152 93.1592C44.1701 97.2139 44.6971 99.0641 47.9187 101.281Z" fill="#F08DAB"/>
<path d="M49.0639 100.863C50.7768 101.899 53.4036 102.868 55.4039 102.944C56.4048 102.983 62.6542 101.404 62.6836 101.387C62.9821 101.213 66.632 96.4447 66.7521 96.0718C67.226 94.6004 66.6349 92.3951 66.0409 90.9671C63.4458 84.7314 55.5749 83.8539 55.4961 83.8472L48.7676 84.7955C48.6379 84.8582 44.8805 88.8768 44.7869 89.0521C42.5633 93.227 45.2033 98.5299 49.0639 100.863Z" fill="#F091AE"/>
<path d="M50.2093 100.412C55.5632 103.446 61.8966 100.709 61.9518 100.676C63.6655 99.669 65.0887 97.1321 65.7771 95.2679C66.1692 94.2062 65.7409 92.577 65.3304 91.5227C63.0515 85.6767 56.2015 84.6231 56.1344 84.6186C54.0714 84.4713 51.1469 84.6275 49.3072 85.5713C47.7189 86.3863 46.2566 88.5091 45.4518 90.1021C44.0367 92.902 45.6427 97.8247 50.2093 100.412Z" fill="#F195B1"/>
<path d="M51.3547 99.9306C54.283 101.515 61.1743 99.9785 61.2207 99.9505C62.9638 98.9056 64.1077 96.1367 64.9111 94.2703C65.1749 93.658 64.7983 92.709 64.6148 92.0679C64.2131 90.6643 62.9483 89.0241 61.8501 88.0611C60.6222 86.9839 58.5939 86.04 57.0704 85.4491C56.6665 85.2929 49.9028 86.3413 49.8637 86.3635C48.2827 87.2653 47.1654 89.6475 46.1247 91.1395C45.9802 91.3466 45.9301 91.7135 45.9581 91.964C46.1158 93.4016 46.5691 95.3726 47.3806 96.5699C48.2569 97.863 49.9816 99.1871 51.3547 99.9306Z" fill="#F198B3"/>
<path d="M51.9626 99.0514C53.3822 99.9305 60.3604 99.1428 60.4032 99.1178C62.1647 98.0892 63.0314 95.1433 63.9955 93.3455C64.1016 93.1473 63.941 92.8231 63.8975 92.6028C63.6159 91.1711 62.2539 89.5693 61.2117 88.548C60.4253 87.7766 59.0271 87.1481 57.982 86.801C55.3581 85.9309 50.4591 87.1319 50.4281 87.1503C49.0801 87.9291 48.0858 89.9561 47.3443 91.3251C47.1188 91.7414 47.2552 92.434 47.3156 92.9041C47.6716 95.6628 47.9531 96.5691 51.9626 99.0514Z" fill="#F29BB5"/>
<path d="M49.509 95.9422C50.8835 96.8632 52.7844 98.1246 54.397 98.4967C55.9168 98.8474 58.2532 99.0707 59.5909 98.269C60.9905 97.4305 62.4845 95.2731 62.4484 93.6425C62.4101 91.9191 61.5581 89.0956 59.3691 88.3838C57.9348 87.9167 52.1586 87.244 50.9963 87.9292C50.2202 88.3868 49.4087 89.4817 49.2444 90.3674C48.9613 91.8926 49.1331 93.9896 49.206 95.5391C49.2142 95.6902 49.3829 95.8582 49.509 95.9422Z" fill="#F29EB8"/>
<path d="M56.1923 97.5484C56.9588 97.6869 58.1123 97.7996 58.7845 97.4061C59.481 96.9987 60.1576 95.9406 60.2276 95.1375C60.3669 93.5371 60.5836 90.9715 59.4434 89.8397C57.9052 88.3123 54.464 88.9349 52.3177 88.6247C52.0944 88.5923 51.7649 88.5886 51.5703 88.7035C51.375 88.8185 51.1635 89.0977 51.137 89.3232C50.9372 91.0208 49.968 93.5341 50.8282 95.0115C51.7229 96.5492 54.4404 97.2323 56.1923 97.5484Z" fill="#F2A1BA"/>
<path d="M57.9793 96.5279C57.8739 94.8973 58.703 92.3074 57.6085 91.0946C56.6025 89.979 53.888 89.2702 52.6866 90.1728C51.7203 90.8986 51.7985 93.1562 52.422 94.1914C53.3558 95.7395 56.1912 96.2553 57.9793 96.5279Z" fill="#F3A4BC"/>
<path d="M55.8703 94.1088C55.8371 93.5584 56.1231 92.689 55.759 92.2749C55.4229 91.8932 54.495 91.6434 54.0933 91.9558C53.7712 92.2064 53.7985 92.9653 54.0122 93.3123C54.3306 93.8281 55.3124 93.8701 55.8703 94.1088Z" fill="#F3A6BE"/>
</g>
<mask id="mask3_131_16786" style="mask-type:luminance" maskUnits="userSpaceOnUse" x="9" y="9" width="112" height="112">
<path d="M117.62 84.1153C117.288 84.9597 116.887 86.104 116.512 86.9292C116.147 87.728 115.682 88.8022 115.298 89.5906C114.911 90.3827 114.362 91.4217 113.94 92.1953C113.544 92.9233 112.993 93.8826 112.54 94.576C111.684 95.8853 110.515 97.6154 109.579 98.8695C108.672 100.084 108.4 100.395 106.283 102.81C105.771 103.395 105.04 104.133 104.487 104.679C103.103 106.043 103.103 106.043 100.534 108.251C99.8921 108.803 98.9981 109.495 98.3082 109.987C96.888 110.999 94.9436 112.28 93.4614 113.2C92.6072 113.73 91.4125 114.343 90.5258 114.817C88.4385 115.934 85.1344 117.267 83.9485 117.669C82.6432 118.112 80.8928 118.677 79.5646 119.044C78.4642 119.349 76.9806 119.702 75.8573 119.908C72.0269 120.609 70.0281 120.838 65.911 120.969C63.5745 121.043 60.4481 120.864 58.1301 120.565C55.588 120.237 52.2058 119.626 49.7529 118.882C47.7002 118.259 44.9503 117.416 43.0112 116.5C41.1531 115.623 38.6892 114.422 36.8916 113.426C35.7182 112.777 34.2485 111.751 33.1201 111.026C31.0387 109.69 28.5026 107.546 26.7064 105.845C24.7791 104.021 22.4324 101.358 20.746 99.3093C19.7252 98.07 18.4892 96.3105 17.6689 94.9297C16.3643 92.7347 14.7406 89.7343 13.6764 87.4141C12.7212 85.3311 11.7807 82.638 10.88 79.4107C10.3022 77.3402 9.72435 74.5197 9.48261 72.3844C9.08903 68.9073 8.91803 67.1802 9.03743 62.7939C9.06691 61.7167 9.17305 60.2821 9.29466 59.2115C9.45165 57.8314 9.73762 56.0004 9.96536 54.6306C9.97052 54.5982 10.5948 51.1329 11.7549 47.6566C12.2214 46.2581 12.9246 44.4205 13.4795 43.0544C13.8282 42.196 14.3515 41.0738 14.7664 40.2449C16.6363 36.5092 17.9939 34.525 18.8924 33.212C21.1131 29.9655 23.6853 27.1987 23.7104 27.1715C24.7783 26.0331 26.2679 24.5779 27.4015 23.5051C27.9933 22.9451 28.8254 22.2444 29.4585 21.7315C31.6822 19.9293 33.2307 18.7872 36.5311 16.7816C38.1865 15.7758 40.9519 14.3699 42.8269 13.5815C43.7836 13.1792 45.0638 12.6531 46.0441 12.312C47.3457 11.8588 49.0895 11.2657 50.428 10.9371C51.5372 10.6645 53.0113 10.2739 54.1353 10.0735C55.8799 9.76258 58.2192 9.41701 59.9815 9.23428C62.4403 8.97934 65.7496 8.98966 68.2194 9.09208C71.8884 9.2446 75.5301 9.99026 77.0852 10.3078C79.2278 10.7462 82.03 11.5921 84.0856 12.3385C93.6848 15.8215 100.056 21.106 103.287 24.1365C107.285 27.8862 109.841 31.4487 109.866 31.4834C113.206 36.2079 113.844 37.277 116.315 42.5652C116.873 43.7596 117.516 45.4012 117.915 46.6575C118.58 48.7567 119.379 51.5861 119.858 53.7361C120.113 54.8826 120.376 56.43 120.509 57.5964C120.713 59.3714 120.923 61.7483 120.98 63.5344C121.049 65.7058 120.873 68.6052 120.697 70.7707C120.586 72.1552 120.25 73.9811 120.027 75.3523C119.833 76.54 119.459 78.1043 119.141 79.2648C118.736 80.7362 118.117 82.6741 117.62 84.1153C115.885 88.8892 110.049 92.2019 100.248 93.0891C110.049 92.2019 115.885 88.8892 117.62 84.1153Z" fill="white"/>
</mask>
<g mask="url(#mask3_131_16786)">
<path d="M117.619 84.1153C116.067 88.0558 114.308 92.5225 109.578 98.8695C106.192 103.412 101.511 107.702 98.3753 109.937C91.537 114.811 81.6673 120.469 65.9102 120.97C49.4116 121.494 37.5748 113.89 33.1194 111.028C31.8193 110.192 20.2264 102.433 13.6763 87.4163C3.48677 64.0561 11.3731 40.3282 23.7089 27.1744C33.9633 16.24 44.8501 12.309 50.4265 10.9386C54.8207 9.85911 68.1914 6.57362 84.0834 12.3407C93.0096 15.5798 99.4521 20.5445 103.285 24.1387C111.148 31.5136 114.637 38.9798 116.313 42.5674C117.604 45.3312 120.643 52.9072 120.977 63.5359C121.291 73.4631 118.623 81.2019 117.619 84.1153Z" fill="#BA3365"/>
<path d="M120.755 70.1783C115.091 104.332 40.8293 92.4915 19.795 61.6312C13.7911 52.8225 12.9398 42.7008 17.5736 35.2161L19.0204 33.0292L20.4193 31.1083L22.0208 29.102C22.5279 28.5236 23.1905 27.7403 23.7109 27.1737L25.5063 25.3051C26.0797 24.7606 26.8322 24.0223 27.4189 23.4918L29.459 21.7337C30.1268 21.2121 31.0046 20.5018 31.6849 19.9978L34.0382 18.3473C34.8416 17.8441 35.9015 17.1551 36.7189 16.6747L39.4673 15.1679C40.4733 14.6882 41.8059 14.0303 42.8274 13.5845L46.0446 12.3149C47.3558 11.8905 49.1004 11.3107 50.4285 10.94L54.1358 10.0765C55.8848 9.79354 58.2205 9.42808 59.982 9.23724L64.0762 9.01619C65.4619 9.04272 67.3111 9.04051 68.6945 9.1245L72.8912 9.55555C75.0205 9.93943 77.8522 10.5024 79.9513 11.0233L84.0854 12.3422C85.9965 13.1218 88.5356 14.1872 90.3951 15.0832L94.2697 17.2575C95.9789 18.4048 98.249 19.9514 99.8852 21.2003L103.287 24.1402C107.348 28.2561 107.592 28.5029 109.866 31.4871L112.323 35.0533C115.155 39.9296 115.21 40.0224 116.416 42.7988L117.915 46.6612C118.56 48.767 119.353 51.5964 119.858 53.7398L120.51 57.6C120.684 59.3787 120.9 61.7528 120.981 63.5381L120.956 67.192L120.771 70.0295L120.755 70.1783Z" fill="#BB3467"/>
<path d="M120.884 66.2069C115.071 98.9778 45.6482 89.22 24.2667 60.2725C15.7347 48.7213 14.669 38.6136 21.1011 30.2308L22.7418 28.2576L23.711 27.1737L25.5064 25.3051C26.0798 24.7606 26.8323 24.0223 27.419 23.4918L29.4591 21.7337C30.1269 21.2121 31.0047 20.5018 31.685 19.9978L34.0383 18.3473C34.8417 17.8441 35.9016 17.1551 36.7189 16.6747L39.4674 15.1679C40.4734 14.6882 41.806 14.0303 42.8275 13.5845L46.0447 12.3149C47.3559 11.8905 49.1005 11.3107 50.4286 10.94L54.1359 10.0765C55.8849 9.79354 58.2206 9.42808 59.9821 9.23724L64.0763 9.01619C65.462 9.04272 67.3112 9.04051 68.6946 9.1245L72.8913 9.55555C75.0206 9.93943 77.8523 10.5024 79.9514 11.0233L84.0855 12.3422C85.9966 13.1218 88.5357 14.1872 90.3952 15.0832L94.2698 17.2575C95.979 18.4048 98.2491 19.9514 99.8853 21.2003L103.287 24.1402C107.349 28.2561 107.592 28.5029 109.866 31.4871L112.324 35.0533C115.155 39.9296 115.21 40.0224 116.416 42.7988L117.915 46.6612C118.56 48.767 119.353 51.5964 119.858 53.7398L120.51 57.6C120.685 59.3787 120.9 61.7528 120.981 63.5381L120.884 66.2069Z" fill="#BD3668"/>
<path d="M120.778 60.397C119.69 93.3227 55.3955 87.9954 28.84 60.1443C17.8751 48.644 16.0753 35.4733 24.2542 26.5887L26.0813 24.7407L27.4175 23.4918L29.4577 21.7337C30.1254 21.2121 31.0032 20.5018 31.6835 19.9978L34.0369 18.3473C34.8403 17.8441 35.9001 17.1551 36.7175 16.6747L39.4659 15.1679C40.472 14.6882 41.8045 14.0303 42.8261 13.5845L46.0432 12.3149C47.3544 11.8905 49.099 11.3107 50.4271 10.94L54.1344 10.0765C55.8834 9.79354 58.2191 9.42808 59.9806 9.23724L64.0749 9.01619C65.4605 9.04272 67.3097 9.04051 68.6932 9.1245L72.8899 9.55555C75.0192 9.93943 77.8508 10.5024 79.9499 11.0233L84.084 12.3422C85.9951 13.1218 88.5342 14.1872 90.3938 15.0832L94.2684 17.2575C95.9776 18.4048 98.2477 19.9514 99.8839 21.2003L103.286 24.1402C107.347 28.2561 107.59 28.5029 109.865 31.4871L112.322 35.0533C115.154 39.9296 115.208 40.0224 116.414 42.7988L117.914 46.6612C118.558 48.767 119.352 51.5964 119.857 53.7398L120.508 57.6L120.665 58.8895L120.778 60.397Z" fill="#BF386A"/>
<path d="M120.091 54.9512C123.665 86.5159 68.1072 87.6617 37.243 63.5381C23.027 52.4268 14.4354 35.7709 27.2879 23.6082L29.4577 21.7323C30.1255 21.2106 31.0033 20.5003 31.6835 19.9963L34.0369 18.3458C34.8403 17.8426 35.9002 17.1537 36.7175 16.6732L39.4659 15.1664C40.472 14.6868 41.8046 14.0288 42.8261 13.583L46.0433 12.3135C47.3545 11.8891 49.099 11.3092 50.4272 10.9386L54.1345 10.075C55.8835 9.79207 58.2191 9.4266 59.9807 9.23577L64.0749 9.01472C65.4605 9.04124 67.3098 9.03903 68.6932 9.12303L72.8899 9.55407C75.0192 9.93796 77.8509 10.5009 79.95 11.0218L84.084 12.3407C85.9952 13.1203 88.5343 14.1857 90.3938 15.0817L94.2684 17.2561C95.9776 18.4033 98.2477 19.9499 99.8839 21.1988L103.286 24.1387C107.347 28.2546 107.59 28.5015 109.865 31.4856L112.322 35.0518C115.154 39.9281 115.208 40.0209 116.414 42.7973L117.914 46.6597C118.558 48.7655 119.352 51.5949 119.857 53.7384C119.928 54.1016 120.037 54.5842 120.091 54.9512Z" fill="#C13A6B"/>
<path d="M119.637 52.9441C122.55 83.5487 68.3953 84.3695 38.7576 60.834C21.5411 47.1622 18.1964 31.5674 30.2374 21.1038C31.3555 20.2476 32.8841 19.1541 34.0368 18.3458C34.8402 17.8426 35.9001 17.1537 36.7174 16.6732L39.4659 15.1664C40.4719 14.6868 41.8045 14.0288 42.826 13.583L46.0432 12.3135C47.3544 11.8891 49.0989 11.3092 50.4271 10.9386L54.1344 10.075C55.8834 9.79207 58.219 9.4266 59.9806 9.23577L64.0748 9.01472C65.4604 9.04124 67.3097 9.03903 68.6931 9.12303L72.8898 9.55407C75.0191 9.93796 77.8508 10.5009 79.9499 11.0218L84.0839 12.3407C85.9951 13.1203 88.5342 14.1857 90.3937 15.0817L94.2683 17.2561C95.9775 18.4033 98.2476 19.9499 99.8838 21.1988L103.286 24.1387C107.347 28.2546 107.59 28.5015 109.865 31.4856L112.322 35.0518C115.154 39.9281 115.208 40.0209 116.414 42.7973L117.914 46.6597C118.311 47.9565 118.876 49.6748 119.219 50.9863L119.637 52.9441Z" fill="#C33C6D"/>
<path d="M118.33 47.9145C125.73 78.4529 77.3533 81.1496 48.0878 64.1578C27.3033 52.0901 16.3148 31.0612 33.0861 18.992L35.5249 17.3917L36.7182 16.6732L39.4666 15.1664C40.4727 14.6868 41.8053 14.0288 42.8268 13.583L46.044 12.3135C47.3552 11.8891 49.0997 11.3092 50.4279 10.9386L54.1352 10.075C55.8842 9.79207 58.2198 9.4266 59.9814 9.23577L64.0756 9.01472C65.4612 9.04124 67.3105 9.03903 68.6939 9.12303L72.8906 9.55407C75.0199 9.93796 77.8516 10.5009 79.9507 11.0218L84.0847 12.3407C85.9959 13.1203 88.535 14.1857 90.3945 15.0817L94.2691 17.2561C95.9783 18.4033 98.2484 19.9499 99.8846 21.1988L103.287 24.1387C107.348 28.2546 107.591 28.5015 109.866 31.4856L112.323 35.0518C115.155 39.9281 115.209 40.0209 116.415 42.7973L117.915 46.6597L118.155 47.3678L118.33 47.9145Z" fill="#C53E6E"/>
<path d="M117.749 46.3473C124.338 75.4105 77.5337 79.9486 45.8448 59.9218C29.4464 49.5584 17.7651 28.2568 35.9906 17.1072C37.0166 16.4957 38.4199 15.7412 39.4665 15.1664C40.4725 14.6868 41.8051 14.0288 42.8266 13.583L46.0438 12.3135C47.355 11.8891 49.0995 11.3092 50.4277 10.9386L54.135 10.075C55.884 9.79207 58.2197 9.4266 59.9812 9.23577L64.0754 9.01472C65.4611 9.04124 67.3103 9.03903 68.6937 9.12303L72.8904 9.55407C75.0197 9.93796 77.8514 10.5009 79.9505 11.0218L84.0845 12.3407C85.9957 13.1203 88.5348 14.1857 90.3943 15.0817L94.2689 17.2561C95.9781 18.4033 98.2482 19.9499 99.8844 21.1988L103.287 24.1387C107.348 28.2546 107.591 28.5015 109.865 31.4856L112.323 35.0518C115.154 39.9281 115.209 40.0209 116.415 42.7973C116.851 43.848 117.436 45.2539 117.749 46.3473Z" fill="#C74070"/>
<path d="M115.895 41.636C126.846 70.6455 84.9641 74.9913 59.7692 64.8511C34.8985 54.8414 15.6994 28.7085 38.9994 15.4081L41.8835 14.0001L42.8269 13.583L46.044 12.3135C47.3552 11.8891 49.0998 11.3092 50.4279 10.9386L54.1352 10.075C55.8842 9.79207 58.2199 9.4266 59.9814 9.23577L64.0757 9.01472C65.4613 9.04124 67.3105 9.03903 68.6939 9.12303L72.8906 9.55407C75.0199 9.93796 77.8516 10.5009 79.9507 11.0218L84.0848 12.3407C85.9959 13.1203 88.535 14.1857 90.3946 15.0817L94.2692 17.2561C95.9784 18.4033 98.2484 19.9499 99.8847 21.1988L103.287 24.1387C107.348 28.2546 107.591 28.5015 109.866 31.4856L112.323 35.0518C113.368 36.8519 114.732 39.2716 115.664 41.1328L115.895 41.636Z" fill="#C94271"/>
<path d="M115.116 40.1116C125.794 69.1173 80.3922 73.0807 56.1422 61.2569C34.1578 50.5376 18.7478 24.5418 41.9697 13.961C43.1762 13.429 44.8176 12.7976 46.044 12.3135C47.3552 11.8891 49.0998 11.3092 50.4279 10.9386L54.1352 10.075C55.8842 9.79207 58.2199 9.4266 59.9814 9.23577L64.0757 9.01472C65.4613 9.04124 67.3105 9.03903 68.694 9.12303L72.8906 9.55407C75.02 9.93796 77.8517 10.5009 79.9507 11.0218L84.0848 12.3407C85.9959 13.1203 88.535 14.1857 90.3946 15.0817L94.2692 17.2561C95.9784 18.4033 98.2484 19.9499 99.8847 21.1988L103.287 24.1387C107.348 28.2546 107.591 28.5015 109.866 31.4856L112.323 35.0518L114.052 37.9748L115.116 40.1116Z" fill="#CB4473"/>
<path d="M112.736 35.7208C126.513 61.923 91.1355 70.3316 67.2621 63.5602C37.275 55.0543 21.8304 25.6367 41.4407 14.3781C41.9419 14.09 43.116 13.4165 45.1996 12.6237L48.5458 11.4794L50.4267 10.9378L54.134 10.0743C55.883 9.79133 58.2187 9.42587 59.9802 9.23503L64.0744 9.01398C65.4601 9.04051 67.3093 9.0383 68.6927 9.1223L72.8894 9.55334C75.0187 9.93722 77.8504 10.5002 79.9495 11.0211L84.0835 12.34C85.9947 13.1196 88.5338 14.185 90.3933 15.081L94.2679 17.2553C95.9771 18.4026 98.2472 19.9492 99.8834 21.1981L103.286 24.138C107.347 28.2539 107.59 28.5007 109.864 31.4849L112.322 35.0511L112.333 35.0688L112.736 35.7208Z" fill="#CD4675"/>
<path d="M111.939 34.5486C125.083 60.0824 91.0366 67.9671 68.3145 62.3562C44.7941 56.5486 21.4684 26.8598 42.6081 14.073C45.075 12.5809 48.2862 11.5604 48.4218 11.5177C50.12 11.027 52.4136 10.4751 54.1354 10.0743C55.8843 9.79133 58.22 9.42587 59.9815 9.23503L64.0758 9.01398C65.4614 9.04051 67.3106 9.0383 68.6941 9.1223L72.8908 9.55334C75.0201 9.93722 77.8518 10.5002 79.9509 11.0211L84.0849 12.34C85.996 13.1196 88.5351 14.185 90.3947 15.081L94.2693 17.2553C95.9785 18.4026 98.2486 19.9492 99.8848 21.1981L103.287 24.138C107.348 28.2539 107.591 28.5007 109.866 31.4849C110.522 32.3794 111.379 33.5907 111.939 34.5486Z" fill="#CF4876"/>
<path d="M111.071 33.447C123.024 55.075 92.9674 66.87 69.3874 61.1795C44.6339 55.2061 25.0177 26.0213 43.5276 14.0362C46.6121 12.0394 49.1815 11.3269 52.1569 10.5024L55.9416 9.74859C57.1533 9.59312 58.7644 9.34703 59.9813 9.23577L64.0755 9.01472C65.4612 9.04124 67.3104 9.03903 68.6938 9.12303L72.8905 9.55407C75.0198 9.93796 77.8515 10.5009 79.9506 11.0218L84.0846 12.3407C85.9958 13.1203 88.5349 14.1857 90.3944 15.0817L94.269 17.2561C95.9782 18.4033 98.2483 19.9499 99.8845 21.1988L103.287 24.1387C104.775 25.647 106.738 27.6814 108.128 29.2803L108.848 30.1755C109.524 31.1503 110.497 32.4081 111.071 33.447Z" fill="#D14A78"/>
<path d="M110.138 32.4199C121.501 53.3906 90.9982 67.1367 64.8481 58.6294C47.1584 52.8748 26.1484 23.8366 46.6432 12.7489C49.9768 10.9452 53.0201 10.3299 55.7044 9.7869L59.6269 9.26745L59.9807 9.23429L64.0749 9.01324C65.4605 9.03977 67.3098 9.03756 68.6932 9.12155L72.8899 9.5526C75.0192 9.93648 77.8509 10.4994 79.95 11.0203L84.084 12.3393C85.9952 13.1188 88.5343 14.1843 90.3938 15.0802L94.2684 17.2546C95.9776 18.4018 98.2477 19.9484 99.8839 21.1973L103.286 24.1373L105.486 26.3138L107.883 29.0784C108.569 30.0746 109.563 31.3566 110.138 32.4199Z" fill="#D34C79"/>
<path d="M109.14 31.4679C119.719 51.4439 90.1258 65.5393 65.7262 57.6745C45.0972 51.0247 30.7124 22.604 47.7867 12.7541C52.4197 10.0817 58.3307 9.36326 60.6568 9.17831L64.7614 9.0059L68.6942 9.12232L72.8909 9.55336C75.0202 9.93724 77.8519 10.5002 79.951 11.0211L84.085 12.34C85.9962 13.1196 88.5353 14.185 90.3948 15.081L94.2694 17.2554C95.9786 18.4026 98.2487 19.9492 99.8849 21.1981C101.18 22.2901 102.877 23.7829 104.108 24.947C106.997 28.1736 107.971 29.2611 109.14 31.4679Z" fill="#D54E7B"/>
<path d="M108.074 30.5918C117.253 48.3588 91.6805 64.4864 66.6168 56.7372C47.0594 50.6909 33.0402 22.444 49.2801 12.6664C51.5627 11.2922 56.6992 8.98891 65.4515 9.00733C67.6877 9.0869 70.6646 9.32564 72.8904 9.55405C75.0197 9.93794 77.8514 10.5009 79.9505 11.0218L84.0846 12.3407C85.9957 13.1203 88.5348 14.1857 90.3944 15.0817L94.269 17.2561C95.4829 18.071 97.1294 19.1195 98.3072 19.9867L99.5189 20.9151C101.94 23.0261 105.993 26.5621 108.074 30.5918Z" fill="#D7507C"/>
<path d="M106.901 29.7644C115.812 47.8261 88.2703 62.6163 67.3834 55.954C45.5258 48.9822 36.1204 19.4857 53.2094 11.5022C55.478 10.4419 61.9345 8.1298 72.8544 9.54892L77.0482 10.302L79.9506 11.0211L84.0847 12.34C85.9958 13.1196 88.5349 14.185 90.3945 15.081C91.5074 15.6719 92.9711 16.4979 94.0597 17.1316C97.7678 19.6375 103.974 23.8322 106.901 29.7644Z" fill="#D9527E"/>
<path d="M103.54 25.6853C116.349 43.5496 89.9097 59.3286 74.1143 56.5479C43.1682 51.0991 41.2991 20.4797 52.149 12.9832C64.5696 4.40073 93.3871 11.5236 103.54 25.6853Z" fill="#DA5380"/>
<path d="M102.226 24.992C112.961 40.1366 93.3881 58.0989 74.7277 55.7108C45.4865 51.9685 43.2297 20.907 53.7155 13.3178C65.3968 4.86345 92.5987 11.4101 102.226 24.992Z" fill="#DC5581"/>
<path d="M100.779 24.3642C110.299 38.184 93.4777 57.2309 73.9145 54.7824C46.8489 51.3952 45.7294 21.747 55.378 13.7908C66.4136 4.69176 92.6419 12.5522 100.779 24.3642Z" fill="#DE5783"/>
<path d="M99.0897 23.7872C108.373 37.4899 91.4039 59.0921 70.1455 53.3058C46.8507 46.9647 48.0292 19.4997 59.7135 12.8815C71.181 6.38569 92.2898 13.751 99.0897 23.7872Z" fill="#E05984"/>
<path d="M97.3135 23.3386C104.285 33.7351 94.0308 46.2338 93.9224 46.3532C88.2399 52.6523 79.615 55.0145 70.8509 52.6715C56.4521 48.8216 54.1135 38.9393 53.3448 35.6921C52.4486 31.9041 53.899 18.4365 61.6121 13.6309C70.8494 7.87707 90.535 13.2301 97.3135 23.3386Z" fill="#E25B86"/>
<path d="M95.123 22.9789C100.704 31.6808 96.74 56.6068 71.565 52.0458C62.4847 50.4005 56.6525 43.8369 55.5706 39.9185C54.6647 36.6396 53.638 32.9231 55.1637 26.915C55.4401 25.8253 59.2779 17.7099 61.6261 16.0727C74.6746 6.97662 91.2314 16.9112 95.123 22.9789Z" fill="#E45D87"/>
<path d="M92.6601 22.7999C98.1267 31.157 97.4464 54.9003 72.3068 51.4115C57.4606 49.3506 47.6492 32.2335 63.4173 17.6481C71.4142 10.2511 87.1721 14.4097 92.6601 22.7999Z" fill="#E65F89"/>
<path d="M92.093 26.4981C99.512 43.1267 84.3777 56.9119 67.1789 49.19C63.6691 47.6147 55.628 42.8658 56.7506 32.8237C58.1782 20.0538 70.7211 16.4014 70.8472 16.3704C81.1266 13.8343 89.6018 20.9144 92.093 26.4981Z" fill="#E8618A"/>
<path d="M90.8993 29.6833C97.2872 43.4722 82.8103 55.3542 67.7784 48.6587C58.7195 44.6238 57.8859 37.9188 57.8852 37.8547C57.8306 34.4992 57.8616 30.3206 58.3208 29.4711C59.3408 27.5826 61.7303 23.1609 67.3178 20.3971C73.1772 17.4992 78.8311 18.6332 82.5413 20.0943C87.3306 21.9806 89.8313 27.3785 90.8993 29.6833Z" fill="#EA638C"/>
<path d="M90.2242 31.0405C94.555 41.6979 85.2146 54.397 68.3968 48.123C55.2643 43.2239 55.5547 25.8872 68.8413 21.6224C78.4338 18.544 87.4095 24.1137 90.2242 31.0405Z" fill="#ED769A"/>
<path d="M88.9792 31.3235C92.3047 38.7536 87.4425 44.5546 87.3872 44.5996C83.9932 47.3663 78.8089 51.1381 69.0328 47.5837C63.4608 45.5582 59.9517 41.3708 59.6466 36.3833C59.5478 34.7718 59.242 32.3838 60.1095 31.0222C63.3981 25.8548 63.3981 25.8548 67.5838 23.914C76.8594 19.6125 86.2972 25.3302 88.9792 31.3235Z" fill="#EE7DA0"/>
<path d="M88.9756 36.143C88.9859 36.2911 89.196 39.8227 86.906 43.7603C86.0732 45.1927 84.1267 46.6272 82.5605 47.1718C82.5155 47.1872 76.3 48.4664 76.0929 48.4347C72.3414 47.86 68.4624 47.2661 64.9931 44.4809C58.7814 39.4941 60.8628 31.795 60.8864 31.7191C60.9122 31.6381 64.9231 26.5415 65.013 26.4759C65.5187 26.1045 70.8349 24.0252 71.4769 23.9479C73.957 23.648 77.3525 24.1976 79.7494 24.9035C81.418 25.395 83.3137 26.8605 84.7406 27.8552C87.9408 30.0856 88.8953 34.9597 88.9756 36.143Z" fill="#EE83A4"/>
<path d="M86.7988 33.0889C87.1268 34.1116 87.9973 35.404 87.956 36.4768C87.9538 36.5306 87.104 42.3677 86.4185 42.9269C85.1176 43.9872 83.7578 46.1402 82.1194 46.5064C74.9517 48.1105 74.8146 48.1407 70.3165 46.53C64.0693 44.293 62.5503 40.1963 62.5414 40.1572C61.1845 34.309 61.1845 34.309 61.6636 32.4279C62.1574 30.4871 64.1946 28.3644 65.836 27.2157C65.8876 27.1795 71.1029 23.6074 77.9758 25.5328C80.9232 26.3595 85.6292 29.4445 86.7988 33.0889Z" fill="#EF88A8"/>
<path d="M86.9758 36.8246C87.0495 38.4087 86.6611 40.6244 85.8578 41.9919C85.6536 42.3397 81.9389 45.7615 81.6736 45.8462C72.6088 48.7353 67.818 44.7447 66.243 43.4331C65.1182 42.4959 63.7525 40.9559 63.2447 39.5825C63.2285 39.5383 62.0079 34.1794 62.4391 33.1515C63.2145 31.3021 64.8898 28.9877 66.5746 27.9009C68.4018 26.7227 71.3926 26.1266 73.5617 25.9763C76.5578 25.7678 86.5992 28.7431 86.9758 36.8246Z" fill="#F08DAB"/>
<path d="M85.994 37.1974C86.0486 38.341 85.7906 39.948 85.2039 40.9309L81.2232 45.1875C81.1001 45.2244 74.5603 46.1461 74.4947 46.1358C73.0782 45.9118 69.5006 45.1507 66.8716 42.9203C65.7557 41.9735 64.4976 40.3724 63.9507 39.0159C63.3721 37.5821 62.579 35.3097 63.2387 33.9112C63.6411 33.058 67.2858 28.6105 67.3079 28.5972C69.1512 27.4596 72.2084 27.2923 74.3613 27.0492C76.7361 26.781 85.6469 29.9471 85.994 37.1974Z" fill="#F091AE"/>
<path d="M85.0135 37.5961C85.0467 38.2953 84.9162 39.2908 84.5403 39.8817C83.5837 41.3885 82.4059 43.9386 80.6849 44.4124C78.6912 44.9614 75.9023 45.6746 73.857 45.3651C71.0614 44.9422 67.5325 42.4422 67.5045 42.4178C63.4758 38.9356 64.1502 34.8426 64.1605 34.805C64.7162 32.8649 66.5124 30.6272 68.0395 29.3083C68.8488 28.6098 70.4452 28.6238 71.5029 28.4654C73.9808 28.094 77.7051 28.1692 79.7813 29.5721C81.6578 30.8387 84.7961 32.96 85.0135 37.5961Z" fill="#F195B1"/>
<path d="M84.0325 38.019C84.0443 38.271 84.0104 38.6364 83.8659 38.8435C82.8252 40.3363 81.7042 42.7118 80.1269 43.6196C80.0842 43.6439 73.0904 44.6231 72.9209 44.534C71.4748 43.7736 69.2268 43.1436 68.1412 41.9219C65.0043 38.3925 64.8577 36.7502 65.0803 35.7127C65.507 33.7262 67.0253 31.0737 68.7714 30.0333C68.8171 30.006 75.7541 28.5449 78.6366 30.0532C79.9124 30.7215 83.7944 32.7529 84.0325 38.019Z" fill="#F198B3"/>
<path d="M82.6747 37.0796C82.741 37.5489 82.8715 38.2423 82.6459 38.6593C81.9052 40.0291 80.8991 42.0354 79.5629 42.8341C79.142 43.0861 73.685 43.9482 72.0082 43.1826C71.0066 42.7251 69.5237 42.2469 68.7785 41.4356C68.7476 41.4018 65.7758 37.7014 65.9955 36.6382C66.4068 34.6407 67.8233 31.8894 69.5885 30.8667C71.6154 29.6922 75.2777 29.6074 77.3945 30.6125C82.0718 32.8332 82.2855 34.3415 82.6747 37.0796Z" fill="#F29BB5"/>
<path d="M80.7844 34.4439C81.0195 35.978 81.1021 38.1059 80.7468 39.6172C80.5404 40.4932 79.771 41.597 78.9949 42.0546C78.2158 42.5136 76.9046 42.4583 76.0017 42.4097C74.3721 42.3213 72.0822 42.3287 70.6221 41.5999C67.203 39.8942 67.5383 36.3751 67.5442 36.3412C67.8339 34.7364 68.9881 32.5304 70.401 31.7155C71.752 30.9367 74.0862 31.0914 75.5941 31.4878C75.6435 31.5003 80.6893 33.8242 80.7844 34.4439Z" fill="#F29EB8"/>
<path d="M78.8539 40.6612C78.781 40.8756 78.6159 41.1652 78.4213 41.2802C78.2275 41.3944 77.8973 41.3907 77.6747 41.359C75.5284 41.0495 72.0909 41.6685 70.5497 40.144C69.4073 39.0144 69.6262 36.4466 69.7663 34.8462C69.8363 34.0431 70.5129 32.9858 71.2086 32.5783C71.8808 32.1848 73.0542 32.2114 73.8001 32.4361C75.5048 32.9489 78.2805 33.4278 79.1635 34.973C80.0111 36.4569 79.4038 39.0432 78.8539 40.6612Z" fill="#F2A1BA"/>
<path d="M77.3039 39.811C76.1195 40.7342 73.4006 39.9937 72.3835 38.8892C71.2772 37.6882 72.1107 35.0887 72.0076 33.4588C73.6843 34.1382 76.6413 34.2391 77.5685 35.7931C78.1869 36.8305 78.2569 39.0683 77.3039 39.811Z" fill="#F3A4BC"/>
<path d="M75.898 38.0271C75.4963 38.3395 74.5691 38.0897 74.233 37.708C73.8696 37.2947 74.1549 36.4252 74.1217 35.8756C74.6789 36.1143 75.6599 36.1563 75.9783 36.6713C76.1928 37.0184 76.2193 37.7773 75.898 38.0271Z" fill="#F3A6BE"/>
</g>
</g>
<path d="M78.5 61.9019C80.5 63.0566 80.5 65.9434 78.5 67.0981L59.75 77.9234C57.75 79.0781 55.25 77.6347 55.25 75.3253L55.25 53.6747C55.25 51.3653 57.75 49.9219 59.75 51.0766L78.5 61.9019Z" fill="#D9D9D9"/>
<defs>
<filter id="filter0_d_131_16786" x="3.00073" y="3.00735" width="123.999" height="123.978" filterUnits="userSpaceOnUse" color-interpolation-filters="sRGB">
<feFlood flood-opacity="0" result="BackgroundImageFix"/>
<feColorMatrix in="SourceAlpha" type="matrix" values="0 0 0 0 0 0 0 0 0 0 0 0 0 0 0 0 0 0 127 0" result="hardAlpha"/>
<feOffset/>
<feGaussianBlur stdDeviation="3"/>
<feColorMatrix type="matrix" values="0 0 0 0 0.533333 0 0 0 0 0 0 0 0 0 0.185679 0 0 0 1 0"/>
<feBlend mode="normal" in2="BackgroundImageFix" result="effect1_dropShadow_131_16786"/>
<feBlend mode="normal" in="SourceGraphic" in2="effect1_dropShadow_131_16786" result="shape"/>
</filter>
</defs>
</svg>
