<svg width="20" height="16" viewBox="0 0 20 16" fill="none" xmlns="http://www.w3.org/2000/svg">
<path fill-rule="evenodd" clip-rule="evenodd" d="M6.29008 16C13.8372 16 17.9652 9.84348 17.9652 4.50522C17.9652 4.32997 17.9652 4.15604 17.9532 3.98276C18.7562 3.41171 19.4492 2.70269 20.0003 1.89142C19.2522 2.21829 18.4572 2.43266 17.6442 2.52717C18.5002 2.02209 19.1412 1.22859 19.4482 0.292279C18.6422 0.762895 17.7612 1.09504 16.8422 1.27325C15.2882 -0.353242 12.6892 -0.432046 11.0361 1.09795C9.97113 2.08448 9.51812 3.55537 9.84913 4.95835C6.55008 4.79492 3.47604 3.26101 1.39202 0.737597C0.303004 2.58363 0.860011 4.94435 2.66303 6.12976C2.01003 6.11105 1.37102 5.93795 0.80001 5.62487V5.67614C0.80101 7.59898 2.17803 9.25465 4.09205 9.63566C3.48804 9.79811 2.85404 9.82167 2.24003 9.70451C2.77704 11.3507 4.31806 12.4782 6.07308 12.5107C4.62006 13.6351 2.82504 14.2456 0.977013 14.2436C0.651009 14.2426 0.325004 14.2239 0 14.1855C1.87702 15.3709 4.06005 16 6.29008 15.9971" fill="black"/>
</svg>
