<svg width="18" height="22" viewBox="0 0 18 22" fill="none" xmlns="http://www.w3.org/2000/svg">
<path fill-rule="evenodd" clip-rule="evenodd" d="M8.79999 2.2C6.97745 2.2 5.5 3.67746 5.5 5.49999C5.5 7.32254 6.97746 8.80001 8.79999 8.80001C10.6225 8.80001 12.1 7.32252 12.1 5.49999C12.1 3.67747 10.6225 2.2 8.79999 2.2ZM3.3 5.49999C3.3 2.46243 5.76242 0 8.79999 0C11.8375 0 14.3 2.46242 14.3 5.49999C14.3 8.53756 11.8375 11 8.79999 11C5.76241 11 3.3 8.53755 3.3 5.49999ZM8.79999 14.3C5.15492 14.3 2.2 17.2549 2.2 20.9C2.2 21.5075 1.70751 22 1.1 22C0.492487 22 0 21.5075 0 20.9C0 16.0399 3.9399 12.1 8.79999 12.1C13.6601 12.1 17.6 16.0399 17.6 20.9C17.6 21.5075 17.1075 22 16.5 22C15.8925 22 15.4 21.5075 15.4 20.9C15.4 17.2549 12.4451 14.3 8.79999 14.3Z" fill="black"/>
</svg>
