<svg width="34" height="24" viewBox="0 0 34 24" fill="none" xmlns="http://www.w3.org/2000/svg">
<path d="M33.4796 21.3023C33.4796 22.3783 32.6074 23.2506 31.5314 23.2506H2.46927C1.39323 23.2506 0.520996 22.3783 0.520996 21.3023V2.46927C0.520996 1.39323 1.39323 0.520996 2.46927 0.520996H31.5313C32.6074 0.520996 33.4796 1.3933 33.4796 2.46927L33.4796 21.3023Z" fill="white"/>
<path d="M7.83619 12.0169L7.06226 8.30451C6.92998 7.79254 6.54511 7.64026 6.06413 7.62012H2.51595L2.48438 7.78969C5.24779 8.45972 7.07635 10.0759 7.83619 12.0169Z" fill="#F79F1A"/>
<path d="M16.0572 7.69482H13.7647L12.333 16.0971H14.6217L16.0572 7.69482Z" fill="#059BBF"/>
<path d="M9.2336 16.0885L12.8391 7.70044H10.4129L8.16999 13.4313L7.93063 12.566C7.49099 11.525 6.23441 10.0267 4.75928 9.08358L6.80952 16.0913L9.2336 16.0885Z" fill="#059BBF"/>
<path d="M22.5963 13.3502C22.6048 12.3962 21.9923 11.6687 20.6724 11.0676C19.8702 10.6795 19.3813 10.4207 19.3871 10.0267C19.3871 9.67873 19.8012 9.3049 20.6983 9.3049C21.4489 9.29333 21.9894 9.45731 22.4121 9.62695L22.6191 9.72187L22.9298 7.90162C22.4754 7.73185 21.7652 7.55078 20.8767 7.55078C18.6136 7.55078 17.0205 8.68957 17.0061 10.3229C16.9917 11.5307 18.1449 12.2036 19.0133 12.6061C19.9047 13.0165 20.2037 13.279 20.1981 13.6471C20.1923 14.2099 19.4877 14.4665 18.8293 14.4665C17.912 14.4665 17.4259 14.3401 16.6722 14.026L16.3793 13.8915L16.0576 15.7743C16.5921 16.0079 17.5812 16.2121 18.6079 16.2206C21.0147 16.2206 22.5791 15.0964 22.5963 13.3502Z" fill="#059BBF"/>
<path d="M25.3192 14.8376C25.5809 14.8376 27.9187 14.8405 28.2524 14.8405C28.3214 15.133 28.5313 16.0999 28.5313 16.0999H30.6563L28.8016 7.70337H27.033C26.4838 7.70337 26.0756 7.85293 25.8339 8.39912L22.4321 16.0999H24.8391C24.8391 16.0999 25.2301 15.0649 25.3192 14.8376ZM26.8892 10.7686C26.8779 10.7916 27.079 10.2827 27.1941 9.96639L27.3494 10.691C27.3494 10.691 27.7865 12.6982 27.8785 13.1181H25.9777C26.1676 12.6349 26.8892 10.7686 26.8892 10.7686Z" fill="#059BBF"/>
<path d="M31.5314 0.520996H2.46927C1.39323 0.520996 0.520996 1.3933 0.520996 2.46927V4.49133H33.4796V2.46927C33.4796 1.39337 32.6075 0.520996 31.5314 0.520996Z" fill="#059BBF"/>
<path d="M31.5728 23.2509H2.51078C1.43474 23.2509 0.5625 22.3785 0.5625 21.3026V19.2805H33.5212V21.3026C33.5211 22.3785 32.6489 23.2509 31.5728 23.2509Z" fill="#F79F1A"/>
<g opacity="0.15">
<path d="M1.90619 21.3023V2.46927C1.90619 1.39323 2.77843 0.520996 3.85447 0.520996H2.46927C1.39323 0.520996 0.520996 1.3933 0.520996 2.46927V21.3023C0.520996 22.3784 1.39323 23.2507 2.46927 23.2507H3.85447C2.77843 23.2507 1.90619 22.3783 1.90619 21.3023Z" fill="#202121"/>
</g>
</svg>
